<!-- Generator: Adobe Illustrator 23.1.1, SVG Export Plug-In  -->
<svg version="1.1" xmlns="http://www.w3.org/2000/svg" xmlns:xlink="http://www.w3.org/1999/xlink" x="0px" y="0px" width="188.1px"
	 height="102px" viewBox="0 0 188.1 102" style="enable-background:new 0 0 188.1 102;" xml:space="preserve">
<style type="text/css">
	.st0{fill:#FFFFFF;}
	.st1{fill:#635951;}
</style>
<defs>
</defs>
<g id="XMLID_1_">
	<path id="XMLID_91_" class="st0" d="M179.3,36.9c-1-0.5-2.3-1.6-2.8-2.5C164.2,14.4,130.5,0,90.7,0C40.6,0,0,22.8,0,51
		c0,28.2,40.6,51,90.7,51c39.8,0,73.5-14.4,85.8-34.4c0.6-0.9,1.9-2,2.8-2.5c5.2-2.6,8.7-7.9,8.7-14.1S184.5,39.5,179.3,36.9z"/>
	<g id="XMLID_2_">
		<path id="XMLID_87_" class="st1" d="M48.2,12.4l2.1,2l2.1-2l2.4,2.4l-2.4,2.4l-2.1-2.1l-2.1,2.1l-2.4-2.4L48.2,12.4z M57,30.9
			L57,30.9c-0.7,0.2-1.4,0.3-2,0.3c-1.2,0-2.1-0.3-2.8-1c-0.7-0.7-1-1.6-1-2.8c0-0.9,0.3-2.1,0.8-3.7c0.5-1.6,1.2-3,1.8-4
			c0.9-1.4,1.9-2.1,3-2.1c1.3,0,2.2,0.8,3,2.5c0.7,1.7,1.1,4,1.1,6.9c0,2.4-0.5,4.4-1.5,6c-0.7,1.1-1.7,2-2.8,2.7
			c-1.1,0.6-2.4,1-3.6,1c-2,0-3.7-0.7-5-2c-1.3-1.3-2-3-2-5.1c0-1.2,0.2-2.4,0.6-3.6c0.4-1.2,0.8-1.8,1.2-1.8c0.3,0,0.5,0.3,0.5,0.8
			v0.4c0,2.1,0.5,3.9,1.5,5.2c1,1.3,2.4,2,4,2C55,32.4,56,31.9,57,30.9z M58.1,23.2c-0.3-1.4-0.9-2.1-1.8-2.1
			c-0.3,0-0.5,0.1-0.7,0.3c-0.2,0.2-0.3,0.4-0.3,0.7c0,0.3,0.2,0.6,0.6,0.8s1,0.3,1.6,0.3C57.7,23.3,57.9,23.3,58.1,23.2z"/>
		<path id="XMLID_84_" class="st1" d="M73.5,23v8.4H72c-0.5,1.6-1.3,2.9-2.5,3.9c-1.2,1-2.6,1.5-4.1,1.5c-1.3,0-2.5-0.5-3.7-1.5
			c-0.8-0.7-1.2-1.3-1.2-1.8c0-0.3,0.1-0.4,0.3-0.4c0.1,0,0.3,0,0.5,0.1c0.4,0.1,0.8,0.1,1.4,0.1c0.9,0,2-0.2,3.1-0.6
			s2.1-0.9,2.8-1.5l0-0.1c-0.7,0.1-1.3,0.2-1.8,0.2c-2.8,0-4.3-1.3-4.3-3.8c0-1,0.2-2.3,0.6-3.9s0.9-2.8,1.4-3.9
			c1-1.8,2-2.7,3.1-2.7c0.8,0,1.6,0.5,2.4,1.4c0.8,1,1.4,2.3,1.9,3.9L72,23H73.5z M69.1,23c-0.1-0.7-0.3-1.3-0.7-1.7
			c-0.4-0.5-0.8-0.7-1.2-0.7c-0.3,0-0.5,0.1-0.7,0.3c-0.2,0.2-0.3,0.4-0.3,0.7c0,0.4,0.2,0.7,0.7,1c0.5,0.3,1,0.4,1.6,0.4
			C68.7,23.1,68.9,23,69.1,23z"/>
		<path id="XMLID_82_" class="st1" d="M71.4,31.4V23H80v8.4H71.4z"/>
		<path id="XMLID_80_" class="st1" d="M79.3,31.4V23h8.5v8.4H79.3z"/>
		<path id="XMLID_78_" class="st1" d="M87.1,31.4V23h8.5v8.4H87.1z"/>
		<path id="XMLID_76_" class="st1" d="M94.9,31.4V23h8.5v8.4H94.9z"/>
		<path id="XMLID_74_" class="st1" d="M102.8,31.4V23h8.5v8.4H102.8z"/>
		<path id="XMLID_70_" class="st1" d="M110.6,31.4V23h3.6c-0.4-0.6-0.6-1.2-0.6-1.7c0-0.9,0.4-1.7,1.3-2.6s1.8-1.2,2.7-1.2
			c0.9,0,1.7,0.5,2.3,1.6c0.7,1.1,1,2.4,1,3.8h0.6v8.4H110.6z M114.4,11.7l2.1,2.1l2.1-2l2.4,2.4l-2.4,2.4l-2.1-2.1l-2.1,2.1
			l-2.4-2.4L114.4,11.7z M118,23.2c0.4,0,0.6-0.2,0.6-0.6c0-0.4-0.2-0.8-0.5-1.2c-0.3-0.4-0.7-0.6-1-0.6c-0.4,0-0.6,0.2-0.6,0.7
			c0,0.4,0.2,0.8,0.5,1.1C117.3,23,117.6,23.2,118,23.2z"/>
		<path id="XMLID_68_" class="st1" d="M120.8,31.4V23h9.7v0c-1.4-1.1-2.5-1.6-3.5-1.6c-0.6,0-1.3,0.2-2,0.7
			c-0.2,0.1-0.3,0.2-0.4,0.2c-0.3,0-0.4-0.4-0.4-1.1c0-1.1,0.4-2,1.2-2.8c0.8-0.8,1.7-1.2,2.8-1.2c1.6,0,3.1,1,4.7,3.1
			c0.8,1.1,1.5,1.8,1.9,2.1s1.2,0.4,2.1,0.4c0.9,0,1.3,0.2,1.3,0.7c0,0.2,0,0.4-0.1,0.6l-0.2,0.8c0,0.1-0.3,0.8-0.8,2.1
			c-0.1,0.2-0.3,0.7-0.6,1.6c-0.2,0.6-0.4,1.1-0.5,1.4l-0.3,0.8c-0.1,0.3-0.4,0.5-1,0.5H120.8z"/>
		<path id="XMLID_66_" class="st1" d="M24.8,51.3c0,2.3-0.7,4.2-2,5.6c-1.3,1.5-3.1,2.2-5.2,2.2c-1.9,0-3.5-0.7-4.9-2
			c-1.3-1.4-2-3-2-5c0-2.1,0.6-3.9,1.9-5.5c0.5-0.6,0.8-0.8,1.1-0.8c0.2,0,0.3,0.1,0.3,0.3c0,0,0,0.1,0,0.1L14,46.6
			c0,0.2-0.1,0.4-0.1,0.7c0,1.1,0.3,1.9,1,2.6c0.6,0.7,1.4,1.1,2.4,1.1c1,0,1.8-0.3,2.5-0.9c0.7-0.6,1.1-1.3,1.1-2.1
			c0-1.2-0.4-4-1.3-8.4l-0.3-1.4c0-0.2,0-0.3,0-0.5c0-0.3,0.5-0.9,1.5-1.7c1-0.8,1.7-1.3,2-1.3c0.4,0,0.8,0.9,1.2,2.6l0.2,0.6
			c0.1,0.2,0.1,0.4,0.1,0.5c0,0.1,0,0.1-0.1,0.2L24,38.8l-0.2,0.2c-0.2,0.2-0.4,0.4-0.4,0.6c0,0.1,0,0.3,0.1,0.6l0.3,2.1l0.3,2.3
			C24.6,47.8,24.8,50,24.8,51.3z"/>
		<path id="XMLID_64_" class="st1" d="M33.8,45.5v8.4h-4.2c-1.6,0-2.4-0.5-2.4-1.6L27,36.8c0-0.3,0.1-0.5,0.3-0.7
			c0.2-0.2,0.7-0.4,1.4-0.7l0.7-0.3l0.6-0.3c0.4-0.2,0.7-0.3,0.9-0.3c0.3,0,0.5,0.2,0.5,0.6l-0.1,9.8c0,0.4,0.2,0.6,0.5,0.6H33.8z"
			/>
		<path id="XMLID_62_" class="st1" d="M33,53.9v-8.4h8.5v8.4H33z"/>
		<path id="XMLID_60_" class="st1" d="M40.9,53.9v-8.4h8.5v8.4H40.9z"/>
		<path id="XMLID_58_" class="st1" d="M48.7,53.9v-8.4h8.5v8.4H48.7z"/>
		<path id="XMLID_56_" class="st1" d="M56.5,53.9v-8.4H65v8.4H56.5z"/>
		<path id="XMLID_54_" class="st1" d="M64.4,53.9v-8.4h8.5v8.4H64.4z"/>
		<path id="XMLID_52_" class="st1" d="M72.2,53.9v-8.4h8.5v8.4H72.2z"/>
		<path id="XMLID_50_" class="st1" d="M80,53.9v-8.4h8.5v8.4H80z"/>
		<path id="XMLID_48_" class="st1" d="M87.8,53.9v-8.4h8.5v8.4H87.8z"/>
		<path id="XMLID_46_" class="st1" d="M95.7,53.9v-8.4h8.5v8.4H95.7z"/>
		<path id="XMLID_44_" class="st1" d="M103.5,53.9v-8.4h8.5v8.4H103.5z"/>
		<path id="XMLID_42_" class="st1" d="M111.3,53.9v-8.4h8.5v8.4H111.3z"/>
		<path id="XMLID_39_" class="st1" d="M119.2,45.5h4.5c1.3,0,2.1-0.7,2.5-2c0.1-0.2,0.2-0.4,0.3-0.4l0.2,0l0.2,0
			c0.2,0,0.3,0.1,0.3,0.2l0,0.2c0.4,1.3,1.2,2,2.4,2h4v8.4h-4c-1.2,0-2.1-0.5-2.9-1.5c-0.7,1-1.7,1.5-2.9,1.5h-4.6V45.5z
			 M128.7,54.9l2.3,2.4l-2.3,2.4l-2.1-2.1l-2.1,2.1l-2.4-2.4l2.4-2.4l2.1,2L128.7,54.9z"/>
		<path id="XMLID_36_" class="st1" d="M132.8,53.9v-8.4h9.7v0c-1.4-1.1-2.5-1.6-3.5-1.6c-0.6,0-1.3,0.2-2,0.7
			c-0.2,0.1-0.3,0.2-0.4,0.2c-0.3,0-0.4-0.4-0.4-1.1c0-1.1,0.4-2,1.2-2.8c0.8-0.8,1.7-1.2,2.8-1.2c1.6,0,3.1,1,4.7,3.1
			c0.8,1.1,1.5,1.8,1.9,2.1s1.2,0.4,2.1,0.4c0.9,0,1.3,0.2,1.3,0.7c0,0.2,0,0.4-0.1,0.6l-0.2,0.8c0,0.1-0.3,0.8-0.8,2.1
			c-0.1,0.2-0.3,0.7-0.6,1.6c-0.2,0.6-0.4,1.1-0.5,1.4l-0.3,0.8c-0.1,0.3-0.4,0.5-1,0.5H132.8z M140.7,55.8l2.4,2.5l-2.4,2.4
			l-2.4-2.4L140.7,55.8z"/>
		<path id="XMLID_32_" class="st1" d="M151.2,32.1c0.2,0.1,0.5,0.2,0.9,0.2c0,0,0.1,0,0.2,0c-0.5-0.6-0.8-1-0.8-1.3
			c0-0.4,0.2-0.8,0.7-1.2s0.9-0.5,1.5-0.5c0.4,0,0.8,0.1,1,0.4c0.3,0.3,0.4,0.6,0.4,1c0,0.3-0.1,0.5-0.2,0.5c-0.1,0-0.1,0-0.3-0.1
			c-0.3-0.1-0.6-0.2-0.8-0.2c-0.5,0-0.8,0.1-0.8,0.4c0,0.2,0.1,0.4,0.3,0.5s0.4,0.2,0.7,0.2c0.2,0,0.5-0.1,0.9-0.2c0,0,0.1,0,0.1,0
			c0.2,0.2,0.3,0.4,0.3,0.7c0,0.4-0.2,0.7-0.7,0.9c-0.5,0.2-1,0.4-1.7,0.4c-0.5,0-1-0.1-1.5-0.2c-0.5-0.1-0.8-0.3-0.8-0.4v0
			C150.8,32.9,150.9,32.6,151.2,32.1z M157.1,42.8l-1.5-1.5c-0.6-0.6-1.1-1-1.5-1c-0.1,0-0.2,0-0.4,0c-0.1,0-0.2,0-0.2,0
			c-0.3,0-0.8-0.3-1.5-1c-0.7-0.6-1.1-1.1-1.1-1.4c0-0.2,0.1-0.6,0.4-1.1l0.4-0.7c0.5-0.9,0.8-1.3,1.1-1.3c0.2,0,0.6,0.3,1.1,0.8
			l1,0.8c0.9,0.8,1.8,1.6,2.7,2.5c0.3,0.3,0.5,0.5,0.7,0.7c0-0.1,0-0.2,0-0.3l0-0.6c0-0.3,0-0.5,0-0.7c0-0.5-0.1-1-0.2-1.7
			c0-0.1,0-0.2,0-0.2c0-0.2,0.2-0.4,0.5-0.5l2.4-1c0.3-0.1,0.5-0.2,0.6-0.2c0.2,0,0.3,0.1,0.4,0.3l0.8,2.8c0,0.1,0,0.2,0,0.2
			c0,0.1-0.1,0.2-0.2,0.3l-0.4,0.3c0,0-0.1,0.1-0.1,0.1c-0.5,1.9-1,3.2-1.5,4c1.3,1.6,2,2.7,2,3.4v7.3c0,0.4-0.2,0.6-0.5,0.6h-9.2
			c-0.4,0-0.6-0.2-0.6-0.6v-5.4c0-0.8,0.1-1.4,0.4-1.8c0.3-0.4,0.8-0.8,1.7-1.3c1.1-0.6,2-1.2,2.6-2L157.1,42.8z M159,44.6l-1.4,1.1
			c0.4,0.2,0.8,0.2,1.4,0.2c0.5,0,0.8,0,1.1-0.1L159,44.6z"/>
		<path id="XMLID_30_" class="st1" d="M169.3,43.8c0,2.3-0.1,4.1-0.2,5.5l-0.1,1.5c0,0.5-0.1,0.8-0.2,0.9c-0.1,0.1-0.4,0.4-1.1,1
			c-1,1-1.7,1.5-1.9,1.5c-0.1,0-0.1-0.1-0.2-0.3l0-0.3c0-0.2,0-0.3,0-0.5l0-0.8l0-1.1l-0.1-3.8l-0.1-1.9c0-0.3-0.1-1.1-0.2-2.4
			l-0.2-2l-0.2-2.3l0-0.6c0-0.2,0-0.3,0-0.4c0-0.1,0-0.2,0-0.3c0-0.2,0.3-0.5,1-0.8l1.5-0.7l0.9-0.4c0.5-0.2,0.7-0.3,0.8-0.3
			c0.2,0,0.4,0.3,0.6,0.8l0.2,0.7c0,0.2,0.1,0.5,0.2,1.1l0.3,1.2c0.1,0.4,0.1,0.7,0.2,0.8c0,0.2,0.1,0.3,0.1,0.3c0,0.1,0,0.1,0,0.2
			c0,0.1-0.3,0.3-0.9,0.6c-0.3,0.1-0.4,0.2-0.4,0.4l0,0.6L169.3,43.8z"/>
		<path id="XMLID_26_" class="st1" d="M54.7,76v8.4h-0.4c-1.6,0-2.7-0.2-3.3-0.6c-0.7-0.4-1.3-1.3-1.8-2.6c-0.2-0.4-0.3-0.6-0.4-0.6
			s-0.3,0.3-0.7,0.8L47.9,82l-0.3,0.4c-0.4,0.5-0.7,0.8-0.9,0.8c-0.1,0-0.3-0.1-0.7-0.3c-2.9-1.7-4.3-2.7-4.3-3
			c0-0.2,0.3-0.8,0.8-1.7s0.9-1.7,1.2-2.1c0.3-0.4,1.5-1.4,3.4-2.8c0.3-0.3,0.7-0.5,0.9-0.7V72l2.3-1.5v0.7c0,1.7,0.2,2.9,0.6,3.7
			c0.4,0.8,1,1.1,1.9,1.1L54.7,76z M51.9,65.2l2.4,2.4L51.9,70l-2.1-2.1L47.7,70l-2.5-2.4l2.4-2.4l2.2,2.2L51.9,65.2z M48.7,76.5
			c0-0.8-0.1-1.2-0.3-1.2c-0.2,0-0.5,0.3-1,0.8c-0.5,0.5-0.7,0.9-0.7,1.1c0,0.1,0.2,0.2,0.5,0.4c0.3,0.2,0.6,0.2,0.8,0.2
			C48.4,77.7,48.7,77.3,48.7,76.5z"/>
		<path id="XMLID_24_" class="st1" d="M53.9,84.5V76h8.5v8.4H53.9z"/>
		<path id="XMLID_22_" class="st1" d="M59.8,84.5V76h8.5v8.4H59.8z"/>
		<path id="XMLID_20_" class="st1" d="M67.7,84.5V76h8.5v8.4H67.7z"/>
		<path id="XMLID_18_" class="st1" d="M75.5,84.5V76H84v8.4H75.5z"/>
		<path id="XMLID_15_" class="st1" d="M83.3,84.5V76h1.3c0.5,0,1.2-0.6,2.1-1.7c0.7-0.9,1.3-1.5,1.6-1.8c0.4-0.3,0.8-0.5,1.3-0.5
			s0.9,0.2,1.4,0.5c0.4,0.4,1.1,1,1.9,2.1c0.6,0.7,1.1,1.1,1.7,1.4c-0.1,2.4-0.7,4.8-1.8,7c-1,2.3-2.1,3.4-3,3.4
			c-0.4,0-0.9-0.2-1.4-0.5l-0.9-0.6c-0.9-0.6-1.7-0.9-2.3-0.9H83.3z M89.7,75.5c-0.3,0-0.7,0.1-0.9,0.3s-0.4,0.4-0.4,0.6
			c0,0.1,0.1,0.2,0.3,0.2l0.3,0.1l0.4,0.1c0.3,0.1,0.6,0.2,1,0.4c0.2,0.1,0.4,0.2,0.4,0.2c0.3,0,0.4-0.2,0.4-0.5
			c0-0.3-0.2-0.6-0.5-1C90.4,75.6,90.1,75.5,89.7,75.5z"/>
		<path id="XMLID_13_" class="st1" d="M106,76.5V83c0,0.5-0.5,0.8-1.4,1.1c-0.9,0.3-2.2,0.4-3.8,0.4c-1.8,0-3-0.2-3.8-0.7
			c-0.8-0.5-1.2-1.2-1.2-2.3v-4.7c0-0.4,0.2-0.5,0.5-0.5c0.1,0,0.1,0,0.3,0l0.4,0l0.9,0.1c0.5,0,1.2,0.1,2,0.1
			c1.6,0,2.3-0.2,2.3-0.7c0-0.3-0.2-0.6-0.6-1.1c-0.4-0.5-0.8-0.9-1.3-1.1l-0.3-0.2c-0.2-0.1-0.3-0.2-0.4-0.2
			c-0.2-0.1-0.3-0.2-0.3-0.3c0-0.3,0.3-0.8,1-1.4c0.7-0.7,1.2-1,1.5-1c0.3,0,0.9,0.4,1.6,1.2c0.6,0.7,1.2,1.5,1.7,2.5
			c0.5,1,0.8,1.7,0.8,2.1V76.5z"/>
		<path id="XMLID_11_" class="st1" d="M114.9,76v8.4h-4.2c-1.6,0-2.4-0.5-2.4-1.6L108,67.4c0-0.3,0.1-0.5,0.3-0.7
			c0.2-0.2,0.7-0.4,1.4-0.7l0.7-0.3l0.6-0.3c0.4-0.2,0.7-0.3,0.9-0.3c0.3,0,0.5,0.2,0.5,0.6l-0.1,9.8c0,0.4,0.2,0.6,0.5,0.6H114.9z"
			/>
		<path id="XMLID_7_" class="st1" d="M114.2,84.5V76h3.6c-0.4-0.6-0.6-1.2-0.6-1.7c0-0.9,0.4-1.7,1.3-2.6s1.8-1.2,2.7-1.2
			c0.9,0,1.7,0.5,2.3,1.6c0.7,1.1,1,2.4,1,3.8h0.6v8.4H114.2z M118,64.8l2.1,2.1l2.1-2l2.4,2.4l-2.4,2.4l-2.1-2.1l-2.1,2.1l-2.4-2.4
			L118,64.8z M121.6,76.2c0.4,0,0.6-0.2,0.6-0.6c0-0.4-0.2-0.8-0.5-1.2c-0.3-0.4-0.7-0.6-1-0.6c-0.4,0-0.6,0.2-0.6,0.7
			c0,0.4,0.2,0.8,0.5,1.1C120.9,76.1,121.2,76.2,121.6,76.2z"/>
		<path id="XMLID_5_" class="st1" d="M124.3,84.5V76h3.2c0.5,0,0.8-0.1,0.8-0.3c0,0,0-0.1,0-0.1l-0.4-2.1l-0.4-2
			c-0.2-0.9-0.3-1.5-0.3-1.9l-0.1-0.7c0-0.2,0-0.4,0-0.5c0-0.3,0.5-0.9,1.5-1.8s1.7-1.3,2-1.3c0.2,0,0.5,0.4,0.8,1.1
			c0.3,0.7,0.5,1.4,0.7,2.2l0,0.3c0,0.1,0,0.2,0,0.2c0,0.1-0.1,0.2-0.3,0.4c-0.3,0.3-0.5,0.5-0.5,0.8c0,0.2,0,0.6,0.1,0.9
			c0.1,0.6,0.2,1.2,0.3,1.9c0.1,1,0.2,1.6,0.3,1.8c0.1,0.5,0.1,0.9,0.1,1v7.3c0,0.8-0.2,1.1-0.6,1.1H124.3z"/>
		<path id="XMLID_3_" class="st1" d="M138.4,74.3c0,2.3-0.1,4.1-0.2,5.5l-0.1,1.5c0,0.5-0.1,0.8-0.2,0.9c-0.1,0.1-0.4,0.4-1.1,1
			c-1,1-1.7,1.5-1.9,1.5c-0.1,0-0.1-0.1-0.2-0.3l0-0.3c0-0.2,0-0.3,0-0.5l0-0.8l0-1.1l-0.1-3.8l-0.1-1.9c0-0.3-0.1-1.1-0.2-2.4
			l-0.2-2l-0.2-2.3l0-0.6c0-0.2,0-0.3,0-0.4c0-0.1,0-0.2,0-0.3c0-0.2,0.3-0.5,1-0.8l1.5-0.7l0.9-0.4c0.5-0.2,0.7-0.3,0.8-0.3
			c0.2,0,0.4,0.3,0.6,0.8l0.2,0.7c0,0.2,0.1,0.5,0.2,1.1l0.3,1.2c0.1,0.4,0.1,0.7,0.2,0.8c0,0.2,0.1,0.3,0.1,0.3c0,0.1,0,0.1,0,0.2
			c0,0.1-0.3,0.3-0.9,0.6c-0.3,0.1-0.4,0.2-0.4,0.4l0,0.6L138.4,74.3z"/>
	</g>
</g>
</svg>
