<!-- Generator: Adobe Illustrator 23.1.1, SVG Export Plug-In  -->
<svg version="1.1" xmlns="http://www.w3.org/2000/svg" xmlns:xlink="http://www.w3.org/1999/xlink" x="0px" y="0px" width="203.2px"
	 height="104.9px" viewBox="0 0 203.2 104.9" style="enable-background:new 0 0 203.2 104.9;" xml:space="preserve">
<style type="text/css">
	.st0{fill:#FFFFFF;}
	.st1{fill:#F6E948;}
</style>
<defs>
</defs>
<g id="XMLID_1_">
	<path id="XMLID_28_" class="st0" d="M200.7,49.3L4.1,0.1C2-0.4,0,1.2,0,3.3v98.3c0,2.1,2,3.7,4.1,3.2l196.6-49.2
		C204.1,54.8,204.1,50.1,200.7,49.3z"/>
	<g id="XMLID_2_">
		<g>
			<path id="XMLID_13_" class="st1" d="M13.6,40.4v8.7c0,1.7,0.1,2.7,0.3,3.2c0.2,0.4,0.6,0.8,1.1,1c0.5,0.3,1.5,0.4,2.9,0.4v0.8H2
				v-0.8c1.4,0,2.4-0.1,2.9-0.4c0.5-0.3,0.9-0.6,1.1-1c0.2-0.4,0.3-1.5,0.3-3.2V29c0-1.7-0.1-2.7-0.3-3.2c-0.2-0.4-0.6-0.8-1.1-1
				c-0.5-0.3-1.5-0.4-2.9-0.4v-0.8h14.4c3.7,0,6.5,0.3,8.2,0.8c1.7,0.5,3.2,1.5,4.3,2.9c1.1,1.4,1.6,3,1.6,4.9
				c0,2.3-0.8,4.2-2.5,5.7c-1.1,0.9-2.5,1.7-4.4,2.1l7.5,10.5c1,1.4,1.7,2.2,2.1,2.5c0.6,0.5,1.3,0.7,2.2,0.8v0.8h-9.8l-10-14.1
				H13.6z M13.6,25.2v13.6h1.3c2.1,0,3.7-0.2,4.8-0.6c1.1-0.4,1.9-1.1,2.5-2.1c0.6-1,0.9-2.3,0.9-4c0-2.4-0.6-4.1-1.7-5.2
				c-1.1-1.1-2.9-1.7-5.3-1.7H13.6z"/>
			<path id="XMLID_11_" class="st1" d="M85.1,22.9v10.9h-0.8c-1-3-2.6-5.3-4.6-6.8c-2-1.6-4.3-2.3-6.7-2.3c-2.3,0-4.2,0.7-5.8,2
				c-1.5,1.3-2.6,3.1-3.3,5.5c-0.6,2.3-1,4.7-1,7.2c0,3,0.4,5.6,1.1,7.8c0.7,2.2,1.8,3.9,3.4,4.9c1.6,1.1,3.4,1.6,5.6,1.6
				c0.7,0,1.5-0.1,2.3-0.2c0.8-0.2,1.6-0.4,2.4-0.7v-6.4c0-1.2-0.1-2-0.3-2.4c-0.2-0.4-0.5-0.7-1-1c-0.5-0.3-1.2-0.4-1.9-0.4h-0.8
				v-0.8h15.1v0.8c-1.1,0.1-1.9,0.2-2.4,0.5c-0.4,0.2-0.8,0.6-1,1.2c-0.1,0.3-0.2,1-0.2,2.1v6.4c-2,0.9-4,1.6-6.2,2
				c-2.1,0.4-4.4,0.7-6.7,0.7c-2.9,0-5.4-0.4-7.3-1.2c-1.9-0.8-3.7-1.9-5.1-3.2c-1.5-1.3-2.6-2.8-3.5-4.4c-1.1-2.1-1.6-4.5-1.6-7.1
				c0-4.7,1.6-8.6,4.9-11.8c3.3-3.2,7.4-4.8,12.4-4.8c1.5,0,2.9,0.1,4.2,0.4c0.7,0.1,1.8,0.5,3.3,1c1.5,0.6,2.4,0.9,2.7,0.9
				c0.4,0,0.8-0.2,1.2-0.5c0.4-0.3,0.7-0.9,1-1.8H85.1z"/>
			<path id="XMLID_8_" class="st1" d="M107,43.1H95.3c0.1,2.8,0.9,5.1,2.3,6.7c1.1,1.3,2.3,1.9,3.8,1.9c0.9,0,1.7-0.3,2.5-0.8
				c0.7-0.5,1.5-1.4,2.4-2.8l0.8,0.5c-1.2,2.4-2.4,4-3.8,5c-1.4,1-3,1.5-4.9,1.5c-3.2,0-5.6-1.2-7.2-3.7c-1.3-2-2-4.4-2-7.3
				c0-3.6,1-6.4,2.9-8.5c1.9-2.1,4.2-3.2,6.8-3.2c2.2,0,4,0.9,5.6,2.7C106,37,106.9,39.6,107,43.1z M101.4,41.6
				c0-2.5-0.1-4.1-0.4-5.1c-0.3-0.9-0.7-1.6-1.2-2.1C99.4,34.2,99,34,98.5,34c-0.8,0-1.4,0.4-1.9,1.2c-0.9,1.4-1.3,3.2-1.3,5.6v0.8
				H101.4z"/>
			<path id="XMLID_6_" class="st1" d="M116.6,33.2V36c1.1-1.2,2.1-2.1,3.2-2.6c1-0.5,2.1-0.8,3.2-0.8c1.4,0,2.5,0.4,3.5,1.2
				c0.9,0.8,1.5,1.7,1.8,2.9c0.2,0.9,0.4,2.5,0.4,5v8.3c0,1.6,0.1,2.7,0.4,3.1c0.3,0.4,0.9,0.7,1.9,0.8v0.8h-10.8v-0.8
				c0.8-0.1,1.4-0.4,1.7-1c0.2-0.4,0.4-1.3,0.4-2.8v-9.5c0-1.8-0.1-2.9-0.2-3.3c-0.1-0.5-0.4-0.8-0.7-1.1c-0.3-0.3-0.7-0.4-1.1-0.4
				c-1.3,0-2.5,0.9-3.7,2.8v11.5c0,1.6,0.1,2.6,0.4,3c0.3,0.4,0.8,0.7,1.7,0.8v0.8h-10.8v-0.8c0.9-0.1,1.5-0.4,1.9-0.9
				c0.3-0.3,0.4-1.3,0.4-3V37.8c0-1.6-0.1-2.6-0.4-3c-0.3-0.4-0.9-0.7-1.9-0.8v-0.8H116.6z"/>
			<path id="XMLID_4_" class="st1" d="M45.4,61.1v12.7h0.9c1.4,0,2.5-0.2,3.4-0.6c0.9-0.4,1.6-1.1,2.2-2.1c0.6-1,1-2.3,1.2-4h0.8
				v15.6h-0.8c-0.3-2.9-1.1-4.9-2.4-5.8c-1.3-0.9-2.7-1.4-4.4-1.4h-0.9V85c0,1.6,0.1,2.6,0.3,3c0.2,0.4,0.5,0.7,1,1
				c0.5,0.3,1.2,0.4,2.1,0.4h1v0.8H33.6v-0.8h1c0.9,0,1.6-0.2,2.2-0.5c0.4-0.2,0.7-0.6,0.9-1.1c0.2-0.4,0.3-1.3,0.3-2.9V64.6
				c0-1.6-0.1-2.6-0.3-3c-0.2-0.4-0.5-0.7-1-1c-0.5-0.3-1.2-0.4-2.1-0.4h-1v-0.8h26.2v8.9h-0.9c-0.2-2.1-0.8-3.6-1.6-4.6
				c-0.9-1-2.1-1.7-3.8-2.1c-0.9-0.2-2.6-0.3-5.1-0.3H45.4z"/>
		</g>
	</g>
</g>
</svg>
