<!-- Generator: Adobe Illustrator 23.1.1, SVG Export Plug-In  -->
<svg version="1.1" xmlns="http://www.w3.org/2000/svg" xmlns:xlink="http://www.w3.org/1999/xlink" x="0px" y="0px" width="181.4px"
	 height="90.7px" viewBox="0 0 181.4 90.7" style="enable-background:new 0 0 181.4 90.7;" xml:space="preserve">
<style type="text/css">
	.st0{fill:#FF4637;}
	.st1{fill:#F6E948;}
	.st2{fill:#1D1D1B;}
</style>
<defs>
</defs>
<g id="XMLID_1_">
	<path id="XMLID_168_" class="st0" d="M102,0L102,0c0,6.3-5.1,11.3-11.3,11.3c-6.3,0-11.3-5.1-11.3-11.3l0,0H0v90.7h79.4l0,0
		c0-6.3,5.1-11.3,11.3-11.3c6.3,0,11.3,5.1,11.3,11.3l0,0h79.4V0H102z"/>
	<g id="XMLID_107_">
		<g>
			<path class="st1" d="M55.5,12.8h9.2c3.1,0,5,2.1,5,4.7c0,2-0.8,3.5-2.7,4.3v0c1.8,0.5,2.4,2.3,2.5,4c0.1,1.1,0,3.1,0.7,4.1h-3.8
				c-0.5-1.1-0.4-2.7-0.6-4.1c-0.3-1.8-1-2.6-2.9-2.6h-3.8V30h-3.8V12.8z M59.3,20.6h4.1c1.7,0,2.6-0.7,2.6-2.4
				c0-1.7-0.9-2.4-2.6-2.4h-4.1V20.6z"/>
			<path class="st1" d="M76,15.6h-3.4v-2.8H76V15.6z M72.6,17.5H76V30h-3.4V17.5z"/>
			<path class="st1" d="M90.6,29.2c0,2-0.7,5.5-6.4,5.5c-2.4,0-5.3-1.2-5.5-4h3.4c0.3,1.3,1.3,1.7,2.5,1.7c1.9,0,2.8-1.3,2.7-3.1
				v-1.6h0c-0.7,1.3-2.2,1.9-3.7,1.9c-3.7,0-5.3-2.8-5.3-6.2c0-3.2,1.8-6.1,5.3-6.1c1.6,0,2.9,0.6,3.7,2h0v-1.7h3.2V29.2z
				 M87.3,23.6c0-2-0.7-3.8-2.9-3.8c-1.9,0-2.8,1.7-2.8,3.5c0,1.8,0.7,3.7,2.8,3.7C86.4,27,87.3,25.4,87.3,23.6z"/>
			<path class="st1" d="M93.3,12.8h3.4v6.5h0.1c0.9-1.4,2.4-2.1,3.6-2.1c3.6,0,4.5,2,4.5,5.1V30h-3.4v-7c0-2-0.6-3-2.2-3
				c-1.8,0-2.6,1-2.6,3.6V30h-3.4V12.8z"/>
			<path class="st1" d="M111.9,17.5h2.5v2.3h-2.5V26c0,1.2,0.3,1.4,1.4,1.4c0.4,0,0.7,0,1.1-0.1V30c-0.6,0.1-1.3,0.1-2,0.1
				c-2.1,0-3.9-0.5-3.9-3v-7.3h-2.1v-2.3h2.1v-3.7h3.4V17.5z"/>
			<path class="st1" d="M118.6,25.9c0,1.5,1.3,2.1,2.6,2.1c1,0,2.2-0.4,2.2-1.6c0-1-1.4-1.4-3.9-1.9c-2-0.4-3.9-1.1-3.9-3.3
				c0-3.2,2.7-4,5.4-4c2.7,0,5.2,0.9,5.5,4h-3.2c-0.1-1.3-1.1-1.7-2.3-1.7c-0.8,0-1.9,0.1-1.9,1.2c0,1.2,1.9,1.4,3.9,1.8
				c2,0.5,3.9,1.2,3.9,3.5c0,3.3-2.8,4.3-5.7,4.3c-2.9,0-5.7-1.1-5.8-4.4H118.6z"/>
			<path class="st1" d="M46.5,40.2c3.9,0,6.4,2.6,6.4,6.6c0,3.9-2.5,6.5-6.4,6.5c-3.9,0-6.4-2.6-6.4-6.5
				C40,42.8,42.6,40.2,46.5,40.2z M46.5,50.7c2.3,0,3-2,3-4c0-2-0.7-4-3-4c-2.3,0-3,2-3,4C43.5,48.7,44.2,50.7,46.5,50.7z"/>
			<path class="st1" d="M55.8,42.8h-2v-2.3h2v-1c0-2.2,1.4-3.8,4.2-3.8c0.6,0,1.2,0.1,1.8,0.1v2.5c-0.4,0-0.8-0.1-1.2-0.1
				c-0.9,0-1.3,0.4-1.3,1.4v0.7h2.4v2.3h-2.4V53h-3.4V42.8z"/>
			<path class="st1" d="M70.1,35.8h12V39h-8.3v4h7.2v2.9h-7.2V53h-3.8V35.8z"/>
			<path class="st1" d="M95.6,53h-3.2v-1.7h-0.1c-0.9,1.4-2.4,2.1-3.8,2.1c-3.6,0-4.5-2-4.5-5.1v-7.6h3.4v7c0,2,0.6,3,2.2,3
				c1.8,0,2.6-1,2.6-3.6v-6.5h3.4V53z"/>
			<path class="st1" d="M102.5,40.5h2.5v2.3h-2.5V49c0,1.2,0.3,1.4,1.4,1.4c0.4,0,0.7,0,1.1-0.1V53c-0.6,0.1-1.3,0.1-2,0.1
				c-2.1,0-3.9-0.5-3.9-3v-7.3h-2.1v-2.3h2.1v-3.7h3.4V40.5z"/>
			<path class="st1" d="M118.3,53h-3.2v-1.7H115c-0.9,1.4-2.4,2.1-3.8,2.1c-3.6,0-4.5-2-4.5-5.1v-7.6h3.4v7c0,2,0.6,3,2.2,3
				c1.8,0,2.6-1,2.6-3.6v-6.5h3.4V53z"/>
			<path class="st1" d="M120.9,40.5h3.2v2.3h0c0.6-1.6,2.3-2.6,4-2.6c0.2,0,0.5,0,0.7,0.1v3.2c-0.3-0.1-0.8-0.1-1.2-0.1
				c-2.5,0-3.4,1.8-3.4,4V53h-3.4V40.5z"/>
			<path class="st1" d="M132.6,47.6c0.1,2.2,1.2,3.1,3,3.1c1.4,0,2.5-0.8,2.7-1.6h3c-1,2.9-3,4.2-5.8,4.2c-3.9,0-6.3-2.7-6.3-6.5
				c0-3.7,2.6-6.6,6.3-6.6c4.2,0,6.3,3.6,6,7.4H132.6z M138.2,45.4c-0.3-1.7-1.1-2.6-2.7-2.6c-2.2,0-2.8,1.7-2.8,2.6H138.2z"/>
			<path class="st1" d="M35,72c-1.3,1.7-3,2.4-4.7,2.4c-5.3,0-8.4-4-8.4-8.9c0-5.1,3.1-9,8.4-9c3.5,0,6.8,2.2,7.2,6h-3.6
				c-0.4-1.9-1.8-2.9-3.6-2.9c-3.4,0-4.7,2.9-4.7,5.9c0,2.9,1.3,5.7,4.7,5.7c2.4,0,3.9-1.3,4.1-3.7h-3.8v-2.8h7.2V74h-2.4L35,72z"/>
			<path class="st1" d="M43.3,68.6c0.1,2.2,1.2,3.1,3,3.1c1.4,0,2.5-0.8,2.7-1.6h3c-1,2.9-3,4.2-5.8,4.2c-3.9,0-6.3-2.7-6.3-6.5
				c0-3.7,2.6-6.6,6.3-6.6c4.2,0,6.3,3.6,6,7.4H43.3z M48.8,66.4c-0.3-1.7-1.1-2.6-2.7-2.6c-2.2,0-2.8,1.7-2.8,2.6H48.8z"/>
			<path class="st1" d="M54.2,61.5h3.2v1.7h0.1c0.9-1.4,2.4-2.1,3.8-2.1c3.6,0,4.5,2,4.5,5.1V74h-3.4v-7c0-2-0.6-3-2.2-3
				c-1.8,0-2.6,1-2.6,3.6V74h-3.4V61.5z"/>
			<path class="st1" d="M71.3,68.6c0.1,2.2,1.2,3.1,3,3.1c1.4,0,2.5-0.8,2.7-1.6h3c-1,2.9-3,4.2-5.8,4.2c-3.9,0-6.3-2.7-6.3-6.5
				c0-3.7,2.6-6.6,6.3-6.6c4.2,0,6.3,3.6,6,7.4H71.3z M76.8,66.4c-0.3-1.7-1.1-2.6-2.7-2.6c-2.2,0-2.8,1.7-2.8,2.6H76.8z"/>
			<path class="st1" d="M82.2,61.5h3.2v2.3h0c0.6-1.6,2.3-2.6,4-2.6c0.2,0,0.5,0,0.7,0.1v3.2c-0.3-0.1-0.8-0.1-1.2-0.1
				c-2.5,0-3.4,1.8-3.4,4V74h-3.4V61.5z"/>
			<path class="st1" d="M91.4,65.4c0.2-3.2,3-4.2,5.8-4.2c2.5,0,5.4,0.6,5.4,3.5v6.5c0,1.1,0.1,2.3,0.4,2.8h-3.5
				c-0.1-0.4-0.2-0.8-0.2-1.2c-1.1,1.1-2.7,1.5-4.2,1.5c-2.4,0-4.2-1.2-4.2-3.7c0-2.8,2.1-3.5,4.2-3.8c2.1-0.3,4-0.2,4-1.6
				c0-1.5-1-1.7-2.2-1.7c-1.3,0-2.1,0.5-2.3,1.9H91.4z M99.3,67.9c-0.6,0.5-1.8,0.5-2.8,0.7c-1.1,0.2-2,0.6-2,1.8
				c0,1.3,1,1.6,2.1,1.6c2.7,0,2.8-2.1,2.8-2.9V67.9z"/>
			<path class="st1" d="M109.7,61.5h2.5v2.3h-2.5V70c0,1.2,0.3,1.4,1.4,1.4c0.4,0,0.7,0,1.1-0.1V74c-0.6,0.1-1.3,0.1-2,0.1
				c-2.1,0-3.9-0.5-3.9-3v-7.3h-2.1v-2.3h2.1v-3.7h3.4V61.5z"/>
			<path class="st1" d="M117.3,59.6h-3.4v-2.8h3.4V59.6z M113.9,61.5h3.4V74h-3.4V61.5z"/>
			<path class="st1" d="M126,61.2c3.9,0,6.4,2.6,6.4,6.6c0,3.9-2.5,6.5-6.4,6.5c-3.9,0-6.4-2.6-6.4-6.5
				C119.6,63.8,122.1,61.2,126,61.2z M126,71.7c2.3,0,3-2,3-4c0-2-0.7-4-3-4c-2.3,0-3,2-3,4C123,69.7,123.7,71.7,126,71.7z"/>
			<path class="st1" d="M134.7,61.5h3.2v1.7h0.1c0.9-1.4,2.4-2.1,3.8-2.1c3.6,0,4.5,2,4.5,5.1V74h-3.4v-7c0-2-0.6-3-2.2-3
				c-1.8,0-2.6,1-2.6,3.6V74h-3.4V61.5z"/>
			<path class="st1" d="M151.5,69.9c0,1.5,1.3,2.1,2.6,2.1c1,0,2.2-0.4,2.2-1.6c0-1-1.4-1.4-3.9-1.9c-2-0.4-3.9-1.1-3.9-3.3
				c0-3.2,2.7-4,5.4-4c2.7,0,5.2,0.9,5.5,4h-3.2c-0.1-1.3-1.1-1.7-2.3-1.7c-0.8,0-1.9,0.1-1.9,1.2c0,1.2,1.9,1.4,3.9,1.8
				c2,0.5,3.9,1.2,3.9,3.5c0,3.3-2.8,4.3-5.7,4.3c-2.9,0-5.7-1.1-5.8-4.4H151.5z"/>
		</g>
	</g>
	<g id="XMLID_2_">
		<path id="XMLID_103_" class="st2" d="M73.7,26.2c0,1.7-0.1,2.8-0.3,3.3s-0.6,1.1-1.3,1.7c-1.5,1.2-3.7,1.8-6.5,1.8
			c-2.4,0-4.2-0.4-5.5-1.2c-1.3-0.8-1.9-1.9-1.9-3.3c0-1.3,0.2-2.4,0.6-3.4c0.4-1.1,1.2-2.5,2.4-4.2l0.8,0.5
			c-0.8,1.1-1.3,2.1-1.7,2.9s-0.5,1.5-0.5,2.3c0,1,0.5,1.8,1.6,2.4c1.1,0.6,2.6,0.9,4.5,0.9c1.8,0,3.3-0.3,4.7-1
			c1.3-0.7,2-1.5,2-2.3c0-0.1,0-0.2,0-0.3c0-0.1,0-0.3-0.1-0.4c-0.9,0.1-1.6,0.1-2,0.1c-0.9,0-1.7-0.2-2.2-0.7
			c-0.5-0.5-0.8-1.1-0.8-2c0-1.3,0.3-2.5,0.9-3.7c0.7-1.3,1.4-2,2.3-2c0.9,0,1.7,0.7,2.2,2c0.5,1.2,0.7,2.7,0.7,4.5V26.2z
			 M73.2,13.7l-1.4,2.6l-1.8-1l-1,2L66.6,16l1.3-2.5l1.9,0.9l1.1-2.1L73.2,13.7z M71.4,22.4c-0.2-0.5-0.5-0.9-0.7-1.1
			s-0.5-0.3-0.9-0.3c-0.2,0-0.4,0.1-0.5,0.2c-0.1,0.1-0.2,0.3-0.2,0.5c0,0.6,0.4,0.8,1.1,0.8c0.3,0,0.4,0,0.6,0S71.1,22.4,71.4,22.4
			z"/>
		<path id="XMLID_100_" class="st2" d="M83.6,25c0,1.5-0.6,2.9-1.9,4.3c-1.2,1.4-2.5,2.1-3.7,2.1c-0.7,0-1.5-0.2-2.3-0.7
			c-0.8-0.5-2.1-1.3-3.9-2.7l0.5-0.7c0.9,0.6,1.7,1,2.3,1.2c0.5,0.2,1,0.3,1.6,0.3c0.8,0,1.6-0.2,2.5-0.7c1-0.5,1.9-1.4,3-2.6
			c-0.4,0.1-0.7,0.1-0.9,0.1c-0.8,0-1.5-0.3-2-0.8c-0.5-0.5-0.7-1.3-0.7-2.2c0-1.3,0.3-2.5,0.9-3.7c0.6-1.3,1.4-1.9,2.2-1.9
			c0.7,0,1.3,0.5,1.7,1.4c0.5,0.9,0.7,2,0.7,3.4V25z M82.1,22.4c-0.2-1.4-0.7-2.1-1.5-2.1c-0.3,0-0.5,0.1-0.6,0.3
			c-0.2,0.2-0.2,0.4-0.2,0.7c0,0.3,0.2,0.6,0.5,0.8s0.8,0.3,1.3,0.3H82.1z"/>
		<path id="XMLID_98_" class="st2" d="M87.7,25.9h-6.1v-3.5h6.1V25.9z"/>
		<path id="XMLID_96_" class="st2" d="M92,25.9h-6.1v-3.5H92V25.9z"/>
		<path id="XMLID_94_" class="st2" d="M97.2,25.9h-6.1v-3.5h6.1V25.9z"/>
		<path id="XMLID_90_" class="st2" d="M105.7,25.9h-9.4v-3.5h2.3c0.4,0,0.8,0,1.1,0.1c0.9,0.1,2,0.2,3.2,0.3
			c-1.3-0.3-2.2-0.7-2.7-1.1c-0.5-0.5-0.8-1.1-0.8-2c0-1.3,0.3-2.5,0.9-3.6c0.6-1.1,1.3-1.6,2.1-1.6c0.9,0,1.6,0.7,2.3,2.2
			c0.6,1.5,1,3.3,1,5.4V25.9z M104.1,10.5l-1.4,2.6l-1.8-1l-1,2l-2.4-1.3l1.3-2.5l1.9,0.9l1.1-2.1L104.1,10.5z M103.9,20.6
			c-0.3-0.7-0.6-1.3-1-1.7s-0.8-0.6-1.1-0.6c-0.2,0-0.3,0.1-0.4,0.2c-0.1,0.1-0.2,0.2-0.2,0.4c0,0.4,0.3,0.7,0.8,1.1
			C102.5,20.2,103.2,20.4,103.9,20.6z"/>
		<path id="XMLID_88_" class="st2" d="M110.9,25.9h-6.1v-3.5h6.1V25.9z"/>
		<path id="XMLID_86_" class="st2" d="M124.6,25.9H110v-3.5h9.1c-1-1.1-2-1.8-2.9-2.3c-0.8-0.4-1.5-0.6-2.3-0.6c-0.2,0-0.4,0-0.6,0
			c-0.2,0-0.4,0.1-0.8,0.1c0.5-1.1,1-1.9,1.6-2.4c0.6-0.5,1.2-0.8,2-0.8c0.6,0,1.1,0.1,1.6,0.4c0.5,0.3,1.1,0.7,1.8,1.3
			c0.5,0.5,1.2,1.2,2.2,2.2c0.6,0.7,1.1,1.2,1.5,1.4s0.8,0.4,1.5,0.5V25.9z"/>
		<path id="XMLID_84_" class="st2" d="M48.8,47.5c0,1.3-0.7,2.5-2,3.5c-1.4,1-2.9,1.5-4.7,1.5c-1.5,0-2.6-0.4-3.4-1.1
			c-0.8-0.7-1.2-1.8-1.2-3.1c0-1.2,0.2-2.3,0.5-3.2c0.3-1,1-2.3,2-3.8l0.8,0.5c-0.7,1-1.1,1.9-1.4,2.6c-0.3,0.7-0.4,1.5-0.4,2.2
			c0,0.8,0.3,1.4,0.9,1.8c0.6,0.4,1.4,0.6,2.4,0.6c1.5,0,2.7-0.3,3.7-0.9c0.9-0.6,1.4-1.3,1.4-2.3c0-0.2,0-0.3,0-0.4s0-0.2,0-0.2
			c0-0.3,0-0.7-0.1-1.1c-0.1-0.4-0.2-1.2-0.4-2.5c-0.4-2-0.7-4-1.1-6.1L45,35.2c0-0.8,0.4-2.1,1.2-3.8l0.6,0.3
			c0,0.1-0.1,0.3-0.1,0.4c0,0.3,0.2,0.6,0.5,0.8c0.5,0.3,1,0.6,1.5,0.8c-0.1,0.7-0.2,1.3-0.3,1.6s-0.3,0.8-0.6,1.4l-0.4-0.2
			c0,0.1,0.1,0.9,0.4,2.2c0.2,1.3,0.4,2.5,0.6,3.4c0.2,1.4,0.4,2.2,0.4,2.5V47.5z"/>
		<path id="XMLID_82_" class="st2" d="M54.2,47.9h-1.8c-1,0-1.7-0.4-2.2-1.2c-0.5-0.9-0.7-2.4-0.7-4.6v-3.6c0-0.8-0.1-1.5-0.3-1.9
			c-0.1-0.2-0.4-0.5-0.8-1l1.4-3.2c0.5,0.7,0.8,1.4,1,2c0.2,0.8,0.3,1.8,0.3,3v2.5c0,1.8,0.1,3,0.4,3.7c0.2,0.6,0.5,0.8,0.9,0.8h1.8
			V47.9z"/>
		<path id="XMLID_80_" class="st2" d="M59.4,47.9h-6.1v-3.5h6.1V47.9z"/>
		<path id="XMLID_78_" class="st2" d="M64.5,47.9h-6.1v-3.5h6.1V47.9z"/>
		<path id="XMLID_76_" class="st2" d="M70,47.9h-6.1v-3.5H70V47.9z"/>
		<path id="XMLID_74_" class="st2" d="M74.4,47.9h-6.1v-3.5h6.1V47.9z"/>
		<path id="XMLID_72_" class="st2" d="M79.6,47.9h-6.1v-3.5h6.1V47.9z"/>
		<path id="XMLID_70_" class="st2" d="M84.8,47.9h-6.1v-3.5h6.1V47.9z"/>
		<path id="XMLID_68_" class="st2" d="M90,47.9h-6.1v-3.5H90V47.9z"/>
		<path id="XMLID_66_" class="st2" d="M95.2,47.9h-6.1v-3.5h6.1V47.9z"/>
		<path id="XMLID_64_" class="st2" d="M100.4,47.9h-6.1v-3.5h6.1V47.9z"/>
		<path id="XMLID_62_" class="st2" d="M105.5,47.9h-6.1v-3.5h6.1V47.9z"/>
		<path id="XMLID_59_" class="st2" d="M112.7,47.9h-8v-3.5h6.7c-0.1-0.6-0.3-1.1-0.5-1.5c-0.1-0.2-0.4-0.6-0.9-1.2l1-3
			c0.6,0.7,1.1,1.5,1.3,2.3c0.2,0.8,0.4,2,0.4,3.5V47.9z M112.5,50.1l-1.4,2.6l-1.8-1l-1,2l-2.4-1.3l1.3-2.5l1.9,0.9l1.1-2.1
			L112.5,50.1z"/>
		<path id="XMLID_56_" class="st2" d="M126.4,47.9h-14.6v-3.5h9.1c-1-1.1-2-1.8-2.9-2.3c-0.8-0.4-1.5-0.6-2.3-0.6
			c-0.2,0-0.4,0-0.6,0c-0.2,0-0.4,0.1-0.8,0.1c0.5-1.1,1-1.9,1.6-2.4c0.6-0.5,1.2-0.8,2-0.8c0.6,0,1.1,0.1,1.6,0.4
			c0.5,0.3,1.1,0.7,1.8,1.3c0.5,0.5,1.2,1.2,2.2,2.2c0.6,0.7,1.1,1.2,1.5,1.4c0.3,0.2,0.8,0.4,1.5,0.5V47.9z M121.6,50.7l-1.6,2.9
			l-2.9-1.6l1.6-2.9L121.6,50.7z"/>
		<path id="XMLID_52_" class="st2" d="M137.9,34.3c0,0.6-0.1,1.2-0.2,1.8c-0.1,0.3-0.2,0.7-0.4,1.4l-0.9-0.4c0,1-0.1,2-0.4,3
			s-0.6,2-1.2,3c0.5,0.8,0.7,1.3,0.8,1.5c0.2,0.4,0.3,0.7,0.3,1.1V46c0,0.2-0.1,1.1-0.2,2.6c-1,0.5-1.8,0.8-2.6,0.9
			c-0.8,0.1-1.9,0.2-3.4,0.2v-3.8c0.9-0.4,1.5-0.8,1.8-1.1c0.4-0.3,0.9-0.8,1.5-1.6c-1-1.2-1.7-2.1-2.1-2.6
			c-0.4-0.4-0.8-0.9-1.4-1.4c-0.1,0.3-0.2,0.5-0.3,0.6c-0.1,0.1-0.1,0.1-0.2,0.1c-0.2,0-0.6-0.2-1.2-0.5c-0.5-0.3-0.9-0.6-1.2-0.8
			c-0.3-0.2-0.5-0.7-0.6-1.4s-0.2-1.5-0.2-2.6c0-0.5,0-0.8,0.1-1c0.1-0.2,0.2-0.3,0.4-0.3c0.3,0,1,0.5,2,1.4
			c0.9,0.8,1.6,1.6,2.3,2.5c0.5,0.6,1,1.2,1.5,1.8c0.4,0.5,1,1.4,1.8,2.7c0.4-0.7,0.6-1.6,0.8-2.8c0.1-0.7,0.1-1.5,0.1-2.4
			c-0.3-0.1-0.5-0.3-0.6-0.4c-0.1-0.1-0.2-0.3-0.2-0.6c0-0.5,0.1-1,0.2-1.6c0.1-0.5,0.3-1.1,0.5-1.7l0.5,0.2c0,0.5,0.1,0.9,0.4,1.1
			C136.1,33.7,136.7,33.9,137.9,34.3z M129.9,30.7c-0.1,0.3-0.2,0.5-0.3,0.6c-0.1,0.1-0.2,0.2-0.4,0.2l-2.8,0.8
			c0.2-0.3,0.3-0.5,0.4-0.6c0.1-0.1,0.3-0.2,0.7-0.4c-0.2-0.2-0.4-0.3-0.5-0.4c-0.1-0.1-0.2-0.3-0.2-0.4c0-0.1,0-0.2,0.1-0.4
			c0.1-0.1,0.2-0.3,0.3-0.4c0.6-0.7,1.1-1.1,1.6-1.1c0.2,0,0.3,0.1,0.4,0.2s0.1,0.2,0.1,0.4c0,0.1,0,0.3-0.1,0.4
			c0,0.1-0.1,0.2-0.2,0.4c-0.4-0.2-0.7-0.3-0.9-0.3c-0.2,0-0.3,0-0.5,0.1c-0.1,0.1-0.2,0.1-0.3,0.2c0,0.1,0.2,0.3,0.6,0.5
			c0.4,0.2,0.7,0.3,0.9,0.3C129,30.9,129.4,30.8,129.9,30.7z M134.6,45.4l-0.6-0.9c-0.4,0.4-0.7,0.7-0.9,0.9
			c-0.2,0.2-0.6,0.4-1.1,0.8c0.6-0.1,1.1-0.1,1.4-0.2C133.7,45.8,134.1,45.7,134.6,45.4z"/>
		<path id="XMLID_50_" class="st2" d="M142.3,44.1c0,0.8-0.1,1.5-0.3,2.1c-0.2,0.6-0.5,1.5-1,2.5l-0.8-0.3c0.2-1.1,0.3-2,0.3-2.7
			c0-0.5,0-1.3-0.1-2.3c-0.1-1-0.2-2-0.3-3c-0.1-1-0.3-2.2-0.6-3.5c-0.1-0.5-0.2-0.8-0.2-1c0-0.3,0.1-0.7,0.4-1.3s0.6-1.4,1.1-2.3
			l0.8,4.5c0.3,1.7,0.5,3.2,0.6,4.5C142.2,42.3,142.3,43.2,142.3,44.1z"/>
		<path id="XMLID_46_" class="st2" d="M38.7,69.9H37c-0.3,0-0.6-0.1-0.8-0.2c-0.5-0.2-0.9-0.7-1.3-1.4c-0.5-0.9-0.8-2.1-0.9-3.7
			c-0.6,0.7-1,1.2-1.4,1.5c-0.5,0.4-0.9,0.7-1.2,0.7c-0.2,0-0.4,0-0.6-0.1l-1.6-0.3c-0.7-0.1-1.1-0.2-1.2-0.3s-0.2-0.2-0.2-0.3
			c0-0.2,0.3-1,0.9-2.2c0.6-1.2,1-2,1.3-2.3c0.2-0.2,0.6-0.5,1.1-0.9c0.3-0.2,0.8-0.5,1.4-0.9l0.7-0.4c0-0.1,0-0.2-0.1-0.4
			c0-0.1,0-0.2,0-0.4c0-0.3,0.1-0.7,0.2-1.2c0.1-0.5,0.4-1.1,0.8-1.8l1.2,8c0.2,1.3,0.5,2.1,0.8,2.5c0.2,0.3,0.5,0.4,0.8,0.4h1.7
			V69.9z M35.7,51.9l-1.4,2.4l-1.8-1l-1,2L29.1,54l1.3-2.3l1.9,0.9l1.1-2L35.7,51.9z M33.7,62.6l-0.3-1.5c-0.3,0.1-0.5,0.2-0.6,0.3
			c-0.5,0.2-0.8,0.5-1.1,0.7c-0.2,0.2-0.4,0.3-0.5,0.5c-0.2,0.2-0.3,0.3-0.3,0.4c0,0.1,0.1,0.2,0.4,0.3c0.3,0.1,0.6,0.1,0.9,0.1
			c0.2,0,0.4-0.1,0.6-0.2C33,63.1,33.3,62.9,33.7,62.6z"/>
		<path id="XMLID_44_" class="st2" d="M43.9,69.9h-6.1v-3.5h6.1V69.9z"/>
		<path id="XMLID_42_" class="st2" d="M49.1,69.9H43v-3.5h6.1V69.9z"/>
		<path id="XMLID_40_" class="st2" d="M54.2,69.9h-6.1v-3.5h6.1V69.9z"/>
		<path id="XMLID_38_" class="st2" d="M59.4,69.9h-6.1v-3.5h6.1V69.9z"/>
		<path id="XMLID_36_" class="st2" d="M64.6,69.9h-6.1v-3.5h6.1V69.9z"/>
		<path id="XMLID_34_" class="st2" d="M69.8,69.9h-6.1v-3.5h6.1V69.9z"/>
		<path id="XMLID_32_" class="st2" d="M75,69.9h-6.1v-3.5H75V69.9z"/>
		<path id="XMLID_30_" class="st2" d="M80.2,69.9h-6.1v-3.5h6.1V69.9z"/>
		<path id="XMLID_28_" class="st2" d="M85.4,69.9h-6.1v-3.5h6.1V69.9z"/>
		<path id="XMLID_26_" class="st2" d="M90.6,69.9h-6.1v-3.5h6.1V69.9z"/>
		<path id="XMLID_24_" class="st2" d="M95.8,69.9h-6.1v-3.5h6.1V69.9z"/>
		<path id="XMLID_22_" class="st2" d="M101,69.9h-6.1v-3.5h6.1V69.9z"/>
		<path id="XMLID_20_" class="st2" d="M106.2,69.9h-6.1v-3.5h6.1V69.9z"/>
		<path id="XMLID_18_" class="st2" d="M111.3,69.9h-6.1v-3.5h6.1V69.9z"/>
		<path id="XMLID_15_" class="st2" d="M122.2,69.8c-0.9,0-1.9-0.2-3.2-0.5c-1.1-0.3-2-0.7-2.8-1.1c-0.5,0.7-1.1,1.2-1.8,1.5
			c-0.3,0.1-0.8,0.2-1.4,0.2h-2.5v-3.5h2.5c0.8,0,1.4-0.1,1.8-0.3c0.6-0.2,1-0.7,1.2-1.2c0.5-1.1,1.1-2,1.9-2.7
			c0.7-0.6,1.2-0.9,1.7-0.9c0.4,0,1,0.7,1.6,2c0.7,1.4,1,2.7,1,3.8V69.8z M119.8,66c0-0.2-0.2-0.5-0.5-1c-0.4-0.5-0.8-0.8-1.1-0.8
			c-0.3,0-0.6,0.4-0.8,1.2c0.4,0.2,0.8,0.3,1,0.4c0.7,0.3,1.1,0.4,1.2,0.4C119.7,66.2,119.8,66.1,119.8,66z"/>
		<path id="XMLID_13_" class="st2" d="M129.4,69.9h-5.8c-0.6,0-1-0.1-1.3-0.4c-0.4-0.3-0.5-0.8-0.5-1.4c0-0.4,0-0.8,0.1-1.2
			c0-0.4,0.1-0.9,0.2-1.3l0.5,0c0.1,0.3,0.2,0.5,0.5,0.7c0.2,0.1,0.5,0.2,0.8,0.2h4.4c-0.2-1.3-0.5-2.3-1-3c-0.4-0.6-1-1.2-1.7-1.6
			l0.9-4c1.1,0.8,1.9,1.9,2.4,3.2c0.4,1.2,0.6,2.8,0.6,4.8V69.9z"/>
		<path id="XMLID_11_" class="st2" d="M133.8,69.9H132c-1,0-1.7-0.4-2.2-1.2c-0.5-0.9-0.7-2.4-0.7-4.6v-3.6c0-0.8-0.1-1.5-0.3-1.9
			c-0.1-0.2-0.4-0.5-0.8-1l1.4-3.2c0.5,0.7,0.8,1.4,1,2c0.2,0.8,0.3,1.8,0.3,3v2.5c0,1.8,0.1,3,0.4,3.7c0.2,0.6,0.5,0.8,0.9,0.8h1.8
			V69.9z"/>
		<path id="XMLID_7_" class="st2" d="M142.3,69.9h-9.4v-3.5h2.3c0.4,0,0.8,0,1.1,0.1c0.9,0.1,2,0.2,3.2,0.3
			c-1.3-0.3-2.2-0.7-2.7-1.1c-0.5-0.5-0.8-1.1-0.8-2c0-1.3,0.3-2.5,0.9-3.6c0.6-1.1,1.3-1.6,2.1-1.6c0.9,0,1.6,0.7,2.3,2.2
			c0.6,1.5,1,3.3,1,5.4V69.9z M140.7,54.5l-1.4,2.6l-1.8-1l-1,2l-2.4-1.3l1.3-2.5l1.9,0.9l1.1-2.1L140.7,54.5z M140.6,64.6
			c-0.3-0.7-0.6-1.3-1-1.7s-0.8-0.6-1.1-0.6c-0.2,0-0.3,0.1-0.4,0.2c-0.1,0.1-0.2,0.2-0.2,0.4c0,0.4,0.3,0.7,0.8,1.1
			C139.2,64.2,139.8,64.4,140.6,64.6z"/>
		<path id="XMLID_5_" class="st2" d="M148.5,69.9h-7v-3.5h5.5l-1.5-8.7l-0.8-0.5c0-0.5,0.1-1,0.2-1.5c0.2-0.6,0.5-1.4,1-2.3l0.6,0.3
			c0,0.1,0,0.2-0.1,0.4c0,0.3,0.2,0.6,0.5,0.8c0.3,0.2,0.8,0.5,1.5,0.8c-0.1,0.5-0.2,1.1-0.3,1.6s-0.3,1-0.5,1.4l-0.5-0.2l1.4,7.9
			V69.9z"/>
		<path id="XMLID_3_" class="st2" d="M151.4,66.1c0,0.8-0.1,1.5-0.3,2.1c-0.2,0.6-0.5,1.5-1,2.5l-0.8-0.3c0.2-1.1,0.3-2,0.3-2.7
			c0-0.5,0-1.3-0.1-2.3c-0.1-1-0.2-2-0.3-3c-0.1-1-0.3-2.2-0.6-3.5c-0.1-0.5-0.2-0.8-0.2-1c0-0.3,0.1-0.7,0.4-1.3
			c0.3-0.6,0.6-1.4,1.1-2.3l0.8,4.5c0.3,1.7,0.5,3.2,0.6,4.5C151.4,64.3,151.4,65.2,151.4,66.1z"/>
	</g>
</g>
</svg>
