<!-- Generator: Adobe Illustrator 23.1.1, SVG Export Plug-In  -->
<svg version="1.1" xmlns="http://www.w3.org/2000/svg" xmlns:xlink="http://www.w3.org/1999/xlink" x="0px" y="0px" width="181.4px"
	 height="90.7px" viewBox="0 0 181.4 90.7" style="enable-background:new 0 0 181.4 90.7;" xml:space="preserve">
<style type="text/css">
	.st0{fill:#009579;}
	.st1{fill:#F6E948;}
</style>
<defs>
</defs>
<path id="XMLID_62_" class="st0" d="M102,0L102,0c0,6.3-5.1,11.3-11.3,11.3c-6.3,0-11.3-5.1-11.3-11.3l0,0H0v90.7h79.4l0,0
	c0-6.3,5.1-11.3,11.3-11.3c6.3,0,11.3,5.1,11.3,11.3l0,0h79.4V0H102z"/>
<g id="XMLID_1_">
	<g>
		<path class="st1" d="M13,12.8h9.2c3.1,0,5,2.1,5,4.7c0,2-0.8,3.5-2.7,4.3v0c1.8,0.5,2.4,2.3,2.5,4c0.1,1.1,0,3.1,0.7,4.1H24
			c-0.5-1.1-0.4-2.7-0.6-4.1c-0.3-1.8-1-2.6-2.9-2.6h-3.8V30H13V12.8z M16.8,20.6h4.1c1.7,0,2.6-0.7,2.6-2.4c0-1.7-0.9-2.4-2.6-2.4
			h-4.1V20.6z"/>
		<path class="st1" d="M33.5,15.6h-3.4v-2.8h3.4V15.6z M30.1,17.5h3.4V30h-3.4V17.5z"/>
		<path class="st1" d="M48.1,29.2c0,2-0.7,5.5-6.4,5.5c-2.4,0-5.3-1.2-5.5-4h3.4c0.3,1.3,1.3,1.7,2.5,1.7c1.9,0,2.8-1.3,2.7-3.1
			v-1.6h0c-0.7,1.3-2.2,1.9-3.7,1.9c-3.7,0-5.3-2.8-5.3-6.2c0-3.2,1.8-6.1,5.3-6.1c1.6,0,2.9,0.6,3.7,2h0v-1.7h3.2V29.2z M44.8,23.6
			c0-2-0.7-3.8-2.9-3.8c-1.9,0-2.8,1.7-2.8,3.5c0,1.8,0.7,3.7,2.8,3.7C43.9,27,44.8,25.4,44.8,23.6z"/>
		<path class="st1" d="M50.8,12.8h3.4v6.5h0.1c0.9-1.4,2.4-2.1,3.6-2.1c3.6,0,4.5,2,4.5,5.1V30h-3.4v-7c0-2-0.6-3-2.2-3
			c-1.8,0-2.6,1-2.6,3.6V30h-3.4V12.8z"/>
		<path class="st1" d="M69.4,17.5h2.5v2.3h-2.5V26c0,1.2,0.3,1.4,1.4,1.4c0.4,0,0.7,0,1.1-0.1V30c-0.6,0.1-1.3,0.1-2,0.1
			c-2.1,0-3.9-0.5-3.9-3v-7.3h-2.1v-2.3H66v-3.7h3.4V17.5z"/>
		<path class="st1" d="M76.1,25.9c0,1.5,1.3,2.1,2.6,2.1c1,0,2.2-0.4,2.2-1.6c0-1-1.4-1.4-3.9-1.9c-2-0.4-3.9-1.1-3.9-3.3
			c0-3.2,2.7-4,5.4-4c2.7,0,5.2,0.9,5.5,4h-3.2c-0.1-1.3-1.1-1.7-2.3-1.7c-0.8,0-1.9,0.1-1.9,1.2c0,1.2,1.9,1.4,3.9,1.8
			c2,0.5,3.9,1.2,3.9,3.5c0,3.3-2.8,4.3-5.7,4.3c-2.9,0-5.7-1.1-5.8-4.4H76.1z"/>
		<path class="st1" d="M18.7,40.2c3.9,0,6.4,2.6,6.4,6.6c0,3.9-2.5,6.5-6.4,6.5c-3.9,0-6.4-2.6-6.4-6.5
			C12.3,42.8,14.8,40.2,18.7,40.2z M18.7,50.7c2.3,0,3-2,3-4c0-2-0.7-4-3-4c-2.3,0-3,2-3,4C15.7,48.7,16.4,50.7,18.7,50.7z"/>
		<path class="st1" d="M28,42.8h-2v-2.3h2v-1c0-2.2,1.4-3.8,4.2-3.8c0.6,0,1.2,0.1,1.8,0.1v2.5c-0.4,0-0.8-0.1-1.2-0.1
			c-0.9,0-1.3,0.4-1.3,1.4v0.7h2.4v2.3h-2.4V53H28V42.8z"/>
		<path class="st1" d="M42.3,35.8h12V39h-8.3v4h7.2v2.9h-7.2V53h-3.8V35.8z"/>
		<path class="st1" d="M67.8,53h-3.2v-1.7h-0.1c-0.9,1.4-2.4,2.1-3.8,2.1c-3.6,0-4.5-2-4.5-5.1v-7.6h3.4v7c0,2,0.6,3,2.2,3
			c1.8,0,2.6-1,2.6-3.6v-6.5h3.4V53z"/>
		<path class="st1" d="M74.7,40.5h2.5v2.3h-2.5V49c0,1.2,0.3,1.4,1.4,1.4c0.4,0,0.7,0,1.1-0.1V53c-0.6,0.1-1.3,0.1-2,0.1
			c-2.1,0-3.9-0.5-3.9-3v-7.3h-2.1v-2.3h2.1v-3.7h3.4V40.5z"/>
		<path class="st1" d="M90.5,53h-3.2v-1.7h-0.1c-0.9,1.4-2.4,2.1-3.8,2.1c-3.6,0-4.5-2-4.5-5.1v-7.6h3.4v7c0,2,0.6,3,2.2,3
			c1.8,0,2.6-1,2.6-3.6v-6.5h3.4V53z"/>
		<path class="st1" d="M93.1,40.5h3.2v2.3h0c0.6-1.6,2.3-2.6,4-2.6c0.2,0,0.5,0,0.7,0.1v3.2c-0.3-0.1-0.8-0.1-1.2-0.1
			c-2.5,0-3.4,1.8-3.4,4V53h-3.4V40.5z"/>
		<path class="st1" d="M104.8,47.6c0.1,2.2,1.2,3.1,3,3.1c1.4,0,2.5-0.8,2.7-1.6h3c-1,2.9-3,4.2-5.8,4.2c-3.9,0-6.3-2.7-6.3-6.5
			c0-3.7,2.6-6.6,6.3-6.6c4.2,0,6.3,3.6,6,7.4H104.8z M110.4,45.4c-0.3-1.7-1.1-2.6-2.7-2.6c-2.2,0-2.8,1.7-2.8,2.6H110.4z"/>
		<path class="st1" d="M25.4,72c-1.3,1.7-3,2.4-4.7,2.4c-5.3,0-8.4-4-8.4-8.9c0-5.1,3.1-9,8.4-9c3.5,0,6.8,2.2,7.2,6h-3.6
			c-0.4-1.9-1.8-2.9-3.6-2.9c-3.4,0-4.7,2.9-4.7,5.9c0,2.9,1.3,5.7,4.7,5.7c2.4,0,3.9-1.3,4.1-3.7H21v-2.8h7.2V74h-2.4L25.4,72z"/>
		<path class="st1" d="M33.7,68.6c0.1,2.2,1.2,3.1,3,3.1c1.4,0,2.5-0.8,2.7-1.6h3c-1,2.9-3,4.2-5.8,4.2c-3.9,0-6.3-2.7-6.3-6.5
			c0-3.7,2.6-6.6,6.3-6.6c4.2,0,6.3,3.6,6,7.4H33.7z M39.2,66.4c-0.3-1.7-1.1-2.6-2.7-2.6c-2.2,0-2.8,1.7-2.8,2.6H39.2z"/>
		<path class="st1" d="M44.6,61.5h3.2v1.7h0.1c0.9-1.4,2.4-2.1,3.8-2.1c3.6,0,4.5,2,4.5,5.1V74h-3.4v-7c0-2-0.6-3-2.2-3
			c-1.8,0-2.6,1-2.6,3.6V74h-3.4V61.5z"/>
		<path class="st1" d="M61.7,68.6c0.1,2.2,1.2,3.1,3,3.1c1.4,0,2.5-0.8,2.7-1.6h3c-1,2.9-3,4.2-5.8,4.2c-3.9,0-6.3-2.7-6.3-6.5
			c0-3.7,2.6-6.6,6.3-6.6c4.2,0,6.3,3.6,6,7.4H61.7z M67.2,66.4c-0.3-1.7-1.1-2.6-2.7-2.6c-2.2,0-2.8,1.7-2.8,2.6H67.2z"/>
		<path class="st1" d="M72.6,61.5h3.2v2.3h0c0.6-1.6,2.3-2.6,4-2.6c0.2,0,0.5,0,0.7,0.1v3.2c-0.3-0.1-0.8-0.1-1.2-0.1
			c-2.5,0-3.4,1.8-3.4,4V74h-3.4V61.5z"/>
		<path class="st1" d="M81.8,65.4c0.2-3.2,3-4.2,5.8-4.2c2.5,0,5.4,0.6,5.4,3.5v6.5c0,1.1,0.1,2.3,0.4,2.8h-3.5
			c-0.1-0.4-0.2-0.8-0.2-1.2c-1.1,1.1-2.7,1.5-4.2,1.5c-2.4,0-4.2-1.2-4.2-3.7c0-2.8,2.1-3.5,4.2-3.8c2.1-0.3,4-0.2,4-1.6
			c0-1.5-1-1.7-2.2-1.7c-1.3,0-2.1,0.5-2.3,1.9H81.8z M89.7,67.9c-0.6,0.5-1.8,0.5-2.8,0.7c-1.1,0.2-2,0.6-2,1.8
			c0,1.3,1,1.6,2.1,1.6c2.7,0,2.8-2.1,2.8-2.9V67.9z"/>
		<path class="st1" d="M100.1,61.5h2.5v2.3h-2.5V70c0,1.2,0.3,1.4,1.4,1.4c0.4,0,0.7,0,1.1-0.1V74c-0.6,0.1-1.3,0.1-2,0.1
			c-2.1,0-3.9-0.5-3.9-3v-7.3h-2.1v-2.3h2.1v-3.7h3.4V61.5z"/>
		<path class="st1" d="M107.7,59.6h-3.4v-2.8h3.4V59.6z M104.3,61.5h3.4V74h-3.4V61.5z"/>
		<path class="st1" d="M116.4,61.2c3.9,0,6.4,2.6,6.4,6.6c0,3.9-2.5,6.5-6.4,6.5c-3.9,0-6.4-2.6-6.4-6.5
			C110,63.8,112.5,61.2,116.4,61.2z M116.4,71.7c2.3,0,3-2,3-4c0-2-0.7-4-3-4c-2.3,0-3,2-3,4C113.4,69.7,114.1,71.7,116.4,71.7z"/>
		<path class="st1" d="M125,61.5h3.2v1.7h0.1c0.9-1.4,2.4-2.1,3.8-2.1c3.6,0,4.5,2,4.5,5.1V74h-3.4v-7c0-2-0.6-3-2.2-3
			c-1.8,0-2.6,1-2.6,3.6V74H125V61.5z"/>
		<path class="st1" d="M141.9,69.9c0,1.5,1.3,2.1,2.6,2.1c1,0,2.2-0.4,2.2-1.6c0-1-1.4-1.4-3.9-1.9c-2-0.4-3.9-1.1-3.9-3.3
			c0-3.2,2.7-4,5.4-4c2.7,0,5.2,0.9,5.5,4h-3.2c-0.1-1.3-1.1-1.7-2.3-1.7c-0.8,0-1.9,0.1-1.9,1.2c0,1.2,1.9,1.4,3.9,1.8
			c2,0.5,3.9,1.2,3.9,3.5c0,3.3-2.8,4.3-5.7,4.3c-2.9,0-5.7-1.1-5.8-4.4H141.9z"/>
	</g>
</g>
</svg>
