<!-- Generator: Adobe Illustrator 23.1.1, SVG Export Plug-In  -->
<svg version="1.1" xmlns="http://www.w3.org/2000/svg" xmlns:xlink="http://www.w3.org/1999/xlink" x="0px" y="0px" width="181.4px"
	 height="102px" viewBox="0 0 181.4 102" style="enable-background:new 0 0 181.4 102;" xml:space="preserve">
<style type="text/css">
	.st0{fill:#E1EDCD;}
	.st1{fill:#1D1D1B;}
	.st2{fill:#5C6655;}
</style>
<defs>
</defs>
<g id="XMLID_1_">
	<ellipse id="XMLID_170_" class="st0" cx="90.7" cy="51" rx="90.7" ry="51"/>
	<g id="XMLID_151_">
		<path id="XMLID_167_" class="st1" d="M45.6,43.4c4.1,0,6.7,2.7,6.7,6.8c0,4.1-2.6,6.8-6.7,6.8c-4.1,0-6.7-2.7-6.7-6.8
			C38.9,46.1,41.5,43.4,45.6,43.4z M45.6,54.4c2.4,0,3.2-2.1,3.2-4.1c0-2.1-0.7-4.2-3.2-4.2c-2.4,0-3.1,2.1-3.1,4.2
			C42.5,52.3,43.2,54.4,45.6,54.4z"/>
		<path id="XMLID_165_" class="st1" d="M55.1,46.1H53v-2.4h2.1v-1c0-2.3,1.4-3.9,4.3-3.9c0.6,0,1.3,0.1,1.9,0.1v2.7
			c-0.4,0-0.9-0.1-1.3-0.1c-1,0-1.4,0.4-1.4,1.5v0.8h2.5v2.4h-2.5v10.6h-3.6V46.1z"/>
		<path id="XMLID_163_" class="st1" d="M69.6,38.8h12.6v3.3h-8.6v4.1H81v3.1h-7.5v7.4h-3.9V38.8z"/>
		<path id="XMLID_161_" class="st1" d="M96,56.7h-3.4v-1.8h-0.1c-0.9,1.5-2.5,2.2-4,2.2c-3.8,0-4.7-2.1-4.7-5.3v-8h3.6v7.3
			c0,2.1,0.6,3.2,2.3,3.2c1.9,0,2.8-1.1,2.8-3.7v-6.8H96V56.7z"/>
		<path id="XMLID_159_" class="st1" d="M102.9,43.7h2.6v2.4h-2.6v6.4c0,1.2,0.3,1.5,1.5,1.5c0.4,0,0.7,0,1.1-0.1v2.8
			c-0.6,0.1-1.4,0.1-2.1,0.1c-2.2,0-4.1-0.5-4.1-3.1v-7.6h-2.2v-2.4h2.2v-3.9h3.6V43.7z"/>
		<path id="XMLID_157_" class="st1" d="M119.2,56.7h-3.4v-1.8h-0.1c-0.9,1.5-2.5,2.2-4,2.2c-3.8,0-4.7-2.1-4.7-5.3v-8h3.6v7.3
			c0,2.1,0.6,3.2,2.3,3.2c1.9,0,2.8-1.1,2.8-3.7v-6.8h3.6V56.7z"/>
		<path id="XMLID_155_" class="st1" d="M121.6,43.7h3.4v2.4h0c0.7-1.6,2.4-2.8,4.1-2.8c0.3,0,0.6,0.1,0.8,0.1v3.3
			c-0.3-0.1-0.9-0.1-1.3-0.1c-2.6,0-3.5,1.9-3.5,4.2v5.8h-3.6V43.7z"/>
		<path id="XMLID_152_" class="st1" d="M133.6,51.1c0.1,2.3,1.2,3.3,3.2,3.3c1.4,0,2.6-0.9,2.8-1.7h3.1c-1,3.1-3.1,4.4-6.1,4.4
			c-4.1,0-6.6-2.8-6.6-6.8c0-3.9,2.7-6.8,6.6-6.8c4.4,0,6.5,3.7,6.3,7.7H133.6z M139.4,48.8c-0.3-1.8-1.1-2.8-2.8-2.8
			c-2.3,0-2.9,1.8-3,2.8H139.4z"/>
	</g>
	<g id="XMLID_123_">
		<path id="XMLID_149_" class="st1" d="M28.2,79.2c-2.2,0.7-4,0.2-5.4-0.8c-4.5-3.2-4.8-8.5-1.8-12.7c3.1-4.3,8.1-5.8,12.7-2.6
			c3,2.1,4.5,6,2.5,9.5l-3.1-2.2c0.8-1.9,0.2-3.6-1.3-4.6c-2.9-2-5.7-0.4-7.5,2.2c-1.7,2.4-2.4,5.7,0.5,7.7c2.1,1.5,4.1,1.2,5.7-0.7
			l-3.2-2.3l1.7-2.4l6.1,4.4l-5.6,7.9l-2-1.5L28.2,79.2z"/>
		<path id="XMLID_146_" class="st1" d="M40.2,81c-0.7,2.1,0,3.5,1.8,4.2c1.3,0.5,2.7,0.1,3.2-0.6l2.9,1.1c-2,2.5-4.5,3-7.2,1.9
			c-3.8-1.5-5.2-5-3.8-8.7c1.4-3.6,4.9-5.4,8.6-4c4.1,1.6,4.8,5.8,3.1,9.4L40.2,81z M46.4,81c0.3-1.8-0.1-3-1.7-3.6
			c-2.1-0.8-3.3,0.6-3.7,1.5L46.4,81z"/>
		<path id="XMLID_144_" class="st1" d="M53.7,78.1l3.3,0.8l-0.4,1.8l0.1,0c1.2-1.2,2.9-1.6,4.3-1.2c3.7,0.8,4.2,3.1,3.4,6.3
			l-1.8,7.8l-3.5-0.8l1.6-7.1c0.5-2.1,0.1-3.2-1.5-3.6c-1.9-0.4-2.9,0.4-3.5,3l-1.5,6.6l-3.5-0.8L53.7,78.1z"/>
		<path id="XMLID_141_" class="st1" d="M70.4,88.8c-0.2,2.3,0.8,3.4,2.8,3.6c1.4,0.2,2.7-0.6,3-1.4l3.1,0.3c-1.3,2.9-3.6,4-6.5,3.7
			c-4.1-0.5-6.3-3.5-5.8-7.5c0.4-3.9,3.4-6.5,7.3-6.1c4.4,0.5,6.1,4.4,5.4,8.4L70.4,88.8z M76.4,87.2c-0.1-1.8-0.8-2.9-2.5-3.1
			c-2.2-0.3-3.1,1.4-3.2,2.4L76.4,87.2z"/>
		<path id="XMLID_139_" class="st1" d="M82.6,82.6l3.4,0.1L86,85.1l0.1,0c0.7-1.6,2.5-2.7,4.2-2.6c0.2,0,0.5,0.1,0.8,0.1l-0.1,3.3
			c-0.3-0.1-0.8-0.2-1.3-0.2c-2.6-0.1-3.6,1.8-3.6,4.1l-0.2,5.8l-3.6-0.1L82.6,82.6z"/>
		<path id="XMLID_136_" class="st1" d="M92.4,86.8c0-3.3,3-4.5,5.9-4.6c2.6-0.1,5.7,0.3,5.9,3.4l0.3,6.7c0.1,1.2,0.2,2.3,0.6,2.9
			l-3.6,0.2c-0.1-0.4-0.3-0.8-0.3-1.2c-1.1,1.2-2.7,1.7-4.3,1.8c-2.5,0.1-4.5-1-4.6-3.7c-0.1-2.9,2-3.7,4.2-4.1
			c2.2-0.4,4.2-0.5,4.1-1.9c-0.1-1.5-1.1-1.7-2.4-1.6c-1.4,0.1-2.2,0.7-2.3,2.1L92.4,86.8z M100.7,89.1c-0.6,0.6-1.8,0.6-2.9,0.9
			c-1.1,0.3-2.1,0.7-2,2c0.1,1.3,1.1,1.6,2.3,1.5c2.8-0.1,2.8-2.3,2.7-3.1L100.7,89.1z"/>
		<path id="XMLID_134_" class="st1" d="M111.2,81.3l2.6-0.3l0.3,2.4l-2.6,0.3l0.8,6.4c0.2,1.2,0.5,1.5,1.7,1.3
			c0.4,0,0.7-0.1,1.1-0.2l0.4,2.8c-0.6,0.2-1.4,0.3-2,0.4c-2.2,0.3-4.1,0-4.5-2.5l-1-7.6l-2.1,0.3l-0.3-2.4l2.1-0.3l-0.5-3.9
			l3.5-0.5L111.2,81.3z"/>
		<path id="XMLID_131_" class="st1" d="M118.5,78.1l-3.5,0.7l-0.5-2.9l3.5-0.7L118.5,78.1z M115.4,80.7l3.5-0.7l2.4,12.7l-3.5,0.7
			L115.4,80.7z"/>
		<path id="XMLID_128_" class="st1" d="M127.7,77.5c3.9-1.1,7.2,0.8,8.3,4.7c1.1,4-0.7,7.3-4.6,8.4c-3.9,1.1-7.2-0.8-8.3-4.7
			C122,82,123.8,78.6,127.7,77.5z M130.7,88.1c2.3-0.7,2.5-2.9,1.9-4.8c-0.6-2-1.8-3.8-4.2-3.1c-2.3,0.7-2.4,2.9-1.9,4.9
			C127.1,87,128.4,88.8,130.7,88.1z"/>
		<path id="XMLID_126_" class="st1" d="M136.6,75.2l3.1-1.5l0.8,1.6l0.1,0c0.2-1.7,1.3-3,2.6-3.7c3.4-1.6,5.2-0.1,6.6,2.8l3.4,7.2
			l-3.2,1.5l-3.2-6.6c-0.9-1.9-1.9-2.6-3.4-1.9c-1.7,0.8-2,2.2-0.9,4.5l2.9,6.1l-3.2,1.5L136.6,75.2z"/>
		<path id="XMLID_124_" class="st1" d="M158.3,73c1,1.2,2.4,0.8,3.5-0.2c0.8-0.7,1.5-1.8,0.7-2.8c-0.7-0.8-2.1-0.1-4.4,1.2
			c-1.8,1-3.9,1.8-5.4,0.1c-2.2-2.5-0.6-5,1.5-6.8c2.1-1.9,4.7-2.9,7-0.7l-2.5,2.2c-1-1-2-0.6-3,0.3c-0.6,0.5-1.4,1.4-0.7,2.2
			c0.8,1,2.5-0.2,4.3-1.2c1.9-1,3.9-1.8,5.5,0c2.2,2.6,0.8,5.3-1.5,7.3c-2.3,2-5.2,3.1-7.6,0.6L158.3,73z"/>
	</g>
	<g id="XMLID_107_">
		<path id="XMLID_120_" class="st1" d="M51,9.1l9.4-2c3.1-0.7,5.6,1.1,6.2,3.7c0.4,2.1-0.1,3.8-1.8,5l0,0c2,0.1,2.9,1.8,3.4,3.6
			c0.3,1.1,0.7,3.2,1.6,4L66,24.2c-0.7-1-1-2.7-1.5-4.1c-0.7-1.8-1.5-2.4-3.5-2l-3.8,0.8l1.5,6.8l-3.8,0.8L51,9.1z M56.5,16.2
			l4.2-0.9c1.7-0.4,2.5-1.3,2.1-3.1c-0.4-1.7-1.4-2.2-3.2-1.9l-4.2,0.9L56.5,16.2z"/>
		<path id="XMLID_117_" class="st1" d="M74,8l-3.5,0.4l-0.3-2.9l3.5-0.4L74,8z M70.7,10.4l3.5-0.4l1.5,12.9l-3.5,0.4L70.7,10.4z"/>
		<path id="XMLID_114_" class="st1" d="M90.9,21.2c0.1,2.1-0.5,5.8-6.5,6c-2.6,0.1-5.6-1-5.9-3.9l3.5-0.1c0.4,1.3,1.5,1.7,2.7,1.7
			c2-0.1,2.8-1.5,2.7-3.3l-0.1-1.7l-0.1,0c-0.7,1.4-2.3,2.1-3.8,2.2c-3.9,0.2-5.7-2.7-5.8-6.3c-0.1-3.4,1.7-6.5,5.3-6.6
			c1.7-0.1,3,0.5,3.9,1.9l0,0L87,9.2l3.4-0.1L90.9,21.2z M87.3,15.5c-0.1-2.1-0.9-4-3.2-3.9c-2,0.1-2.8,1.9-2.7,3.8
			c0.1,1.9,0.9,3.9,3,3.8C86.4,19.1,87.4,17.4,87.3,15.5z"/>
		<path id="XMLID_112_" class="st1" d="M94.9,4.2l3.6,0.2L98,11.1l0.1,0c1-1.4,2.6-2,3.9-1.9c3.8,0.2,4.6,2.4,4.4,5.6l-0.5,8
			l-3.6-0.2l0.5-7.3c0.1-2.1-0.4-3.2-2.1-3.3c-1.9-0.1-2.8,0.9-3,3.5l-0.4,6.8l-3.6-0.2L94.9,4.2z"/>
		<path id="XMLID_110_" class="st1" d="M114.9,11l2.6,0.4l-0.3,2.4l-2.6-0.4l-0.9,6.4c-0.2,1.2,0.1,1.5,1.3,1.7
			c0.4,0.1,0.7,0.1,1.1,0.1l-0.4,2.8c-0.6,0-1.4-0.1-2.1-0.2c-2.2-0.3-4-1.1-3.6-3.6l1.1-7.6l-2.1-0.3l0.3-2.4l2.1,0.3l0.6-3.8
			l3.5,0.5L114.9,11z"/>
		<path id="XMLID_108_" class="st1" d="M120.9,21c-0.3,1.5,0.8,2.4,2.1,2.8c1,0.2,2.4,0.2,2.7-1.1c0.3-1-1.1-1.8-3.5-2.9
			c-1.9-0.9-3.7-2.1-3.2-4.3c0.8-3.2,3.8-3.4,6.5-2.7c2.8,0.7,5.1,2.2,4.6,5.4l-3.3-0.8c0.2-1.4-0.7-2-2-2.3c-0.8-0.2-2-0.3-2.2,0.7
			c-0.3,1.2,1.6,1.9,3.5,2.8c1.9,0.9,3.7,2.2,3.1,4.5c-0.8,3.3-3.9,3.7-6.8,3c-2.9-0.7-5.5-2.5-4.9-5.9L120.9,21z"/>
	</g>
	<g id="XMLID_2_">
		<path id="XMLID_103_" class="st2" d="M74.4,29.7c0,1.7-0.1,2.8-0.3,3.3s-0.6,1.1-1.3,1.7c-1.5,1.2-3.7,1.8-6.5,1.8
			c-2.4,0-4.2-0.4-5.5-1.2c-1.3-0.8-1.9-1.9-1.9-3.3c0-1.3,0.2-2.4,0.6-3.4c0.4-1.1,1.2-2.5,2.4-4.2l0.8,0.5
			c-0.8,1.1-1.3,2.1-1.7,2.9s-0.5,1.5-0.5,2.3c0,1,0.5,1.8,1.6,2.4c1.1,0.6,2.6,0.9,4.5,0.9c1.8,0,3.3-0.3,4.7-1
			c1.3-0.7,2-1.5,2-2.3c0-0.1,0-0.2,0-0.3c0-0.1,0-0.3-0.1-0.4c-0.9,0.1-1.6,0.1-2,0.1c-0.9,0-1.7-0.2-2.2-0.7s-0.8-1.1-0.8-2
			c0-1.3,0.3-2.5,0.9-3.7c0.7-1.3,1.4-2,2.3-2c0.9,0,1.6,0.7,2.2,2c0.5,1.2,0.7,2.7,0.7,4.5V29.7z M73.8,17.2l-1.4,2.6l-1.8-1l-1,2
			l-2.4-1.3l1.3-2.5l1.9,0.9l1.1-2.1L73.8,17.2z M72.1,25.9c-0.2-0.5-0.5-0.9-0.7-1.1c-0.2-0.2-0.5-0.3-0.9-0.3
			c-0.2,0-0.4,0.1-0.5,0.2c-0.1,0.1-0.2,0.3-0.2,0.5c0,0.6,0.4,0.8,1.1,0.8c0.3,0,0.4,0,0.6,0C71.6,25.9,71.8,25.9,72.1,25.9z"/>
		<path id="XMLID_100_" class="st2" d="M84.2,28.5c0,1.5-0.6,2.9-1.9,4.3c-1.2,1.4-2.5,2.1-3.7,2.1c-0.7,0-1.5-0.2-2.3-0.7
			c-0.8-0.5-2.1-1.3-3.9-2.7l0.5-0.7c0.9,0.6,1.7,1,2.3,1.2c0.5,0.2,1,0.3,1.6,0.3c0.8,0,1.6-0.2,2.5-0.7c1-0.5,1.9-1.4,3-2.6
			c-0.4,0.1-0.7,0.1-0.9,0.1c-0.8,0-1.5-0.3-2-0.8C79,27.7,78.7,27,78.7,26c0-1.3,0.3-2.5,0.9-3.7c0.6-1.3,1.4-1.9,2.2-1.9
			c0.7,0,1.3,0.5,1.7,1.4c0.5,0.9,0.7,2,0.7,3.4V28.5z M82.7,25.9c-0.2-1.4-0.7-2.1-1.5-2.1c-0.3,0-0.5,0.1-0.6,0.3
			c-0.2,0.2-0.2,0.4-0.2,0.7c0,0.3,0.2,0.6,0.5,0.8c0.3,0.2,0.8,0.3,1.3,0.3H82.7z"/>
		<path id="XMLID_98_" class="st2" d="M88.4,29.4h-6.1v-3.5h6.1V29.4z"/>
		<path id="XMLID_96_" class="st2" d="M92.6,29.4h-6.1v-3.5h6.1V29.4z"/>
		<path id="XMLID_94_" class="st2" d="M97.8,29.4h-6.1v-3.5h6.1V29.4z"/>
		<path id="XMLID_90_" class="st2" d="M106.3,29.4h-9.4v-3.5h2.3c0.4,0,0.8,0,1.1,0.1c0.9,0.1,2,0.2,3.2,0.3
			c-1.3-0.3-2.2-0.7-2.7-1.1c-0.5-0.5-0.8-1.1-0.8-2c0-1.3,0.3-2.5,0.9-3.6c0.6-1.1,1.3-1.6,2.1-1.6c0.9,0,1.6,0.7,2.3,2.2
			c0.6,1.5,1,3.3,1,5.4V29.4z M104.7,14l-1.4,2.6l-1.8-1l-1,2l-2.4-1.3l1.3-2.5l1.9,0.9l1.1-2.1L104.7,14z M104.6,24
			c-0.3-0.7-0.6-1.3-1-1.7s-0.8-0.6-1.1-0.6c-0.2,0-0.3,0.1-0.4,0.2c-0.1,0.1-0.2,0.2-0.2,0.4c0,0.4,0.3,0.7,0.8,1.1
			C103.2,23.7,103.8,23.9,104.6,24z"/>
		<path id="XMLID_88_" class="st2" d="M111.5,29.4h-6.1v-3.5h6.1V29.4z"/>
		<path id="XMLID_86_" class="st2" d="M125.2,29.4h-14.6v-3.5h9.1c-1-1.1-2-1.8-2.9-2.3c-0.8-0.4-1.5-0.6-2.3-0.6
			c-0.2,0-0.4,0-0.6,0c-0.2,0-0.4,0.1-0.8,0.1c0.5-1.1,1-1.9,1.6-2.4s1.2-0.8,2-0.8c0.6,0,1.1,0.1,1.6,0.4c0.5,0.3,1.1,0.7,1.8,1.3
			c0.5,0.5,1.2,1.2,2.2,2.2c0.6,0.7,1.1,1.2,1.5,1.4c0.3,0.2,0.8,0.4,1.5,0.5V29.4z"/>
		<path id="XMLID_84_" class="st2" d="M49.5,52.6c0,1.3-0.7,2.5-2,3.5c-1.4,1-2.9,1.5-4.7,1.5c-1.5,0-2.6-0.4-3.4-1.1
			c-0.8-0.7-1.2-1.8-1.2-3.1c0-1.2,0.2-2.3,0.5-3.2c0.3-1,1-2.3,2-3.8l0.8,0.5c-0.7,1-1.1,1.9-1.4,2.6c-0.3,0.7-0.4,1.5-0.4,2.2
			c0,0.8,0.3,1.4,0.9,1.8c0.6,0.4,1.4,0.6,2.4,0.6c1.5,0,2.7-0.3,3.7-0.9c0.9-0.6,1.4-1.3,1.4-2.3c0-0.2,0-0.3,0-0.4s0-0.2,0-0.2
			c0-0.3,0-0.7-0.1-1.1c-0.1-0.4-0.2-1.2-0.4-2.5c-0.4-2-0.7-4-1.1-6.1l-0.6-0.5c0-0.8,0.4-2.1,1.2-3.8l0.6,0.3
			c0,0.1-0.1,0.3-0.1,0.4c0,0.3,0.2,0.6,0.5,0.8c0.5,0.3,1,0.6,1.5,0.8c-0.1,0.7-0.2,1.3-0.3,1.6c-0.1,0.3-0.3,0.8-0.6,1.4l-0.4-0.2
			c0,0.1,0.1,0.9,0.4,2.2c0.2,1.3,0.4,2.5,0.6,3.4c0.2,1.4,0.4,2.2,0.4,2.5V52.6z"/>
		<path id="XMLID_82_" class="st2" d="M54.8,52.9H53c-1,0-1.7-0.4-2.2-1.2c-0.5-0.9-0.7-2.4-0.7-4.6v-3.6c0-0.8-0.1-1.5-0.3-1.9
			c-0.1-0.2-0.4-0.5-0.8-1l1.4-3.2c0.5,0.7,0.8,1.4,1,2c0.2,0.8,0.3,1.8,0.3,3v2.5c0,1.8,0.1,3,0.4,3.7c0.2,0.6,0.5,0.8,0.9,0.8h1.8
			V52.9z"/>
		<path id="XMLID_80_" class="st2" d="M60,52.9h-6.1v-3.5H60V52.9z"/>
		<path id="XMLID_78_" class="st2" d="M65.2,52.9h-6.1v-3.5h6.1V52.9z"/>
		<path id="XMLID_76_" class="st2" d="M70.6,52.9h-6.1v-3.5h6.1V52.9z"/>
		<path id="XMLID_74_" class="st2" d="M75,52.9H69v-3.5H75V52.9z"/>
		<path id="XMLID_72_" class="st2" d="M80.2,52.9h-6.1v-3.5h6.1V52.9z"/>
		<path id="XMLID_70_" class="st2" d="M85.4,52.9h-6.1v-3.5h6.1V52.9z"/>
		<path id="XMLID_68_" class="st2" d="M90.6,52.9h-6.1v-3.5h6.1V52.9z"/>
		<path id="XMLID_66_" class="st2" d="M95.8,52.9h-6.1v-3.5h6.1V52.9z"/>
		<path id="XMLID_64_" class="st2" d="M101,52.9h-6.1v-3.5h6.1V52.9z"/>
		<path id="XMLID_62_" class="st2" d="M106.2,52.9h-6.1v-3.5h6.1V52.9z"/>
		<path id="XMLID_59_" class="st2" d="M113.3,52.9h-8v-3.5h6.7c-0.1-0.6-0.3-1.1-0.5-1.5c-0.1-0.2-0.4-0.6-0.9-1.2l1-3
			c0.6,0.7,1.1,1.5,1.3,2.3c0.2,0.8,0.4,2,0.4,3.5V52.9z M113.1,55.2l-1.4,2.6l-1.8-1l-1,2l-2.4-1.3l1.3-2.5l1.9,0.9l1.1-2.1
			L113.1,55.2z"/>
		<path id="XMLID_56_" class="st2" d="M127,52.9h-14.6v-3.5h9.1c-1-1.1-2-1.8-2.9-2.3c-0.8-0.4-1.5-0.6-2.3-0.6c-0.2,0-0.4,0-0.6,0
			c-0.2,0-0.4,0.1-0.8,0.1c0.5-1.1,1-1.9,1.6-2.4s1.2-0.8,2-0.8c0.6,0,1.1,0.1,1.6,0.4c0.5,0.3,1.1,0.7,1.8,1.3
			c0.5,0.5,1.2,1.2,2.2,2.2c0.6,0.7,1.1,1.2,1.5,1.4c0.3,0.2,0.8,0.4,1.5,0.5V52.9z M122.3,55.7l-1.6,2.9l-2.9-1.6l1.6-2.9
			L122.3,55.7z"/>
		<path id="XMLID_52_" class="st2" d="M138.5,39.3c0,0.6-0.1,1.2-0.2,1.8c-0.1,0.3-0.2,0.7-0.4,1.4l-0.9-0.4c0,1-0.1,2-0.4,3
			c-0.2,1-0.6,2-1.2,3c0.5,0.8,0.7,1.3,0.8,1.5c0.2,0.4,0.3,0.7,0.3,1.1v0.4c0,0.2-0.1,1.1-0.2,2.6c-1,0.5-1.8,0.8-2.6,0.9
			s-1.9,0.2-3.4,0.2V51c0.9-0.4,1.5-0.8,1.8-1.1c0.4-0.3,0.9-0.8,1.5-1.6c-1-1.2-1.7-2.1-2.1-2.6c-0.4-0.4-0.8-0.9-1.4-1.4
			c-0.1,0.3-0.2,0.5-0.3,0.6c-0.1,0.1-0.1,0.1-0.2,0.1c-0.2,0-0.6-0.2-1.2-0.5c-0.5-0.3-0.9-0.6-1.2-0.8s-0.5-0.7-0.6-1.4
			s-0.2-1.5-0.2-2.6c0-0.5,0-0.8,0.1-1s0.2-0.3,0.4-0.3c0.3,0,1,0.5,2,1.4c0.9,0.8,1.6,1.6,2.3,2.5c0.5,0.6,1,1.2,1.5,1.8
			c0.4,0.5,1,1.4,1.8,2.7c0.4-0.7,0.6-1.6,0.8-2.8c0.1-0.7,0.1-1.5,0.1-2.4c-0.3-0.1-0.5-0.3-0.6-0.4c-0.1-0.1-0.2-0.3-0.2-0.6
			c0-0.5,0.1-1,0.2-1.6c0.1-0.5,0.3-1.1,0.5-1.7l0.5,0.2c0,0.5,0.1,0.9,0.4,1.1C136.7,38.7,137.4,39,138.5,39.3z M130.5,35.8
			c-0.1,0.3-0.2,0.5-0.3,0.6c-0.1,0.1-0.2,0.2-0.4,0.2l-2.8,0.8c0.2-0.3,0.3-0.5,0.4-0.6s0.3-0.2,0.7-0.4c-0.2-0.2-0.4-0.3-0.5-0.4
			c-0.1-0.1-0.2-0.3-0.2-0.4c0-0.1,0-0.2,0.1-0.4c0.1-0.1,0.2-0.3,0.3-0.4c0.6-0.7,1.1-1.1,1.6-1.1c0.2,0,0.3,0.1,0.4,0.2
			c0.1,0.1,0.1,0.2,0.1,0.4c0,0.1,0,0.3-0.1,0.4c0,0.1-0.1,0.2-0.2,0.4c-0.4-0.2-0.7-0.3-0.9-0.3s-0.3,0-0.5,0.1
			c-0.1,0.1-0.2,0.1-0.3,0.2c0,0.1,0.2,0.3,0.6,0.5s0.7,0.3,0.9,0.3C129.7,36,130,35.9,130.5,35.8z M135.2,50.5l-0.6-0.9
			c-0.4,0.4-0.7,0.7-0.9,0.9c-0.2,0.2-0.6,0.4-1.1,0.8c0.6-0.1,1.1-0.1,1.4-0.2C134.3,50.9,134.7,50.7,135.2,50.5z"/>
		<path id="XMLID_50_" class="st2" d="M142.9,49.2c0,0.8-0.1,1.5-0.3,2.1c-0.2,0.6-0.5,1.5-1,2.5l-0.8-0.3c0.2-1.1,0.3-2,0.3-2.7
			c0-0.5,0-1.3-0.1-2.3c-0.1-1-0.2-2-0.3-3s-0.3-2.2-0.6-3.5c-0.1-0.5-0.2-0.8-0.2-1c0-0.3,0.1-0.7,0.4-1.3c0.3-0.6,0.6-1.4,1.1-2.3
			l0.8,4.5c0.3,1.7,0.5,3.2,0.6,4.5C142.9,47.4,142.9,48.3,142.9,49.2z"/>
		<path id="XMLID_46_" class="st2" d="M39.3,76.5h-1.7c-0.3,0-0.6-0.1-0.8-0.2c-0.5-0.2-0.9-0.7-1.3-1.4c-0.5-0.9-0.8-2.1-0.9-3.7
			c-0.6,0.7-1,1.2-1.4,1.5c-0.5,0.4-0.9,0.7-1.2,0.7c-0.2,0-0.4,0-0.6-0.1l-1.6-0.3c-0.7-0.1-1.1-0.2-1.2-0.3s-0.2-0.2-0.2-0.3
			c0-0.2,0.3-1,0.9-2.2c0.6-1.2,1-2,1.3-2.3c0.2-0.2,0.6-0.5,1.1-0.9c0.3-0.2,0.8-0.5,1.4-0.9l0.7-0.4c0-0.1,0-0.2-0.1-0.4
			c0-0.1,0-0.2,0-0.4c0-0.3,0.1-0.7,0.2-1.2c0.1-0.5,0.4-1.1,0.8-1.8l1.2,8c0.2,1.3,0.5,2.1,0.8,2.5c0.2,0.3,0.5,0.4,0.8,0.4h1.7
			V76.5z M36.4,58.6L35,61l-1.8-1l-1,2l-2.4-1.3l1.3-2.3l1.9,0.9l1.1-2L36.4,58.6z M34.3,69.3l-0.3-1.5c-0.3,0.1-0.5,0.2-0.6,0.3
			c-0.5,0.2-0.8,0.5-1.1,0.7c-0.2,0.2-0.4,0.3-0.5,0.5c-0.2,0.2-0.3,0.3-0.3,0.4c0,0.1,0.1,0.2,0.4,0.3c0.3,0.1,0.6,0.1,0.9,0.1
			c0.2,0,0.4-0.1,0.6-0.2C33.7,69.8,34,69.6,34.3,69.3z"/>
		<path id="XMLID_44_" class="st2" d="M44.5,76.5h-6.1V73h6.1V76.5z"/>
		<path id="XMLID_42_" class="st2" d="M49.7,76.5h-6.1V73h6.1V76.5z"/>
		<path id="XMLID_40_" class="st2" d="M54.9,76.5h-6.1V73h6.1V76.5z"/>
		<path id="XMLID_38_" class="st2" d="M60.1,76.5H54V73h6.1V76.5z"/>
		<path id="XMLID_36_" class="st2" d="M65.3,76.5h-6.1V73h6.1V76.5z"/>
		<path id="XMLID_34_" class="st2" d="M70.5,76.5h-6.1V73h6.1V76.5z"/>
		<path id="XMLID_32_" class="st2" d="M75.6,76.5h-6.1V73h6.1V76.5z"/>
		<path id="XMLID_30_" class="st2" d="M80.8,76.5h-6.1V73h6.1V76.5z"/>
		<path id="XMLID_28_" class="st2" d="M86,76.5h-6.1V73H86V76.5z"/>
		<path id="XMLID_26_" class="st2" d="M91.2,76.5h-6.1V73h6.1V76.5z"/>
		<path id="XMLID_24_" class="st2" d="M96.4,76.5h-6.1V73h6.1V76.5z"/>
		<path id="XMLID_22_" class="st2" d="M101.6,76.5h-6.1V73h6.1V76.5z"/>
		<path id="XMLID_20_" class="st2" d="M106.8,76.5h-6.1V73h6.1V76.5z"/>
		<path id="XMLID_18_" class="st2" d="M112,76.5h-6.1V73h6.1V76.5z"/>
		<path id="XMLID_15_" class="st2" d="M122.9,76.5c-0.9,0-1.9-0.2-3.2-0.5c-1.1-0.3-2-0.7-2.8-1.1c-0.5,0.7-1.1,1.2-1.8,1.5
			c-0.3,0.1-0.8,0.2-1.4,0.2h-2.5V73h2.5c0.8,0,1.4-0.1,1.8-0.3c0.6-0.2,1-0.7,1.2-1.2c0.5-1.1,1.1-2,1.9-2.7
			c0.7-0.6,1.2-0.9,1.7-0.9c0.4,0,1,0.7,1.6,2c0.7,1.4,1,2.7,1,3.8V76.5z M120.5,72.6c0-0.2-0.2-0.5-0.5-1c-0.4-0.5-0.8-0.8-1.1-0.8
			c-0.3,0-0.6,0.4-0.8,1.2c0.4,0.2,0.8,0.3,1,0.4c0.7,0.3,1.1,0.4,1.2,0.4C120.4,72.8,120.5,72.8,120.5,72.6z"/>
		<path id="XMLID_13_" class="st2" d="M130.1,76.5h-5.8c-0.6,0-1-0.1-1.3-0.4c-0.4-0.3-0.5-0.8-0.5-1.4c0-0.4,0-0.8,0.1-1.2
			c0-0.4,0.1-0.9,0.2-1.3l0.5,0c0.1,0.3,0.2,0.5,0.5,0.7c0.2,0.1,0.5,0.2,0.8,0.2h4.4c-0.2-1.3-0.5-2.3-1-3c-0.4-0.6-1-1.2-1.7-1.6
			l0.9-4c1.1,0.8,1.9,1.9,2.4,3.2c0.4,1.2,0.6,2.8,0.6,4.8V76.5z"/>
		<path id="XMLID_11_" class="st2" d="M134.5,76.5h-1.8c-1,0-1.7-0.4-2.2-1.2c-0.5-0.9-0.7-2.4-0.7-4.6v-3.6c0-0.8-0.1-1.5-0.3-1.9
			c-0.1-0.2-0.4-0.5-0.8-1l1.4-3.2c0.5,0.7,0.8,1.4,1,2c0.2,0.8,0.3,1.8,0.3,3v2.5c0,1.8,0.1,3,0.4,3.7c0.2,0.6,0.5,0.8,0.9,0.8h1.8
			V76.5z"/>
		<path id="XMLID_7_" class="st2" d="M143,76.5h-9.4V73h2.3c0.4,0,0.8,0,1.1,0.1c0.9,0.1,2,0.2,3.2,0.3c-1.3-0.3-2.2-0.7-2.7-1.1
			c-0.5-0.5-0.8-1.1-0.8-2c0-1.3,0.3-2.5,0.9-3.6c0.6-1.1,1.3-1.6,2.1-1.6c0.9,0,1.6,0.7,2.3,2.2c0.6,1.5,1,3.3,1,5.4V76.5z
			 M141.4,61.1l-1.4,2.6l-1.8-1l-1,2l-2.4-1.3l1.3-2.5l1.9,0.9l1.1-2.1L141.4,61.1z M141.2,71.2c-0.3-0.7-0.6-1.3-1-1.7
			s-0.8-0.6-1.1-0.6c-0.2,0-0.3,0.1-0.4,0.2c-0.1,0.1-0.2,0.2-0.2,0.4c0,0.4,0.3,0.7,0.8,1.1C139.8,70.9,140.5,71.1,141.2,71.2z"/>
		<path id="XMLID_5_" class="st2" d="M149.1,76.5h-7V73h5.5l-1.5-8.7l-0.8-0.5c0-0.5,0.1-1,0.2-1.5c0.2-0.6,0.5-1.4,1-2.3l0.6,0.3
			c0,0.1,0,0.2-0.1,0.4c0,0.3,0.2,0.6,0.5,0.8c0.3,0.2,0.8,0.5,1.5,0.8c-0.1,0.5-0.2,1.1-0.3,1.6c-0.1,0.5-0.3,1-0.5,1.4l-0.5-0.2
			l1.4,7.9V76.5z"/>
		<path id="XMLID_3_" class="st2" d="M152.1,72.8c0,0.8-0.1,1.5-0.3,2.1c-0.2,0.6-0.5,1.5-1,2.5l-0.8-0.3c0.2-1.1,0.3-2,0.3-2.7
			c0-0.5,0-1.3-0.1-2.3c-0.1-1-0.2-2-0.3-3s-0.3-2.2-0.6-3.5c-0.1-0.5-0.2-0.8-0.2-1c0-0.3,0.1-0.7,0.4-1.3c0.3-0.6,0.6-1.4,1.1-2.3
			l0.8,4.5c0.3,1.7,0.5,3.2,0.6,4.5C152,71,152.1,71.9,152.1,72.8z"/>
	</g>
</g>
</svg>
