<!-- Generator: Adobe Illustrator 23.1.1, SVG Export Plug-In  -->
<svg version="1.1" xmlns="http://www.w3.org/2000/svg" xmlns:xlink="http://www.w3.org/1999/xlink" x="0px" y="0px" width="162.3px"
	 height="85px" viewBox="0 0 162.3 85" style="enable-background:new 0 0 162.3 85;" xml:space="preserve">
<style type="text/css">
	.st0{fill:#FFFFFF;}
	.st1{fill:#006450;}
</style>
<defs>
</defs>
<g id="XMLID_1_">
	<ellipse id="XMLID_28_" class="st0" cx="81.2" cy="42.5" rx="81.2" ry="42.5"/>
	<g id="XMLID_2_">
		<g>
			<path id="XMLID_13_" class="st1" d="M13.8,21.6h16c6.4,0,10.4,3.5,10.4,8.9c0,4.1-1.8,7.5-5.9,8.6v0.1c4,0.8,4.8,3.7,5.1,7
				c0.3,3.3,0.1,7.1,2,9.4h-5.1c-1.3-1.4-0.6-5.1-1.2-8.4c-0.5-3.3-1.3-6.2-5.7-6.2H18.3v14.6h-4.5V21.6z M27.8,37.3
				c4.2,0,7.9-1.1,7.9-6.1c0-3.3-1.8-5.8-6.1-5.8H18.3v11.9H27.8z"/>
			<path id="XMLID_11_" class="st1" d="M46,21.6h22.4v3.8H50.5v10.8h15.6v3.8H50.5v15.6H46V21.6z"/>
			<path id="XMLID_9_" class="st1" d="M98.4,51.4c-2.6,3.6-6.9,5.1-10.9,5.1c-10.2,0-16.2-8.3-16.2-17.2c0-9.9,5.4-18.5,16.2-18.5
				c7.4,0,13.4,3.3,14.6,11.3h-4.5c-0.9-5.2-5.1-7.5-10.1-7.5c-8.3,0-11.7,7.2-11.7,14.5c0,7.1,4.1,13.6,11.7,13.6
				c7,0,11.2-4.9,10.9-11.1H87.5v-3.8h14.9v17.9h-2.9L98.4,51.4z"/>
			<path id="XMLID_6_" class="st1" d="M129,47.8c-1.1,5.4-5,8.4-10.5,8.4c-7.9,0-11.6-5.4-11.8-13c0-7.4,4.9-12.8,11.6-12.8
				c8.7,0,11.4,8.2,11.2,14.1h-18.5c-0.1,4.3,2.3,8.1,7.7,8.1c3.3,0,5.7-1.6,6.4-4.8H129z M125.1,41c-0.2-3.9-3.1-7-7.1-7
				c-4.2,0-6.8,3.2-7.1,7H125.1z"/>
			<path id="XMLID_4_" class="st1" d="M133.1,31h3.8v3.9h0.1c1.7-3.1,4.5-4.5,8-4.5c6.5,0,8.5,3.7,8.5,9v16.2h-4.1V39c0-3-1.9-5-5-5
				c-4.9,0-7.3,3.3-7.3,7.7v13.9h-4.1V31z"/>
		</g>
	</g>
</g>
</svg>
