<!-- Generator: Adobe Illustrator 23.1.1, SVG Export Plug-In  -->
<svg version="1.1" xmlns="http://www.w3.org/2000/svg" xmlns:xlink="http://www.w3.org/1999/xlink" x="0px" y="0px" width="181.4px"
	 height="90.7px" viewBox="0 0 181.4 90.7" style="enable-background:new 0 0 181.4 90.7;" xml:space="preserve">
<style type="text/css">
	.st0{fill:#FF4433;}
	.st1{fill:#FFFFFF;}
	.st2{fill:#006450;}
</style>
<defs>
</defs>
<path id="XMLID_169_" class="st0" d="M102,0L102,0c0,6.3-5.1,11.3-11.3,11.3c-6.3,0-11.3-5.1-11.3-11.3l0,0H0v90.7h79.4l0,0
	c0-6.3,5.1-11.3,11.3-11.3c6.3,0,11.3,5.1,11.3,11.3l0,0h79.4V0H102z"/>
<g id="XMLID_153_">
	<g>
		<path class="st1" d="M53.9,9.7h9.7c3.2,0,5.2,2.2,5.2,4.9c0,2.1-0.9,3.7-2.8,4.5v0c1.9,0.5,2.5,2.4,2.6,4.2
			c0.1,1.1,0.1,3.2,0.8,4.2h-3.9c-0.5-1.1-0.4-2.9-0.6-4.3c-0.3-1.9-1-2.7-3-2.7h-3.9v7h-3.9V9.7z M57.8,17.7h4.3
			c1.8,0,2.7-0.8,2.7-2.6c0-1.7-1-2.5-2.7-2.5h-4.3V17.7z"/>
		<path class="st1" d="M75.3,12.6h-3.6V9.7h3.6V12.6z M71.7,14.6h3.6v13h-3.6V14.6z"/>
		<path class="st1" d="M90.6,26.7c0,2.1-0.8,5.7-6.7,5.7c-2.6,0-5.5-1.2-5.7-4.2h3.5c0.3,1.3,1.4,1.8,2.7,1.8c2,0,2.9-1.4,2.9-3.2
			v-1.7h-0.1c-0.8,1.4-2.3,2-3.9,2c-3.9,0-5.5-3-5.5-6.5c0-3.4,1.9-6.4,5.6-6.4c1.7,0,3,0.6,3.9,2.1h0.1v-1.7h3.4V26.7z M87.2,20.9
			c0-2.1-0.7-4-3-4c-2,0-2.9,1.8-2.9,3.7c0,1.9,0.7,3.9,2.9,3.9C86.2,24.5,87.2,22.8,87.2,20.9z"/>
		<path class="st1" d="M93.4,9.7H97v6.7h0.1c0.9-1.5,2.5-2.2,3.8-2.2c3.8,0,4.7,2.1,4.7,5.3v8H102v-7.3c0-2.1-0.6-3.2-2.3-3.2
			c-1.9,0-2.8,1.1-2.8,3.7v6.8h-3.6V9.7z"/>
		<path class="st1" d="M112.8,14.6h2.6V17h-2.6v6.4c0,1.2,0.3,1.5,1.5,1.5c0.4,0,0.7,0,1.1-0.1v2.8c-0.6,0.1-1.4,0.1-2.1,0.1
			c-2.2,0-4.1-0.5-4.1-3.1V17h-2.2v-2.4h2.2v-3.9h3.6V14.6z"/>
		<path class="st1" d="M119.9,23.3c0,1.6,1.3,2.2,2.7,2.2c1,0,2.3-0.4,2.3-1.7c0-1.1-1.5-1.5-4-2c-2.1-0.5-4.1-1.2-4.1-3.5
			c0-3.3,2.9-4.2,5.6-4.2c2.8,0,5.4,1,5.7,4.1h-3.4c-0.1-1.4-1.2-1.8-2.4-1.8c-0.8,0-2,0.2-2,1.2c0,1.3,2,1.5,4,1.9
			c2.1,0.5,4.1,1.2,4.1,3.6c0,3.4-3,4.5-5.9,4.5c-3,0-5.9-1.1-6.1-4.6H119.9z"/>
	</g>
</g>
<g id="XMLID_134_">
	<path id="XMLID_150_" class="st1" d="M44.5,40.3c4.1,0,6.7,2.7,6.7,6.8c0,4.1-2.6,6.8-6.7,6.8c-4.1,0-6.7-2.7-6.7-6.8
		C37.8,43,40.4,40.3,44.5,40.3z M44.5,51.3c2.4,0,3.2-2.1,3.2-4.1c0-2.1-0.7-4.2-3.2-4.2c-2.4,0-3.1,2.1-3.1,4.2
		C41.3,49.2,42.1,51.3,44.5,51.3z"/>
	<path id="XMLID_148_" class="st1" d="M54.3,43h-2.1v-2.4h2.1v-1c0-2.3,1.4-3.9,4.3-3.9c0.6,0,1.3,0.1,1.9,0.1v2.7
		c-0.4,0-0.9-0.1-1.3-0.1c-1,0-1.4,0.4-1.4,1.5v0.8h2.5V43h-2.5v10.6h-3.6V43z"/>
	<path id="XMLID_146_" class="st1" d="M69.2,35.7h12.6V39h-8.6v4.1h7.5v3.1h-7.5v7.4h-3.9V35.7z"/>
	<path id="XMLID_144_" class="st1" d="M95.8,53.6h-3.4v-1.8h-0.1c-0.9,1.5-2.5,2.2-4,2.2c-3.8,0-4.7-2.1-4.7-5.3v-8h3.6V48
		c0,2.1,0.6,3.2,2.3,3.2c1.9,0,2.8-1.1,2.8-3.7v-6.8h3.6V53.6z"/>
	<path id="XMLID_142_" class="st1" d="M103.1,40.7h2.6V43h-2.6v6.4c0,1.2,0.3,1.5,1.5,1.5c0.4,0,0.7,0,1.1-0.1v2.8
		c-0.6,0.1-1.4,0.1-2.1,0.1c-2.2,0-4.1-0.5-4.1-3.1V43h-2.2v-2.4h2.2v-3.9h3.6V40.7z"/>
	<path id="XMLID_140_" class="st1" d="M119.5,53.6h-3.4v-1.8h-0.1c-0.9,1.5-2.5,2.2-4,2.2c-3.8,0-4.7-2.1-4.7-5.3v-8h3.6V48
		c0,2.1,0.6,3.2,2.3,3.2c1.9,0,2.8-1.1,2.8-3.7v-6.8h3.6V53.6z"/>
	<path id="XMLID_138_" class="st1" d="M122.3,40.7h3.4v2.4h0c0.7-1.6,2.4-2.8,4.1-2.8c0.3,0,0.6,0.1,0.8,0.1v3.3
		c-0.3-0.1-0.9-0.1-1.3-0.1c-2.6,0-3.5,1.9-3.5,4.2v5.8h-3.6V40.7z"/>
	<path id="XMLID_135_" class="st1" d="M134.5,48c0.1,2.3,1.2,3.3,3.2,3.3c1.4,0,2.6-0.9,2.8-1.7h3.1c-1,3.1-3.1,4.4-6.1,4.4
		c-4.1,0-6.6-2.8-6.6-6.8c0-3.9,2.7-6.8,6.6-6.8c4.4,0,6.5,3.7,6.3,7.7H134.5z M140.3,45.7c-0.3-1.8-1.1-2.8-2.8-2.8
		c-2.3,0-2.9,1.8-3,2.8H140.3z"/>
</g>
<g id="XMLID_106_">
	<path id="XMLID_132_" class="st1" d="M32.5,77.3c-1.4,1.8-3.2,2.5-4.9,2.5c-5.5,0-8.8-4.1-8.8-9.3c0-5.3,3.3-9.5,8.8-9.5
		c3.7,0,7.1,2.3,7.5,6.3h-3.8c-0.5-2-1.9-3-3.8-3c-3.5,0-4.9,3-4.9,6.1c0,3,1.3,6,4.9,6c2.6,0,4-1.4,4.3-3.9h-4v-2.9h7.5v9.7h-2.5
		L32.5,77.3z"/>
	<path id="XMLID_129_" class="st1" d="M41.1,73.8c0.1,2.3,1.2,3.3,3.2,3.3c1.4,0,2.6-0.9,2.8-1.7h3.1c-1,3.1-3.1,4.4-6.1,4.4
		c-4.1,0-6.6-2.8-6.6-6.8c0-3.9,2.7-6.8,6.6-6.8c4.4,0,6.5,3.7,6.3,7.7H41.1z M46.9,71.5c-0.3-1.8-1.1-2.8-2.8-2.8
		c-2.3,0-2.9,1.8-3,2.8H46.9z"/>
	<path id="XMLID_127_" class="st1" d="M52.6,66.4H56v1.8h0.1c0.9-1.5,2.5-2.2,4-2.2c3.8,0,4.7,2.1,4.7,5.3v8h-3.6v-7.3
		c0-2.1-0.6-3.2-2.3-3.2c-1.9,0-2.8,1.1-2.8,3.7v6.8h-3.6V66.4z"/>
	<path id="XMLID_124_" class="st1" d="M70.4,73.8c0.1,2.3,1.2,3.3,3.2,3.3c1.4,0,2.6-0.9,2.8-1.7h3.1c-1,3.1-3.1,4.4-6.1,4.4
		c-4.1,0-6.6-2.8-6.6-6.8c0-3.9,2.7-6.8,6.6-6.8c4.4,0,6.5,3.7,6.3,7.7H70.4z M76.2,71.5c-0.3-1.8-1.1-2.8-2.8-2.8
		c-2.3,0-2.9,1.8-3,2.8H76.2z"/>
	<path id="XMLID_122_" class="st1" d="M81.9,66.4h3.4v2.4h0c0.7-1.6,2.4-2.8,4.1-2.8c0.3,0,0.6,0.1,0.8,0.1v3.3
		c-0.3-0.1-0.9-0.1-1.3-0.1c-2.6,0-3.5,1.9-3.5,4.2v5.8h-3.6V66.4z"/>
	<path id="XMLID_119_" class="st1" d="M91.5,70.4c0.2-3.3,3.2-4.3,6.1-4.3c2.6,0,5.7,0.6,5.7,3.7v6.7c0,1.2,0.1,2.4,0.5,2.9h-3.6
		c-0.1-0.4-0.2-0.8-0.2-1.3c-1.1,1.2-2.8,1.6-4.4,1.6c-2.5,0-4.4-1.2-4.4-3.9c0-2.9,2.2-3.6,4.4-3.9c2.2-0.3,4.2-0.3,4.2-1.7
		c0-1.5-1.1-1.8-2.3-1.8c-1.4,0-2.2,0.6-2.4,2H91.5z M99.7,73c-0.6,0.5-1.9,0.6-3,0.8c-1.1,0.2-2.1,0.6-2.1,1.9c0,1.3,1,1.7,2.2,1.7
		c2.8,0,2.9-2.2,2.9-3V73z"/>
	<path id="XMLID_117_" class="st1" d="M110.5,66.4h2.6v2.4h-2.6v6.4c0,1.2,0.3,1.5,1.5,1.5c0.4,0,0.7,0,1.1-0.1v2.8
		c-0.6,0.1-1.4,0.1-2.1,0.1c-2.2,0-4.1-0.5-4.1-3.1v-7.6h-2.2v-2.4h2.2v-3.9h3.6V66.4z"/>
	<path id="XMLID_114_" class="st1" d="M118.5,64.4h-3.6v-2.9h3.6V64.4z M114.9,66.4h3.6v13h-3.6V66.4z"/>
	<path id="XMLID_111_" class="st1" d="M127.6,66.1c4.1,0,6.7,2.7,6.7,6.8c0,4.1-2.6,6.8-6.7,6.8c-4.1,0-6.7-2.7-6.7-6.8
		C120.9,68.8,123.5,66.1,127.6,66.1z M127.6,77c2.4,0,3.2-2.1,3.2-4.1c0-2.1-0.7-4.2-3.2-4.2c-2.4,0-3.1,2.1-3.1,4.2
		C124.5,75,125.2,77,127.6,77z"/>
	<path id="XMLID_109_" class="st1" d="M136.6,66.4h3.4v1.8h0.1c0.9-1.5,2.5-2.2,4-2.2c3.8,0,4.7,2.1,4.7,5.3v8h-3.6v-7.3
		c0-2.1-0.6-3.2-2.3-3.2c-1.9,0-2.8,1.1-2.8,3.7v6.8h-3.6V66.4z"/>
	<path id="XMLID_107_" class="st1" d="M154.3,75.2c0,1.6,1.3,2.2,2.7,2.2c1,0,2.3-0.4,2.3-1.7c0-1.1-1.5-1.5-4-2
		c-2.1-0.5-4.1-1.2-4.1-3.5c0-3.3,2.9-4.2,5.6-4.2c2.8,0,5.4,1,5.7,4.1h-3.4c-0.1-1.4-1.2-1.8-2.4-1.8c-0.8,0-2,0.2-2,1.2
		c0,1.3,2,1.5,4,1.9c2.1,0.5,4.1,1.2,4.1,3.6c0,3.4-3,4.5-5.9,4.5c-3,0-5.9-1.1-6.1-4.6H154.3z"/>
</g>
<g id="XMLID_1_">
	<path id="XMLID_102_" class="st2" d="M74.4,23.2c0,1.7-0.1,2.8-0.3,3.3s-0.6,1.1-1.3,1.7C71.2,29.4,69,30,66.2,30
		c-2.4,0-4.2-0.4-5.5-1.2c-1.3-0.8-1.9-1.9-1.9-3.3c0-1.3,0.2-2.4,0.6-3.4c0.4-1.1,1.2-2.5,2.4-4.2l0.8,0.5
		c-0.8,1.1-1.3,2.1-1.7,2.9s-0.5,1.5-0.5,2.3c0,1,0.5,1.8,1.6,2.4c1.1,0.6,2.6,0.9,4.5,0.9c1.8,0,3.3-0.3,4.7-1c1.3-0.7,2-1.5,2-2.3
		c0-0.1,0-0.2,0-0.3c0-0.1,0-0.3-0.1-0.4c-0.9,0.1-1.6,0.1-2,0.1c-0.9,0-1.7-0.2-2.2-0.7s-0.8-1.1-0.8-2c0-1.3,0.3-2.5,0.9-3.7
		c0.7-1.3,1.4-2,2.3-2c0.9,0,1.6,0.7,2.2,2c0.5,1.2,0.7,2.7,0.7,4.5V23.2z M73.8,10.7l-1.4,2.6l-1.8-1l-1,2L67.2,13l1.3-2.5l1.9,0.9
		l1.1-2.1L73.8,10.7z M72,19.4c-0.2-0.5-0.5-0.9-0.7-1.1c-0.2-0.2-0.5-0.3-0.9-0.3c-0.2,0-0.4,0.1-0.5,0.2c-0.1,0.1-0.2,0.3-0.2,0.5
		c0,0.6,0.4,0.8,1.1,0.8c0.3,0,0.4,0,0.6,0C71.5,19.4,71.7,19.4,72,19.4z"/>
	<path id="XMLID_99_" class="st2" d="M84.2,22c0,1.5-0.6,2.9-1.9,4.3c-1.2,1.4-2.5,2.1-3.7,2.1c-0.7,0-1.5-0.2-2.3-0.7
		c-0.8-0.5-2.1-1.3-3.9-2.7l0.5-0.7c0.9,0.6,1.7,1,2.3,1.2c0.5,0.2,1,0.3,1.6,0.3c0.8,0,1.6-0.2,2.5-0.7c1-0.5,1.9-1.4,3-2.6
		c-0.4,0.1-0.7,0.1-0.9,0.1c-0.8,0-1.5-0.3-2-0.8c-0.5-0.5-0.7-1.3-0.7-2.2c0-1.3,0.3-2.5,0.9-3.7c0.6-1.3,1.4-1.9,2.2-1.9
		c0.7,0,1.3,0.5,1.7,1.4c0.5,0.9,0.7,2,0.7,3.4V22z M82.7,19.4c-0.2-1.4-0.7-2.1-1.5-2.1c-0.3,0-0.5,0.1-0.6,0.3
		c-0.2,0.2-0.2,0.4-0.2,0.7c0,0.3,0.2,0.6,0.5,0.8c0.3,0.2,0.8,0.3,1.3,0.3H82.7z"/>
	<path id="XMLID_97_" class="st2" d="M88.3,22.9h-6.1v-3.5h6.1V22.9z"/>
	<path id="XMLID_95_" class="st2" d="M92.6,22.9h-6.1v-3.5h6.1V22.9z"/>
	<path id="XMLID_93_" class="st2" d="M97.8,22.9h-6.1v-3.5h6.1V22.9z"/>
	<path id="XMLID_89_" class="st2" d="M106.3,22.9h-9.4v-3.5h2.3c0.4,0,0.8,0,1.1,0.1c0.9,0.1,2,0.2,3.2,0.3
		c-1.3-0.3-2.2-0.7-2.7-1.1c-0.5-0.5-0.8-1.1-0.8-2c0-1.3,0.3-2.5,0.9-3.6c0.6-1.1,1.3-1.6,2.1-1.6c0.9,0,1.6,0.7,2.3,2.2
		c0.6,1.5,1,3.3,1,5.4V22.9z M104.7,7.5l-1.4,2.6l-1.8-1l-1,2l-2.4-1.3l1.3-2.5l1.9,0.9l1.1-2.1L104.7,7.5z M104.6,17.6
		c-0.3-0.7-0.6-1.3-1-1.7s-0.8-0.6-1.1-0.6c-0.2,0-0.3,0.1-0.4,0.2c-0.1,0.1-0.2,0.2-0.2,0.4c0,0.4,0.3,0.7,0.8,1.1
		C103.1,17.2,103.8,17.4,104.6,17.6z"/>
	<path id="XMLID_87_" class="st2" d="M111.5,22.9h-6.1v-3.5h6.1V22.9z"/>
	<path id="XMLID_85_" class="st2" d="M125.2,22.9h-14.6v-3.5h9.1c-1-1.1-2-1.8-2.9-2.3c-0.8-0.4-1.5-0.6-2.3-0.6c-0.2,0-0.4,0-0.6,0
		c-0.2,0-0.4,0.1-0.8,0.1c0.5-1.1,1-1.9,1.6-2.4s1.2-0.8,2-0.8c0.6,0,1.1,0.1,1.6,0.4c0.5,0.3,1.1,0.7,1.8,1.3
		c0.5,0.5,1.2,1.2,2.2,2.2c0.6,0.7,1.1,1.2,1.5,1.4c0.3,0.2,0.8,0.4,1.5,0.5V22.9z"/>
	<path id="XMLID_83_" class="st2" d="M49.4,48.5c0,1.3-0.7,2.5-2,3.5c-1.4,1-2.9,1.5-4.7,1.5c-1.5,0-2.6-0.4-3.4-1.1
		c-0.8-0.7-1.2-1.8-1.2-3.1c0-1.2,0.2-2.3,0.5-3.2c0.3-1,1-2.3,2-3.8l0.8,0.5c-0.7,1-1.1,1.9-1.4,2.6c-0.3,0.7-0.4,1.5-0.4,2.2
		c0,0.8,0.3,1.4,0.9,1.8c0.6,0.4,1.4,0.6,2.4,0.6c1.5,0,2.7-0.3,3.7-0.9c0.9-0.6,1.4-1.3,1.4-2.3c0-0.2,0-0.3,0-0.4s0-0.2,0-0.2
		c0-0.3,0-0.7-0.1-1.1c-0.1-0.4-0.2-1.2-0.4-2.5c-0.4-2-0.7-4-1.1-6.1l-0.6-0.5c0-0.8,0.4-2.1,1.2-3.8l0.6,0.3
		c0,0.1-0.1,0.3-0.1,0.4c0,0.3,0.2,0.6,0.5,0.8c0.5,0.3,1,0.6,1.5,0.8c-0.1,0.7-0.2,1.3-0.3,1.6c-0.1,0.3-0.3,0.8-0.6,1.4l-0.4-0.2
		c0,0.1,0.1,0.9,0.4,2.2c0.2,1.3,0.4,2.5,0.6,3.4c0.2,1.4,0.4,2.2,0.4,2.5V48.5z"/>
	<path id="XMLID_81_" class="st2" d="M54.8,48.9H53c-1,0-1.7-0.4-2.2-1.2c-0.5-0.9-0.7-2.4-0.7-4.6v-3.6c0-0.8-0.1-1.5-0.3-1.9
		c-0.1-0.2-0.4-0.5-0.8-1l1.4-3.2c0.5,0.7,0.8,1.4,1,2c0.2,0.8,0.3,1.8,0.3,3v2.5c0,1.8,0.1,3,0.4,3.7c0.2,0.6,0.5,0.8,0.9,0.8h1.8
		V48.9z"/>
	<path id="XMLID_79_" class="st2" d="M60,48.9h-6.1v-3.5H60V48.9z"/>
	<path id="XMLID_77_" class="st2" d="M65.2,48.9h-6.1v-3.5h6.1V48.9z"/>
	<path id="XMLID_75_" class="st2" d="M70.6,48.9h-6.1v-3.5h6.1V48.9z"/>
	<path id="XMLID_73_" class="st2" d="M75,48.9h-6.1v-3.5H75V48.9z"/>
	<path id="XMLID_71_" class="st2" d="M80.2,48.9h-6.1v-3.5h6.1V48.9z"/>
	<path id="XMLID_69_" class="st2" d="M85.4,48.9h-6.1v-3.5h6.1V48.9z"/>
	<path id="XMLID_67_" class="st2" d="M90.6,48.9h-6.1v-3.5h6.1V48.9z"/>
	<path id="XMLID_65_" class="st2" d="M95.8,48.9h-6.1v-3.5h6.1V48.9z"/>
	<path id="XMLID_63_" class="st2" d="M101,48.9h-6.1v-3.5h6.1V48.9z"/>
	<path id="XMLID_61_" class="st2" d="M106.2,48.9h-6.1v-3.5h6.1V48.9z"/>
	<path id="XMLID_58_" class="st2" d="M113.3,48.9h-8v-3.5h6.7c-0.1-0.6-0.3-1.1-0.5-1.5c-0.1-0.2-0.4-0.6-0.9-1.2l1-3
		c0.6,0.7,1.1,1.5,1.3,2.3c0.2,0.8,0.4,2,0.4,3.5V48.9z M113.1,51.1l-1.4,2.6l-1.8-1l-1,2l-2.4-1.3l1.3-2.5l1.9,0.9l1.1-2.1
		L113.1,51.1z"/>
	<path id="XMLID_55_" class="st2" d="M127,48.9h-14.6v-3.5h9.1c-1-1.1-2-1.8-2.9-2.3c-0.8-0.4-1.5-0.6-2.3-0.6c-0.2,0-0.4,0-0.6,0
		c-0.2,0-0.4,0.1-0.8,0.1c0.5-1.1,1-1.9,1.6-2.4s1.2-0.8,2-0.8c0.6,0,1.1,0.1,1.6,0.4c0.5,0.3,1.1,0.7,1.8,1.3
		c0.5,0.5,1.2,1.2,2.2,2.2c0.6,0.7,1.1,1.2,1.5,1.4c0.3,0.2,0.8,0.4,1.5,0.5V48.9z M122.2,51.7l-1.6,2.9l-2.9-1.6l1.6-2.9
		L122.2,51.7z"/>
	<path id="XMLID_51_" class="st2" d="M138.5,35.3c0,0.6-0.1,1.2-0.2,1.8c-0.1,0.3-0.2,0.7-0.4,1.4l-0.9-0.4c0,1-0.1,2-0.4,3
		c-0.2,1-0.6,2-1.2,3c0.5,0.8,0.7,1.3,0.8,1.5c0.2,0.4,0.3,0.7,0.3,1.1V47c0,0.2-0.1,1.1-0.2,2.6c-1,0.5-1.8,0.8-2.6,0.9
		s-1.9,0.2-3.4,0.2v-3.8c0.9-0.4,1.5-0.8,1.8-1.1c0.4-0.3,0.9-0.8,1.5-1.6c-1-1.2-1.7-2.1-2.1-2.6c-0.4-0.4-0.8-0.9-1.4-1.4
		c-0.1,0.3-0.2,0.5-0.3,0.6c-0.1,0.1-0.1,0.1-0.2,0.1c-0.2,0-0.6-0.2-1.2-0.5c-0.5-0.3-0.9-0.6-1.2-0.8s-0.5-0.7-0.6-1.4
		s-0.2-1.5-0.2-2.6c0-0.5,0-0.8,0.1-1s0.2-0.3,0.4-0.3c0.3,0,1,0.5,2,1.4c0.9,0.8,1.6,1.6,2.3,2.5c0.5,0.6,1,1.2,1.5,1.8
		c0.4,0.5,1,1.4,1.8,2.7c0.4-0.7,0.6-1.6,0.8-2.8c0.1-0.7,0.1-1.5,0.1-2.4c-0.3-0.1-0.5-0.3-0.6-0.4c-0.1-0.1-0.2-0.3-0.2-0.6
		c0-0.5,0.1-1,0.2-1.6c0.1-0.5,0.3-1.1,0.5-1.7l0.5,0.2c0,0.5,0.1,0.9,0.4,1.1C136.7,34.7,137.4,34.9,138.5,35.3z M130.5,31.7
		c-0.1,0.3-0.2,0.5-0.3,0.6c-0.1,0.1-0.2,0.2-0.4,0.2l-2.8,0.8c0.2-0.3,0.3-0.5,0.4-0.6s0.3-0.2,0.7-0.4c-0.2-0.2-0.4-0.3-0.5-0.4
		c-0.1-0.1-0.2-0.3-0.2-0.4c0-0.1,0-0.2,0.1-0.4c0.1-0.1,0.2-0.3,0.3-0.4c0.6-0.7,1.1-1.1,1.6-1.1c0.2,0,0.3,0.1,0.4,0.2
		c0.1,0.1,0.1,0.2,0.1,0.4c0,0.1,0,0.3-0.1,0.4c0,0.1-0.1,0.2-0.2,0.4c-0.4-0.2-0.7-0.3-0.9-0.3s-0.3,0-0.5,0.1
		c-0.1,0.1-0.2,0.1-0.3,0.2c0,0.1,0.2,0.3,0.6,0.5s0.7,0.3,0.9,0.3C129.7,31.9,130,31.8,130.5,31.7z M135.2,46.4l-0.6-0.9
		c-0.4,0.4-0.7,0.7-0.9,0.9c-0.2,0.2-0.6,0.4-1.1,0.8c0.6-0.1,1.1-0.1,1.4-0.2C134.3,46.8,134.7,46.7,135.2,46.4z"/>
	<path id="XMLID_49_" class="st2" d="M142.9,45.1c0,0.8-0.1,1.5-0.3,2.1c-0.2,0.6-0.5,1.5-1,2.5l-0.8-0.3c0.2-1.1,0.3-2,0.3-2.7
		c0-0.5,0-1.3-0.1-2.3c-0.1-1-0.2-2-0.3-3s-0.3-2.2-0.6-3.5c-0.1-0.5-0.2-0.8-0.2-1c0-0.3,0.1-0.7,0.4-1.3c0.3-0.6,0.6-1.4,1.1-2.3
		l0.8,4.5c0.3,1.7,0.5,3.2,0.6,4.5C142.8,43.3,142.9,44.2,142.9,45.1z"/>
	<path id="XMLID_45_" class="st2" d="M39.3,74.9h-1.7c-0.3,0-0.6-0.1-0.8-0.2c-0.5-0.2-0.9-0.7-1.3-1.4c-0.5-0.9-0.8-2.1-0.9-3.7
		c-0.6,0.7-1,1.2-1.4,1.5c-0.5,0.4-0.9,0.7-1.2,0.7c-0.2,0-0.4,0-0.6-0.1l-1.6-0.3c-0.7-0.1-1.1-0.2-1.2-0.3s-0.2-0.2-0.2-0.3
		c0-0.2,0.3-1,0.9-2.2c0.6-1.2,1-2,1.3-2.3c0.2-0.2,0.6-0.5,1.1-0.9c0.3-0.2,0.8-0.5,1.4-0.9l0.7-0.4c0-0.1,0-0.2-0.1-0.4
		c0-0.1,0-0.2,0-0.4c0-0.3,0.1-0.7,0.2-1.2c0.1-0.5,0.4-1.1,0.8-1.8l1.2,8c0.2,1.3,0.5,2.1,0.8,2.5c0.2,0.3,0.5,0.4,0.8,0.4h1.7
		V74.9z M36.3,56.9l-1.4,2.4l-1.8-1l-1,2L29.7,59l1.3-2.3l1.9,0.9l1.1-2L36.3,56.9z M34.3,67.6l-0.3-1.5c-0.3,0.1-0.5,0.2-0.6,0.3
		c-0.5,0.2-0.8,0.5-1.1,0.7c-0.2,0.2-0.4,0.3-0.5,0.5c-0.2,0.2-0.3,0.3-0.3,0.4c0,0.1,0.1,0.2,0.4,0.3c0.3,0.1,0.6,0.1,0.9,0.1
		c0.2,0,0.4-0.1,0.6-0.2C33.6,68.1,33.9,67.9,34.3,67.6z"/>
	<path id="XMLID_43_" class="st2" d="M44.5,74.9h-6.1v-3.5h6.1V74.9z"/>
	<path id="XMLID_41_" class="st2" d="M49.7,74.9h-6.1v-3.5h6.1V74.9z"/>
	<path id="XMLID_39_" class="st2" d="M54.9,74.9h-6.1v-3.5h6.1V74.9z"/>
	<path id="XMLID_37_" class="st2" d="M60,74.9H54v-3.5H60V74.9z"/>
	<path id="XMLID_35_" class="st2" d="M65.2,74.9h-6.1v-3.5h6.1V74.9z"/>
	<path id="XMLID_33_" class="st2" d="M70.4,74.9h-6.1v-3.5h6.1V74.9z"/>
	<path id="XMLID_31_" class="st2" d="M75.6,74.9h-6.1v-3.5h6.1V74.9z"/>
	<path id="XMLID_29_" class="st2" d="M80.8,74.9h-6.1v-3.5h6.1V74.9z"/>
	<path id="XMLID_27_" class="st2" d="M86,74.9h-6.1v-3.5H86V74.9z"/>
	<path id="XMLID_25_" class="st2" d="M91.2,74.9h-6.1v-3.5h6.1V74.9z"/>
	<path id="XMLID_23_" class="st2" d="M96.4,74.9h-6.1v-3.5h6.1V74.9z"/>
	<path id="XMLID_21_" class="st2" d="M101.6,74.9h-6.1v-3.5h6.1V74.9z"/>
	<path id="XMLID_19_" class="st2" d="M106.8,74.9h-6.1v-3.5h6.1V74.9z"/>
	<path id="XMLID_17_" class="st2" d="M112,74.9h-6.1v-3.5h6.1V74.9z"/>
	<path id="XMLID_14_" class="st2" d="M122.8,74.8c-0.9,0-1.9-0.2-3.2-0.5c-1.1-0.3-2-0.7-2.8-1.1c-0.5,0.7-1.1,1.2-1.8,1.5
		c-0.3,0.1-0.8,0.2-1.4,0.2h-2.5v-3.5h2.5c0.8,0,1.4-0.1,1.8-0.3c0.6-0.2,1-0.7,1.2-1.2c0.5-1.1,1.1-2,1.9-2.7
		c0.7-0.6,1.2-0.9,1.7-0.9c0.4,0,1,0.7,1.6,2c0.7,1.4,1,2.7,1,3.8V74.8z M120.4,71c0-0.2-0.2-0.5-0.5-1c-0.4-0.5-0.8-0.8-1.1-0.8
		c-0.3,0-0.6,0.4-0.8,1.2c0.4,0.2,0.8,0.3,1,0.4c0.7,0.3,1.1,0.4,1.2,0.4C120.3,71.2,120.4,71.1,120.4,71z"/>
	<path id="XMLID_12_" class="st2" d="M130.1,74.9h-5.8c-0.6,0-1-0.1-1.3-0.4c-0.4-0.3-0.5-0.8-0.5-1.4c0-0.4,0-0.8,0.1-1.2
		c0-0.4,0.1-0.9,0.2-1.3l0.5,0c0.1,0.3,0.2,0.5,0.5,0.7c0.2,0.1,0.5,0.2,0.8,0.2h4.4c-0.2-1.3-0.5-2.3-1-3c-0.4-0.6-1-1.2-1.7-1.6
		l0.9-4c1.1,0.8,1.9,1.9,2.4,3.2c0.4,1.2,0.6,2.8,0.6,4.8V74.9z"/>
	<path id="XMLID_10_" class="st2" d="M134.4,74.9h-1.8c-1,0-1.7-0.4-2.2-1.2c-0.5-0.9-0.7-2.4-0.7-4.6v-3.6c0-0.8-0.1-1.5-0.3-1.9
		c-0.1-0.2-0.4-0.5-0.8-1l1.4-3.2c0.5,0.7,0.8,1.4,1,2c0.2,0.8,0.3,1.8,0.3,3v2.5c0,1.8,0.1,3,0.4,3.7c0.2,0.6,0.5,0.8,0.9,0.8h1.8
		V74.9z"/>
	<path id="XMLID_6_" class="st2" d="M142.9,74.9h-9.4v-3.5h2.3c0.4,0,0.8,0,1.1,0.1c0.9,0.1,2,0.2,3.2,0.3c-1.3-0.3-2.2-0.7-2.7-1.1
		c-0.5-0.5-0.8-1.1-0.8-2c0-1.3,0.3-2.5,0.9-3.6c0.6-1.1,1.3-1.6,2.1-1.6c0.9,0,1.6,0.7,2.3,2.2c0.6,1.5,1,3.3,1,5.4V74.9z
		 M141.3,59.5l-1.4,2.6l-1.8-1l-1,2l-2.4-1.3l1.3-2.5l1.9,0.9l1.1-2.1L141.3,59.5z M141.2,69.6c-0.3-0.7-0.6-1.3-1-1.7
		s-0.8-0.6-1.1-0.6c-0.2,0-0.3,0.1-0.4,0.2c-0.1,0.1-0.2,0.2-0.2,0.4c0,0.4,0.3,0.7,0.8,1.1C139.8,69.2,140.4,69.4,141.2,69.6z"/>
	<path id="XMLID_4_" class="st2" d="M149.1,74.9h-7v-3.5h5.5l-1.5-8.7l-0.8-0.5c0-0.5,0.1-1,0.2-1.5c0.2-0.6,0.5-1.4,1-2.3l0.6,0.3
		c0,0.1,0,0.2-0.1,0.4c0,0.3,0.2,0.6,0.5,0.8c0.3,0.2,0.8,0.5,1.5,0.8c-0.1,0.5-0.2,1.1-0.3,1.6c-0.1,0.5-0.3,1-0.5,1.4l-0.5-0.2
		l1.4,7.9V74.9z"/>
	<path id="XMLID_2_" class="st2" d="M152.1,71.1c0,0.8-0.1,1.5-0.3,2.1c-0.2,0.6-0.5,1.5-1,2.5l-0.8-0.3c0.2-1.1,0.3-2,0.3-2.7
		c0-0.5,0-1.3-0.1-2.3c-0.1-1-0.2-2-0.3-3s-0.3-2.2-0.6-3.5c-0.1-0.5-0.2-0.8-0.2-1c0-0.3,0.1-0.7,0.4-1.3c0.3-0.6,0.6-1.4,1.1-2.3
		l0.8,4.5c0.3,1.7,0.5,3.2,0.6,4.5C152,69.3,152.1,70.2,152.1,71.1z"/>
</g>
</svg>
