<!-- Generator: Adobe Illustrator 23.1.1, SVG Export Plug-In  -->
<svg version="1.1" xmlns="http://www.w3.org/2000/svg" xmlns:xlink="http://www.w3.org/1999/xlink" x="0px" y="0px" width="364.3px"
	 height="85px" viewBox="0 0 364.3 85" style="enable-background:new 0 0 364.3 85;" xml:space="preserve">
<style type="text/css">
	.st0{fill:#FF4433;}
	.st1{fill:#FFFFFF;}
</style>
<defs>
</defs>
<g id="XMLID_1_">
	<rect id="XMLID_227_" class="st0" width="364.3" height="85"/>
	<g id="XMLID_103_">
		<g>
			<path id="XMLID_163_" d="M12.9,66.9v5.8c0,1.1,0.1,1.8,0.2,2.1s0.4,0.5,0.7,0.7c0.3,0.2,1,0.3,1.9,0.3v0.6H5.2v-0.6
				c0.9,0,1.6-0.1,1.9-0.3c0.3-0.2,0.6-0.4,0.7-0.7C8,74.4,8,73.7,8,72.6V59.3c0-1.1-0.1-1.8-0.2-2.1s-0.4-0.5-0.7-0.7
				c-0.3-0.2-1-0.3-1.9-0.3v-0.6h9.5c2.5,0,4.3,0.2,5.5,0.5c1.2,0.3,2.1,1,2.8,1.9c0.7,0.9,1.1,2,1.1,3.3c0,1.5-0.5,2.8-1.6,3.8
				c-0.7,0.6-1.7,1.1-2.9,1.4l4.9,7c0.6,0.9,1.1,1.5,1.4,1.7c0.4,0.3,0.9,0.5,1.4,0.5v0.6h-6.5l-6.6-9.4H12.9z M12.9,56.8v9h0.9
				c1.4,0,2.5-0.1,3.2-0.4c0.7-0.3,1.2-0.7,1.6-1.4c0.4-0.7,0.6-1.5,0.6-2.6c0-1.6-0.4-2.7-1.1-3.5c-0.7-0.7-1.9-1.1-3.5-1.1H12.9z"
				/>
			<path id="XMLID_160_" d="M32.4,62.1v11.2c0,1,0.1,1.6,0.3,1.9c0.2,0.3,0.7,0.4,1.4,0.5v0.5h-7.7v-0.5c0.6,0,1.1-0.2,1.4-0.5
				c0.2-0.2,0.3-0.8,0.3-1.8V65c0-1-0.1-1.6-0.3-1.9c-0.2-0.3-0.7-0.4-1.3-0.5v-0.6H32.4z M30.2,55.2c0.7,0,1.2,0.2,1.7,0.7
				c0.5,0.5,0.7,1,0.7,1.7c0,0.6-0.2,1.2-0.7,1.7c-0.5,0.5-1,0.7-1.7,0.7c-0.6,0-1.2-0.2-1.7-0.7c-0.5-0.5-0.7-1-0.7-1.7
				c0-0.6,0.2-1.2,0.7-1.7C29.1,55.4,29.6,55.2,30.2,55.2z"/>
			<path id="XMLID_156_" d="M43.3,62.2h4.8v1.7h-2.7c0.5,0.5,0.8,0.9,1,1.3c0.2,0.5,0.4,1.1,0.4,1.7c0,1-0.3,1.9-0.8,2.6
				c-0.6,0.7-1.3,1.3-2.3,1.7c-1,0.4-1.8,0.6-2.6,0.6c-0.1,0-0.7,0-1.8-0.1c-0.5,0-0.8,0.1-1.1,0.4c-0.3,0.3-0.5,0.7-0.5,1.1
				c0,0.4,0.1,0.7,0.4,0.9c0.3,0.2,0.7,0.3,1.4,0.3l2.6,0c2.1,0,3.6,0.2,4.4,0.7c1.1,0.6,1.7,1.6,1.7,3c0,0.9-0.3,1.6-0.8,2.3
				c-0.5,0.7-1.2,1.2-2.1,1.6c-1.3,0.5-2.8,0.7-4.5,0.7c-1.3,0-2.4-0.1-3.5-0.4c-1.1-0.2-1.8-0.6-2.3-1c-0.5-0.4-0.7-0.9-0.7-1.4
				c0-0.5,0.2-0.9,0.5-1.3c0.3-0.4,1-0.7,1.9-0.9c-1.3-0.6-2-1.5-2-2.7c0-0.7,0.3-1.4,0.8-2c0.5-0.7,1.4-1.2,2.5-1.7
				c-1.4-0.5-2.3-1.1-2.9-2c-0.6-0.8-0.9-1.7-0.9-2.8c0-1.4,0.6-2.6,1.7-3.6c1.1-1,2.6-1.5,4.4-1.5C41.3,61.6,42.3,61.8,43.3,62.2z
				 M39.8,78.3c-1,0-1.7,0.1-2,0.3c-0.6,0.3-0.9,0.7-0.9,1.3c0,0.5,0.3,1,0.9,1.4c0.6,0.4,1.7,0.6,3.4,0.6c1.4,0,2.5-0.2,3.3-0.6
				c0.8-0.4,1.2-0.9,1.2-1.6c0-0.3-0.1-0.5-0.2-0.6c-0.3-0.3-0.7-0.5-1.2-0.6C43.6,78.4,42.2,78.3,39.8,78.3z M40.7,62.6
				c-0.6,0-1.1,0.3-1.5,0.9c-0.4,0.6-0.6,1.8-0.6,3.7c0,1.5,0.2,2.5,0.6,3.1c0.4,0.6,0.9,0.8,1.4,0.8c0.6,0,1.1-0.3,1.5-0.8
				c0.4-0.6,0.6-1.6,0.6-3.2c0-1.8-0.2-3-0.7-3.7C41.7,62.8,41.3,62.6,40.7,62.6z"/>
			<path id="XMLID_154_" d="M54.3,55.7v8.2c0.8-0.8,1.5-1.4,2.1-1.7c0.6-0.3,1.3-0.5,2-0.5c0.9,0,1.6,0.3,2.3,0.8
				c0.6,0.5,1.1,1.1,1.3,1.8c0.2,0.7,0.3,1.8,0.3,3.4v5.5c0,1.1,0.1,1.8,0.3,2c0.2,0.3,0.6,0.4,1.2,0.5v0.5h-7.2v-0.5
				c0.5-0.1,0.9-0.3,1.1-0.6c0.2-0.3,0.3-0.9,0.3-1.9v-6.3c0-1.2,0-1.9-0.1-2.2c-0.1-0.3-0.2-0.5-0.5-0.7c-0.2-0.2-0.5-0.3-0.7-0.3
				c-0.4,0-0.8,0.1-1.2,0.4c-0.4,0.3-0.8,0.8-1.2,1.5v7.6c0,1,0.1,1.6,0.2,1.9c0.2,0.3,0.6,0.6,1.2,0.6v0.5h-7.2v-0.5
				c0.6-0.1,1-0.3,1.3-0.6c0.2-0.2,0.3-0.9,0.3-2V58.8c0-1.1-0.1-1.7-0.3-2c-0.2-0.3-0.6-0.4-1.2-0.5v-0.6H54.3z"/>
			<path id="XMLID_152_" d="M70.1,56.9v5.2h3.4v1.5h-3.4v8.7c0,0.8,0,1.3,0.1,1.6c0.1,0.2,0.2,0.4,0.4,0.6c0.2,0.1,0.4,0.2,0.5,0.2
				c0.7,0,1.3-0.5,1.9-1.5l0.5,0.3c-0.8,1.9-2.1,2.9-4,2.9c-0.9,0-1.7-0.3-2.3-0.8c-0.6-0.5-1-1.1-1.2-1.7c-0.1-0.3-0.2-1.3-0.2-2.8
				v-7.7H64V63c1.3-0.9,2.4-1.8,3.3-2.8c0.9-1,1.7-2.1,2.3-3.3H70.1z"/>
			<path id="XMLID_150_" d="M82.6,61.7l0.2,4.8h-0.5c-0.6-1.4-1.3-2.4-1.9-2.9c-0.7-0.5-1.3-0.8-2-0.8c-0.4,0-0.8,0.1-1.1,0.4
				c-0.3,0.3-0.4,0.6-0.4,1c0,0.3,0.1,0.5,0.3,0.8c0.3,0.4,1.2,1.1,2.7,2.1c1.5,1,2.5,1.9,2.9,2.6c0.5,0.7,0.7,1.5,0.7,2.4
				c0,0.8-0.2,1.6-0.6,2.3s-0.9,1.3-1.7,1.7c-0.7,0.4-1.5,0.6-2.4,0.6c-0.7,0-1.6-0.2-2.7-0.6c-0.3-0.1-0.5-0.2-0.6-0.2
				c-0.3,0-0.6,0.3-0.8,0.8h-0.5L74,71.5h0.5c0.5,1.3,1.1,2.3,1.9,3c0.8,0.7,1.5,1,2.3,1c0.5,0,0.9-0.1,1.2-0.4
				c0.3-0.3,0.5-0.7,0.5-1.1c0-0.5-0.2-0.9-0.5-1.3c-0.3-0.4-1-0.9-2-1.6c-1.5-1.1-2.5-1.9-3-2.5c-0.7-0.8-1-1.7-1-2.7
				c0-1.1,0.4-2.1,1.1-3c0.8-0.9,1.8-1.3,3.3-1.3c0.8,0,1.5,0.2,2.2,0.6c0.3,0.2,0.5,0.2,0.7,0.2c0.2,0,0.3,0,0.4-0.1
				c0.1-0.1,0.3-0.3,0.5-0.6H82.6z"/>
			<path id="XMLID_147_" d="M97.6,61.6c1.2,0,2.4,0.3,3.4,1c1.1,0.6,1.9,1.5,2.4,2.7c0.6,1.2,0.8,2.5,0.8,3.8c0,2-0.5,3.7-1.5,5
				c-1.2,1.6-2.9,2.5-5.1,2.5c-2.1,0-3.8-0.7-4.9-2.2c-1.2-1.5-1.7-3.2-1.7-5.2c0-2,0.6-3.8,1.8-5.3C94,62.4,95.6,61.6,97.6,61.6z
				 M97.7,62.7c-0.5,0-1,0.2-1.3,0.6c-0.4,0.4-0.6,1.2-0.7,2.3c-0.1,1.1-0.2,2.7-0.2,4.8c0,1.1,0.1,2.1,0.2,3
				c0.1,0.7,0.3,1.3,0.7,1.6c0.4,0.4,0.8,0.6,1.2,0.6c0.5,0,0.8-0.1,1.1-0.4c0.4-0.3,0.7-0.8,0.8-1.4c0.2-1,0.3-2.9,0.3-5.8
				c0-1.7-0.1-2.9-0.3-3.5c-0.2-0.6-0.5-1.1-0.8-1.4C98.5,62.8,98.1,62.7,97.7,62.7z"/>
			<path id="XMLID_145_" d="M111.5,63.6v9.8c0,0.9,0.1,1.5,0.3,1.8c0.3,0.4,0.9,0.5,1.8,0.5v0.5h-8.3v-0.5c0.6,0,1.1-0.1,1.4-0.2
				c0.3-0.1,0.5-0.3,0.6-0.6c0.1-0.2,0.2-0.7,0.2-1.5v-9.8h-2.1v-1.5h2.1v-1l0-0.7c0-1.5,0.5-2.7,1.6-3.6c1.1-1,2.5-1.5,4.3-1.5
				c1.2,0,2.2,0.2,2.8,0.7c0.6,0.5,0.9,1,0.9,1.5c0,0.5-0.2,0.8-0.6,1.2c-0.4,0.3-0.9,0.5-1.5,0.5c-0.5,0-0.9-0.1-1.3-0.4
				c-0.3-0.3-0.5-0.6-0.5-0.9c0-0.1,0-0.3,0.1-0.6c0-0.2,0.1-0.3,0.1-0.5c0-0.2-0.1-0.4-0.2-0.5c-0.2-0.2-0.4-0.2-0.6-0.2
				c-0.3,0-0.5,0.1-0.7,0.4c-0.2,0.2-0.3,0.6-0.3,1.2l0,2.7v1.8h2.1v1.5H111.5z"/>
			<path id="XMLID_143_" d="M128.3,56.9v8.4h0.6c0.9,0,1.7-0.1,2.2-0.4c0.6-0.3,1.1-0.7,1.5-1.4c0.4-0.6,0.7-1.5,0.8-2.6h0.5v10.3
				h-0.5c-0.2-1.9-0.7-3.2-1.6-3.9c-0.9-0.6-1.8-0.9-2.9-0.9h-0.6v6.3c0,1.1,0.1,1.7,0.2,2c0.1,0.3,0.3,0.5,0.7,0.7
				c0.3,0.2,0.8,0.3,1.4,0.3h0.7v0.6h-10.7v-0.6h0.7c0.6,0,1.1-0.1,1.4-0.3c0.3-0.1,0.5-0.4,0.6-0.7c0.1-0.2,0.2-0.9,0.2-1.9V59.2
				c0-1.1-0.1-1.7-0.2-2c-0.1-0.3-0.3-0.5-0.7-0.7c-0.3-0.2-0.8-0.3-1.4-0.3h-0.7v-0.6h17.3v5.9h-0.6c-0.1-1.4-0.5-2.4-1.1-3.1
				c-0.6-0.7-1.4-1.1-2.5-1.4c-0.6-0.2-1.7-0.2-3.4-0.2H128.3z"/>
			<path id="XMLID_141_" d="M152.2,62.1v11.1c0,1.1,0.1,1.8,0.3,2c0.2,0.3,0.6,0.4,1.2,0.5v0.5H148v-1.9c-0.7,0.8-1.4,1.4-2,1.8
				c-0.7,0.4-1.4,0.6-2.3,0.6c-0.8,0-1.5-0.2-2.1-0.7c-0.6-0.5-1-1.1-1.3-1.7c-0.2-0.7-0.3-1.8-0.3-3.4v-5.6c0-1.1-0.1-1.7-0.3-2
				c-0.2-0.3-0.6-0.4-1.2-0.5v-0.6h5.8v9.7c0,1,0,1.7,0.1,2c0.1,0.3,0.2,0.5,0.5,0.7s0.4,0.2,0.7,0.2c0.4,0,0.7-0.1,1-0.3
				c0.4-0.3,0.9-0.8,1.5-1.6v-7.6c0-1.1-0.1-1.7-0.3-2c-0.2-0.3-0.6-0.4-1.2-0.5v-0.6H152.2z"/>
			<path id="XMLID_139_" d="M160.2,56.9v5.2h3.4v1.5h-3.4v8.7c0,0.8,0,1.3,0.1,1.6c0.1,0.2,0.2,0.4,0.4,0.6c0.2,0.1,0.4,0.2,0.5,0.2
				c0.7,0,1.3-0.5,1.9-1.5l0.5,0.3c-0.8,1.9-2.1,2.9-4,2.9c-0.9,0-1.7-0.3-2.3-0.8c-0.6-0.5-1-1.1-1.2-1.7c-0.1-0.3-0.2-1.3-0.2-2.8
				v-7.7h-1.8V63c1.3-0.9,2.4-1.8,3.3-2.8c0.9-1,1.7-2.1,2.3-3.3H160.2z"/>
			<path id="XMLID_137_" d="M177.4,62.1v11.1c0,1.1,0.1,1.8,0.3,2c0.2,0.3,0.6,0.4,1.2,0.5v0.5h-5.8v-1.9c-0.7,0.8-1.4,1.4-2,1.8
				c-0.7,0.4-1.4,0.6-2.3,0.6c-0.8,0-1.5-0.2-2.1-0.7c-0.6-0.5-1-1.1-1.3-1.7c-0.2-0.7-0.3-1.8-0.3-3.4v-5.6c0-1.1-0.1-1.7-0.3-2
				c-0.2-0.3-0.6-0.4-1.2-0.5v-0.6h5.8v9.7c0,1,0,1.7,0.1,2c0.1,0.3,0.2,0.5,0.5,0.7c0.2,0.2,0.4,0.2,0.7,0.2c0.4,0,0.7-0.1,1-0.3
				c0.4-0.3,0.9-0.8,1.5-1.6v-7.6c0-1.1-0.1-1.7-0.3-2c-0.2-0.3-0.6-0.4-1.2-0.5v-0.6H177.4z"/>
			<path id="XMLID_135_" d="M185.6,62.1v3.2c0.9-1.5,1.8-2.4,2.5-2.9c0.7-0.5,1.4-0.7,2-0.7c0.6,0,1,0.2,1.4,0.5
				c0.3,0.3,0.5,0.8,0.5,1.5c0,0.7-0.2,1.2-0.5,1.6c-0.3,0.4-0.7,0.6-1.2,0.6c-0.5,0-1-0.2-1.4-0.5c-0.4-0.3-0.6-0.5-0.7-0.6
				c-0.1-0.1-0.2-0.1-0.3-0.1c-0.3,0-0.6,0.1-0.8,0.3c-0.4,0.3-0.7,0.8-0.9,1.5c-0.3,1-0.5,2.1-0.5,3.2v3.3l0,0.8
				c0,0.6,0,0.9,0.1,1.1c0.1,0.3,0.3,0.5,0.5,0.6c0.2,0.1,0.6,0.2,1.2,0.2v0.5h-7.7v-0.5c0.6-0.1,1-0.2,1.3-0.5
				c0.2-0.3,0.3-1,0.3-2.3v-7.8c0-0.8,0-1.3-0.1-1.5c-0.1-0.3-0.2-0.5-0.4-0.6c-0.2-0.1-0.5-0.2-1-0.3v-0.6H185.6z"/>
			<path id="XMLID_132_" d="M203.7,68.7h-7.8c0.1,1.9,0.6,3.4,1.5,4.5c0.7,0.8,1.5,1.3,2.5,1.3c0.6,0,1.2-0.2,1.7-0.5
				c0.5-0.3,1-0.9,1.6-1.8l0.5,0.3c-0.8,1.6-1.6,2.7-2.5,3.3s-2,1-3.2,1c-2.1,0-3.7-0.8-4.8-2.4c-0.9-1.3-1.3-2.9-1.3-4.8
				c0-2.4,0.6-4.2,1.9-5.6c1.3-1.4,2.8-2.1,4.5-2.1c1.4,0,2.7,0.6,3.7,1.8C203,64.6,203.6,66.3,203.7,68.7z M199.9,67.6
				c0-1.6-0.1-2.7-0.3-3.3c-0.2-0.6-0.5-1.1-0.8-1.4c-0.2-0.2-0.5-0.3-0.8-0.3c-0.5,0-1,0.3-1.3,0.8c-0.6,0.9-0.9,2.1-0.9,3.7v0.5
				H199.9z"/>
			<path id="XMLID_130_" d="M231.1,55.2v7.2h-0.6c-0.7-2-1.7-3.5-3-4.5c-1.4-1-2.8-1.5-4.4-1.5c-1.5,0-2.8,0.4-3.8,1.3
				c-1,0.9-1.7,2.1-2.2,3.6s-0.6,3.1-0.6,4.8c0,2,0.2,3.7,0.7,5.2c0.5,1.5,1.2,2.6,2.3,3.3c1,0.7,2.3,1,3.7,1c0.5,0,1-0.1,1.5-0.2
				c0.5-0.1,1.1-0.3,1.6-0.5v-4.3c0-0.8-0.1-1.3-0.2-1.6c-0.1-0.2-0.3-0.5-0.7-0.6c-0.3-0.2-0.8-0.3-1.3-0.3h-0.5v-0.6h10v0.6
				c-0.8,0.1-1.3,0.2-1.6,0.3c-0.3,0.2-0.5,0.4-0.7,0.8c-0.1,0.2-0.1,0.7-0.1,1.4V75c-1.3,0.6-2.7,1-4.1,1.3
				c-1.4,0.3-2.9,0.4-4.4,0.4c-2,0-3.6-0.3-4.9-0.8s-2.4-1.2-3.4-2.1c-1-0.9-1.8-1.8-2.3-2.9c-0.7-1.4-1.1-3-1.1-4.7
				c0-3.1,1.1-5.7,3.3-7.8c2.2-2.1,4.9-3.2,8.2-3.2c1,0,1.9,0.1,2.8,0.2c0.4,0.1,1.2,0.3,2.2,0.7c1,0.4,1.6,0.6,1.8,0.6
				c0.3,0,0.5-0.1,0.8-0.3c0.2-0.2,0.5-0.6,0.7-1.2H231.1z"/>
			<path id="XMLID_127_" d="M245.6,68.7h-7.8c0.1,1.9,0.6,3.4,1.5,4.5c0.7,0.8,1.5,1.3,2.5,1.3c0.6,0,1.2-0.2,1.7-0.5
				c0.5-0.3,1-0.9,1.6-1.8l0.5,0.3c-0.8,1.6-1.6,2.7-2.5,3.3c-0.9,0.7-2,1-3.2,1c-2.1,0-3.7-0.8-4.8-2.4c-0.9-1.3-1.3-2.9-1.3-4.8
				c0-2.4,0.6-4.2,1.9-5.6c1.3-1.4,2.8-2.1,4.5-2.1c1.4,0,2.7,0.6,3.7,1.8C245,64.6,245.5,66.3,245.6,68.7z M241.9,67.6
				c0-1.6-0.1-2.7-0.3-3.3c-0.2-0.6-0.5-1.1-0.8-1.4c-0.2-0.2-0.5-0.3-0.8-0.3c-0.5,0-1,0.3-1.3,0.8c-0.6,0.9-0.9,2.1-0.9,3.7v0.5
				H241.9z"/>
			<path id="XMLID_125_" d="M251.9,62.1v1.8c0.7-0.8,1.4-1.4,2.1-1.7c0.7-0.4,1.4-0.5,2.2-0.5c0.9,0,1.7,0.3,2.3,0.8
				c0.6,0.5,1,1.1,1.2,1.9c0.2,0.6,0.2,1.7,0.2,3.3v5.5c0,1.1,0.1,1.8,0.3,2c0.2,0.3,0.6,0.4,1.2,0.5v0.5h-7.2v-0.5
				c0.5-0.1,0.9-0.3,1.2-0.7c0.2-0.3,0.2-0.9,0.2-1.9v-6.3c0-1.2,0-1.9-0.1-2.2c-0.1-0.3-0.2-0.5-0.5-0.7c-0.2-0.2-0.5-0.3-0.7-0.3
				c-0.9,0-1.7,0.6-2.4,1.9v7.6c0,1.1,0.1,1.7,0.3,2c0.2,0.3,0.6,0.5,1.1,0.5v0.5h-7.2v-0.5c0.6-0.1,1-0.3,1.3-0.6
				c0.2-0.2,0.3-0.9,0.3-2v-8c0-1.1-0.1-1.7-0.3-2c-0.2-0.3-0.6-0.4-1.2-0.5v-0.6H251.9z"/>
			<path id="XMLID_122_" d="M274.2,68.7h-7.8c0.1,1.9,0.6,3.4,1.5,4.5c0.7,0.8,1.5,1.3,2.5,1.3c0.6,0,1.2-0.2,1.7-0.5
				c0.5-0.3,1-0.9,1.6-1.8l0.5,0.3c-0.8,1.6-1.6,2.7-2.5,3.3s-2,1-3.2,1c-2.1,0-3.7-0.8-4.8-2.4c-0.9-1.3-1.3-2.9-1.3-4.8
				c0-2.4,0.6-4.2,1.9-5.6c1.3-1.4,2.8-2.1,4.5-2.1c1.4,0,2.7,0.6,3.7,1.8C273.5,64.6,274.1,66.3,274.2,68.7z M270.4,67.6
				c0-1.6-0.1-2.7-0.3-3.3s-0.5-1.1-0.8-1.4c-0.2-0.2-0.5-0.3-0.8-0.3c-0.5,0-1,0.3-1.3,0.8c-0.6,0.9-0.9,2.1-0.9,3.7v0.5H270.4z"/>
			<path id="XMLID_120_" d="M280.6,62.1v3.2c0.9-1.5,1.8-2.4,2.5-2.9c0.7-0.5,1.4-0.7,2-0.7c0.6,0,1,0.2,1.4,0.5
				c0.3,0.3,0.5,0.8,0.5,1.5c0,0.7-0.2,1.2-0.5,1.6c-0.3,0.4-0.7,0.6-1.2,0.6c-0.5,0-1-0.2-1.4-0.5c-0.4-0.3-0.6-0.5-0.7-0.6
				c-0.1-0.1-0.2-0.1-0.3-0.1c-0.3,0-0.6,0.1-0.8,0.3c-0.4,0.3-0.7,0.8-0.9,1.5c-0.3,1-0.5,2.1-0.5,3.2v3.3l0,0.8
				c0,0.6,0,0.9,0.1,1.1c0.1,0.3,0.3,0.5,0.5,0.6c0.2,0.1,0.6,0.2,1.2,0.2v0.5h-7.7v-0.5c0.6-0.1,1-0.2,1.3-0.5
				c0.2-0.3,0.3-1,0.3-2.3v-7.8c0-0.8,0-1.3-0.1-1.5c-0.1-0.3-0.2-0.5-0.4-0.6c-0.2-0.1-0.5-0.2-1-0.3v-0.6H280.6z"/>
			<path id="XMLID_117_" d="M295.1,74.2c-1.7,1.5-3.3,2.3-4.7,2.3c-0.8,0-1.5-0.3-2-0.8c-0.5-0.5-0.8-1.2-0.8-2
				c0-1.1,0.5-2.1,1.4-2.9c0.9-0.9,3-2,6.1-3.4v-1.4c0-1.1-0.1-1.7-0.2-2c-0.1-0.3-0.3-0.5-0.7-0.7c-0.3-0.2-0.7-0.3-1.1-0.3
				c-0.7,0-1.2,0.1-1.6,0.4c-0.3,0.2-0.4,0.4-0.4,0.6c0,0.2,0.1,0.5,0.4,0.8c0.4,0.4,0.6,0.9,0.6,1.3c0,0.5-0.2,0.9-0.6,1.3
				c-0.4,0.3-0.9,0.5-1.4,0.5c-0.6,0-1.2-0.2-1.6-0.6c-0.4-0.4-0.6-0.8-0.6-1.3c0-0.7,0.3-1.4,0.9-2.1c0.6-0.7,1.4-1.2,2.4-1.5
				c1-0.4,2.1-0.5,3.2-0.5c1.3,0,2.4,0.3,3.2,0.9c0.8,0.6,1.3,1.2,1.5,1.9c0.1,0.4,0.2,1.4,0.2,2.9v5.5c0,0.6,0,1.1,0.1,1.2
				c0.1,0.2,0.1,0.3,0.2,0.4c0.1,0.1,0.2,0.1,0.3,0.1c0.3,0,0.5-0.2,0.8-0.6l0.5,0.4c-0.5,0.7-1,1.3-1.6,1.6
				c-0.5,0.3-1.2,0.5-1.8,0.5c-0.8,0-1.4-0.2-1.9-0.6C295.4,75.5,295.2,74.9,295.1,74.2z M295.1,73v-4.7c-1.2,0.7-2.1,1.5-2.7,2.3
				c-0.4,0.5-0.6,1.1-0.6,1.7c0,0.5,0.2,0.9,0.5,1.2c0.3,0.3,0.6,0.4,1.1,0.4C293.8,73.9,294.4,73.6,295.1,73z"/>
			<path id="XMLID_115_" d="M307.1,56.9v5.2h3.4v1.5h-3.4v8.7c0,0.8,0,1.3,0.1,1.6c0.1,0.2,0.2,0.4,0.4,0.6c0.2,0.1,0.4,0.2,0.5,0.2
				c0.7,0,1.3-0.5,1.9-1.5l0.5,0.3c-0.8,1.9-2.1,2.9-4,2.9c-0.9,0-1.7-0.3-2.3-0.8c-0.6-0.5-1-1.1-1.2-1.7c-0.1-0.3-0.2-1.3-0.2-2.8
				v-7.7H301V63c1.3-0.9,2.4-1.8,3.3-2.8c0.9-1,1.7-2.1,2.3-3.3H307.1z"/>
			<path id="XMLID_112_" d="M316.1,62.1v11.2c0,1,0.1,1.6,0.3,1.9c0.2,0.3,0.7,0.4,1.4,0.5v0.5h-7.7v-0.5c0.6,0,1.1-0.2,1.4-0.5
				c0.2-0.2,0.3-0.8,0.3-1.8V65c0-1-0.1-1.6-0.3-1.9c-0.2-0.3-0.7-0.4-1.3-0.5v-0.6H316.1z M314,55.2c0.7,0,1.2,0.2,1.7,0.7
				c0.5,0.5,0.7,1,0.7,1.7c0,0.6-0.2,1.2-0.7,1.7c-0.5,0.5-1,0.7-1.7,0.7s-1.2-0.2-1.7-0.7c-0.5-0.5-0.7-1-0.7-1.7
				c0-0.6,0.2-1.2,0.7-1.7C312.8,55.4,313.4,55.2,314,55.2z"/>
			<path id="XMLID_109_" d="M324.7,61.6c1.2,0,2.4,0.3,3.4,1c1.1,0.6,1.9,1.5,2.4,2.7c0.6,1.2,0.8,2.5,0.8,3.8c0,2-0.5,3.7-1.5,5
				c-1.2,1.6-2.9,2.5-5.1,2.5c-2.1,0-3.8-0.7-4.9-2.2c-1.2-1.5-1.7-3.2-1.7-5.2c0-2,0.6-3.8,1.8-5.3C321,62.4,322.6,61.6,324.7,61.6
				z M324.7,62.7c-0.5,0-1,0.2-1.3,0.6c-0.4,0.4-0.6,1.2-0.7,2.3c-0.1,1.1-0.2,2.7-0.2,4.8c0,1.1,0.1,2.1,0.2,3
				c0.1,0.7,0.3,1.3,0.7,1.6c0.4,0.4,0.8,0.6,1.2,0.6c0.5,0,0.8-0.1,1.1-0.4c0.4-0.3,0.7-0.8,0.8-1.4c0.2-1,0.3-2.9,0.3-5.8
				c0-1.7-0.1-2.9-0.3-3.5c-0.2-0.6-0.5-1.1-0.8-1.4C325.5,62.8,325.2,62.7,324.7,62.7z"/>
			<path id="XMLID_107_" d="M338,62.1v1.8c0.7-0.8,1.4-1.4,2.1-1.7c0.7-0.4,1.4-0.5,2.2-0.5c0.9,0,1.7,0.3,2.3,0.8
				c0.6,0.5,1,1.1,1.2,1.9c0.2,0.6,0.2,1.7,0.2,3.3v5.5c0,1.1,0.1,1.8,0.3,2c0.2,0.3,0.6,0.4,1.2,0.5v0.5h-7.2v-0.5
				c0.5-0.1,0.9-0.3,1.2-0.7c0.2-0.3,0.2-0.9,0.2-1.9v-6.3c0-1.2,0-1.9-0.1-2.2s-0.2-0.5-0.5-0.7c-0.2-0.2-0.5-0.3-0.7-0.3
				c-0.9,0-1.7,0.6-2.4,1.9v7.6c0,1.1,0.1,1.7,0.3,2c0.2,0.3,0.6,0.5,1.1,0.5v0.5h-7.2v-0.5c0.6-0.1,1-0.3,1.3-0.6
				c0.2-0.2,0.3-0.9,0.3-2v-8c0-1.1-0.1-1.7-0.3-2c-0.2-0.3-0.6-0.4-1.2-0.5v-0.6H338z"/>
			<path id="XMLID_105_" d="M357.2,61.7l0.2,4.8h-0.5c-0.6-1.4-1.3-2.4-1.9-2.9c-0.7-0.5-1.3-0.8-2-0.8c-0.4,0-0.8,0.1-1.1,0.4
				c-0.3,0.3-0.4,0.6-0.4,1c0,0.3,0.1,0.5,0.3,0.8c0.3,0.4,1.2,1.1,2.7,2.1c1.5,1,2.5,1.9,2.9,2.6c0.5,0.7,0.7,1.5,0.7,2.4
				c0,0.8-0.2,1.6-0.6,2.3c-0.4,0.8-0.9,1.3-1.7,1.7c-0.7,0.4-1.5,0.6-2.4,0.6c-0.7,0-1.6-0.2-2.7-0.6c-0.3-0.1-0.5-0.2-0.6-0.2
				c-0.3,0-0.6,0.3-0.8,0.8h-0.5l-0.2-5.1h0.5c0.5,1.3,1.1,2.3,1.9,3c0.8,0.7,1.5,1,2.3,1c0.5,0,0.9-0.1,1.2-0.4
				c0.3-0.3,0.5-0.7,0.5-1.1c0-0.5-0.2-0.9-0.5-1.3c-0.3-0.4-1-0.9-2-1.6c-1.5-1.1-2.5-1.9-3-2.5c-0.7-0.8-1-1.7-1-2.7
				c0-1.1,0.4-2.1,1.1-3c0.8-0.9,1.8-1.3,3.3-1.3c0.8,0,1.5,0.2,2.2,0.6c0.3,0.2,0.5,0.2,0.7,0.2c0.2,0,0.3,0,0.4-0.1
				c0.1-0.1,0.3-0.3,0.5-0.6H357.2z"/>
		</g>
	</g>
	<circle id="XMLID_102_" cx="19.1" cy="19.1" r="13.2"/>
	<circle id="XMLID_101_" cx="345.2" cy="19.1" r="13.2"/>
	<g id="XMLID_2_">
		<path id="XMLID_97_" class="st1" d="M19.2,50.1h-2c-0.4,0-0.7-0.1-1-0.2c-0.6-0.3-1.1-0.8-1.5-1.6c-0.5-1.1-0.9-2.5-1.1-4.4
			c-0.7,0.8-1.2,1.4-1.6,1.8c-0.6,0.5-1,0.8-1.4,0.8c-0.2,0-0.4,0-0.7-0.1L8.1,46c-0.8-0.2-1.3-0.3-1.5-0.3
			c-0.2-0.1-0.3-0.2-0.3-0.4c0-0.3,0.4-1.1,1.1-2.6C8.2,41.2,8.7,40.3,9,40c0.3-0.3,0.7-0.6,1.3-1.1c0.4-0.3,0.9-0.6,1.6-1l0.8-0.5
			c0-0.1-0.1-0.3-0.1-0.4c0-0.1,0-0.3,0-0.4c0-0.4,0.1-0.9,0.3-1.4c0.2-0.6,0.5-1.3,0.9-2.2l1.5,9.5c0.2,1.5,0.5,2.5,0.9,3
			c0.2,0.3,0.6,0.5,1,0.5h2V50.1z M15.7,28.8l-1.7,2.8l-2.2-1.2l-1.2,2.4l-2.8-1.5l1.6-2.7l2.2,1.1l1.3-2.3L15.7,28.8z M13.3,41.5
			L13,39.7c-0.3,0.2-0.6,0.3-0.8,0.4c-0.6,0.3-1,0.6-1.3,0.8c-0.2,0.2-0.4,0.4-0.6,0.6c-0.2,0.2-0.3,0.4-0.3,0.5
			c0,0.1,0.2,0.3,0.5,0.3c0.4,0.1,0.7,0.1,1,0.1c0.2,0,0.5-0.1,0.7-0.2C12.6,42.1,12.9,41.8,13.3,41.5z"/>
		<path id="XMLID_95_" class="st1" d="M25.4,50.1h-7.2v-4.1h7.2V50.1z"/>
		<path id="XMLID_93_" class="st1" d="M30,50.1h-7.2v-4.1H30V50.1z"/>
		<path id="XMLID_91_" class="st1" d="M35.8,50.1h-7.2v-4.1h7.2V50.1z"/>
		<path id="XMLID_89_" class="st1" d="M42,50.1h-7.2v-4.1H42V50.1z"/>
		<path id="XMLID_87_" class="st1" d="M48.1,50.1h-7.2v-4.1h7.2V50.1z"/>
		<path id="XMLID_85_" class="st1" d="M54.3,50.1h-7.2v-4.1h7.2V50.1z"/>
		<path id="XMLID_83_" class="st1" d="M60.4,50.1h-7.2v-4.1h7.2V50.1z"/>
		<path id="XMLID_81_" class="st1" d="M66.6,50.1h-7.2v-4.1h7.2V50.1z"/>
		<path id="XMLID_79_" class="st1" d="M72.7,50.1h-7.2v-4.1h7.2V50.1z"/>
		<path id="XMLID_77_" class="st1" d="M78.9,50.1h-7.2v-4.1h7.2V50.1z"/>
		<path id="XMLID_75_" class="st1" d="M85.1,50.1h-7.2v-4.1h7.2V50.1z"/>
		<path id="XMLID_73_" class="st1" d="M91.2,50.1H84v-4.1h7.2V50.1z"/>
		<path id="XMLID_71_" class="st1" d="M97.4,50.1h-7.2v-4.1h7.2V50.1z"/>
		<path id="XMLID_69_" class="st1" d="M103.5,50.1h-7.2v-4.1h7.2V50.1z"/>
		<path id="XMLID_67_" class="st1" d="M109.7,50.1h-7.2v-4.1h7.2V50.1z"/>
		<path id="XMLID_65_" class="st1" d="M115.8,50.1h-7.2v-4.1h7.2V50.1z"/>
		<path id="XMLID_62_" class="st1" d="M128.7,50.1c-1.1,0-2.3-0.2-3.7-0.6c-1.3-0.4-2.4-0.8-3.3-1.3c-0.6,0.9-1.3,1.5-2.2,1.7
			c-0.4,0.1-1,0.2-1.7,0.2h-3v-4.1h3c0.9,0,1.6-0.1,2.2-0.3c0.7-0.3,1.2-0.8,1.4-1.5c0.6-1.3,1.3-2.3,2.2-3.2c0.8-0.7,1.5-1.1,2-1.1
			c0.5,0,1.2,0.8,1.9,2.3c0.8,1.6,1.2,3.2,1.2,4.5V50.1z M125.9,45.5c0-0.2-0.2-0.6-0.7-1.2c-0.5-0.6-0.9-0.9-1.3-0.9
			c-0.4,0-0.7,0.5-1,1.4c0.5,0.2,0.9,0.4,1.2,0.5c0.8,0.3,1.3,0.5,1.4,0.5C125.7,45.7,125.9,45.6,125.9,45.5z"/>
		<path id="XMLID_60_" class="st1" d="M139,50.1h-6.9c-0.7,0-1.2-0.1-1.5-0.4c-0.4-0.3-0.7-0.9-0.7-1.7c0-0.4,0-0.9,0.1-1.4
			s0.1-1,0.2-1.6l0.6,0c0.1,0.4,0.3,0.6,0.5,0.8c0.3,0.2,0.6,0.2,1,0.2h5.2c-0.2-1.5-0.6-2.7-1.2-3.6c-0.5-0.7-1.1-1.4-2-1.9
			l1.1-4.7c1.3,1,2.2,2.2,2.8,3.8c0.5,1.4,0.8,3.3,0.8,5.7V50.1z"/>
		<path id="XMLID_58_" class="st1" d="M146,50.1h-2.1c-1.2,0-2-0.5-2.6-1.5c-0.6-1.1-0.9-2.9-0.9-5.4v-4.3c0-1-0.1-1.7-0.4-2.3
			c-0.1-0.3-0.4-0.6-0.9-1.1l1.6-3.8c0.6,0.8,1,1.6,1.2,2.4c0.3,0.9,0.4,2.1,0.4,3.5v3c0,2.1,0.1,3.6,0.4,4.4c0.2,0.7,0.6,1,1.1,1
			h2.1V50.1z"/>
		<path id="XMLID_54_" class="st1" d="M156,50.1h-11.1v-4.1h2.7c0.5,0,0.9,0,1.3,0.1c1.1,0.1,2.4,0.3,3.8,0.4
			c-1.5-0.3-2.6-0.8-3.2-1.3c-0.6-0.6-0.9-1.4-0.9-2.4c0-1.6,0.4-3,1.1-4.2s1.5-1.9,2.4-1.9c1,0,1.9,0.9,2.7,2.6
			c0.8,1.8,1.1,3.9,1.1,6.4V50.1z M154.2,31.8l-1.7,3.1l-2.2-1.2l-1.2,2.4l-2.8-1.5l1.6-2.9l2.2,1.1l1.3-2.5L154.2,31.8z M154,43.8
			c-0.4-0.9-0.8-1.5-1.2-2s-0.9-0.7-1.3-0.7c-0.2,0-0.4,0.1-0.5,0.2c-0.2,0.1-0.2,0.3-0.2,0.5c0,0.4,0.3,0.9,1,1.3
			C152.3,43.4,153.1,43.6,154,43.8z"/>
		<path id="XMLID_52_" class="st1" d="M163.3,50.1H155v-4.1h6.5l-1.8-10.3l-1-0.6c0-0.6,0.1-1.2,0.3-1.8c0.2-0.8,0.6-1.7,1.2-2.7
			l0.7,0.4c0,0.1,0,0.2-0.1,0.5c0,0.3,0.2,0.7,0.6,1c0.4,0.3,1,0.6,1.8,0.9c-0.1,0.6-0.2,1.3-0.4,1.9c-0.2,0.6-0.4,1.2-0.6,1.7
			l-0.5-0.2l1.7,9.4V50.1z"/>
		<path id="XMLID_50_" class="st1" d="M168.6,45.7c0,0.9-0.1,1.7-0.3,2.5c-0.2,0.7-0.6,1.7-1.2,3l-0.9-0.4c0.2-1.3,0.4-2.3,0.4-3.2
			c0-0.6-0.1-1.5-0.2-2.7c-0.1-1.2-0.2-2.4-0.4-3.5s-0.4-2.6-0.7-4.2c-0.1-0.6-0.2-1-0.2-1.2c0-0.3,0.2-0.8,0.5-1.6
			c0.3-0.8,0.8-1.7,1.3-2.7l0.9,5.4c0.3,2,0.6,3.8,0.7,5.3C168.6,43.5,168.6,44.6,168.6,45.7z"/>
		<path id="XMLID_48_" class="st1" d="M189.8,49.7c0,1.6-0.8,2.9-2.4,4.1c-1.6,1.2-3.5,1.8-5.5,1.8c-1.7,0-3.1-0.4-4.1-1.3
			c-1-0.9-1.5-2.1-1.5-3.7c0-1.5,0.2-2.7,0.5-3.8c0.4-1.2,1.2-2.7,2.4-4.5l0.9,0.6c-0.8,1.2-1.3,2.2-1.7,3.1
			c-0.3,0.9-0.5,1.7-0.5,2.6c0,0.9,0.3,1.6,1,2.1c0.7,0.5,1.6,0.8,2.9,0.8c1.8,0,3.2-0.3,4.3-1c1.1-0.7,1.7-1.6,1.7-2.7
			c0-0.2,0-0.3,0-0.5c0-0.1,0-0.2,0-0.3c0-0.4,0-0.8-0.1-1.3c-0.1-0.5-0.2-1.5-0.5-2.9c-0.4-2.4-0.9-4.8-1.3-7.2l-0.8-0.5
			c0-1,0.5-2.5,1.4-4.5l0.7,0.3c0,0.1-0.1,0.3-0.1,0.5c0,0.4,0.2,0.7,0.6,1c0.6,0.3,1.2,0.7,1.7,1c-0.1,0.9-0.2,1.5-0.3,1.9
			c-0.1,0.4-0.3,0.9-0.7,1.7l-0.5-0.2c0,0.2,0.1,1,0.4,2.6c0.3,1.6,0.5,2.9,0.7,4.1c0.3,1.6,0.4,2.6,0.4,3V49.7z"/>
		<path id="XMLID_46_" class="st1" d="M196.8,50.1h-2.1c-1.2,0-2-0.5-2.6-1.5c-0.6-1.1-0.9-2.9-0.9-5.4v-4.3c0-1-0.1-1.7-0.4-2.3
			c-0.1-0.3-0.4-0.6-0.9-1.1l1.6-3.8c0.6,0.8,1,1.6,1.2,2.4c0.3,0.9,0.4,2.1,0.4,3.5v3c0,2.1,0.1,3.6,0.4,4.4c0.2,0.7,0.6,1,1.1,1
			h2.1V50.1z"/>
		<path id="XMLID_44_" class="st1" d="M203,50.1h-7.2v-4.1h7.2V50.1z"/>
		<path id="XMLID_42_" class="st1" d="M209.1,50.1h-7.2v-4.1h7.2V50.1z"/>
		<path id="XMLID_40_" class="st1" d="M215.3,50.1h-7.2v-4.1h7.2V50.1z"/>
		<path id="XMLID_38_" class="st1" d="M221.4,50.1h-7.2v-4.1h7.2V50.1z"/>
		<path id="XMLID_36_" class="st1" d="M227.6,50.1h-7.2v-4.1h7.2V50.1z"/>
		<path id="XMLID_34_" class="st1" d="M233.7,50.1h-7.2v-4.1h7.2V50.1z"/>
		<path id="XMLID_31_" class="st1" d="M242.1,50.1h-9.5v-4.1h8c-0.1-0.7-0.3-1.3-0.6-1.7c-0.2-0.3-0.5-0.7-1.1-1.4l1.2-3.6
			c0.8,0.9,1.3,1.8,1.6,2.7s0.4,2.3,0.4,4.2V50.1z M241.9,52.7l-1.7,3.1l-2.2-1.2l-1.2,2.4l-2.8-1.5l1.6-2.9l2.2,1.1l1.3-2.5
			L241.9,52.7z"/>
		<path id="XMLID_28_" class="st1" d="M258.4,50.1h-17.3v-4.1h10.8c-1.2-1.3-2.4-2.2-3.4-2.7c-0.9-0.5-1.8-0.7-2.7-0.7
			c-0.3,0-0.5,0-0.7,0c-0.2,0-0.5,0.1-0.9,0.2c0.6-1.3,1.2-2.2,1.9-2.8c0.7-0.6,1.5-0.9,2.3-0.9c0.7,0,1.3,0.2,1.9,0.5
			c0.6,0.3,1.3,0.8,2.1,1.6c0.6,0.6,1.5,1.4,2.6,2.7c0.8,0.8,1.3,1.4,1.7,1.7c0.4,0.3,1,0.5,1.8,0.6V50.1z M252.8,53.4l-1.9,3.4
			l-3.5-1.9l1.9-3.4L252.8,53.4z"/>
		<path id="XMLID_24_" class="st1" d="M272.7,34c0,0.7-0.1,1.4-0.2,2.1c-0.1,0.3-0.2,0.9-0.4,1.7l-1.1-0.4c0,1.2-0.1,2.4-0.4,3.6
			c-0.3,1.2-0.7,2.3-1.4,3.5c0.6,1,0.9,1.6,1,1.8c0.2,0.5,0.4,0.9,0.4,1.3v0.5c0,0.3-0.1,1.3-0.2,3.1c-1.2,0.5-2.2,0.9-3.1,1.1
			c-0.9,0.2-2.3,0.2-4,0.2v-4.5c1-0.5,1.8-1,2.2-1.3c0.4-0.4,1-1,1.7-1.9c-1.2-1.5-2-2.5-2.5-3.1c-0.4-0.5-1-1-1.6-1.7
			c-0.2,0.3-0.3,0.6-0.4,0.7c-0.1,0.1-0.1,0.2-0.2,0.2c-0.2,0-0.7-0.2-1.4-0.6c-0.6-0.4-1.1-0.7-1.4-1c-0.3-0.3-0.6-0.8-0.7-1.6
			s-0.3-1.8-0.3-3.1c0-0.5,0-0.9,0.1-1.1c0.1-0.2,0.2-0.3,0.4-0.3c0.4,0,1.2,0.6,2.4,1.7c1,1,1.9,1.9,2.8,2.9
			c0.6,0.7,1.2,1.4,1.7,2.1c0.5,0.6,1.2,1.7,2.2,3.2c0.5-0.9,0.8-2,0.9-3.3c0.1-0.8,0.2-1.8,0.2-2.9c-0.4-0.2-0.6-0.3-0.7-0.5
			c-0.1-0.2-0.2-0.4-0.2-0.7c0-0.6,0.1-1.2,0.2-1.8c0.1-0.6,0.3-1.3,0.7-2l0.6,0.2c0,0.6,0.2,1.1,0.5,1.3
			C270.5,33.2,271.3,33.5,272.7,34z M263.2,29.7c-0.1,0.3-0.2,0.6-0.4,0.7c-0.1,0.1-0.3,0.2-0.5,0.3l-3.3,1c0.2-0.4,0.4-0.6,0.5-0.8
			c0.2-0.1,0.4-0.3,0.8-0.4c-0.3-0.2-0.5-0.4-0.6-0.5c-0.1-0.2-0.2-0.3-0.2-0.5c0-0.1,0-0.3,0.1-0.4s0.2-0.3,0.3-0.5
			c0.7-0.9,1.3-1.3,2-1.3c0.2,0,0.3,0.1,0.5,0.2c0.1,0.1,0.2,0.3,0.2,0.5c0,0.2,0,0.3-0.1,0.4c0,0.1-0.1,0.3-0.3,0.5
			c-0.5-0.3-0.8-0.4-1-0.4c-0.2,0-0.4,0-0.5,0.1c-0.1,0.1-0.2,0.1-0.3,0.2c0,0.1,0.2,0.3,0.7,0.6c0.5,0.3,0.8,0.4,1,0.4
			C262.2,30,262.6,29.9,263.2,29.7z M268.7,47.1L268,46c-0.4,0.5-0.8,0.8-1,1.1c-0.2,0.2-0.7,0.5-1.3,0.9c0.8-0.1,1.3-0.2,1.6-0.3
			C267.7,47.7,268.1,47.5,268.7,47.1z"/>
		<path id="XMLID_22_" class="st1" d="M278.5,45.7c0,0.9-0.1,1.7-0.3,2.5c-0.2,0.7-0.6,1.7-1.2,3l-0.9-0.4c0.2-1.3,0.4-2.3,0.4-3.2
			c0-0.6-0.1-1.5-0.2-2.7c-0.1-1.2-0.2-2.4-0.4-3.5c-0.2-1.2-0.4-2.6-0.7-4.2c-0.1-0.6-0.2-1-0.2-1.2c0-0.3,0.2-0.8,0.5-1.6
			c0.3-0.8,0.8-1.7,1.3-2.7l0.9,5.4c0.3,2,0.6,3.8,0.7,5.3C278.4,43.5,278.5,44.6,278.5,45.7z"/>
		<path id="XMLID_18_" class="st1" d="M302.7,50.5c0,2-0.1,3.3-0.3,3.9c-0.2,0.6-0.8,1.3-1.6,2c-1.8,1.4-4.4,2.2-7.8,2.2
			c-2.8,0-5-0.5-6.5-1.4c-1.5-0.9-2.3-2.2-2.3-4c0-1.5,0.2-2.8,0.7-4c0.5-1.3,1.5-3,2.9-4.9l0.9,0.6c-0.9,1.3-1.6,2.5-2,3.4
			c-0.4,0.9-0.6,1.8-0.6,2.7c0,1.2,0.6,2.2,1.9,2.9c1.3,0.7,3.1,1,5.4,1c2.1,0,3.9-0.4,5.5-1.2c1.6-0.8,2.4-1.7,2.4-2.8
			c0-0.1,0-0.3,0-0.4c0-0.1,0-0.3-0.1-0.5c-1.1,0.1-1.8,0.2-2.4,0.2c-1.1,0-2-0.3-2.6-0.8c-0.6-0.6-0.9-1.3-0.9-2.3
			c0-1.5,0.4-3,1.1-4.4c0.8-1.6,1.7-2.4,2.7-2.4c1.1,0,2,0.8,2.6,2.3c0.6,1.4,0.9,3.2,0.9,5.3V50.5z M302.1,35.6l-1.7,3.1l-2.2-1.2
			l-1.2,2.4l-2.8-1.5l1.6-2.9l2.2,1.1l1.3-2.5L302.1,35.6z M300,45.9c-0.3-0.6-0.6-1.1-0.8-1.3c-0.3-0.3-0.6-0.4-1-0.4
			c-0.3,0-0.5,0.1-0.6,0.2c-0.1,0.2-0.2,0.4-0.2,0.6c0,0.7,0.4,1,1.3,1c0.3,0,0.5,0,0.7,0C299.4,46,299.6,46,300,45.9z"/>
		<path id="XMLID_15_" class="st1" d="M315.2,49c0,1.7-0.7,3.5-2.2,5.2c-1.5,1.7-2.9,2.5-4.4,2.5c-0.8,0-1.8-0.3-2.8-0.8
			c-1-0.5-2.5-1.6-4.6-3.2l0.6-0.9c1.1,0.7,2,1.2,2.7,1.5c0.6,0.2,1.2,0.3,2,0.3c1,0,1.9-0.3,2.9-0.8c1.1-0.6,2.3-1.7,3.5-3.1
			c-0.4,0.1-0.8,0.1-1.1,0.1c-1,0-1.8-0.3-2.4-1c-0.6-0.7-0.9-1.5-0.9-2.7c0-1.5,0.3-3,1-4.4c0.8-1.5,1.6-2.3,2.6-2.3
			c0.8,0,1.5,0.6,2.1,1.7c0.6,1.1,0.8,2.4,0.8,4V49z M313.4,45.9c-0.3-1.6-0.9-2.4-1.7-2.4c-0.3,0-0.6,0.1-0.8,0.4
			c-0.2,0.2-0.3,0.5-0.3,0.8c0,0.4,0.2,0.7,0.6,0.9c0.4,0.2,0.9,0.4,1.6,0.4H313.4z"/>
		<path id="XMLID_13_" class="st1" d="M320.1,50.1h-7.2v-4.1h7.2V50.1z"/>
		<path id="XMLID_11_" class="st1" d="M325.9,50.1h-7.2v-4.1h7.2V50.1z"/>
		<path id="XMLID_7_" class="st1" d="M336,50.1h-11.1v-4.1h2.7c0.5,0,0.9,0,1.3,0.1c1.1,0.1,2.4,0.3,3.8,0.4
			c-1.5-0.3-2.6-0.8-3.2-1.3c-0.6-0.6-0.9-1.4-0.9-2.4c0-1.6,0.4-3,1.1-4.2c0.7-1.3,1.5-1.9,2.4-1.9c1,0,1.9,0.9,2.7,2.6
			c0.8,1.8,1.1,3.9,1.1,6.4V50.1z M334.1,31.8l-1.7,3.1l-2.2-1.2l-1.2,2.4l-2.8-1.5l1.6-2.9l2.2,1.1l1.3-2.5L334.1,31.8z
			 M333.9,43.8c-0.4-0.9-0.8-1.5-1.2-2c-0.4-0.5-0.9-0.7-1.3-0.7c-0.2,0-0.4,0.1-0.5,0.2c-0.2,0.1-0.2,0.3-0.2,0.5
			c0,0.4,0.3,0.9,1,1.3S333,43.6,333.9,43.8z"/>
		<path id="XMLID_5_" class="st1" d="M342.1,50.1h-7.2v-4.1h7.2V50.1z"/>
		<path id="XMLID_3_" class="st1" d="M358.4,50.1h-17.3v-4.1h10.8c-1.2-1.3-2.4-2.2-3.4-2.7c-0.9-0.5-1.8-0.7-2.7-0.7
			c-0.3,0-0.5,0-0.7,0c-0.2,0-0.5,0.1-0.9,0.2c0.6-1.3,1.2-2.2,1.9-2.8c0.7-0.6,1.5-0.9,2.3-0.9c0.7,0,1.3,0.2,1.9,0.5
			c0.6,0.3,1.3,0.8,2.1,1.6c0.6,0.6,1.5,1.4,2.6,2.7c0.8,0.8,1.3,1.4,1.7,1.7c0.4,0.3,1,0.5,1.8,0.6V50.1z"/>
	</g>
</g>
</svg>
