<!-- Generator: Adobe Illustrator 23.1.1, SVG Export Plug-In  -->
<svg version="1.1" xmlns="http://www.w3.org/2000/svg" xmlns:xlink="http://www.w3.org/1999/xlink" x="0px" y="0px" width="181.4px"
	 height="90.7px" viewBox="0 0 181.4 90.7" style="enable-background:new 0 0 181.4 90.7;" xml:space="preserve">
<style type="text/css">
	.st0{fill:#FF4637;}
	.st1{fill:#F6E948;}
	.st2{fill:#635951;}
</style>
<defs>
</defs>
<path id="XMLID_169_" class="st0" d="M102,0L102,0c0,6.3-5.1,11.3-11.3,11.3c-6.3,0-11.3-5.1-11.3-11.3l0,0H0v90.7h79.4l0,0
	c0-6.3,5.1-11.3,11.3-11.3c6.3,0,11.3,5.1,11.3,11.3l0,0h79.4V0H102z"/>
<g id="XMLID_108_">
	<g>
		<path class="st1" d="M103.5,12.8h8.1c3.2,0,5.2,1.8,5.2,4.5c0,2.1-0.9,3.8-3,4.3v0c2,0.4,2.4,1.8,2.6,3.5c0.1,1.7,0,3.6,1,4.7
			h-2.5c-0.6-0.7-0.3-2.5-0.6-4.2c-0.2-1.7-0.6-3.1-2.9-3.1h-5.6V30h-2.3V12.8z M110.5,20.7c2.1,0,4-0.6,4-3c0-1.7-0.9-2.9-3-2.9
			h-5.7v6H110.5z"/>
		<path class="st1" d="M121.8,15.3h-2v-2.5h2V15.3z M119.7,17.5h2V30h-2V17.5z"/>
		<path class="st1" d="M135.6,28.9c0,4-1.8,6.1-5.8,6.1c-2.3,0-5-0.9-5.1-3.6h2c0.1,1.5,1.9,2,3.2,2c2.7,0,3.7-1.9,3.7-4.7v-0.8h0
			c-0.7,1.5-2.3,2.3-3.9,2.3c-3.7,0-5.5-2.9-5.5-6.3c0-2.9,1.4-6.6,5.7-6.6c1.6,0,3,0.7,3.7,2.1h0v-1.8h1.9V28.9z M133.6,23.5
			c0-2.2-1-4.4-3.5-4.4c-2.6,0-3.7,2.1-3.7,4.5c0,2.2,0.8,4.7,3.5,4.7S133.6,25.8,133.6,23.5z"/>
		<path class="st1" d="M138.7,12.8h2v6.6h0c0.7-1.5,2.4-2.1,3.9-2.1c3.3,0,4.3,1.9,4.3,4.5V30h-2v-8.4c0-1.5-1-2.5-2.5-2.5
			c-2.5,0-3.7,1.7-3.7,3.9v7h-2V12.8z"/>
		<path class="st1" d="M154.9,17.5h2.5v1.8h-2.5V27c0,0.9,0.3,1.1,1.5,1.1h0.9V30h-1.6c-2.1,0-3-0.4-3-2.7v-7.9h-2.1v-1.8h2.1v-3.7
			h2V17.5z"/>
		<path class="st1" d="M160.9,26c0.1,1.8,1.7,2.4,3.3,2.4c1.3,0,3-0.3,3-1.8c0-1.6-2-1.8-4.1-2.3c-2-0.5-4.1-1.1-4.1-3.5
			c0-2.5,2.5-3.5,4.6-3.5c2.7,0,4.9,0.9,5.1,3.9h-2c-0.1-1.6-1.5-2.1-2.9-2.1c-1.2,0-2.6,0.3-2.6,1.6c0,1.5,2.2,1.7,4.1,2.2
			c2,0.5,4.1,1.1,4.1,3.5c0,3-2.8,3.9-5.3,3.9c-2.8,0-5.1-1.1-5.3-4.2H160.9z"/>
		<path class="st1" d="M80.9,40.3c3.9,0,6,2.9,6,6.5c0,3.6-2.1,6.5-6,6.5s-6-2.9-6-6.5C74.9,43.1,77,40.3,80.9,40.3z M80.9,51.4
			c2.1,0,3.9-1.7,3.9-4.7c0-3-1.7-4.7-3.9-4.7c-2.1,0-3.9,1.7-3.9,4.7C77.1,49.8,78.8,51.4,80.9,51.4z"/>
		<path class="st1" d="M90.2,42.3h-2.1v-1.8h2.1v-1.8c0-2,1.2-3.1,3.4-3.1c0.4,0,0.9,0.1,1.3,0.2v1.8c-0.4-0.1-0.8-0.2-1.2-0.2
			c-1,0-1.6,0.3-1.6,1.4v1.7h2.4v1.8h-2.4V53h-2V42.3z"/>
		<path class="st1" d="M103.5,35.8h11.3v1.9h-9v5.4h7.9v1.9h-7.9V53h-2.3V35.8z"/>
		<path class="st1" d="M127.2,53h-1.9v-2h0c-0.9,1.5-2.3,2.3-4,2.3c-3.3,0-4.3-1.9-4.3-4.5v-8.2h2v8.4c0,1.5,1,2.5,2.5,2.5
			c2.5,0,3.7-1.7,3.7-3.9v-7h2V53z"/>
		<path class="st1" d="M133.1,40.5h2.5v1.8h-2.5V50c0,0.9,0.3,1.1,1.5,1.1h0.9V53H134c-2.1,0-3-0.4-3-2.7v-7.9h-2.1v-1.8h2.1v-3.7h2
			V40.5z"/>
		<path class="st1" d="M148.1,53h-1.9v-2h0c-0.9,1.5-2.3,2.3-4,2.3c-3.3,0-4.3-1.9-4.3-4.5v-8.2h2v8.4c0,1.5,1,2.5,2.5,2.5
			c2.5,0,3.7-1.7,3.7-3.9v-7h2V53z"/>
		<path class="st1" d="M151.1,40.5h1.9v2.6h0c1-2,2.4-3,4.6-2.9v2.2c-3.3,0-4.5,1.9-4.5,5V53h-2V40.5z"/>
		<path class="st1" d="M169.3,49c-0.6,2.7-2.5,4.2-5.3,4.2c-4,0-5.8-2.7-6-6.5c0-3.7,2.4-6.5,5.8-6.5c4.4,0,5.7,4.1,5.6,7.1h-9.3
			c-0.1,2.2,1.2,4.1,3.9,4.1c1.7,0,2.9-0.8,3.2-2.4H169.3z M167.3,45.6c-0.1-1.9-1.6-3.5-3.6-3.5c-2.1,0-3.4,1.6-3.6,3.5H167.3z"/>
		<path class="st1" d="M54.5,71.8c-1.3,1.8-3.5,2.5-5.5,2.5c-5.1,0-8.2-4.2-8.2-8.6c0-5,2.7-9.3,8.2-9.3c3.7,0,6.7,1.7,7.4,5.7h-2.3
			c-0.5-2.6-2.5-3.8-5.1-3.8c-4.2,0-5.9,3.6-5.9,7.3c0,3.6,2.1,6.8,5.9,6.8c3.5,0,5.6-2.5,5.5-5.6h-5.5v-1.9h7.5v9h-1.4L54.5,71.8z"
			/>
		<path class="st1" d="M70.2,70c-0.6,2.7-2.5,4.2-5.3,4.2c-4,0-5.8-2.7-6-6.5c0-3.7,2.4-6.5,5.8-6.5c4.4,0,5.7,4.1,5.6,7.1h-9.3
			c-0.1,2.2,1.2,4.1,3.9,4.1c1.7,0,2.9-0.8,3.2-2.4H70.2z M68.2,66.6c-0.1-1.9-1.6-3.5-3.6-3.5c-2.1,0-3.4,1.6-3.6,3.5H68.2z"/>
		<path class="st1" d="M72.5,61.5h1.9v2h0c0.9-1.5,2.3-2.3,4-2.3c3.3,0,4.3,1.9,4.3,4.5V74h-2v-8.4c0-1.5-1-2.5-2.5-2.5
			c-2.5,0-3.7,1.7-3.7,3.9v7h-2V61.5z"/>
		<path class="st1" d="M96.4,70c-0.6,2.7-2.5,4.2-5.3,4.2c-4,0-5.8-2.7-6-6.5c0-3.7,2.4-6.5,5.8-6.5c4.4,0,5.7,4.1,5.6,7.1h-9.3
			c-0.1,2.2,1.2,4.1,3.9,4.1c1.7,0,2.9-0.8,3.2-2.4H96.4z M94.5,66.6c-0.1-1.9-1.6-3.5-3.6-3.5c-2.1,0-3.4,1.6-3.6,3.5H94.5z"/>
		<path class="st1" d="M98.7,61.5h1.9v2.6h0c1-2,2.4-3,4.6-2.9v2.2c-3.3,0-4.5,1.9-4.5,5V74h-2V61.5z"/>
		<path class="st1" d="M117.7,73.9c-0.4,0.2-0.8,0.3-1.5,0.3c-1.1,0-1.7-0.6-1.7-1.9c-1.1,1.3-2.6,1.9-4.4,1.9c-2.3,0-4.1-1-4.1-3.5
			c0-2.8,2.1-3.4,4.2-3.8c2.3-0.4,4.2-0.3,4.2-1.8c0-1.8-1.5-2.1-2.8-2.1c-1.7,0-3,0.5-3.1,2.4h-2c0.1-3.1,2.5-4.2,5.3-4.2
			c2.2,0,4.7,0.5,4.7,3.4V71c0,1,0,1.4,0.6,1.4c0.2,0,0.4,0,0.6-0.1V73.9z M114.4,67.5c-0.8,0.6-2.3,0.6-3.7,0.8
			c-1.3,0.2-2.5,0.7-2.5,2.2c0,1.3,1.2,1.8,2.4,1.8c2.7,0,3.8-1.7,3.8-2.8V67.5z"/>
		<path class="st1" d="M122.4,61.5h2.5v1.8h-2.5V71c0,0.9,0.3,1.1,1.5,1.1h0.9V74h-1.6c-2.1,0-3-0.4-3-2.7v-7.9h-2.1v-1.8h2.1v-3.7
			h2V61.5z"/>
		<path class="st1" d="M129.3,59.3h-2v-2.5h2V59.3z M127.3,61.5h2V74h-2V61.5z"/>
		<path class="st1" d="M137.8,61.3c3.9,0,6,2.9,6,6.5c0,3.6-2.1,6.5-6,6.5s-6-2.9-6-6.5C131.8,64.1,133.9,61.3,137.8,61.3z
			 M137.8,72.4c2.1,0,3.9-1.7,3.9-4.7c0-3-1.7-4.7-3.9-4.7c-2.1,0-3.9,1.7-3.9,4.7C134,70.8,135.7,72.4,137.8,72.4z"/>
		<path class="st1" d="M146.3,61.5h1.9v2h0c0.9-1.5,2.3-2.3,4-2.3c3.3,0,4.3,1.9,4.3,4.5V74h-2v-8.4c0-1.5-1-2.5-2.5-2.5
			c-2.5,0-3.7,1.7-3.7,3.9v7h-2V61.5z"/>
		<path class="st1" d="M160.9,70c0.1,1.8,1.7,2.4,3.3,2.4c1.3,0,3-0.3,3-1.8c0-1.6-2-1.8-4.1-2.3c-2-0.5-4.1-1.1-4.1-3.5
			c0-2.5,2.5-3.5,4.6-3.5c2.7,0,4.9,0.9,5.1,3.9h-2c-0.1-1.6-1.5-2.1-2.9-2.1c-1.2,0-2.6,0.3-2.6,1.6c0,1.5,2.2,1.7,4.1,2.2
			c2,0.5,4.1,1.1,4.1,3.5c0,3-2.8,3.9-5.3,3.9c-2.8,0-5.1-1.1-5.3-4.2H160.9z"/>
	</g>
</g>
<g id="XMLID_1_">
	<g>
		<path class="st2" d="M24.8,29.1c0,1.3-0.2,2.4-0.6,3.3s-1,1.7-1.7,2.3c-0.8,0.6-1.7,1-2.7,1.3c-1.1,0.3-2.3,0.4-3.6,0.4
			c-1.6,0-3-0.2-4.1-0.5s-2-0.8-2.7-1.3s-1.2-1.2-1.5-2c-0.3-0.8-0.5-1.6-0.5-2.5v-3.9h2.1v3.4c0,1.5,0.5,2.7,1.6,3.5
			c1.1,0.8,2.8,1.2,5,1.2c0.8,0,1.7-0.1,2.4-0.2c0.8-0.1,1.5-0.4,2.1-0.7c0.6-0.3,1.1-0.8,1.4-1.3c0.4-0.6,0.5-1.3,0.5-2.2v-0.4
			c-0.3,0.2-0.7,0.3-1.2,0.5c-0.5,0.2-1.1,0.2-1.9,0.2c-0.7,0-1.3-0.1-1.9-0.3c-0.6-0.2-1.1-0.5-1.5-0.9c-0.4-0.4-0.8-0.9-1-1.5
			s-0.4-1.4-0.4-2.2c0-0.7,0.1-1.4,0.3-2.1c0.2-0.7,0.6-1.3,1-1.8c0.4-0.5,1-0.9,1.6-1.3c0.6-0.3,1.4-0.5,2.2-0.5
			c0.9,0,1.7,0.2,2.3,0.5c0.6,0.3,1.1,0.8,1.5,1.4s0.7,1.3,0.8,2.2s0.2,1.8,0.2,2.7V29.1z M16.5,15.9c0-0.2,0-0.4,0.1-0.5
			s0.2-0.3,0.3-0.4s0.3-0.2,0.4-0.3c0.2-0.1,0.3-0.1,0.5-0.1c0.2,0,0.4,0,0.5,0.1c0.2,0.1,0.3,0.2,0.4,0.3s0.2,0.3,0.3,0.4
			c0.1,0.2,0.1,0.3,0.1,0.5c0,0.2,0,0.4-0.1,0.5c-0.1,0.2-0.2,0.3-0.3,0.4c-0.1,0.1-0.3,0.2-0.4,0.3c-0.2,0.1-0.3,0.1-0.5,0.1
			c-0.2,0-0.4,0-0.5-0.1c-0.2-0.1-0.3-0.2-0.4-0.3c-0.1-0.1-0.2-0.3-0.3-0.4S16.5,16.1,16.5,15.9z M16.8,25.2c0,0.5,0.1,0.9,0.2,1.3
			s0.3,0.7,0.6,0.9c0.3,0.2,0.6,0.4,0.9,0.6c0.4,0.1,0.8,0.2,1.2,0.2c0.7,0,1.2-0.1,1.7-0.3c0.5-0.2,0.9-0.4,1.2-0.6v-1.2
			c0-0.6,0-1.2-0.1-1.7s-0.3-1-0.5-1.3c-0.2-0.4-0.5-0.7-0.9-0.9c-0.4-0.2-0.8-0.3-1.3-0.3c-0.5,0-1,0.1-1.4,0.3
			c-0.4,0.2-0.7,0.5-0.9,0.8s-0.4,0.7-0.5,1.1C16.8,24.5,16.8,24.9,16.8,25.2z M20,15.9c0-0.2,0-0.4,0.1-0.5s0.2-0.3,0.3-0.4
			c0.1-0.1,0.3-0.2,0.4-0.3s0.3-0.1,0.5-0.1c0.2,0,0.4,0,0.5,0.1s0.3,0.2,0.4,0.3s0.2,0.3,0.3,0.4s0.1,0.3,0.1,0.5
			c0,0.2,0,0.4-0.1,0.5s-0.2,0.3-0.3,0.4c-0.1,0.1-0.3,0.2-0.4,0.3s-0.3,0.1-0.5,0.1c-0.2,0-0.4,0-0.5-0.1s-0.3-0.2-0.4-0.3
			c-0.1-0.1-0.2-0.3-0.3-0.4S20,16.1,20,15.9z"/>
		<path class="st2" d="M36.1,30.3c-0.1,1.1-0.3,2-0.6,2.8c-0.3,0.8-0.8,1.4-1.4,1.9c-0.6,0.5-1.4,0.9-2.3,1.1
			c-0.9,0.2-2,0.4-3.3,0.4h-1.1v-2.2h0.8c1,0,1.9-0.1,2.6-0.2s1.3-0.4,1.7-0.7c0.4-0.3,0.8-0.7,1-1.2c0.2-0.5,0.3-1.1,0.3-1.8h-3
			c-0.7,0-1.4-0.1-2-0.3c-0.6-0.2-1.1-0.5-1.6-0.8s-0.8-0.9-1-1.5c-0.3-0.6-0.4-1.3-0.4-2.2c0-0.7,0.1-1.4,0.4-2.1s0.6-1.3,1-1.8
			c0.4-0.5,1-1,1.6-1.3c0.6-0.3,1.4-0.5,2.2-0.5c0.9,0,1.7,0.2,2.3,0.5c0.6,0.3,1.1,0.8,1.5,1.4c0.4,0.6,0.7,1.3,0.8,2.2
			s0.3,1.8,0.3,2.8v1.5H38c0.4,0,0.6,0.1,0.8,0.2c0.2,0.2,0.3,0.4,0.3,0.8c0,0.4-0.1,0.7-0.2,0.9c-0.2,0.2-0.4,0.2-0.8,0.2H36.1z
			 M28.2,25.3c0,0.9,0.3,1.6,0.8,2.1c0.5,0.5,1.3,0.8,2.2,0.8H34v-2c0-0.6-0.1-1.2-0.2-1.7s-0.3-1-0.5-1.3c-0.2-0.4-0.5-0.7-0.9-0.9
			c-0.4-0.2-0.8-0.3-1.3-0.3c-0.5,0-0.9,0.1-1.3,0.3s-0.7,0.5-0.9,0.8c-0.2,0.3-0.4,0.7-0.5,1.1C28.2,24.5,28.2,24.9,28.2,25.3z"/>
		<path class="st2" d="M37,30.3c-0.4,0-0.6-0.1-0.8-0.2c-0.2-0.2-0.3-0.4-0.3-0.8c0-0.4,0.1-0.7,0.2-0.9c0.2-0.2,0.4-0.2,0.8-0.2
			h3.9c0.4,0,0.6,0.1,0.8,0.2c0.2,0.2,0.3,0.4,0.3,0.8c0,0.4-0.1,0.7-0.2,0.9c-0.2,0.2-0.4,0.2-0.8,0.2H37z"/>
		<path class="st2" d="M40.1,30.3c-0.4,0-0.6-0.1-0.8-0.2c-0.2-0.2-0.3-0.4-0.3-0.8c0-0.4,0.1-0.7,0.2-0.9c0.2-0.2,0.4-0.2,0.8-0.2
			h3.9c0.4,0,0.6,0.1,0.8,0.2c0.2,0.2,0.3,0.4,0.3,0.8c0,0.4-0.1,0.7-0.2,0.9c-0.2,0.2-0.4,0.2-0.8,0.2H40.1z"/>
		<path class="st2" d="M43.9,30.3c-0.4,0-0.6-0.1-0.8-0.2c-0.2-0.2-0.3-0.4-0.3-0.8c0-0.4,0.1-0.7,0.2-0.9c0.2-0.2,0.4-0.2,0.8-0.2
			h3.9c0.4,0,0.6,0.1,0.8,0.2c0.2,0.2,0.3,0.4,0.3,0.8c0,0.4-0.1,0.7-0.2,0.9c-0.2,0.2-0.4,0.2-0.8,0.2H43.9z"/>
		<path class="st2" d="M62.2,28.2c0.4,0,0.6,0.1,0.8,0.2c0.2,0.2,0.3,0.4,0.3,0.8c0,0.4-0.1,0.7-0.2,0.9c-0.2,0.2-0.4,0.2-0.8,0.2
			H47.8c-0.4,0-0.6-0.1-0.8-0.2c-0.2-0.2-0.3-0.4-0.3-0.8c0-0.4,0.1-0.7,0.2-0.9c0.2-0.2,0.4-0.2,0.8-0.2H51
			c-0.2-0.4-0.4-0.8-0.5-1.2c-0.1-0.5-0.2-1-0.2-1.6c0-0.8,0.1-1.5,0.4-2.1s0.6-1.2,1-1.7c0.5-0.5,1-0.9,1.6-1.1
			c0.6-0.3,1.4-0.4,2.2-0.4c1,0,1.8,0.2,2.4,0.5c0.6,0.3,1.1,0.8,1.5,1.3c0.4,0.5,0.6,1.1,0.8,1.8s0.2,1.3,0.2,1.9v2.7H62.2z
			 M52.1,15.9c0-0.2,0-0.4,0.1-0.5c0.1-0.2,0.2-0.3,0.3-0.4s0.3-0.2,0.4-0.3s0.3-0.1,0.5-0.1c0.2,0,0.4,0,0.5,0.1
			c0.2,0.1,0.3,0.2,0.4,0.3s0.2,0.3,0.3,0.4s0.1,0.3,0.1,0.5c0,0.2,0,0.4-0.1,0.5s-0.2,0.3-0.3,0.4c-0.1,0.1-0.3,0.2-0.4,0.3
			c-0.2,0.1-0.3,0.1-0.5,0.1c-0.2,0-0.4,0-0.5-0.1s-0.3-0.2-0.4-0.3c-0.1-0.1-0.2-0.3-0.3-0.4C52.2,16.2,52.1,16.1,52.1,15.9z
			 M52.5,25.1c0,0.5,0.1,1,0.2,1.4c0.2,0.4,0.4,0.7,0.7,1c0.3,0.3,0.6,0.4,1,0.6c0.4,0.1,0.8,0.2,1.3,0.2h2.4v-2.6
			c0-0.4,0-0.9-0.1-1.3c-0.1-0.4-0.2-0.8-0.4-1.2s-0.5-0.6-0.9-0.8S55.9,22,55.3,22c-0.4,0-0.8,0.1-1.1,0.2
			c-0.3,0.2-0.6,0.4-0.9,0.7s-0.4,0.6-0.6,1C52.6,24.3,52.5,24.7,52.5,25.1z M55.5,15.9c0-0.2,0-0.4,0.1-0.5s0.2-0.3,0.3-0.4
			s0.3-0.2,0.4-0.3c0.2-0.1,0.3-0.1,0.5-0.1c0.2,0,0.4,0,0.5,0.1s0.3,0.2,0.4,0.3c0.1,0.1,0.2,0.3,0.3,0.4c0.1,0.2,0.1,0.3,0.1,0.5
			c0,0.2,0,0.4-0.1,0.5c-0.1,0.2-0.2,0.3-0.3,0.4c-0.1,0.1-0.3,0.2-0.4,0.3s-0.3,0.1-0.5,0.1c-0.2,0-0.4,0-0.5-0.1
			c-0.2-0.1-0.3-0.2-0.4-0.3c-0.1-0.1-0.2-0.3-0.3-0.4S55.5,16.1,55.5,15.9z"/>
		<path class="st2" d="M72.7,28.2c0-1.1-0.1-2-0.4-2.8s-0.7-1.4-1.2-1.9c-0.5-0.5-1.1-0.8-1.8-1c-0.7-0.2-1.4-0.3-2.2-0.3
			c-0.3,0-0.5,0-0.8,0c-0.3,0-0.5,0.1-0.8,0.1c-0.3,0-0.5,0.1-0.8,0.1s-0.5,0.1-0.6,0.2v-2.1c0.3-0.1,0.8-0.2,1.4-0.4
			s1.2-0.2,1.9-0.2c1.3,0,2.5,0.2,3.4,0.7c1,0.5,1.7,1.1,2.4,1.8c0.6,0.8,1.1,1.7,1.3,2.7c0.3,1,0.4,2.1,0.4,3.3v1.9H62.2
			c-0.4,0-0.6-0.1-0.8-0.2c-0.2-0.2-0.3-0.4-0.3-0.8c0-0.4,0.1-0.7,0.2-0.9c0.2-0.2,0.4-0.2,0.8-0.2H72.7z"/>
		<path class="st2" d="M20.7,33.7v17.8c0,2.3-0.6,4-1.8,5.2c-1.2,1.2-3,1.8-5.4,1.8c-1.2,0-2.2-0.2-3.1-0.5s-1.6-0.8-2.2-1.3
			c-0.6-0.6-1.1-1.3-1.4-2.1s-0.5-1.8-0.5-2.9v-3.5h2.2v3.1c0,1.7,0.4,3,1.2,3.8c0.8,0.8,2.1,1.3,3.8,1.3c0.9,0,1.6-0.1,2.2-0.3
			s1.1-0.5,1.5-0.9c0.4-0.4,0.7-0.9,0.9-1.5c0.2-0.6,0.3-1.4,0.3-2.2V33.7H20.7z"/>
		<path class="st2" d="M28.7,51.2c0,0.4-0.1,0.7-0.2,0.9c-0.2,0.2-0.4,0.2-0.8,0.2h-0.4c-0.6,0-1.1-0.1-1.5-0.2s-0.9-0.3-1.2-0.6
			s-0.6-0.7-0.8-1.1c-0.2-0.5-0.3-1-0.3-1.7V33.7h2.2v14.5c0,0.4,0,0.7,0.1,0.9c0,0.3,0.1,0.5,0.3,0.6c0.1,0.2,0.3,0.3,0.6,0.4
			s0.6,0.1,1,0.1h0.1c0.4,0,0.6,0.1,0.8,0.2C28.6,50.6,28.7,50.9,28.7,51.2z"/>
		<path class="st2" d="M27.6,52.3c-0.4,0-0.6-0.1-0.8-0.2c-0.2-0.2-0.3-0.4-0.3-0.8c0-0.4,0.1-0.7,0.2-0.9c0.2-0.2,0.4-0.2,0.8-0.2
			h3.9c0.4,0,0.6,0.1,0.8,0.2c0.2,0.2,0.3,0.4,0.3,0.8c0,0.4-0.1,0.7-0.2,0.9c-0.2,0.2-0.4,0.2-0.8,0.2H27.6z"/>
		<path class="st2" d="M31.5,52.3c-0.4,0-0.6-0.1-0.8-0.2c-0.2-0.2-0.3-0.4-0.3-0.8c0-0.4,0.1-0.7,0.2-0.9c0.2-0.2,0.4-0.2,0.8-0.2
			h3.9c0.4,0,0.6,0.1,0.8,0.2c0.2,0.2,0.3,0.4,0.3,0.8c0,0.4-0.1,0.7-0.2,0.9c-0.2,0.2-0.4,0.2-0.8,0.2H31.5z"/>
		<path class="st2" d="M35.6,52.3c-0.4,0-0.6-0.1-0.8-0.2c-0.2-0.2-0.3-0.4-0.3-0.8c0-0.4,0.1-0.7,0.2-0.9c0.2-0.2,0.4-0.2,0.8-0.2
			h3.9c0.4,0,0.6,0.1,0.8,0.2c0.2,0.2,0.3,0.4,0.3,0.8c0,0.4-0.1,0.7-0.2,0.9c-0.2,0.2-0.4,0.2-0.8,0.2H35.6z"/>
		<path class="st2" d="M38.7,52.3c-0.4,0-0.6-0.1-0.8-0.2c-0.2-0.2-0.3-0.4-0.3-0.8c0-0.4,0.1-0.7,0.2-0.9c0.2-0.2,0.4-0.2,0.8-0.2
			h3.9c0.4,0,0.6,0.1,0.8,0.2c0.2,0.2,0.3,0.4,0.3,0.8c0,0.4-0.1,0.7-0.2,0.9c-0.2,0.2-0.4,0.2-0.8,0.2H38.7z"/>
		<path class="st2" d="M42.6,52.3c-0.4,0-0.6-0.1-0.8-0.2c-0.2-0.2-0.3-0.4-0.3-0.8c0-0.4,0.1-0.7,0.2-0.9c0.2-0.2,0.4-0.2,0.8-0.2
			h3.9c0.4,0,0.6,0.1,0.8,0.2c0.2,0.2,0.3,0.4,0.3,0.8c0,0.4-0.1,0.7-0.2,0.9c-0.2,0.2-0.4,0.2-0.8,0.2H42.6z"/>
		<path class="st2" d="M46.5,52.3c-0.4,0-0.6-0.1-0.8-0.2c-0.2-0.2-0.3-0.4-0.3-0.8c0-0.4,0.1-0.7,0.2-0.9c0.2-0.2,0.4-0.2,0.8-0.2
			h3.9c0.4,0,0.6,0.1,0.8,0.2c0.2,0.2,0.3,0.4,0.3,0.8c0,0.4-0.1,0.7-0.2,0.9c-0.2,0.2-0.4,0.2-0.8,0.2H46.5z"/>
		<path class="st2" d="M50.3,52.3c-0.4,0-0.6-0.1-0.8-0.2c-0.2-0.2-0.3-0.4-0.3-0.8c0-0.4,0.1-0.7,0.2-0.9c0.2-0.2,0.4-0.2,0.8-0.2
			h3.9c0.4,0,0.6,0.1,0.8,0.2c0.2,0.2,0.3,0.4,0.3,0.8c0,0.4-0.1,0.7-0.2,0.9c-0.2,0.2-0.4,0.2-0.8,0.2H50.3z"/>
		<path class="st2" d="M54.2,52.3c-0.4,0-0.6-0.1-0.8-0.2c-0.2-0.2-0.3-0.4-0.3-0.8c0-0.4,0.1-0.7,0.2-0.9c0.2-0.2,0.4-0.2,0.8-0.2
			h3.9c0.4,0,0.6,0.1,0.8,0.2c0.2,0.2,0.3,0.4,0.3,0.8c0,0.4-0.1,0.7-0.2,0.9c-0.2,0.2-0.4,0.2-0.8,0.2H54.2z"/>
		<path class="st2" d="M58.1,52.3c-0.4,0-0.6-0.1-0.8-0.2c-0.2-0.2-0.3-0.4-0.3-0.8c0-0.4,0.1-0.7,0.2-0.9c0.2-0.2,0.4-0.2,0.8-0.2
			h3.9c0.4,0,0.6,0.1,0.8,0.2c0.2,0.2,0.3,0.4,0.3,0.8c0,0.4-0.1,0.7-0.2,0.9c-0.2,0.2-0.4,0.2-0.8,0.2H58.1z"/>
		<path class="st2" d="M61.9,52.3c-0.4,0-0.6-0.1-0.8-0.2c-0.2-0.2-0.3-0.4-0.3-0.8c0-0.4,0.1-0.7,0.2-0.9c0.2-0.2,0.4-0.2,0.8-0.2
			h3.9c0.4,0,0.6,0.1,0.8,0.2c0.2,0.2,0.3,0.4,0.3,0.8c0,0.4-0.1,0.7-0.2,0.9c-0.2,0.2-0.4,0.2-0.8,0.2H61.9z"/>
		<path class="st2" d="M65.8,52.3c-0.4,0-0.6-0.1-0.8-0.2c-0.2-0.2-0.3-0.4-0.3-0.8c0-0.4,0.1-0.7,0.2-0.9c0.2-0.2,0.4-0.2,0.8-0.2
			h2c0.3,0,0.6,0,0.9-0.1c0.3,0,0.5-0.1,0.7-0.2c0.2-0.1,0.3-0.3,0.4-0.6c0.1-0.3,0.2-0.6,0.2-1v-6h2.2v5c0,0.4,0,0.8,0.1,1.2
			c0.1,0.4,0.2,0.7,0.4,0.9c0.2,0.2,0.4,0.4,0.7,0.6s0.7,0.2,1.1,0.2c0.4,0,0.6,0.1,0.8,0.2c0.2,0.2,0.3,0.4,0.3,0.8
			c0,0.4-0.1,0.7-0.2,0.9c-0.2,0.2-0.4,0.2-0.8,0.2c-0.3,0-0.6,0-0.8-0.1s-0.5-0.2-0.8-0.3c-0.2-0.1-0.4-0.3-0.6-0.5
			c-0.2-0.2-0.3-0.4-0.4-0.6c-0.2,0.3-0.4,0.6-0.7,0.8c-0.3,0.2-0.6,0.3-0.9,0.4c-0.3,0.1-0.6,0.2-1,0.2s-0.6,0.1-0.9,0.1H65.8z
			 M67.9,56.3c0-0.2,0-0.4,0.1-0.5s0.2-0.3,0.3-0.4c0.1-0.1,0.3-0.2,0.4-0.3c0.2-0.1,0.3-0.1,0.5-0.1c0.2,0,0.4,0,0.5,0.1
			c0.2,0.1,0.3,0.2,0.4,0.3c0.1,0.1,0.2,0.3,0.3,0.4c0.1,0.2,0.1,0.3,0.1,0.5c0,0.2,0,0.4-0.1,0.5c-0.1,0.2-0.2,0.3-0.3,0.4
			s-0.3,0.2-0.4,0.3c-0.2,0.1-0.3,0.1-0.5,0.1c-0.2,0-0.4,0-0.5-0.1c-0.2-0.1-0.3-0.2-0.4-0.3S68.1,57,68,56.8S67.9,56.5,67.9,56.3z
			 M71.3,56.3c0-0.2,0-0.4,0.1-0.5s0.2-0.3,0.3-0.4c0.1-0.1,0.3-0.2,0.4-0.3s0.3-0.1,0.5-0.1c0.2,0,0.4,0,0.5,0.1s0.3,0.2,0.4,0.3
			c0.1,0.1,0.2,0.3,0.3,0.4s0.1,0.3,0.1,0.5c0,0.2,0,0.4-0.1,0.5s-0.2,0.3-0.3,0.4c-0.1,0.1-0.3,0.2-0.4,0.3s-0.3,0.1-0.5,0.1
			c-0.2,0-0.4,0-0.5-0.1s-0.3-0.2-0.4-0.3c-0.1-0.1-0.2-0.3-0.3-0.4S71.3,56.5,71.3,56.3z"/>
		<path class="st2" d="M85,50.2c0-1.1-0.1-2-0.4-2.8s-0.7-1.4-1.2-1.9c-0.5-0.5-1.1-0.8-1.8-1c-0.7-0.2-1.4-0.3-2.2-0.3
			c-0.3,0-0.5,0-0.8,0c-0.3,0-0.5,0.1-0.8,0.1c-0.3,0-0.5,0.1-0.8,0.1s-0.5,0.1-0.6,0.2v-2.1c0.3-0.1,0.8-0.2,1.4-0.4
			s1.2-0.2,1.9-0.2c1.3,0,2.5,0.2,3.4,0.7c1,0.5,1.7,1.1,2.4,1.8c0.6,0.8,1.1,1.7,1.3,2.7c0.3,1,0.4,2.1,0.4,3.3v1.9H74.5
			c-0.4,0-0.6-0.1-0.8-0.2c-0.2-0.2-0.3-0.4-0.3-0.8c0-0.4,0.1-0.7,0.2-0.9c0.2-0.2,0.4-0.2,0.8-0.2H85z M78.6,56.3
			c0-0.2,0-0.4,0.1-0.5s0.2-0.3,0.3-0.4s0.3-0.2,0.4-0.3c0.2-0.1,0.3-0.1,0.5-0.1c0.2,0,0.4,0,0.5,0.1c0.2,0.1,0.3,0.2,0.4,0.3
			s0.2,0.3,0.3,0.4c0.1,0.2,0.1,0.3,0.1,0.5c0,0.2,0,0.4-0.1,0.5c-0.1,0.2-0.2,0.3-0.3,0.4c-0.1,0.1-0.3,0.2-0.4,0.3
			s-0.3,0.1-0.5,0.1c-0.2,0-0.4,0-0.5-0.1c-0.2-0.1-0.3-0.2-0.4-0.3c-0.1-0.1-0.2-0.3-0.3-0.4S78.6,56.5,78.6,56.3z"/>
		<path class="st2" d="M102.2,33.7v18.7H88.8v-2.2h4.5V37.5h2.2v12.6h4.5V33.7H102.2z M96.8,36.1H92V35h1.2
			c-0.1-0.2-0.2-0.4-0.3-0.6c-0.1-0.2-0.1-0.5-0.1-0.7c0-0.4,0.1-0.7,0.2-1c0.1-0.3,0.3-0.5,0.5-0.7c0.2-0.2,0.4-0.3,0.7-0.4
			c0.3-0.1,0.5-0.1,0.8-0.1c0.3,0,0.5,0,0.8,0.1c0.2,0,0.4,0.1,0.5,0.2v1.2c-0.3-0.2-0.7-0.2-1.1-0.2c-0.2,0-0.4,0-0.5,0.1
			c-0.1,0.1-0.3,0.2-0.4,0.3S94,33.1,94,33.2s-0.1,0.3-0.1,0.4c0,0.4,0.1,0.7,0.3,0.9s0.6,0.4,1,0.4h1.5V36.1z"/>
		<path class="st2" d="M107.2,33.7v18.7H105V33.7H107.2z"/>
		<path class="st2" d="M10.9,72.2c-0.3,0-0.7,0-1-0.1c-0.4,0-0.7-0.1-1.1-0.3c-0.4-0.1-0.7-0.3-1-0.5c-0.3-0.2-0.6-0.5-0.9-0.8
			s-0.5-0.7-0.6-1.2c-0.1-0.5-0.2-1-0.2-1.6c0-0.9,0.2-1.7,0.5-2.4c0.3-0.6,0.7-1.2,1.2-1.6s1.1-0.7,1.7-0.9c0.6-0.2,1.3-0.3,2-0.3
			h4.2v7.5c0,0.4,0,0.7,0.1,0.9c0,0.3,0.1,0.5,0.3,0.6c0.1,0.2,0.3,0.3,0.6,0.4c0.2,0.1,0.6,0.1,1,0.1h0.5c0.4,0,0.6,0.1,0.8,0.2
			c0.2,0.2,0.3,0.4,0.3,0.8c0,0.4-0.1,0.7-0.2,0.9c-0.2,0.2-0.4,0.2-0.8,0.2h-0.8c-0.5,0-0.9,0-1.3-0.1c-0.4-0.1-0.8-0.2-1.1-0.4
			S14.2,73.3,14,73c-0.2-0.3-0.4-0.8-0.4-1.3c-0.4,0.1-0.8,0.2-1.3,0.3C11.8,72.2,11.3,72.2,10.9,72.2z M8.3,67.5
			c0,0.4,0.1,0.7,0.2,1c0.1,0.3,0.3,0.6,0.5,0.8c0.2,0.2,0.5,0.4,0.9,0.5c0.3,0.1,0.8,0.2,1.3,0.2c0.2,0,0.4,0,0.6,0
			s0.4-0.1,0.7-0.1c0.2,0,0.4-0.1,0.6-0.1c0.2-0.1,0.4-0.1,0.6-0.2v-4.7h-2.3c-0.4,0-0.8,0.1-1.2,0.2c-0.4,0.1-0.7,0.3-0.9,0.5
			c-0.3,0.2-0.5,0.5-0.6,0.8C8.4,66.6,8.3,67,8.3,67.5z M8.7,57.9c0-0.2,0-0.4,0.1-0.5S9,57,9.1,56.9s0.3-0.2,0.4-0.3
			c0.2-0.1,0.3-0.1,0.5-0.1c0.2,0,0.4,0,0.5,0.1c0.2,0.1,0.3,0.2,0.4,0.3s0.2,0.3,0.3,0.4s0.1,0.3,0.1,0.5c0,0.2,0,0.4-0.1,0.5
			c-0.1,0.2-0.2,0.3-0.3,0.4s-0.3,0.2-0.4,0.3c-0.2,0.1-0.3,0.1-0.5,0.1c-0.2,0-0.4,0-0.5-0.1c-0.2-0.1-0.3-0.2-0.4-0.3
			s-0.2-0.3-0.3-0.4C8.8,58.2,8.7,58.1,8.7,57.9z M12.1,57.9c0-0.2,0-0.4,0.1-0.5s0.2-0.3,0.3-0.4c0.1-0.1,0.3-0.2,0.4-0.3
			c0.2-0.1,0.3-0.1,0.5-0.1c0.2,0,0.4,0,0.5,0.1c0.2,0.1,0.3,0.2,0.4,0.3s0.2,0.3,0.3,0.4c0.1,0.2,0.1,0.3,0.1,0.5
			c0,0.2,0,0.4-0.1,0.5c-0.1,0.2-0.2,0.3-0.3,0.4s-0.3,0.2-0.4,0.3s-0.3,0.1-0.5,0.1c-0.2,0-0.4,0-0.5-0.1s-0.3-0.2-0.4-0.3
			c-0.1-0.1-0.2-0.3-0.3-0.4C12.2,58.2,12.1,58.1,12.1,57.9z"/>
		<path class="st2" d="M18.1,74.3c-0.4,0-0.6-0.1-0.8-0.2c-0.2-0.2-0.3-0.4-0.3-0.8c0-0.4,0.1-0.7,0.2-0.9c0.2-0.2,0.4-0.2,0.8-0.2
			h3.9c0.4,0,0.6,0.1,0.8,0.2c0.2,0.2,0.3,0.4,0.3,0.8c0,0.4-0.1,0.7-0.2,0.9c-0.2,0.2-0.4,0.2-0.8,0.2H18.1z"/>
		<path class="st2" d="M21.9,74.3c-0.4,0-0.6-0.1-0.8-0.2c-0.2-0.2-0.3-0.4-0.3-0.8c0-0.4,0.1-0.7,0.2-0.9c0.2-0.2,0.4-0.2,0.8-0.2
			h3.9c0.4,0,0.6,0.1,0.8,0.2c0.2,0.2,0.3,0.4,0.3,0.8c0,0.4-0.1,0.7-0.2,0.9c-0.2,0.2-0.4,0.2-0.8,0.2H21.9z"/>
		<path class="st2" d="M25.8,74.3c-0.4,0-0.6-0.1-0.8-0.2c-0.2-0.2-0.3-0.4-0.3-0.8c0-0.4,0.1-0.7,0.2-0.9c0.2-0.2,0.4-0.2,0.8-0.2
			h3.9c0.4,0,0.6,0.1,0.8,0.2c0.2,0.2,0.3,0.4,0.3,0.8c0,0.4-0.1,0.7-0.2,0.9c-0.2,0.2-0.4,0.2-0.8,0.2H25.8z"/>
		<path class="st2" d="M29.7,74.3c-0.4,0-0.6-0.1-0.8-0.2c-0.2-0.2-0.3-0.4-0.3-0.8c0-0.4,0.1-0.7,0.2-0.9c0.2-0.2,0.4-0.2,0.8-0.2
			h3.9c0.4,0,0.6,0.1,0.8,0.2c0.2,0.2,0.3,0.4,0.3,0.8c0,0.4-0.1,0.7-0.2,0.9c-0.2,0.2-0.4,0.2-0.8,0.2H29.7z"/>
		<path class="st2" d="M33.6,74.3c-0.4,0-0.6-0.1-0.8-0.2c-0.2-0.2-0.3-0.4-0.3-0.8c0-0.4,0.1-0.7,0.2-0.9c0.2-0.2,0.4-0.2,0.8-0.2
			h3.9c0.4,0,0.6,0.1,0.8,0.2c0.2,0.2,0.3,0.4,0.3,0.8c0,0.4-0.1,0.7-0.2,0.9c-0.2,0.2-0.4,0.2-0.8,0.2H33.6z"/>
		<path class="st2" d="M37.4,74.3c-0.4,0-0.6-0.1-0.8-0.2c-0.2-0.2-0.3-0.4-0.3-0.8c0-0.4,0.1-0.7,0.2-0.9c0.2-0.2,0.4-0.2,0.8-0.2
			h3.9c0.4,0,0.6,0.1,0.8,0.2c0.2,0.2,0.3,0.4,0.3,0.8c0,0.4-0.1,0.7-0.2,0.9c-0.2,0.2-0.4,0.2-0.8,0.2H37.4z"/>
		<path class="st2" d="M41.3,74.3c-0.4,0-0.6-0.1-0.8-0.2c-0.2-0.2-0.3-0.4-0.3-0.8c0-0.4,0.1-0.7,0.2-0.9c0.2-0.2,0.4-0.2,0.8-0.2
			h3.9c0.4,0,0.6,0.1,0.8,0.2c0.2,0.2,0.3,0.4,0.3,0.8c0,0.4-0.1,0.7-0.2,0.9c-0.2,0.2-0.4,0.2-0.8,0.2H41.3z"/>
		<path class="st2" d="M45.2,74.3c-0.4,0-0.6-0.1-0.8-0.2c-0.2-0.2-0.3-0.4-0.3-0.8c0-0.4,0.1-0.7,0.2-0.9c0.2-0.2,0.4-0.2,0.8-0.2
			h3.9c0.4,0,0.6,0.1,0.8,0.2c0.2,0.2,0.3,0.4,0.3,0.8c0,0.4-0.1,0.7-0.2,0.9c-0.2,0.2-0.4,0.2-0.8,0.2H45.2z"/>
		<path class="st2" d="M49.1,74.3c-0.4,0-0.6-0.1-0.8-0.2c-0.2-0.2-0.3-0.4-0.3-0.8c0-0.4,0.1-0.7,0.2-0.9c0.2-0.2,0.4-0.2,0.8-0.2
			h3.9c0.4,0,0.6,0.1,0.8,0.2c0.2,0.2,0.3,0.4,0.3,0.8c0,0.4-0.1,0.7-0.2,0.9c-0.2,0.2-0.4,0.2-0.8,0.2H49.1z"/>
		<path class="st2" d="M52.9,74.3c-0.4,0-0.6-0.1-0.8-0.2c-0.2-0.2-0.3-0.4-0.3-0.8c0-0.4,0.1-0.7,0.2-0.9c0.2-0.2,0.4-0.2,0.8-0.2
			h3.9c0.4,0,0.6,0.1,0.8,0.2c0.2,0.2,0.3,0.4,0.3,0.8c0,0.4-0.1,0.7-0.2,0.9c-0.2,0.2-0.4,0.2-0.8,0.2H52.9z"/>
		<path class="st2" d="M56.8,74.3c-0.4,0-0.6-0.1-0.8-0.2c-0.2-0.2-0.3-0.4-0.3-0.8c0-0.4,0.1-0.7,0.2-0.9c0.2-0.2,0.4-0.2,0.8-0.2
			h3.9c0.4,0,0.6,0.1,0.8,0.2c0.2,0.2,0.3,0.4,0.3,0.8c0,0.4-0.1,0.7-0.2,0.9c-0.2,0.2-0.4,0.2-0.8,0.2H56.8z"/>
		<path class="st2" d="M60.7,74.3c-0.4,0-0.6-0.1-0.8-0.2c-0.2-0.2-0.3-0.4-0.3-0.8c0-0.4,0.1-0.7,0.2-0.9c0.2-0.2,0.4-0.2,0.8-0.2
			h3.9c0.4,0,0.6,0.1,0.8,0.2c0.2,0.2,0.3,0.4,0.3,0.8c0,0.4-0.1,0.7-0.2,0.9c-0.2,0.2-0.4,0.2-0.8,0.2H60.7z"/>
		<path class="st2" d="M64.5,74.3c-0.4,0-0.6-0.1-0.8-0.2c-0.2-0.2-0.3-0.4-0.3-0.8c0-0.4,0.1-0.7,0.2-0.9c0.2-0.2,0.4-0.2,0.8-0.2
			h3.9c0.4,0,0.6,0.1,0.8,0.2c0.2,0.2,0.3,0.4,0.3,0.8c0,0.4-0.1,0.7-0.2,0.9c-0.2,0.2-0.4,0.2-0.8,0.2H64.5z"/>
		<path class="st2" d="M68.4,74.3c-0.4,0-0.6-0.1-0.8-0.2c-0.2-0.2-0.3-0.4-0.3-0.8c0-0.4,0.1-0.7,0.2-0.9c0.2-0.2,0.4-0.2,0.8-0.2
			h3.9c0.4,0,0.6,0.1,0.8,0.2c0.2,0.2,0.3,0.4,0.3,0.8c0,0.4-0.1,0.7-0.2,0.9c-0.2,0.2-0.4,0.2-0.8,0.2H68.4z"/>
		<path class="st2" d="M76.6,72.9c-0.2,0.3-0.5,0.6-0.7,0.8c-0.2,0.2-0.5,0.3-0.7,0.4c-0.3,0.1-0.5,0.2-0.8,0.2s-0.6,0-0.9,0h-1.1
			c-0.4,0-0.6-0.1-0.8-0.2c-0.2-0.2-0.3-0.4-0.3-0.8c0-0.4,0.1-0.7,0.2-0.9c0.2-0.2,0.4-0.2,0.8-0.2h1.1c0.2,0,0.4,0,0.7-0.1
			c0.2-0.1,0.5-0.2,0.7-0.3s0.4-0.4,0.6-0.7c0.2-0.3,0.4-0.7,0.5-1.3c0.3-1.1,0.7-1.9,1.1-2.6c0.4-0.7,0.9-1.2,1.4-1.6
			c0.5-0.4,1-0.7,1.5-0.8s1-0.2,1.5-0.2c0.7,0,1.3,0.1,1.9,0.4c0.6,0.2,1.1,0.6,1.5,1c0.4,0.4,0.7,1,1,1.6c0.2,0.6,0.3,1.3,0.3,2
			c0,0.8-0.1,1.5-0.3,2.1s-0.5,1.2-0.9,1.6c-0.4,0.5-0.9,0.8-1.5,1c-0.6,0.2-1.3,0.4-2.1,0.4c-0.3,0-0.7,0-1.1-0.1
			c-0.4-0.1-0.7-0.2-1.1-0.3s-0.8-0.3-1.2-0.6C77.5,73.5,77.1,73.2,76.6,72.9z M83.9,69.7c0-0.5-0.1-0.9-0.2-1.2
			c-0.1-0.4-0.3-0.7-0.5-1c-0.2-0.3-0.5-0.5-0.8-0.6c-0.3-0.1-0.7-0.2-1.1-0.2s-0.8,0.1-1.2,0.2c-0.4,0.2-0.7,0.4-1,0.8
			s-0.6,0.8-0.9,1.3c-0.3,0.5-0.5,1.2-0.7,2c0.6,0.5,1.2,0.8,1.8,1.1c0.6,0.2,1.3,0.4,1.8,0.4c0.8,0,1.4-0.2,1.9-0.6
			C83.7,71.4,83.9,70.7,83.9,69.7z"/>
		<path class="st2" d="M95.7,69.4c0.3,0.5,0.5,1.1,0.5,1.7s-0.1,1.1-0.3,1.6c-0.2,0.5-0.6,0.9-1.1,1.2s-1.2,0.5-1.9,0.5h-6.3v-2.2
			h6.1c0.3,0,0.5,0,0.7-0.1c0.2-0.1,0.4-0.2,0.5-0.4c0.1-0.2,0.1-0.4,0.1-0.6c0-0.3-0.2-0.5-0.4-0.9l-3.4-5.3l1.9-1.2L95.7,69.4z"/>
		<path class="st2" d="M102.9,73.2c0,0.4-0.1,0.7-0.2,0.9c-0.2,0.2-0.4,0.2-0.8,0.2h-0.4c-0.6,0-1.1-0.1-1.5-0.2s-0.9-0.3-1.2-0.6
			s-0.6-0.7-0.8-1.1c-0.2-0.5-0.3-1-0.3-1.7V55.7h2.2v14.5c0,0.4,0,0.7,0.1,0.9c0,0.3,0.1,0.5,0.3,0.6c0.1,0.2,0.3,0.3,0.6,0.4
			s0.6,0.1,1,0.1h0.1c0.4,0,0.6,0.1,0.8,0.2C102.8,72.6,102.9,72.9,102.9,73.2z"/>
		<path class="st2" d="M116.2,72.2c0.4,0,0.6,0.1,0.8,0.2c0.2,0.2,0.3,0.4,0.3,0.8c0,0.4-0.1,0.7-0.2,0.9c-0.2,0.2-0.4,0.2-0.8,0.2
			h-14.4c-0.4,0-0.6-0.1-0.8-0.2c-0.2-0.2-0.3-0.4-0.3-0.8c0-0.4,0.1-0.7,0.2-0.9c0.2-0.2,0.4-0.2,0.8-0.2h3.2
			c-0.2-0.4-0.4-0.8-0.5-1.2c-0.1-0.5-0.2-1-0.2-1.6c0-0.8,0.1-1.5,0.4-2.1s0.6-1.2,1-1.7c0.5-0.5,1-0.9,1.6-1.1
			c0.6-0.3,1.4-0.4,2.2-0.4c1,0,1.8,0.2,2.4,0.5c0.6,0.3,1.1,0.8,1.5,1.3c0.4,0.5,0.6,1.1,0.8,1.8s0.2,1.3,0.2,1.9v2.7H116.2z
			 M106.1,59.9c0-0.2,0-0.4,0.1-0.5c0.1-0.2,0.2-0.3,0.3-0.4s0.3-0.2,0.4-0.3s0.3-0.1,0.5-0.1c0.2,0,0.4,0,0.5,0.1
			c0.2,0.1,0.3,0.2,0.4,0.3s0.2,0.3,0.3,0.4s0.1,0.3,0.1,0.5c0,0.2,0,0.4-0.1,0.5s-0.2,0.3-0.3,0.4c-0.1,0.1-0.3,0.2-0.4,0.3
			c-0.2,0.1-0.3,0.1-0.5,0.1c-0.2,0-0.4,0-0.5-0.1s-0.3-0.2-0.4-0.3c-0.1-0.1-0.2-0.3-0.3-0.4C106.2,60.2,106.1,60.1,106.1,59.9z
			 M106.5,69.1c0,0.5,0.1,1,0.2,1.4c0.2,0.4,0.4,0.7,0.7,1c0.3,0.3,0.6,0.4,1,0.6c0.4,0.1,0.8,0.2,1.3,0.2h2.4v-2.6
			c0-0.4,0-0.9-0.1-1.3c-0.1-0.4-0.2-0.8-0.4-1.2s-0.5-0.6-0.9-0.8s-0.9-0.3-1.5-0.3c-0.4,0-0.8,0.1-1.1,0.2
			c-0.3,0.2-0.6,0.4-0.9,0.7s-0.4,0.6-0.6,1C106.6,68.3,106.5,68.7,106.5,69.1z M109.6,59.9c0-0.2,0-0.4,0.1-0.5s0.2-0.3,0.3-0.4
			s0.3-0.2,0.4-0.3c0.2-0.1,0.3-0.1,0.5-0.1c0.2,0,0.4,0,0.5,0.1s0.3,0.2,0.4,0.3s0.2,0.3,0.3,0.4c0.1,0.2,0.1,0.3,0.1,0.5
			c0,0.2,0,0.4-0.1,0.5c-0.1,0.2-0.2,0.3-0.3,0.4c-0.1,0.1-0.3,0.2-0.4,0.3s-0.3,0.1-0.5,0.1c-0.2,0-0.4,0-0.5-0.1
			c-0.2-0.1-0.3-0.2-0.4-0.3c-0.1-0.1-0.2-0.3-0.3-0.4S109.6,60.1,109.6,59.9z"/>
		<path class="st2" d="M116.2,74.3c-0.4,0-0.6-0.1-0.8-0.2c-0.2-0.2-0.3-0.4-0.3-0.8c0-0.4,0.1-0.7,0.2-0.9c0.2-0.2,0.4-0.2,0.8-0.2
			h3.2V55.7h2.2v18.7H116.2z"/>
		<path class="st2" d="M125.7,55.7v18.7h-2.2V55.7H125.7z"/>
	</g>
</g>
</svg>
