<!-- Generator: Adobe Illustrator 23.1.1, SVG Export Plug-In  -->
<svg version="1.1" xmlns="http://www.w3.org/2000/svg" xmlns:xlink="http://www.w3.org/1999/xlink" x="0px" y="0px" width="177.8px"
	 height="85px" viewBox="0 0 177.8 85" style="enable-background:new 0 0 177.8 85;" xml:space="preserve">
<style type="text/css">
	.st0{clip-path:url(#XMLID_16_);}
	.st1{fill:#1C1C1B;}
	.st2{clip-path:url(#XMLID_17_);}
</style>
<defs>
</defs>
<g id="XMLID_1_">
	<defs>
		<ellipse id="XMLID_2_" cx="86.3" cy="42.5" rx="81.2" ry="42.5"/>
	</defs>
	<use xlink:href="#XMLID_2_"  style="overflow:visible;fill:#FFFFFF;"/>
	<clipPath id="XMLID_16_">
		<use xlink:href="#XMLID_2_"  style="overflow:visible;"/>
	</clipPath>
	<g id="XMLID_3_" class="st0">
		<g>
			<path class="st1" d="M0,16.3h20.4c8.1,0,13.2,4.4,13.2,11.4c0,5.2-2.3,9.5-7.5,11v0.1c5,1,6.1,4.7,6.5,8.9c0.4,4.2,0.1,9,2.5,12
				h-6.4c-1.6-1.8-0.7-6.4-1.6-10.7c-0.6-4.3-1.6-7.8-7.2-7.8H5.8v18.5H0V16.3z M17.8,36.3c5.4,0,10-1.4,10-7.7
				c0-4.2-2.3-7.4-7.7-7.4H5.8v15.1H17.8z"/>
			<path class="st1" d="M41,16.3h28.5v4.9H46.7V35h19.9v4.9H46.7v19.9H41V16.3z"/>
			<path class="st1" d="M107.6,54.3c-3.3,4.6-8.8,6.4-13.9,6.4c-12.9,0-20.6-10.6-20.6-21.9c0-12.6,6.9-23.6,20.6-23.6
				c9.5,0,17,4.3,18.6,14.4h-5.8c-1.2-6.6-6.4-9.5-12.9-9.5c-10.5,0-14.9,9.1-14.9,18.4c0,9,5.2,17.3,14.9,17.3
				c8.9,0,14.3-6.3,13.9-14.1H93.8v-4.9h19v22.8h-3.6L107.6,54.3z"/>
			<path class="st1" d="M146.6,49.7c-1.4,6.9-6.4,10.7-13.4,10.7c-10,0-14.8-6.9-15.1-16.5c0-9.4,6.2-16.3,14.8-16.3
				c11.1,0,14.5,10.4,14.2,18h-23.5c-0.2,5.5,2.9,10.3,9.8,10.3c4.2,0,7.2-2.1,8.1-6.1H146.6z M141.6,41c-0.2-4.9-3.9-8.9-9-8.9
				c-5.4,0-8.6,4.1-9,8.9H141.6z"/>
			<path class="st1" d="M151.8,28.3h4.9v5h0.1c2.2-3.9,5.7-5.7,10.2-5.7c8.3,0,10.8,4.7,10.8,11.5v20.6h-5.2V38.4
				c0-3.8-2.4-6.3-6.4-6.3c-6.3,0-9.3,4.2-9.3,9.8v17.7h-5.2V28.3z"/>
		</g>
	</g>
</g>
</svg>
