<!-- Generator: Adobe Illustrator 23.1.1, SVG Export Plug-In  -->
<svg version="1.1" xmlns="http://www.w3.org/2000/svg" xmlns:xlink="http://www.w3.org/1999/xlink" x="0px" y="0px" width="170.1px"
	 height="170.1px" viewBox="0 0 170.1 170.1" style="enable-background:new 0 0 170.1 170.1;" xml:space="preserve">
<style type="text/css">
	.st0{fill:#E1EDCD;}
</style>
<defs>
</defs>
<g id="XMLID_1_">
	<rect id="XMLID_257_" class="st0" width="170.1" height="170.1"/>
	<g id="XMLID_2_">
		<g id="XMLID_225_">
			<g>
				<path id="XMLID_239_" d="M49,36.4h9.6c3.8,0,6.2,2.1,6.2,5.3c0,2.5-1.1,4.5-3.5,5.2v0.1c2.4,0.5,2.9,2.2,3.1,4.2
					c0.2,2,0.1,4.2,1.2,5.6h-3c-0.8-0.8-0.3-3-0.7-5c-0.3-2-0.8-3.7-3.4-3.7h-6.6v8.7H49V36.4z M57.4,45.8c2.5,0,4.7-0.7,4.7-3.6
					c0-2-1.1-3.5-3.6-3.5h-6.7v7.1H57.4z"/>
				<path id="XMLID_236_" d="M70.8,39.3h-2.4v-3h2.4V39.3z M68.3,42h2.4v14.8h-2.4V42z"/>
				<path id="XMLID_233_" d="M87.3,55.5c0,4.8-2.2,7.3-6.9,7.3c-2.8,0-6-1.1-6.1-4.3h2.4c0.1,1.8,2.2,2.4,3.8,2.4
					c3.2,0,4.4-2.3,4.4-5.6v-1h-0.1c-0.8,1.8-2.7,2.7-4.6,2.7c-4.4,0-6.6-3.5-6.6-7.5c0-3.5,1.7-7.8,6.8-7.8c1.9,0,3.5,0.8,4.4,2.5
					h0V42h2.3V55.5z M84.9,49.1c0-2.6-1.1-5.3-4.2-5.3c-3.1,0-4.4,2.5-4.4,5.4c0,2.7,1,5.6,4.2,5.6S84.9,51.9,84.9,49.1z"/>
				<path id="XMLID_231_" d="M90.9,36.4h2.4v7.8h0.1c0.8-1.8,2.9-2.5,4.7-2.5c3.9,0,5.1,2.2,5.1,5.4v9.7h-2.4v-10c0-1.8-1.1-3-3-3
					c-2.9,0-4.4,2-4.4,4.6v8.3h-2.4V36.4z"/>
				<path id="XMLID_229_" d="M110.2,42h2.9v2.1h-2.9v9.2c0,1.1,0.3,1.3,1.8,1.3h1.1v2.1h-1.9c-2.5,0-3.5-0.5-3.5-3.2v-9.4h-2.5V42
					h2.5v-4.4h2.4V42z"/>
				<path id="XMLID_227_" d="M117.3,52.1c0.1,2.2,2,2.9,4,2.9c1.5,0,3.6-0.3,3.6-2.2c0-1.9-2.4-2.2-4.8-2.7
					c-2.4-0.5-4.8-1.3-4.8-4.2c0-3,2.9-4.2,5.5-4.2c3.3,0,5.9,1,6.1,4.6h-2.4c-0.2-1.9-1.8-2.5-3.4-2.5c-1.5,0-3.1,0.4-3.1,1.9
					c0,1.7,2.6,2,4.8,2.6c2.4,0.5,4.8,1.3,4.8,4.2c0,3.5-3.3,4.7-6.3,4.7c-3.3,0-6.1-1.3-6.3-5H117.3z"/>
			</g>
		</g>
		<g id="XMLID_206_">
			<path id="XMLID_222_" d="M16.4,93c4.7,0,7.2,3.4,7.2,7.7c0,4.3-2.5,7.7-7.2,7.7s-7.2-3.4-7.2-7.7C9.2,96.4,11.7,93,16.4,93z
				 M16.4,106.3c2.5,0,4.6-2,4.6-5.6c0-3.6-2.1-5.6-4.6-5.6c-2.5,0-4.6,2-4.6,5.6C11.8,104.3,13.8,106.3,16.4,106.3z"/>
			<path id="XMLID_220_" d="M27.4,95.4h-2.5v-2.1h2.5v-2.2c0-2.4,1.4-3.7,4.1-3.7c0.5,0,1.1,0.1,1.6,0.2v2.1
				c-0.4-0.1-0.9-0.2-1.4-0.2c-1.2,0-1.9,0.4-1.9,1.7v2.1h2.9v2.1h-2.9v12.6h-2.4V95.4z"/>
			<path id="XMLID_218_" d="M84.1,87.7h13.4V90H86.8v6.5h9.4v2.3h-9.4v9.3h-2.7V87.7z"/>
			<path id="XMLID_216_" d="M112.3,108.1H110v-2.3h-0.1c-1,1.8-2.7,2.7-4.8,2.7c-3.9,0-5.1-2.2-5.1-5.4v-9.7h2.4v10c0,1.8,1.1,3,3,3
				c2.9,0,4.4-2,4.4-4.6v-8.3h2.4V108.1z"/>
			<path id="XMLID_214_" d="M119.3,93.3h2.9v2.1h-2.9v9.2c0,1.1,0.3,1.3,1.8,1.3h1.1v2.1h-1.9c-2.5,0-3.5-0.5-3.5-3.2v-9.4h-2.5
				v-2.1h2.5v-4.4h2.4V93.3z"/>
			<path id="XMLID_212_" d="M137.2,108.1h-2.3v-2.3h-0.1c-1,1.8-2.7,2.7-4.8,2.7c-3.9,0-5.1-2.2-5.1-5.4v-9.7h2.4v10
				c0,1.8,1.1,3,3,3c2.9,0,4.4-2,4.4-4.6v-8.3h2.4V108.1z"/>
			<path id="XMLID_210_" d="M140.7,93.3h2.3v3.1h0.1c1.2-2.4,2.8-3.5,5.4-3.5v2.6c-3.9,0-5.3,2.2-5.3,6v6.6h-2.4V93.3z"/>
			<path id="XMLID_207_" d="M162.4,103.4c-0.7,3.3-3,5-6.3,5c-4.7,0-6.9-3.3-7.1-7.8c0-4.4,2.9-7.7,6.9-7.7c5.2,0,6.8,4.9,6.7,8.5
				h-11.1c-0.1,2.6,1.4,4.9,4.6,4.9c2,0,3.4-1,3.8-2.9H162.4z M160.1,99.3c-0.1-2.3-1.9-4.2-4.3-4.2c-2.5,0-4.1,1.9-4.2,4.2H160.1z"
				/>
		</g>
		<g id="XMLID_178_">
			<path id="XMLID_204_" d="M25.7,154.1c-1.6,2.1-4.1,3-6.5,3c-6.1,0-9.7-5-9.7-10.3c0-5.9,3.3-11.1,9.7-11.1c4.5,0,8,2,8.8,6.8
				h-2.7c-0.5-3.1-3-4.5-6.1-4.5c-4.9,0-7,4.3-7,8.7c0,4.3,2.5,8.1,7,8.1c4.2,0,6.7-2.9,6.5-6.7h-6.5v-2.3h8.9v10.7h-1.7L25.7,154.1
				z"/>
			<path id="XMLID_201_" d="M44.3,152c-0.7,3.3-3,5-6.3,5c-4.7,0-6.9-3.3-7.1-7.8c0-4.4,2.9-7.7,6.9-7.7c5.2,0,6.8,4.9,6.7,8.5H33.5
				c-0.1,2.6,1.4,4.9,4.6,4.9c2,0,3.4-1,3.8-2.9H44.3z M41.9,147.9c-0.1-2.3-1.9-4.2-4.3-4.2c-2.5,0-4.1,1.9-4.2,4.2H41.9z"/>
			<path id="XMLID_199_" d="M47,141.9h2.3v2.3h0.1c1-1.8,2.7-2.7,4.8-2.7c3.9,0,5.1,2.2,5.1,5.4v9.7h-2.4v-10c0-1.8-1.1-3-3-3
				c-2.9,0-4.4,2-4.4,4.6v8.3H47V141.9z"/>
			<path id="XMLID_196_" d="M75.5,152c-0.7,3.3-3,5-6.3,5c-4.7,0-6.9-3.3-7.1-7.8c0-4.4,2.9-7.7,6.9-7.7c5.2,0,6.8,4.9,6.7,8.5H64.7
				c-0.1,2.6,1.4,4.9,4.6,4.9c2,0,3.4-1,3.8-2.9H75.5z M73.2,147.9c-0.1-2.3-1.9-4.2-4.3-4.2c-2.5,0-4.1,1.9-4.2,4.2H73.2z"/>
			<path id="XMLID_194_" d="M78.2,141.9h2.3v3.1h0.1c1.2-2.4,2.8-3.5,5.4-3.5v2.6c-3.9,0-5.3,2.2-5.3,6v6.6h-2.4V141.9z"/>
			<path id="XMLID_191_" d="M100.9,156.6c-0.4,0.3-1,0.4-1.7,0.4c-1.3,0-2.1-0.7-2.1-2.3c-1.3,1.6-3.1,2.3-5.2,2.3
				c-2.7,0-4.9-1.2-4.9-4.1c0-3.3,2.5-4.1,5-4.5c2.7-0.5,5-0.3,5-2.2c0-2.1-1.7-2.5-3.3-2.5c-2.1,0-3.6,0.6-3.7,2.8h-2.4
				c0.1-3.7,3-4.9,6.3-4.9c2.7,0,5.5,0.6,5.5,4.1v7.6c0,1.1,0,1.7,0.8,1.7c0.2,0,0.4,0,0.7-0.1V156.6z M96.9,149
				c-0.9,0.7-2.8,0.7-4.4,1c-1.6,0.3-3,0.9-3,2.7c0,1.6,1.4,2.2,2.9,2.2c3.2,0,4.5-2,4.5-3.3V149z"/>
			<path id="XMLID_189_" d="M106.5,141.9h2.9v2.1h-2.9v9.2c0,1.1,0.3,1.3,1.8,1.3h1.1v2.1h-1.9c-2.5,0-3.5-0.5-3.5-3.2V144h-2.5
				v-2.1h2.5v-4.4h2.4V141.9z"/>
			<path id="XMLID_186_" d="M114.7,139.2h-2.4v-3h2.4V139.2z M112.3,141.9h2.4v14.8h-2.4V141.9z"/>
			<path id="XMLID_183_" d="M124.8,141.5c4.7,0,7.2,3.4,7.2,7.7c0,4.3-2.5,7.7-7.2,7.7c-4.7,0-7.2-3.4-7.2-7.7
				C117.7,144.9,120.1,141.5,124.8,141.5z M124.8,154.9c2.5,0,4.6-2,4.6-5.6c0-3.6-2.1-5.6-4.6-5.6c-2.5,0-4.6,2-4.6,5.6
				C120.2,152.9,122.3,154.9,124.8,154.9z"/>
			<path id="XMLID_181_" d="M134.9,141.9h2.3v2.3h0.1c1-1.8,2.7-2.7,4.8-2.7c3.9,0,5.1,2.2,5.1,5.4v9.7h-2.4v-10c0-1.8-1.1-3-3-3
				c-2.9,0-4.4,2-4.4,4.6v8.3h-2.4V141.9z"/>
			<path id="XMLID_179_" d="M152.2,152c0.1,2.2,2,2.9,4,2.9c1.5,0,3.6-0.3,3.6-2.2c0-1.9-2.4-2.2-4.8-2.7c-2.4-0.5-4.8-1.3-4.8-4.2
				c0-3,2.9-4.2,5.5-4.2c3.3,0,5.9,1,6.1,4.6h-2.4c-0.2-1.9-1.8-2.5-3.4-2.5c-1.5,0-3.1,0.4-3.1,1.9c0,1.7,2.6,2,4.8,2.6
				c2.4,0.5,4.8,1.3,4.8,4.2c0,3.5-3.3,4.7-6.3,4.7c-3.3,0-6.1-1.3-6.3-5H152.2z"/>
		</g>
		<g id="XMLID_116_">
			<path id="XMLID_173_" d="M28.6,28.5c0,1.4-0.2,2.6-0.7,3.6s-1.1,1.8-1.9,2.5c-0.8,0.7-1.8,1.1-3,1.5c-1.2,0.3-2.5,0.5-4,0.5
				c-1.8,0-3.3-0.2-4.5-0.5c-1.2-0.4-2.2-0.8-2.9-1.5c-0.7-0.6-1.3-1.4-1.6-2.2c-0.3-0.9-0.5-1.8-0.5-2.8v-4.3h2.3V29
				c0,1.7,0.6,3,1.8,3.8s3,1.3,5.4,1.3c0.9,0,1.8-0.1,2.7-0.2c0.9-0.1,1.6-0.4,2.3-0.7c0.7-0.4,1.2-0.8,1.6-1.5
				c0.4-0.6,0.6-1.4,0.6-2.4V29c-0.3,0.2-0.8,0.4-1.3,0.6c-0.6,0.2-1.2,0.3-2,0.3c-0.7,0-1.4-0.1-2.1-0.3s-1.2-0.5-1.7-0.9
				s-0.8-1-1.1-1.6s-0.4-1.5-0.4-2.4c0-0.8,0.1-1.5,0.4-2.2c0.2-0.7,0.6-1.4,1.1-2c0.5-0.6,1.1-1,1.8-1.4c0.7-0.3,1.5-0.5,2.4-0.5
				c1,0,1.9,0.2,2.6,0.6s1.2,0.9,1.7,1.5c0.4,0.7,0.7,1.4,0.9,2.4c0.2,0.9,0.3,1.9,0.3,3V28.5z M19.6,14c0-0.2,0-0.4,0.1-0.6
				s0.2-0.3,0.3-0.5c0.1-0.1,0.3-0.2,0.5-0.3s0.4-0.1,0.6-0.1c0.2,0,0.4,0,0.6,0.1s0.3,0.2,0.5,0.3c0.1,0.1,0.2,0.3,0.3,0.5
				c0.1,0.2,0.1,0.4,0.1,0.6c0,0.2,0,0.4-0.1,0.6c-0.1,0.2-0.2,0.3-0.3,0.5c-0.1,0.1-0.3,0.2-0.5,0.3s-0.4,0.1-0.6,0.1
				c-0.2,0-0.4,0-0.6-0.1s-0.3-0.2-0.5-0.3c-0.1-0.1-0.2-0.3-0.3-0.5S19.6,14.2,19.6,14z M19.9,24.2c0,0.5,0.1,1,0.2,1.4
				s0.4,0.7,0.7,1c0.3,0.3,0.6,0.5,1,0.6s0.8,0.2,1.3,0.2c0.7,0,1.4-0.1,1.9-0.3c0.6-0.2,1-0.4,1.3-0.6v-1.3c0-0.7-0.1-1.3-0.2-1.8
				c-0.1-0.6-0.3-1.1-0.5-1.5c-0.2-0.4-0.6-0.7-1-1s-0.9-0.4-1.5-0.4c-0.6,0-1.1,0.1-1.5,0.3c-0.4,0.2-0.7,0.5-1,0.9
				c-0.3,0.3-0.4,0.7-0.6,1.2C19.9,23.4,19.9,23.8,19.9,24.2z M23.4,14c0-0.2,0-0.4,0.1-0.6s0.2-0.3,0.3-0.5
				c0.1-0.1,0.3-0.2,0.5-0.3c0.2-0.1,0.4-0.1,0.6-0.1c0.2,0,0.4,0,0.6,0.1c0.2,0.1,0.3,0.2,0.5,0.3c0.1,0.1,0.2,0.3,0.3,0.5
				s0.1,0.4,0.1,0.6c0,0.2,0,0.4-0.1,0.6s-0.2,0.3-0.3,0.5s-0.3,0.2-0.5,0.3c-0.2,0.1-0.4,0.1-0.6,0.1c-0.2,0-0.4,0-0.6-0.1
				c-0.2-0.1-0.3-0.2-0.5-0.3s-0.2-0.3-0.3-0.5S23.4,14.2,23.4,14z"/>
			<path id="XMLID_170_" d="M41.9,29.8c-0.1,1.2-0.3,2.2-0.6,3s-0.8,1.5-1.5,2.1c-0.7,0.5-1.5,1-2.5,1.2c-1,0.3-2.2,0.4-3.6,0.4
				h-1.2v-2.4h0.9c1.1,0,2.1-0.1,2.9-0.3c0.8-0.2,1.4-0.4,1.9-0.8c0.5-0.4,0.8-0.8,1.1-1.4c0.2-0.5,0.3-1.2,0.4-2h-3.2
				c-0.8,0-1.5-0.1-2.1-0.3s-1.2-0.5-1.7-0.9c-0.5-0.4-0.9-1-1.1-1.6c-0.3-0.7-0.4-1.5-0.4-2.4c0-0.8,0.1-1.6,0.4-2.3
				c0.3-0.7,0.6-1.4,1.1-2s1.1-1,1.8-1.4c0.7-0.3,1.5-0.5,2.4-0.5c1,0,1.8,0.2,2.5,0.5s1.2,0.8,1.7,1.5s0.7,1.4,0.9,2.4
				c0.2,0.9,0.3,1.9,0.3,3.1v1.6h2c0.4,0,0.7,0.1,0.9,0.3c0.2,0.2,0.3,0.5,0.3,0.9c0,0.5-0.1,0.8-0.3,1c-0.2,0.2-0.5,0.3-0.9,0.3
				H41.9z M33.2,24.3c0,1,0.3,1.7,0.9,2.3c0.6,0.5,1.4,0.8,2.5,0.8h3.1v-2.1c0-0.7-0.1-1.3-0.2-1.9c-0.1-0.6-0.3-1.1-0.5-1.5
				c-0.3-0.4-0.6-0.7-1-0.9c-0.4-0.2-0.9-0.3-1.5-0.3c-0.5,0-1,0.1-1.4,0.3s-0.7,0.5-1,0.9s-0.5,0.7-0.6,1.2
				C33.2,23.4,33.2,23.9,33.2,24.3z"/>
			<path id="XMLID_168_" d="M42.8,29.8c-0.4,0-0.7-0.1-0.9-0.3s-0.3-0.5-0.3-0.9c0-0.5,0.1-0.8,0.3-1c0.2-0.2,0.5-0.3,0.9-0.3H47
				c0.4,0,0.7,0.1,0.9,0.3c0.2,0.2,0.3,0.5,0.3,0.9c0,0.5-0.1,0.8-0.3,1c-0.2,0.2-0.5,0.3-0.9,0.3H42.8z"/>
			<path id="XMLID_166_" d="M47,29.8c-0.4,0-0.7-0.1-0.9-0.3s-0.3-0.5-0.3-0.9c0-0.5,0.1-0.8,0.3-1c0.2-0.2,0.5-0.3,0.9-0.3h4.2
				c0.4,0,0.7,0.1,0.9,0.3c0.2,0.2,0.3,0.5,0.3,0.9c0,0.5-0.1,0.8-0.3,1c-0.2,0.2-0.5,0.3-0.9,0.3H47z"/>
			<path id="XMLID_164_" d="M51.2,29.8c-0.4,0-0.7-0.1-0.9-0.3s-0.3-0.5-0.3-0.9c0-0.5,0.1-0.8,0.3-1c0.2-0.2,0.5-0.3,0.9-0.3h4.2
				c0.4,0,0.7,0.1,0.9,0.3c0.2,0.2,0.3,0.5,0.3,0.9c0,0.5-0.1,0.8-0.3,1c-0.2,0.2-0.5,0.3-0.9,0.3H51.2z"/>
			<path id="XMLID_162_" d="M54.3,29.8c-0.4,0-0.7-0.1-0.9-0.3s-0.3-0.5-0.3-0.9c0-0.5,0.1-0.8,0.3-1c0.2-0.2,0.5-0.3,0.9-0.3h4.2
				c0.4,0,0.7,0.1,0.9,0.3c0.2,0.2,0.3,0.5,0.3,0.9c0,0.5-0.1,0.8-0.3,1c-0.2,0.2-0.5,0.3-0.9,0.3H54.3z"/>
			<path id="XMLID_160_" d="M56.8,29.8c-0.4,0-0.7-0.1-0.9-0.3s-0.3-0.5-0.3-0.9c0-0.5,0.1-0.8,0.3-1c0.2-0.2,0.5-0.3,0.9-0.3h4.2
				c0.4,0,0.7,0.1,0.9,0.3c0.2,0.2,0.3,0.5,0.3,0.9c0,0.5-0.1,0.8-0.3,1c-0.2,0.2-0.5,0.3-0.9,0.3H56.8z"/>
			<path id="XMLID_158_" d="M58.2,29.8c-0.4,0-0.7-0.1-0.9-0.3s-0.3-0.5-0.3-0.9c0-0.5,0.1-0.8,0.3-1c0.2-0.2,0.5-0.3,0.9-0.3h4.2
				c0.4,0,0.7,0.1,0.9,0.3c0.2,0.2,0.3,0.5,0.3,0.9c0,0.5-0.1,0.8-0.3,1c-0.2,0.2-0.5,0.3-0.9,0.3H58.2z"/>
			<path id="XMLID_156_" d="M62.4,29.8c-0.4,0-0.7-0.1-0.9-0.3s-0.3-0.5-0.3-0.9c0-0.5,0.1-0.8,0.3-1c0.2-0.2,0.5-0.3,0.9-0.3h4.2
				c0.4,0,0.7,0.1,0.9,0.3c0.2,0.2,0.3,0.5,0.3,0.9c0,0.5-0.1,0.8-0.3,1c-0.2,0.2-0.5,0.3-0.9,0.3H62.4z"/>
			<path id="XMLID_154_" d="M66.7,29.8c-0.4,0-0.7-0.1-0.9-0.3s-0.3-0.5-0.3-0.9c0-0.5,0.1-0.8,0.3-1c0.2-0.2,0.5-0.3,0.9-0.3h4.2
				c0.4,0,0.7,0.1,0.9,0.3c0.2,0.2,0.3,0.5,0.3,0.9c0,0.5-0.1,0.8-0.3,1c-0.2,0.2-0.5,0.3-0.9,0.3H66.7z"/>
			<path id="XMLID_152_" d="M69.2,29.8c-0.4,0-0.7-0.1-0.9-0.3S68,29,68,28.6c0-0.5,0.1-0.8,0.3-1c0.2-0.2,0.5-0.3,0.9-0.3h4.2
				c0.4,0,0.7,0.1,0.9,0.3c0.2,0.2,0.3,0.5,0.3,0.9c0,0.5-0.1,0.8-0.3,1c-0.2,0.2-0.5,0.3-0.9,0.3H69.2z"/>
			<path id="XMLID_150_" d="M73.4,29.8c-0.4,0-0.7-0.1-0.9-0.3s-0.3-0.5-0.3-0.9c0-0.5,0.1-0.8,0.3-1c0.2-0.2,0.5-0.3,0.9-0.3h4.2
				c0.4,0,0.7,0.1,0.9,0.3c0.2,0.2,0.3,0.5,0.3,0.9c0,0.5-0.1,0.8-0.3,1c-0.2,0.2-0.5,0.3-0.9,0.3H73.4z"/>
			<path id="XMLID_148_" d="M77.6,29.8c-0.4,0-0.7-0.1-0.9-0.3s-0.3-0.5-0.3-0.9c0-0.5,0.1-0.8,0.3-1c0.2-0.2,0.5-0.3,0.9-0.3h4.2
				c0.4,0,0.7,0.1,0.9,0.3c0.2,0.2,0.3,0.5,0.3,0.9c0,0.5-0.1,0.8-0.3,1c-0.2,0.2-0.5,0.3-0.9,0.3H77.6z"/>
			<path id="XMLID_146_" d="M81.9,29.8c-0.4,0-0.7-0.1-0.9-0.3s-0.3-0.5-0.3-0.9c0-0.5,0.1-0.8,0.3-1c0.2-0.2,0.5-0.3,0.9-0.3h4.2
				c0.4,0,0.7,0.1,0.9,0.3c0.2,0.2,0.3,0.5,0.3,0.9c0,0.5-0.1,0.8-0.3,1c-0.2,0.2-0.5,0.3-0.9,0.3H81.9z"/>
			<path id="XMLID_144_" d="M86.1,29.8c-0.4,0-0.7-0.1-0.9-0.3s-0.3-0.5-0.3-0.9c0-0.5,0.1-0.8,0.3-1c0.2-0.2,0.5-0.3,0.9-0.3h4.2
				c0.4,0,0.7,0.1,0.9,0.3c0.2,0.2,0.3,0.5,0.3,0.9c0,0.5-0.1,0.8-0.3,1c-0.2,0.2-0.5,0.3-0.9,0.3H86.1z"/>
			<path id="XMLID_142_" d="M90.3,29.8c-0.4,0-0.7-0.1-0.9-0.3s-0.3-0.5-0.3-0.9c0-0.5,0.1-0.8,0.3-1c0.2-0.2,0.5-0.3,0.9-0.3h4.2
				c0.4,0,0.7,0.1,0.9,0.3c0.2,0.2,0.3,0.5,0.3,0.9c0,0.5-0.1,0.8-0.3,1c-0.2,0.2-0.5,0.3-0.9,0.3H90.3z"/>
			<path id="XMLID_140_" d="M94.5,29.8c-0.4,0-0.7-0.1-0.9-0.3s-0.3-0.5-0.3-0.9c0-0.5,0.1-0.8,0.3-1c0.2-0.2,0.5-0.3,0.9-0.3h4.2
				c0.4,0,0.7,0.1,0.9,0.3c0.2,0.2,0.3,0.5,0.3,0.9c0,0.5-0.1,0.8-0.3,1c-0.2,0.2-0.5,0.3-0.9,0.3H94.5z"/>
			<path id="XMLID_138_" d="M97.1,29.8c-0.4,0-0.7-0.1-0.9-0.3s-0.3-0.5-0.3-0.9c0-0.5,0.1-0.8,0.3-1c0.2-0.2,0.5-0.3,0.9-0.3h4.2
				c0.4,0,0.7,0.1,0.9,0.3c0.2,0.2,0.3,0.5,0.3,0.9c0,0.5-0.1,0.8-0.3,1c-0.2,0.2-0.5,0.3-0.9,0.3H97.1z"/>
			<path id="XMLID_136_" d="M101.3,29.8c-0.4,0-0.7-0.1-0.9-0.3s-0.3-0.5-0.3-0.9c0-0.5,0.1-0.8,0.3-1c0.2-0.2,0.5-0.3,0.9-0.3h4.2
				c0.4,0,0.7,0.1,0.9,0.3c0.2,0.2,0.3,0.5,0.3,0.9c0,0.5-0.1,0.8-0.3,1c-0.2,0.2-0.5,0.3-0.9,0.3H101.3z"/>
			<path id="XMLID_134_" d="M105.5,29.8c-0.4,0-0.7-0.1-0.9-0.3s-0.3-0.5-0.3-0.9c0-0.5,0.1-0.8,0.3-1c0.2-0.2,0.5-0.3,0.9-0.3h4.2
				c0.4,0,0.7,0.1,0.9,0.3c0.2,0.2,0.3,0.5,0.3,0.9c0,0.5-0.1,0.8-0.3,1c-0.2,0.2-0.5,0.3-0.9,0.3H105.5z"/>
			<path id="XMLID_132_" d="M109.7,29.8c-0.4,0-0.7-0.1-0.9-0.3s-0.3-0.5-0.3-0.9c0-0.5,0.1-0.8,0.3-1c0.2-0.2,0.5-0.3,0.9-0.3h4.2
				c0.4,0,0.7,0.1,0.9,0.3c0.2,0.2,0.3,0.5,0.3,0.9c0,0.5-0.1,0.8-0.3,1c-0.2,0.2-0.5,0.3-0.9,0.3H109.7z"/>
			<path id="XMLID_130_" d="M114,29.8c-0.4,0-0.7-0.1-0.9-0.3s-0.3-0.5-0.3-0.9c0-0.5,0.1-0.8,0.3-1c0.2-0.2,0.5-0.3,0.9-0.3h4.2
				c0.4,0,0.7,0.1,0.9,0.3c0.2,0.2,0.3,0.5,0.3,0.9c0,0.5-0.1,0.8-0.3,1c-0.2,0.2-0.5,0.3-0.9,0.3H114z"/>
			<path id="XMLID_128_" d="M118.2,29.8c-0.4,0-0.7-0.1-0.9-0.3s-0.3-0.5-0.3-0.9c0-0.5,0.1-0.8,0.3-1c0.2-0.2,0.5-0.3,0.9-0.3h4.2
				c0.4,0,0.7,0.1,0.9,0.3c0.2,0.2,0.3,0.5,0.3,0.9c0,0.5-0.1,0.8-0.3,1c-0.2,0.2-0.5,0.3-0.9,0.3H118.2z"/>
			<path id="XMLID_126_" d="M122.4,29.8c-0.4,0-0.7-0.1-0.9-0.3s-0.3-0.5-0.3-0.9c0-0.5,0.1-0.8,0.3-1c0.2-0.2,0.5-0.3,0.9-0.3h4.2
				c0.4,0,0.7,0.1,0.9,0.3c0.2,0.2,0.3,0.5,0.3,0.9c0,0.5-0.1,0.8-0.3,1c-0.2,0.2-0.5,0.3-0.9,0.3H122.4z"/>
			<path id="XMLID_121_" d="M142.4,27.4c0.4,0,0.7,0.1,0.9,0.3c0.2,0.2,0.3,0.5,0.3,0.9c0,0.5-0.1,0.8-0.3,1
				c-0.2,0.2-0.5,0.3-0.9,0.3h-15.7c-0.4,0-0.7-0.1-0.9-0.3s-0.3-0.5-0.3-0.9c0-0.5,0.1-0.8,0.3-1c0.2-0.2,0.5-0.3,0.9-0.3h3.5
				c-0.2-0.4-0.4-0.8-0.6-1.3s-0.2-1.1-0.2-1.8c0-0.8,0.1-1.6,0.4-2.3c0.3-0.7,0.6-1.3,1.1-1.9c0.5-0.5,1.1-0.9,1.8-1.2
				c0.7-0.3,1.5-0.4,2.4-0.4c1.1,0,2,0.2,2.7,0.6c0.7,0.4,1.2,0.9,1.6,1.5s0.7,1.2,0.8,2s0.2,1.4,0.2,2.1v2.9H142.4z M131.4,14
				c0-0.2,0-0.4,0.1-0.6c0.1-0.2,0.2-0.3,0.3-0.5c0.1-0.1,0.3-0.2,0.5-0.3s0.4-0.1,0.6-0.1c0.2,0,0.4,0,0.6,0.1s0.3,0.2,0.5,0.3
				c0.1,0.1,0.2,0.3,0.3,0.5s0.1,0.4,0.1,0.6c0,0.2,0,0.4-0.1,0.6s-0.2,0.3-0.3,0.5c-0.1,0.1-0.3,0.2-0.5,0.3s-0.4,0.1-0.6,0.1
				c-0.2,0-0.4,0-0.6-0.1s-0.3-0.2-0.5-0.3c-0.1-0.1-0.2-0.3-0.3-0.5C131.4,14.4,131.4,14.2,131.4,14z M131.8,24
				c0,0.6,0.1,1.1,0.3,1.5c0.2,0.4,0.4,0.8,0.7,1.1c0.3,0.3,0.7,0.5,1.1,0.6s0.9,0.2,1.4,0.2h2.6v-2.9c0-0.5,0-0.9-0.1-1.4
				c-0.1-0.5-0.2-0.9-0.5-1.3s-0.5-0.7-1-0.9c-0.4-0.2-0.9-0.3-1.6-0.3c-0.4,0-0.9,0.1-1.2,0.3c-0.4,0.2-0.7,0.4-1,0.7
				c-0.3,0.3-0.5,0.7-0.6,1.1C131.8,23.1,131.8,23.6,131.8,24z M135.1,14c0-0.2,0-0.4,0.1-0.6s0.2-0.3,0.3-0.5
				c0.1-0.1,0.3-0.2,0.5-0.3s0.4-0.1,0.6-0.1c0.2,0,0.4,0,0.6,0.1s0.3,0.2,0.5,0.3c0.1,0.1,0.2,0.3,0.3,0.5c0.1,0.2,0.1,0.4,0.1,0.6
				c0,0.2,0,0.4-0.1,0.6c-0.1,0.2-0.2,0.3-0.3,0.5s-0.3,0.2-0.5,0.3s-0.4,0.1-0.6,0.1c-0.2,0-0.4,0-0.6-0.1s-0.3-0.2-0.5-0.3
				c-0.1-0.1-0.2-0.3-0.3-0.5S135.1,14.2,135.1,14z"/>
			<path id="XMLID_119_" d="M142.4,29.8c-0.4,0-0.7-0.1-0.9-0.3s-0.3-0.5-0.3-0.9c0-0.5,0.1-0.8,0.3-1c0.2-0.2,0.5-0.3,0.9-0.3h4.2
				c0.4,0,0.7,0.1,0.9,0.3c0.2,0.2,0.3,0.5,0.3,0.9c0,0.5-0.1,0.8-0.3,1c-0.2,0.2-0.5,0.3-0.9,0.3H142.4z"/>
			<path id="XMLID_117_" d="M158.1,27.4c0-1.2-0.2-2.2-0.5-3.1c-0.3-0.8-0.8-1.5-1.3-2.1c-0.5-0.5-1.2-0.9-1.9-1.1s-1.5-0.4-2.4-0.4
				c-0.3,0-0.6,0-0.9,0c-0.3,0-0.6,0.1-0.9,0.1c-0.3,0-0.6,0.1-0.8,0.2c-0.3,0.1-0.5,0.1-0.7,0.2V19c0.4-0.1,0.9-0.3,1.5-0.4
				c0.6-0.1,1.3-0.2,2.1-0.2c1.5,0,2.7,0.2,3.7,0.7c1,0.5,1.9,1.2,2.6,2c0.7,0.8,1.2,1.8,1.5,3s0.5,2.3,0.5,3.6v2.1h-13.9
				c-0.4,0-0.7-0.1-0.9-0.3s-0.3-0.5-0.3-0.9c0-0.5,0.1-0.8,0.3-1c0.2-0.2,0.5-0.3,0.9-0.3H158.1z"/>
		</g>
		<g id="XMLID_61_">
			<path id="XMLID_114_" d="M25.7,60.7v19.5c0,2.5-0.6,4.4-1.9,5.7c-1.3,1.3-3.3,2-5.9,2c-1.3,0-2.4-0.2-3.4-0.5
				c-1-0.3-1.8-0.8-2.5-1.5c-0.7-0.6-1.1-1.4-1.5-2.3c-0.3-0.9-0.5-2-0.5-3.1v-3.8h2.4v3.3c0,1.9,0.5,3.2,1.4,4.2
				c0.9,0.9,2.3,1.4,4.1,1.4c1,0,1.8-0.1,2.5-0.3c0.7-0.2,1.2-0.5,1.7-0.9s0.7-1,0.9-1.7c0.2-0.7,0.3-1.5,0.3-2.4V60.7H25.7z"/>
			<path id="XMLID_112_" d="M35.2,79.8c0,0.5-0.1,0.8-0.3,1c-0.2,0.2-0.5,0.3-0.9,0.3h-0.4c-0.6,0-1.2-0.1-1.7-0.2
				c-0.5-0.1-0.9-0.3-1.3-0.6c-0.4-0.3-0.6-0.7-0.8-1.2s-0.3-1.1-0.3-1.9V60.7H32v15.8c0,0.4,0,0.7,0.1,1c0.1,0.3,0.2,0.5,0.3,0.7
				c0.1,0.2,0.4,0.3,0.6,0.4s0.6,0.1,1,0.1h0.1c0.4,0,0.7,0.1,0.9,0.3C35.1,79.1,35.2,79.4,35.2,79.8z"/>
			<path id="XMLID_110_" d="M34.1,81.1c-0.4,0-0.7-0.1-0.9-0.3s-0.3-0.5-0.3-0.9c0-0.5,0.1-0.8,0.3-1c0.2-0.2,0.5-0.3,0.9-0.3h4.2
				c0.4,0,0.7,0.1,0.9,0.3c0.2,0.2,0.3,0.5,0.3,0.9c0,0.5-0.1,0.8-0.3,1c-0.2,0.2-0.5,0.3-0.9,0.3H34.1z"/>
			<path id="XMLID_108_" d="M38.3,81.1c-0.4,0-0.7-0.1-0.9-0.3s-0.3-0.5-0.3-0.9c0-0.5,0.1-0.8,0.3-1c0.2-0.2,0.5-0.3,0.9-0.3h4.2
				c0.4,0,0.7,0.1,0.9,0.3c0.2,0.2,0.3,0.5,0.3,0.9c0,0.5-0.1,0.8-0.3,1c-0.2,0.2-0.5,0.3-0.9,0.3H38.3z"/>
			<path id="XMLID_106_" d="M43.7,81.1c-0.4,0-0.7-0.1-0.9-0.3s-0.3-0.5-0.3-0.9c0-0.5,0.1-0.8,0.3-1c0.2-0.2,0.5-0.3,0.9-0.3h4.2
				c0.4,0,0.7,0.1,0.9,0.3c0.2,0.2,0.3,0.5,0.3,0.9c0,0.5-0.1,0.8-0.3,1c-0.2,0.2-0.5,0.3-0.9,0.3H43.7z"/>
			<path id="XMLID_104_" d="M45.6,81.1c-0.4,0-0.7-0.1-0.9-0.3s-0.3-0.5-0.3-0.9c0-0.5,0.1-0.8,0.3-1c0.2-0.2,0.5-0.3,0.9-0.3h4.2
				c0.4,0,0.7,0.1,0.9,0.3c0.2,0.2,0.3,0.5,0.3,0.9c0,0.5-0.1,0.8-0.3,1c-0.2,0.2-0.5,0.3-0.9,0.3H45.6z"/>
			<path id="XMLID_102_" d="M49.9,81.1c-0.4,0-0.7-0.1-0.9-0.3s-0.3-0.5-0.3-0.9c0-0.5,0.1-0.8,0.3-1c0.2-0.2,0.5-0.3,0.9-0.3h4.2
				c0.4,0,0.7,0.1,0.9,0.3c0.2,0.2,0.3,0.5,0.3,0.9c0,0.5-0.1,0.8-0.3,1c-0.2,0.2-0.5,0.3-0.9,0.3H49.9z"/>
			<path id="XMLID_100_" d="M54.1,81.1c-0.4,0-0.7-0.1-0.9-0.3s-0.3-0.5-0.3-0.9c0-0.5,0.1-0.8,0.3-1c0.2-0.2,0.5-0.3,0.9-0.3h4.2
				c0.4,0,0.7,0.1,0.9,0.3c0.2,0.2,0.3,0.5,0.3,0.9c0,0.5-0.1,0.8-0.3,1c-0.2,0.2-0.5,0.3-0.9,0.3H54.1z"/>
			<path id="XMLID_98_" d="M58.3,81.1c-0.4,0-0.7-0.1-0.9-0.3s-0.3-0.5-0.3-0.9c0-0.5,0.1-0.8,0.3-1c0.2-0.2,0.5-0.3,0.9-0.3h4.2
				c0.4,0,0.7,0.1,0.9,0.3c0.2,0.2,0.3,0.5,0.3,0.9c0,0.5-0.1,0.8-0.3,1c-0.2,0.2-0.5,0.3-0.9,0.3H58.3z"/>
			<path id="XMLID_96_" d="M62.5,81.1c-0.4,0-0.7-0.1-0.9-0.3s-0.3-0.5-0.3-0.9c0-0.5,0.1-0.8,0.3-1c0.2-0.2,0.5-0.3,0.9-0.3h4.2
				c0.4,0,0.7,0.1,0.9,0.3c0.2,0.2,0.3,0.5,0.3,0.9c0,0.5-0.1,0.8-0.3,1c-0.2,0.2-0.5,0.3-0.9,0.3H62.5z"/>
			<path id="XMLID_94_" d="M66.8,81.1c-0.4,0-0.7-0.1-0.9-0.3s-0.3-0.5-0.3-0.9c0-0.5,0.1-0.8,0.3-1c0.2-0.2,0.5-0.3,0.9-0.3H71
				c0.4,0,0.7,0.1,0.9,0.3c0.2,0.2,0.3,0.5,0.3,0.9c0,0.5-0.1,0.8-0.3,1c-0.2,0.2-0.5,0.3-0.9,0.3H66.8z"/>
			<path id="XMLID_92_" d="M71,81.1c-0.4,0-0.7-0.1-0.9-0.3s-0.3-0.5-0.3-0.9c0-0.5,0.1-0.8,0.3-1c0.2-0.2,0.5-0.3,0.9-0.3h4.2
				c0.4,0,0.7,0.1,0.9,0.3c0.2,0.2,0.3,0.5,0.3,0.9c0,0.5-0.1,0.8-0.3,1c-0.2,0.2-0.5,0.3-0.9,0.3H71z"/>
			<path id="XMLID_90_" d="M75.2,81.1c-0.4,0-0.7-0.1-0.9-0.3s-0.3-0.5-0.3-0.9c0-0.5,0.1-0.8,0.3-1c0.2-0.2,0.5-0.3,0.9-0.3h4.2
				c0.4,0,0.7,0.1,0.9,0.3c0.2,0.2,0.3,0.5,0.3,0.9c0,0.5-0.1,0.8-0.3,1c-0.2,0.2-0.5,0.3-0.9,0.3H75.2z"/>
			<path id="XMLID_88_" d="M79.4,81.1c-0.4,0-0.7-0.1-0.9-0.3s-0.3-0.5-0.3-0.9c0-0.5,0.1-0.8,0.3-1c0.2-0.2,0.5-0.3,0.9-0.3h4.2
				c0.4,0,0.7,0.1,0.9,0.3c0.2,0.2,0.3,0.5,0.3,0.9c0,0.5-0.1,0.8-0.3,1c-0.2,0.2-0.5,0.3-0.9,0.3H79.4z"/>
			<path id="XMLID_86_" d="M83.7,81.1c-0.4,0-0.7-0.1-0.9-0.3s-0.3-0.5-0.3-0.9c0-0.5,0.1-0.8,0.3-1c0.2-0.2,0.5-0.3,0.9-0.3h4.2
				c0.4,0,0.7,0.1,0.9,0.3c0.2,0.2,0.3,0.5,0.3,0.9c0,0.5-0.1,0.8-0.3,1c-0.2,0.2-0.5,0.3-0.9,0.3H83.7z"/>
			<path id="XMLID_84_" d="M87.9,81.1c-0.4,0-0.7-0.1-0.9-0.3s-0.3-0.5-0.3-0.9c0-0.5,0.1-0.8,0.3-1c0.2-0.2,0.5-0.3,0.9-0.3h4.2
				c0.4,0,0.7,0.1,0.9,0.3c0.2,0.2,0.3,0.5,0.3,0.9c0,0.5-0.1,0.8-0.3,1c-0.2,0.2-0.5,0.3-0.9,0.3H87.9z"/>
			<path id="XMLID_82_" d="M92.1,81.1c-0.4,0-0.7-0.1-0.9-0.3S91,80.3,91,79.9c0-0.5,0.1-0.8,0.3-1c0.2-0.2,0.5-0.3,0.9-0.3h4.2
				c0.4,0,0.7,0.1,0.9,0.3c0.2,0.2,0.3,0.5,0.3,0.9c0,0.5-0.1,0.8-0.3,1c-0.2,0.2-0.5,0.3-0.9,0.3H92.1z"/>
			<path id="XMLID_80_" d="M96.3,81.1c-0.4,0-0.7-0.1-0.9-0.3s-0.3-0.5-0.3-0.9c0-0.5,0.1-0.8,0.3-1c0.2-0.2,0.5-0.3,0.9-0.3h4.2
				c0.4,0,0.7,0.1,0.9,0.3c0.2,0.2,0.3,0.5,0.3,0.9c0,0.5-0.1,0.8-0.3,1c-0.2,0.2-0.5,0.3-0.9,0.3H96.3z"/>
			<path id="XMLID_78_" d="M100.6,81.1c-0.4,0-0.7-0.1-0.9-0.3s-0.3-0.5-0.3-0.9c0-0.5,0.1-0.8,0.3-1c0.2-0.2,0.5-0.3,0.9-0.3h4.2
				c0.4,0,0.7,0.1,0.9,0.3c0.2,0.2,0.3,0.5,0.3,0.9c0,0.5-0.1,0.8-0.3,1c-0.2,0.2-0.5,0.3-0.9,0.3H100.6z"/>
			<path id="XMLID_76_" d="M104.8,81.1c-0.4,0-0.7-0.1-0.9-0.3s-0.3-0.5-0.3-0.9c0-0.5,0.1-0.8,0.3-1c0.2-0.2,0.5-0.3,0.9-0.3h4.2
				c0.4,0,0.7,0.1,0.9,0.3c0.2,0.2,0.3,0.5,0.3,0.9c0,0.5-0.1,0.8-0.3,1c-0.2,0.2-0.5,0.3-0.9,0.3H104.8z"/>
			<path id="XMLID_74_" d="M109,81.1c-0.4,0-0.7-0.1-0.9-0.3s-0.3-0.5-0.3-0.9c0-0.5,0.1-0.8,0.3-1c0.2-0.2,0.5-0.3,0.9-0.3h4.2
				c0.4,0,0.7,0.1,0.9,0.3c0.2,0.2,0.3,0.5,0.3,0.9c0,0.5-0.1,0.8-0.3,1c-0.2,0.2-0.5,0.3-0.9,0.3H109z"/>
			<path id="XMLID_70_" d="M113.3,81.1c-0.4,0-0.7-0.1-0.9-0.3s-0.3-0.5-0.3-0.9c0-0.5,0.1-0.8,0.3-1c0.2-0.2,0.5-0.3,0.9-0.3h2.1
				c0.3,0,0.7,0,0.9-0.1s0.5-0.1,0.7-0.3c0.2-0.1,0.4-0.3,0.5-0.6c0.1-0.3,0.2-0.7,0.2-1.1v-6.5h2.5v5.5c0,0.5,0,0.9,0.1,1.3
				c0.1,0.4,0.2,0.7,0.4,1c0.2,0.3,0.5,0.5,0.8,0.6c0.3,0.1,0.7,0.2,1.2,0.2c0.4,0,0.7,0.1,0.9,0.3c0.2,0.2,0.3,0.5,0.3,0.9
				c0,0.5-0.1,0.8-0.3,1c-0.2,0.2-0.5,0.3-0.9,0.3c-0.3,0-0.6,0-0.9-0.1c-0.3-0.1-0.6-0.2-0.9-0.3c-0.3-0.1-0.5-0.3-0.7-0.5
				c-0.2-0.2-0.4-0.4-0.5-0.6c-0.2,0.3-0.4,0.6-0.7,0.8c-0.3,0.2-0.6,0.4-0.9,0.5c-0.3,0.1-0.7,0.2-1,0.2c-0.4,0-0.7,0.1-1,0.1
				H113.3z M115.5,85.4c0-0.2,0-0.4,0.1-0.6c0.1-0.2,0.2-0.3,0.3-0.5c0.1-0.1,0.3-0.2,0.5-0.3s0.4-0.1,0.6-0.1c0.2,0,0.4,0,0.6,0.1
				s0.3,0.2,0.5,0.3s0.2,0.3,0.3,0.5c0.1,0.2,0.1,0.4,0.1,0.6c0,0.2,0,0.4-0.1,0.6c-0.1,0.2-0.2,0.3-0.3,0.5s-0.3,0.2-0.5,0.3
				s-0.4,0.1-0.6,0.1c-0.2,0-0.4,0-0.6-0.1s-0.3-0.2-0.5-0.3c-0.1-0.1-0.2-0.3-0.3-0.5C115.6,85.8,115.5,85.6,115.5,85.4z
				 M119.2,85.4c0-0.2,0-0.4,0.1-0.6c0.1-0.2,0.2-0.3,0.3-0.5s0.3-0.2,0.5-0.3c0.2-0.1,0.4-0.1,0.6-0.1c0.2,0,0.4,0,0.6,0.1
				c0.2,0.1,0.3,0.2,0.5,0.3s0.2,0.3,0.3,0.5c0.1,0.2,0.1,0.4,0.1,0.6c0,0.2,0,0.4-0.1,0.6c-0.1,0.2-0.2,0.3-0.3,0.5
				s-0.3,0.2-0.5,0.3c-0.2,0.1-0.4,0.1-0.6,0.1c-0.2,0-0.4,0-0.6-0.1c-0.2-0.1-0.3-0.2-0.5-0.3s-0.2-0.3-0.3-0.5
				C119.3,85.8,119.2,85.6,119.2,85.4z"/>
			<path id="XMLID_67_" d="M134.2,78.7c0-1.2-0.2-2.2-0.5-3.1c-0.3-0.8-0.8-1.5-1.3-2.1c-0.5-0.5-1.2-0.9-1.9-1.1s-1.5-0.4-2.4-0.4
				c-0.3,0-0.6,0-0.9,0c-0.3,0-0.6,0.1-0.9,0.1c-0.3,0-0.6,0.1-0.8,0.2c-0.3,0.1-0.5,0.1-0.7,0.2v-2.3c0.4-0.1,0.9-0.3,1.5-0.4
				c0.6-0.1,1.3-0.2,2.1-0.2c1.5,0,2.7,0.2,3.7,0.7c1,0.5,1.9,1.2,2.6,2c0.7,0.8,1.2,1.8,1.5,3s0.5,2.3,0.5,3.6v2.1h-13.9
				c-0.4,0-0.7-0.1-0.9-0.3s-0.3-0.5-0.3-0.9c0-0.5,0.1-0.8,0.3-1c0.2-0.2,0.5-0.3,0.9-0.3H134.2z M127.2,85.3c0-0.2,0-0.4,0.1-0.6
				c0.1-0.2,0.2-0.3,0.3-0.5s0.3-0.2,0.5-0.3c0.2-0.1,0.4-0.1,0.6-0.1c0.2,0,0.4,0,0.6,0.1c0.2,0.1,0.3,0.2,0.5,0.3s0.2,0.3,0.3,0.5
				c0.1,0.2,0.1,0.4,0.1,0.6c0,0.2,0,0.4-0.1,0.6c-0.1,0.2-0.2,0.3-0.3,0.5s-0.3,0.2-0.5,0.3c-0.2,0.1-0.4,0.1-0.6,0.1
				c-0.2,0-0.4,0-0.6-0.1c-0.2-0.1-0.3-0.2-0.5-0.3s-0.2-0.3-0.3-0.5C127.3,85.8,127.2,85.6,127.2,85.3z"/>
			<path id="XMLID_64_" d="M153.8,60.7v20.4h-14.6v-2.4h4.9V64.9h2.4v13.8h4.9v-18H153.8z M147.9,63.4h-5.2v-1.3h1.3
				c-0.1-0.2-0.2-0.4-0.3-0.7c-0.1-0.2-0.1-0.5-0.1-0.8c0-0.4,0.1-0.8,0.2-1.1s0.3-0.6,0.6-0.8s0.5-0.4,0.8-0.5s0.6-0.2,0.9-0.2
				c0.3,0,0.6,0,0.8,0.1c0.2,0,0.4,0.1,0.5,0.2v1.3c-0.4-0.2-0.8-0.3-1.2-0.3c-0.2,0-0.4,0-0.6,0.1s-0.3,0.2-0.4,0.3
				c-0.1,0.1-0.2,0.3-0.2,0.4c-0.1,0.2-0.1,0.3-0.1,0.5c0,0.4,0.1,0.7,0.4,1c0.2,0.3,0.6,0.4,1.1,0.4h1.6V63.4z"/>
			<path id="XMLID_62_" d="M160.1,60.7v20.4h-2.4V60.7H160.1z"/>
		</g>
		<g id="XMLID_3_">
			<path id="XMLID_56_" d="M13.9,130c-0.3,0-0.7,0-1.1-0.1c-0.4-0.1-0.8-0.1-1.2-0.3c-0.4-0.1-0.8-0.3-1.1-0.6
				c-0.4-0.2-0.7-0.5-1-0.9c-0.3-0.4-0.5-0.8-0.7-1.3s-0.2-1.1-0.2-1.8c0-1,0.2-1.9,0.5-2.6s0.8-1.3,1.3-1.7s1.2-0.7,1.9-0.9
				c0.7-0.2,1.4-0.3,2.2-0.3h4.6v8.2c0,0.4,0,0.7,0.1,1c0.1,0.3,0.1,0.5,0.3,0.7c0.1,0.2,0.3,0.3,0.6,0.4s0.6,0.1,1,0.1h0.5
				c0.4,0,0.7,0.1,0.9,0.3c0.2,0.2,0.3,0.5,0.3,0.9c0,0.5-0.1,0.8-0.3,1c-0.2,0.2-0.5,0.3-0.9,0.3h-0.9c-0.5,0-1,0-1.4-0.1
				s-0.8-0.2-1.2-0.5c-0.4-0.2-0.7-0.5-0.9-0.9s-0.4-0.8-0.5-1.4c-0.4,0.1-0.9,0.3-1.4,0.4C14.9,130,14.4,130,13.9,130z M11,124.9
				c0,0.4,0.1,0.8,0.2,1.1s0.3,0.6,0.5,0.9s0.6,0.4,0.9,0.6s0.8,0.2,1.4,0.2c0.2,0,0.4,0,0.7,0c0.2,0,0.5-0.1,0.7-0.1
				c0.2,0,0.5-0.1,0.7-0.2c0.2-0.1,0.4-0.1,0.6-0.2V122h-2.5c-0.5,0-0.9,0.1-1.3,0.2c-0.4,0.1-0.7,0.3-1,0.5s-0.5,0.5-0.7,0.9
				C11.1,124,11,124.4,11,124.9z M11.5,114.4c0-0.2,0-0.4,0.1-0.6c0.1-0.2,0.2-0.3,0.3-0.5s0.3-0.2,0.5-0.3c0.2-0.1,0.4-0.1,0.6-0.1
				c0.2,0,0.4,0,0.6,0.1c0.2,0.1,0.3,0.2,0.5,0.3s0.2,0.3,0.3,0.5c0.1,0.2,0.1,0.4,0.1,0.6c0,0.2,0,0.4-0.1,0.6
				c-0.1,0.2-0.2,0.3-0.3,0.5s-0.3,0.2-0.5,0.3c-0.2,0.1-0.4,0.1-0.6,0.1c-0.2,0-0.4,0-0.6-0.1c-0.2-0.1-0.3-0.2-0.5-0.3
				s-0.2-0.3-0.3-0.5C11.6,114.8,11.5,114.6,11.5,114.4z M15.2,114.4c0-0.2,0-0.4,0.1-0.6c0.1-0.2,0.2-0.3,0.3-0.5
				c0.1-0.1,0.3-0.2,0.5-0.3s0.4-0.1,0.6-0.1c0.2,0,0.4,0,0.6,0.1s0.3,0.2,0.5,0.3c0.1,0.1,0.2,0.3,0.3,0.5c0.1,0.2,0.1,0.4,0.1,0.6
				c0,0.2,0,0.4-0.1,0.6c-0.1,0.2-0.2,0.3-0.3,0.5c-0.1,0.1-0.3,0.2-0.5,0.3s-0.4,0.1-0.6,0.1c-0.2,0-0.4,0-0.6-0.1
				s-0.3-0.2-0.5-0.3c-0.1-0.1-0.2-0.3-0.3-0.5C15.3,114.8,15.2,114.6,15.2,114.4z"/>
			<path id="XMLID_54_" d="M21.7,132.4c-0.4,0-0.7-0.1-0.9-0.3s-0.3-0.5-0.3-0.9c0-0.5,0.1-0.8,0.3-1c0.2-0.2,0.5-0.3,0.9-0.3h4.2
				c0.4,0,0.7,0.1,0.9,0.3c0.2,0.2,0.3,0.5,0.3,0.9c0,0.5-0.1,0.8-0.3,1c-0.2,0.2-0.5,0.3-0.9,0.3H21.7z"/>
			<path id="XMLID_52_" d="M25.9,132.4c-0.4,0-0.7-0.1-0.9-0.3s-0.3-0.5-0.3-0.9c0-0.5,0.1-0.8,0.3-1c0.2-0.2,0.5-0.3,0.9-0.3h4.2
				c0.4,0,0.7,0.1,0.9,0.3c0.2,0.2,0.3,0.5,0.3,0.9c0,0.5-0.1,0.8-0.3,1c-0.2,0.2-0.5,0.3-0.9,0.3H25.9z"/>
			<path id="XMLID_50_" d="M28.4,132.4c-0.4,0-0.7-0.1-0.9-0.3s-0.3-0.5-0.3-0.9c0-0.5,0.1-0.8,0.3-1c0.2-0.2,0.5-0.3,0.9-0.3h4.2
				c0.4,0,0.7,0.1,0.9,0.3c0.2,0.2,0.3,0.5,0.3,0.9c0,0.5-0.1,0.8-0.3,1c-0.2,0.2-0.5,0.3-0.9,0.3H28.4z"/>
			<path id="XMLID_48_" d="M32.7,132.4c-0.4,0-0.7-0.1-0.9-0.3s-0.3-0.5-0.3-0.9c0-0.5,0.1-0.8,0.3-1c0.2-0.2,0.5-0.3,0.9-0.3h4.2
				c0.4,0,0.7,0.1,0.9,0.3c0.2,0.2,0.3,0.5,0.3,0.9c0,0.5-0.1,0.8-0.3,1c-0.2,0.2-0.5,0.3-0.9,0.3H32.7z"/>
			<path id="XMLID_46_" d="M36.9,132.4c-0.4,0-0.7-0.1-0.9-0.3s-0.3-0.5-0.3-0.9c0-0.5,0.1-0.8,0.3-1c0.2-0.2,0.5-0.3,0.9-0.3h4.2
				c0.4,0,0.7,0.1,0.9,0.3c0.2,0.2,0.3,0.5,0.3,0.9c0,0.5-0.1,0.8-0.3,1c-0.2,0.2-0.5,0.3-0.9,0.3H36.9z"/>
			<path id="XMLID_44_" d="M41.1,132.4c-0.4,0-0.7-0.1-0.9-0.3s-0.3-0.5-0.3-0.9c0-0.5,0.1-0.8,0.3-1c0.2-0.2,0.5-0.3,0.9-0.3h4.2
				c0.4,0,0.7,0.1,0.9,0.3c0.2,0.2,0.3,0.5,0.3,0.9c0,0.5-0.1,0.8-0.3,1c-0.2,0.2-0.5,0.3-0.9,0.3H41.1z"/>
			<path id="XMLID_42_" d="M45.4,132.4c-0.4,0-0.7-0.1-0.9-0.3s-0.3-0.5-0.3-0.9c0-0.5,0.1-0.8,0.3-1c0.2-0.2,0.5-0.3,0.9-0.3h4.2
				c0.4,0,0.7,0.1,0.9,0.3c0.2,0.2,0.3,0.5,0.3,0.9c0,0.5-0.1,0.8-0.3,1c-0.2,0.2-0.5,0.3-0.9,0.3H45.4z"/>
			<path id="XMLID_40_" d="M49.6,132.4c-0.4,0-0.7-0.1-0.9-0.3s-0.3-0.5-0.3-0.9c0-0.5,0.1-0.8,0.3-1c0.2-0.2,0.5-0.3,0.9-0.3h4.2
				c0.4,0,0.7,0.1,0.9,0.3c0.2,0.2,0.3,0.5,0.3,0.9c0,0.5-0.1,0.8-0.3,1c-0.2,0.2-0.5,0.3-0.9,0.3H49.6z"/>
			<path id="XMLID_38_" d="M53.8,132.4c-0.4,0-0.7-0.1-0.9-0.3s-0.3-0.5-0.3-0.9c0-0.5,0.1-0.8,0.3-1c0.2-0.2,0.5-0.3,0.9-0.3H58
				c0.4,0,0.7,0.1,0.9,0.3c0.2,0.2,0.3,0.5,0.3,0.9c0,0.5-0.1,0.8-0.3,1c-0.2,0.2-0.5,0.3-0.9,0.3H53.8z"/>
			<path id="XMLID_36_" d="M58,132.4c-0.4,0-0.7-0.1-0.9-0.3s-0.3-0.5-0.3-0.9c0-0.5,0.1-0.8,0.3-1c0.2-0.2,0.5-0.3,0.9-0.3h4.2
				c0.4,0,0.7,0.1,0.9,0.3c0.2,0.2,0.3,0.5,0.3,0.9c0,0.5-0.1,0.8-0.3,1c-0.2,0.2-0.5,0.3-0.9,0.3H58z"/>
			<path id="XMLID_34_" d="M62.3,132.4c-0.4,0-0.7-0.1-0.9-0.3s-0.3-0.5-0.3-0.9c0-0.5,0.1-0.8,0.3-1c0.2-0.2,0.5-0.3,0.9-0.3h4.2
				c0.4,0,0.7,0.1,0.9,0.3c0.2,0.2,0.3,0.5,0.3,0.9c0,0.5-0.1,0.8-0.3,1c-0.2,0.2-0.5,0.3-0.9,0.3H62.3z"/>
			<path id="XMLID_32_" d="M66.5,132.4c-0.4,0-0.7-0.1-0.9-0.3s-0.3-0.5-0.3-0.9c0-0.5,0.1-0.8,0.3-1c0.2-0.2,0.5-0.3,0.9-0.3h4.2
				c0.4,0,0.7,0.1,0.9,0.3c0.2,0.2,0.3,0.5,0.3,0.9c0,0.5-0.1,0.8-0.3,1c-0.2,0.2-0.5,0.3-0.9,0.3H66.5z"/>
			<path id="XMLID_30_" d="M70.7,132.4c-0.4,0-0.7-0.1-0.9-0.3s-0.3-0.5-0.3-0.9c0-0.5,0.1-0.8,0.3-1c0.2-0.2,0.5-0.3,0.9-0.3h4.2
				c0.4,0,0.7,0.1,0.9,0.3c0.2,0.2,0.3,0.5,0.3,0.9c0,0.5-0.1,0.8-0.3,1c-0.2,0.2-0.5,0.3-0.9,0.3H70.7z"/>
			<path id="XMLID_28_" d="M74.9,132.4c-0.4,0-0.7-0.1-0.9-0.3s-0.3-0.5-0.3-0.9c0-0.5,0.1-0.8,0.3-1c0.2-0.2,0.5-0.3,0.9-0.3h4.2
				c0.4,0,0.7,0.1,0.9,0.3c0.2,0.2,0.3,0.5,0.3,0.9c0,0.5-0.1,0.8-0.3,1c-0.2,0.2-0.5,0.3-0.9,0.3H74.9z"/>
			<path id="XMLID_26_" d="M79.2,132.4c-0.4,0-0.7-0.1-0.9-0.3s-0.3-0.5-0.3-0.9c0-0.5,0.1-0.8,0.3-1c0.2-0.2,0.5-0.3,0.9-0.3h4.2
				c0.4,0,0.7,0.1,0.9,0.3c0.2,0.2,0.3,0.5,0.3,0.9c0,0.5-0.1,0.8-0.3,1c-0.2,0.2-0.5,0.3-0.9,0.3H79.2z"/>
			<path id="XMLID_24_" d="M83.4,132.4c-0.4,0-0.7-0.1-0.9-0.3s-0.3-0.5-0.3-0.9c0-0.5,0.1-0.8,0.3-1c0.2-0.2,0.5-0.3,0.9-0.3h4.2
				c0.4,0,0.7,0.1,0.9,0.3c0.2,0.2,0.3,0.5,0.3,0.9c0,0.5-0.1,0.8-0.3,1c-0.2,0.2-0.5,0.3-0.9,0.3H83.4z"/>
			<path id="XMLID_22_" d="M87.6,132.4c-0.4,0-0.7-0.1-0.9-0.3s-0.3-0.5-0.3-0.9c0-0.5,0.1-0.8,0.3-1c0.2-0.2,0.5-0.3,0.9-0.3h4.2
				c0.4,0,0.7,0.1,0.9,0.3c0.2,0.2,0.3,0.5,0.3,0.9c0,0.5-0.1,0.8-0.3,1c-0.2,0.2-0.5,0.3-0.9,0.3H87.6z"/>
			<path id="XMLID_20_" d="M91.9,132.4c-0.4,0-0.7-0.1-0.9-0.3s-0.3-0.5-0.3-0.9c0-0.5,0.1-0.8,0.3-1c0.2-0.2,0.5-0.3,0.9-0.3h4.2
				c0.4,0,0.7,0.1,0.9,0.3c0.2,0.2,0.3,0.5,0.3,0.9c0,0.5-0.1,0.8-0.3,1c-0.2,0.2-0.5,0.3-0.9,0.3H91.9z"/>
			<path id="XMLID_17_" d="M100.7,130.7c-0.3,0.4-0.5,0.7-0.8,0.9s-0.5,0.4-0.8,0.5c-0.3,0.1-0.6,0.2-0.9,0.2c-0.3,0-0.6,0-1,0h-1.2
				c-0.4,0-0.7-0.1-0.9-0.3s-0.3-0.5-0.3-0.9c0-0.5,0.1-0.8,0.3-1c0.2-0.2,0.5-0.3,0.9-0.3h1.2c0.2,0,0.5,0,0.7-0.1
				c0.3-0.1,0.5-0.2,0.7-0.4s0.5-0.4,0.7-0.8c0.2-0.3,0.4-0.8,0.6-1.4c0.3-1.2,0.7-2.1,1.2-2.9c0.5-0.7,1-1.3,1.5-1.8
				c0.5-0.4,1.1-0.7,1.7-0.9c0.6-0.2,1.1-0.2,1.6-0.2c0.7,0,1.4,0.1,2.1,0.4c0.6,0.3,1.2,0.6,1.6,1.1c0.4,0.5,0.8,1,1.1,1.7
				c0.3,0.7,0.4,1.4,0.4,2.2c0,0.9-0.1,1.6-0.3,2.3c-0.2,0.7-0.5,1.3-0.9,1.8c-0.4,0.5-1,0.9-1.6,1.1c-0.6,0.3-1.4,0.4-2.3,0.4
				c-0.4,0-0.8,0-1.2-0.1s-0.8-0.2-1.2-0.3s-0.9-0.4-1.4-0.6C101.8,131.4,101.3,131.1,100.7,130.7z M108.7,127.3
				c0-0.5-0.1-0.9-0.2-1.3c-0.1-0.4-0.3-0.8-0.5-1s-0.5-0.5-0.9-0.7s-0.7-0.2-1.2-0.2c-0.4,0-0.9,0.1-1.3,0.3
				c-0.4,0.2-0.8,0.5-1.1,0.9c-0.3,0.4-0.7,0.9-0.9,1.5c-0.3,0.6-0.5,1.3-0.7,2.1c0.6,0.5,1.3,0.9,2,1.2c0.7,0.3,1.4,0.4,2,0.4
				c0.9,0,1.6-0.2,2.1-0.7C108.5,129.1,108.7,128.4,108.7,127.3z"/>
			<path id="XMLID_15_" d="M123.5,127c0.4,0.6,0.5,1.2,0.6,1.8c0,0.6-0.1,1.2-0.3,1.7c-0.3,0.5-0.7,1-1.2,1.3
				c-0.6,0.3-1.3,0.5-2.1,0.5h-6.8V130h6.6c0.3,0,0.6,0,0.8-0.1c0.2-0.1,0.4-0.2,0.5-0.4s0.1-0.4,0.1-0.7c0-0.3-0.2-0.6-0.4-1
				l-3.7-5.7l2.1-1.3L123.5,127z"/>
			<path id="XMLID_13_" d="M133.2,131.1c0,0.5-0.1,0.8-0.3,1c-0.2,0.2-0.5,0.3-0.9,0.3h-0.4c-0.6,0-1.2-0.1-1.7-0.2
				c-0.5-0.1-0.9-0.3-1.3-0.6c-0.4-0.3-0.6-0.7-0.8-1.2c-0.2-0.5-0.3-1.1-0.3-1.9V112h2.4v15.8c0,0.4,0,0.7,0.1,1
				c0.1,0.3,0.2,0.5,0.3,0.7c0.1,0.2,0.4,0.3,0.6,0.4s0.6,0.1,1,0.1h0.1c0.4,0,0.7,0.1,0.9,0.3C133.2,130.4,133.2,130.7,133.2,131.1
				z"/>
			<path id="XMLID_8_" d="M147.8,130c0.4,0,0.7,0.1,0.9,0.3c0.2,0.2,0.3,0.5,0.3,0.9c0,0.5-0.1,0.8-0.3,1c-0.2,0.2-0.5,0.3-0.9,0.3
				h-15.7c-0.4,0-0.7-0.1-0.9-0.3s-0.3-0.5-0.3-0.9c0-0.5,0.1-0.8,0.3-1c0.2-0.2,0.5-0.3,0.9-0.3h3.5c-0.2-0.4-0.4-0.8-0.6-1.3
				s-0.2-1.1-0.2-1.8c0-0.8,0.1-1.6,0.4-2.3c0.3-0.7,0.6-1.3,1.1-1.9c0.5-0.5,1.1-0.9,1.8-1.2c0.7-0.3,1.5-0.4,2.4-0.4
				c1.1,0,2,0.2,2.7,0.6c0.7,0.4,1.2,0.9,1.6,1.5s0.7,1.2,0.8,2s0.2,1.4,0.2,2.1v2.9H147.8z M136.8,116.6c0-0.2,0-0.4,0.1-0.6
				c0.1-0.2,0.2-0.3,0.3-0.5c0.1-0.1,0.3-0.2,0.5-0.3s0.4-0.1,0.6-0.1c0.2,0,0.4,0,0.6,0.1s0.3,0.2,0.5,0.3c0.1,0.1,0.2,0.3,0.3,0.5
				s0.1,0.4,0.1,0.6c0,0.2,0,0.4-0.1,0.6s-0.2,0.3-0.3,0.5c-0.1,0.1-0.3,0.2-0.5,0.3s-0.4,0.1-0.6,0.1c-0.2,0-0.4,0-0.6-0.1
				s-0.3-0.2-0.5-0.3c-0.1-0.1-0.2-0.3-0.3-0.5C136.9,117,136.8,116.8,136.8,116.6z M137.2,126.6c0,0.6,0.1,1.1,0.3,1.5
				c0.2,0.4,0.4,0.8,0.7,1.1c0.3,0.3,0.7,0.5,1.1,0.6s0.9,0.2,1.4,0.2h2.6v-2.9c0-0.5,0-0.9-0.1-1.4c-0.1-0.5-0.2-0.9-0.5-1.3
				s-0.5-0.7-1-0.9c-0.4-0.2-0.9-0.3-1.6-0.3c-0.4,0-0.9,0.1-1.2,0.3c-0.4,0.2-0.7,0.4-1,0.7c-0.3,0.3-0.5,0.7-0.6,1.1
				C137.3,125.7,137.2,126.1,137.2,126.6z M140.5,116.6c0-0.2,0-0.4,0.1-0.6s0.2-0.3,0.3-0.5c0.1-0.1,0.3-0.2,0.5-0.3
				s0.4-0.1,0.6-0.1c0.2,0,0.4,0,0.6,0.1s0.3,0.2,0.5,0.3c0.1,0.1,0.2,0.3,0.3,0.5c0.1,0.2,0.1,0.4,0.1,0.6c0,0.2,0,0.4-0.1,0.6
				c-0.1,0.2-0.2,0.3-0.3,0.5s-0.3,0.2-0.5,0.3s-0.4,0.1-0.6,0.1c-0.2,0-0.4,0-0.6-0.1s-0.3-0.2-0.5-0.3c-0.1-0.1-0.2-0.3-0.3-0.5
				S140.5,116.8,140.5,116.6z"/>
			<path id="XMLID_6_" d="M147.8,132.4c-0.4,0-0.7-0.1-0.9-0.3s-0.3-0.5-0.3-0.9c0-0.5,0.1-0.8,0.3-1c0.2-0.2,0.5-0.3,0.9-0.3h3.5
				v-18h2.4v20.4H147.8z"/>
			<path id="XMLID_4_" d="M160.1,112v20.4h-2.4V112H160.1z"/>
		</g>
	</g>
</g>
</svg>
