<!-- Generator: Adobe Illustrator 23.1.1, SVG Export Plug-In  -->
<svg version="1.1" xmlns="http://www.w3.org/2000/svg" xmlns:xlink="http://www.w3.org/1999/xlink" x="0px" y="0px" width="176px"
	 height="94.2px" viewBox="0 0 176 94.2" style="enable-background:new 0 0 176 94.2;" xml:space="preserve">
<style type="text/css">
	.st0{fill:#FF4438;}
	.st1{fill:#FFFFFF;}
</style>
<defs>
</defs>
<g id="XMLID_1_">
	<path id="XMLID_142_" class="st0" d="M76.3,2.8L5.5,38.1c-7.4,3.7-7.4,14.2,0,17.9l70.7,35.4c7.4,3.7,16.1,3.7,23.5,0l70.7-35.4
		c7.4-3.7,7.4-14.2,0-17.9L99.8,2.8C92.4-0.9,83.7-0.9,76.3,2.8z"/>
	<g id="XMLID_2_">
		<path id="XMLID_79_" class="st1" d="M58.7,15.7l1.8,1.7l1.8-1.7l2,2l-2,2L60.5,18l-1.8,1.8l-2-2L58.7,15.7z M66.1,31.4L66.1,31.4
			c-0.6,0.2-1.2,0.3-1.7,0.3c-1,0-1.8-0.3-2.4-0.9c-0.6-0.6-0.9-1.4-0.9-2.4c0-0.7,0.2-1.8,0.7-3.2c0.5-1.4,1-2.5,1.5-3.4
			c0.7-1.2,1.6-1.8,2.6-1.8c1.1,0,1.9,0.7,2.5,2.1c0.6,1.4,0.9,3.4,0.9,5.8c0,2-0.4,3.7-1.3,5.1c-0.6,1-1.4,1.7-2.4,2.3
			c-1,0.5-2,0.8-3.1,0.8c-1.7,0-3.1-0.6-4.2-1.7c-1.1-1.1-1.7-2.6-1.7-4.3c0-1,0.2-2,0.5-3.1s0.7-1.5,1-1.5c0.3,0,0.4,0.2,0.4,0.7
			v0.3c0,1.8,0.4,3.3,1.3,4.4c0.9,1.1,2,1.7,3.4,1.7C64.4,32.6,65.3,32.2,66.1,31.4z M67,24.9c-0.2-1.2-0.7-1.7-1.5-1.7
			c-0.2,0-0.5,0.1-0.6,0.2c-0.2,0.2-0.2,0.4-0.2,0.6c0,0.3,0.2,0.5,0.5,0.7c0.4,0.2,0.8,0.3,1.4,0.3C66.7,25,66.8,24.9,67,24.9z"/>
		<path id="XMLID_76_" class="st1" d="M80,24.7v7.1h-1.2c-0.4,1.4-1.1,2.5-2.1,3.3s-2.2,1.3-3.4,1.3c-1.1,0-2.1-0.4-3.1-1.3
			c-0.7-0.6-1-1.1-1-1.5c0-0.2,0.1-0.3,0.3-0.3c0.1,0,0.2,0,0.4,0.1c0.3,0.1,0.7,0.1,1.2,0.1c0.8,0,1.7-0.2,2.6-0.5
			c1-0.4,1.8-0.8,2.3-1.2l0-0.1c-0.6,0.1-1.1,0.2-1.6,0.2c-2.4,0-3.6-1.1-3.6-3.2c0-0.9,0.2-2,0.5-3.3s0.7-2.4,1.2-3.3
			c0.8-1.5,1.7-2.3,2.6-2.3c0.7,0,1.4,0.4,2,1.2c0.6,0.8,1.2,1.9,1.6,3.3l0.1,0.5H80z M76.3,24.7c-0.1-0.6-0.3-1.1-0.6-1.5
			c-0.3-0.4-0.6-0.6-1-0.6c-0.2,0-0.4,0.1-0.6,0.2c-0.2,0.2-0.2,0.4-0.2,0.6c0,0.3,0.2,0.6,0.6,0.9c0.4,0.2,0.8,0.4,1.4,0.4
			C76,24.7,76.2,24.7,76.3,24.7z"/>
		<path id="XMLID_74_" class="st1" d="M78.3,31.8v-7.1h7.2v7.1H78.3z"/>
		<path id="XMLID_72_" class="st1" d="M84.9,31.8v-7.1h7.2v7.1H84.9z"/>
		<path id="XMLID_70_" class="st1" d="M91.6,31.8v-7.1h7.2v7.1H91.6z"/>
		<path id="XMLID_66_" class="st1" d="M98.2,31.8v-7.1h3.1c-0.4-0.5-0.5-1-0.5-1.4c0-0.7,0.4-1.5,1.1-2.2c0.7-0.7,1.5-1.1,2.3-1.1
			c0.7,0,1.4,0.5,2,1.4c0.6,0.9,0.8,2,0.8,3.2h0.5v7.1H98.2z M101.4,15.2l1.7,1.8l1.8-1.7l2,2l-2,2l-1.8-1.8l-1.8,1.8l-2-2
			L101.4,15.2z M104.5,24.9c0.4,0,0.5-0.2,0.5-0.5c0-0.3-0.1-0.7-0.4-1c-0.3-0.3-0.6-0.5-0.8-0.5c-0.4,0-0.5,0.2-0.5,0.6
			c0,0.3,0.1,0.6,0.4,0.9C103.9,24.7,104.2,24.9,104.5,24.9z"/>
		<path id="XMLID_64_" class="st1" d="M106.8,31.8v-7.1h8.2v0c-1.2-0.9-2.1-1.3-3-1.3c-0.5,0-1.1,0.2-1.7,0.6
			c-0.2,0.1-0.3,0.2-0.4,0.2c-0.2,0-0.4-0.3-0.4-0.9c0-0.9,0.3-1.7,1-2.3c0.7-0.7,1.5-1,2.4-1c1.3,0,2.6,0.9,4,2.7
			c0.7,0.9,1.2,1.5,1.6,1.7c0.4,0.3,1,0.4,1.8,0.4c0.8,0,1.1,0.2,1.1,0.6c0,0.1,0,0.3-0.1,0.5l-0.2,0.7c0,0.1-0.2,0.7-0.6,1.8
			c-0.1,0.1-0.2,0.6-0.5,1.3c-0.2,0.5-0.3,0.9-0.4,1.2l-0.3,0.6c-0.1,0.2-0.4,0.4-0.8,0.4H106.8z"/>
		<path id="XMLID_62_" class="st1" d="M32.3,48.6c0,1.9-0.6,3.5-1.7,4.8c-1.1,1.2-2.6,1.8-4.4,1.8c-1.6,0-3-0.6-4.1-1.7
			c-1.1-1.2-1.7-2.6-1.7-4.2c0-1.8,0.5-3.3,1.6-4.7c0.4-0.5,0.7-0.7,0.9-0.7c0.2,0,0.3,0.1,0.3,0.3c0,0,0,0.1,0,0.1l-0.1,0.4
			c0,0.2-0.1,0.4-0.1,0.6c0,0.9,0.3,1.6,0.8,2.2c0.5,0.6,1.2,0.9,2,0.9c0.8,0,1.5-0.3,2.1-0.8s0.9-1.1,0.9-1.8c0-1-0.4-3.4-1.1-7.1
			l-0.2-1.2c0-0.2,0-0.3,0-0.4c0-0.3,0.4-0.7,1.3-1.4s1.4-1.1,1.7-1.1c0.3,0,0.7,0.7,1.1,2.2l0.1,0.5c0,0.2,0.1,0.3,0.1,0.4
			c0,0.1,0,0.1-0.1,0.1L31.6,38l-0.2,0.1c-0.2,0.2-0.3,0.3-0.3,0.5c0,0.1,0,0.3,0.1,0.5l0.3,1.8l0.3,2
			C32.1,45.7,32.3,47.6,32.3,48.6z"/>
		<path id="XMLID_60_" class="st1" d="M39.8,43.8v7.1h-3.6c-1.4,0-2-0.5-2-1.4l-0.2-13.1c0-0.2,0.1-0.4,0.2-0.6
			c0.2-0.1,0.6-0.4,1.2-0.6l0.6-0.3l0.5-0.2c0.4-0.2,0.6-0.2,0.8-0.2c0.3,0,0.4,0.2,0.4,0.5l-0.1,8.3c0,0.4,0.1,0.5,0.4,0.5H39.8z"
			/>
		<path id="XMLID_58_" class="st1" d="M39.2,50.9v-7.1h7.2v7.1H39.2z"/>
		<path id="XMLID_56_" class="st1" d="M45.8,50.9v-7.1H53v7.1H45.8z"/>
		<path id="XMLID_54_" class="st1" d="M52.5,50.9v-7.1h7.2v7.1H52.5z"/>
		<path id="XMLID_52_" class="st1" d="M59.1,50.9v-7.1h7.2v7.1H59.1z"/>
		<path id="XMLID_50_" class="st1" d="M65.7,50.9v-7.1h7.2v7.1H65.7z"/>
		<path id="XMLID_48_" class="st1" d="M72.3,50.9v-7.1h7.2v7.1H72.3z"/>
		<path id="XMLID_46_" class="st1" d="M78.9,50.9v-7.1h7.2v7.1H78.9z"/>
		<path id="XMLID_44_" class="st1" d="M85.6,50.9v-7.1h7.2v7.1H85.6z"/>
		<path id="XMLID_42_" class="st1" d="M92.2,50.9v-7.1h7.2v7.1H92.2z"/>
		<path id="XMLID_40_" class="st1" d="M98.8,50.9v-7.1h7.2v7.1H98.8z"/>
		<path id="XMLID_38_" class="st1" d="M105.4,50.9v-7.1h7.2v7.1H105.4z"/>
		<path id="XMLID_35_" class="st1" d="M112,43.8h3.8c1.1,0,1.8-0.6,2.1-1.7c0-0.2,0.1-0.3,0.3-0.3l0.1,0l0.2,0
			c0.2,0,0.2,0.1,0.3,0.2l0,0.2c0.3,1.1,1,1.7,2,1.7h3.4v7.1h-3.4c-1,0-1.8-0.4-2.4-1.2c-0.6,0.8-1.4,1.2-2.4,1.2H112V43.8z
			 M120.1,51.6l2,2l-2,2l-1.8-1.8l-1.8,1.8l-2-2l2-2l1.7,1.7L120.1,51.6z"/>
		<path id="XMLID_32_" class="st1" d="M123.6,50.9v-7.1h8.2v0c-1.2-0.9-2.1-1.3-3-1.3c-0.5,0-1.1,0.2-1.7,0.6
			c-0.2,0.1-0.3,0.2-0.4,0.2c-0.2,0-0.4-0.3-0.4-0.9c0-0.9,0.3-1.7,1-2.3c0.7-0.7,1.5-1,2.4-1c1.3,0,2.6,0.9,4,2.7
			c0.7,0.9,1.2,1.5,1.6,1.7c0.4,0.3,1,0.4,1.8,0.4c0.8,0,1.1,0.2,1.1,0.6c0,0.1,0,0.3-0.1,0.5l-0.2,0.7c0,0.1-0.2,0.7-0.6,1.8
			c-0.1,0.1-0.2,0.6-0.5,1.3c-0.2,0.5-0.3,0.9-0.4,1.2l-0.3,0.6c-0.1,0.2-0.4,0.4-0.8,0.4H123.6z M130.3,52.5l2,2.1l-2,2l-2-2
			L130.3,52.5z"/>
		<path id="XMLID_28_" class="st1" d="M139.2,32.4c0.2,0.1,0.4,0.2,0.7,0.2c0,0,0.1,0,0.2,0c-0.5-0.5-0.7-0.9-0.7-1.1
			c0-0.4,0.2-0.7,0.6-1c0.4-0.3,0.8-0.4,1.2-0.4c0.3,0,0.6,0.1,0.9,0.3c0.2,0.2,0.4,0.5,0.4,0.8c0,0.3-0.1,0.4-0.2,0.4
			c0,0-0.1,0-0.2-0.1c-0.2-0.1-0.5-0.1-0.7-0.1c-0.4,0-0.6,0.1-0.6,0.3c0,0.2,0.1,0.3,0.3,0.4s0.4,0.2,0.6,0.2
			c0.2,0,0.4-0.1,0.7-0.2c0,0,0,0,0.1,0c0.2,0.2,0.3,0.4,0.3,0.6c0,0.3-0.2,0.6-0.6,0.8c-0.4,0.2-0.9,0.3-1.5,0.3
			c-0.4,0-0.9-0.1-1.3-0.2c-0.4-0.1-0.6-0.2-0.6-0.3v0C138.8,33.1,138.9,32.8,139.2,32.4z M144.1,41.4l-1.2-1.3
			c-0.5-0.5-0.9-0.8-1.3-0.8c-0.1,0-0.2,0-0.3,0c-0.1,0-0.1,0-0.2,0c-0.3,0-0.7-0.3-1.3-0.8c-0.6-0.5-0.9-0.9-0.9-1.2
			c0-0.2,0.1-0.5,0.4-0.9l0.3-0.6c0.4-0.8,0.7-1.1,0.9-1.1c0.1,0,0.5,0.2,1,0.7l0.8,0.7c0.7,0.7,1.5,1.4,2.3,2.2
			c0.2,0.2,0.4,0.4,0.6,0.6c0-0.1,0-0.2,0-0.2l0-0.5c0-0.2,0-0.4,0-0.6c0-0.4-0.1-0.9-0.2-1.4c0-0.1,0-0.2,0-0.2
			c0-0.2,0.1-0.4,0.4-0.5l2-0.8c0.2-0.1,0.4-0.1,0.5-0.1c0.2,0,0.3,0.1,0.3,0.3l0.7,2.3c0,0.1,0,0.1,0,0.2c0,0.1-0.1,0.2-0.2,0.3
			l-0.4,0.2c0,0,0,0-0.1,0.1c-0.4,1.6-0.8,2.7-1.3,3.3c1.1,1.3,1.7,2.3,1.7,2.8v6.2c0,0.3-0.2,0.5-0.5,0.5h-7.8
			c-0.4,0-0.5-0.2-0.5-0.5v-4.6c0-0.7,0.1-1.2,0.3-1.5s0.7-0.7,1.5-1.1c0.9-0.5,1.7-1.1,2.2-1.7L144.1,41.4z M145.7,43l-1.2,0.9
			c0.3,0.1,0.7,0.2,1.2,0.2c0.4,0,0.7,0,0.9-0.1L145.7,43z"/>
		<path id="XMLID_26_" class="st1" d="M154.4,42.3c0,2,0,3.5-0.1,4.6l-0.1,1.3c0,0.4-0.1,0.6-0.1,0.7c-0.1,0.1-0.4,0.4-0.9,0.9
			c-0.9,0.8-1.4,1.3-1.6,1.3c-0.1,0-0.1-0.1-0.1-0.2l0-0.2c0-0.1,0-0.3,0-0.4l0-0.6l0-0.9l-0.1-3.2l-0.1-1.6c0-0.2,0-0.9-0.1-2
			l-0.1-1.7l-0.1-1.9l0-0.5c0-0.2,0-0.3,0-0.3c0-0.1,0-0.2,0-0.2c0-0.2,0.3-0.4,0.9-0.7l1.2-0.6l0.7-0.3c0.4-0.2,0.6-0.2,0.7-0.2
			c0.2,0,0.4,0.2,0.5,0.7l0.1,0.6c0,0.2,0.1,0.4,0.2,0.9l0.2,1c0.1,0.3,0.1,0.6,0.1,0.7c0,0.1,0.1,0.2,0.1,0.3c0,0.1,0,0.1,0,0.1
			c0,0.1-0.3,0.3-0.8,0.5c-0.2,0.1-0.3,0.2-0.3,0.4l0,0.5L154.4,42.3z"/>
		<path id="XMLID_22_" class="st1" d="M63.3,69.6v7.1H63c-1.3,0-2.2-0.2-2.8-0.5s-1.1-1.1-1.5-2.2c-0.1-0.3-0.2-0.5-0.3-0.5
			s-0.3,0.2-0.6,0.7l-0.2,0.3l-0.2,0.3c-0.3,0.4-0.6,0.7-0.8,0.7c-0.1,0-0.3-0.1-0.6-0.2c-2.4-1.4-3.6-2.2-3.6-2.5
			c0-0.2,0.2-0.7,0.7-1.5s0.8-1.4,1.1-1.8c0.3-0.4,1.2-1.2,2.9-2.4c0.3-0.2,0.6-0.4,0.8-0.6v-0.4l2-1.2v0.6c0,1.4,0.2,2.5,0.5,3.1
			c0.3,0.6,0.9,1,1.6,1L63.3,69.6z M61,60.4l2,2l-2,2l-1.8-1.8l-1.8,1.8l-2.1-2l2-2l1.8,1.8L61,60.4z M58.2,70c0-0.7-0.1-1-0.3-1
			c-0.2,0-0.5,0.2-0.9,0.6c-0.4,0.4-0.6,0.7-0.6,0.9c0,0.1,0.1,0.2,0.4,0.3c0.3,0.1,0.5,0.2,0.7,0.2C58,71,58.2,70.6,58.2,70z"/>
		<path id="XMLID_20_" class="st1" d="M62.7,76.7v-7.1h7.2v7.1H62.7z"/>
		<path id="XMLID_18_" class="st1" d="M69.3,76.7v-7.1h7.2v7.1H69.3z"/>
		<path id="XMLID_15_" class="st1" d="M75.9,76.7v-7.1h1.1c0.5,0,1-0.5,1.8-1.4c0.6-0.8,1.1-1.3,1.4-1.5c0.3-0.3,0.7-0.4,1.1-0.4
			c0.4,0,0.8,0.2,1.1,0.5c0.4,0.3,0.9,0.9,1.6,1.8c0.5,0.6,0.9,1,1.4,1.1c-0.1,2-0.6,4-1.5,6c-0.9,1.9-1.7,2.9-2.6,2.9
			c-0.3,0-0.7-0.1-1.2-0.4l-0.7-0.5c-0.8-0.5-1.4-0.8-1.9-0.8H75.9z M81.4,69.1c-0.3,0-0.6,0.1-0.8,0.2s-0.3,0.3-0.3,0.5
			c0,0.1,0.1,0.2,0.2,0.2l0.3,0.1l0.3,0.1c0.2,0.1,0.5,0.2,0.8,0.4c0.2,0.1,0.3,0.2,0.4,0.2c0.2,0,0.4-0.2,0.4-0.5
			c0-0.3-0.1-0.5-0.4-0.8C81.9,69.2,81.6,69.1,81.4,69.1z"/>
		<path id="XMLID_13_" class="st1" d="M95.1,70v5.5c0,0.4-0.4,0.7-1.2,0.9c-0.8,0.2-1.8,0.3-3.2,0.3c-1.5,0-2.6-0.2-3.2-0.6
			c-0.7-0.4-1-1.1-1-2v-4c0-0.3,0.1-0.5,0.4-0.5c0.1,0,0.1,0,0.2,0l0.3,0l0.7,0.1c0.4,0,1,0.1,1.7,0.1c1.3,0,2-0.2,2-0.6
			c0-0.2-0.2-0.5-0.5-1c-0.3-0.4-0.7-0.7-1.1-1l-0.3-0.2c-0.1-0.1-0.2-0.1-0.3-0.2c-0.1-0.1-0.2-0.2-0.2-0.3c0-0.3,0.3-0.7,0.9-1.2
			s1-0.8,1.3-0.8c0.3,0,0.7,0.3,1.3,1c0.5,0.6,1,1.3,1.4,2.1c0.4,0.8,0.7,1.4,0.7,1.8V70z"/>
		<path id="XMLID_11_" class="st1" d="M102.6,69.6v7.1h-3.6c-1.4,0-2-0.5-2-1.4l-0.2-13.1c0-0.2,0.1-0.4,0.2-0.6
			c0.2-0.1,0.6-0.4,1.2-0.6l0.6-0.3l0.5-0.2c0.4-0.2,0.6-0.2,0.8-0.2c0.3,0,0.4,0.2,0.4,0.5l-0.1,8.3c0,0.4,0.1,0.5,0.4,0.5H102.6z"
			/>
		<path id="XMLID_7_" class="st1" d="M102,76.7v-7.1h3.1c-0.4-0.5-0.5-1-0.5-1.4c0-0.7,0.4-1.5,1.1-2.2s1.5-1.1,2.3-1.1
			c0.7,0,1.4,0.5,2,1.4c0.6,0.9,0.8,2,0.8,3.2h0.5v7.1H102z M105.3,60.1l1.7,1.8l1.8-1.7l2,2l-2,2l-1.8-1.8l-1.8,1.8l-2-2
			L105.3,60.1z M108.3,69.7c0.4,0,0.5-0.2,0.5-0.5c0-0.3-0.1-0.7-0.4-1s-0.6-0.5-0.8-0.5c-0.4,0-0.5,0.2-0.5,0.6
			c0,0.3,0.1,0.6,0.4,0.9C107.7,69.6,108,69.7,108.3,69.7z"/>
		<path id="XMLID_5_" class="st1" d="M110.6,76.7v-7.1h2.7c0.4,0,0.7-0.1,0.7-0.2c0,0,0-0.1,0-0.1l-0.3-1.8l-0.3-1.7
			c-0.1-0.7-0.2-1.3-0.3-1.6l-0.1-0.6c0-0.2,0-0.3,0-0.4c0-0.3,0.4-0.8,1.3-1.5s1.4-1.1,1.7-1.1c0.2,0,0.4,0.3,0.6,0.9
			c0.3,0.6,0.4,1.2,0.6,1.8l0,0.2c0,0.1,0,0.1,0,0.2c0,0.1-0.1,0.2-0.2,0.3c-0.3,0.2-0.4,0.5-0.4,0.7c0,0.2,0,0.5,0.1,0.8
			c0.1,0.5,0.2,1.1,0.3,1.6c0.1,0.8,0.2,1.3,0.2,1.5c0.1,0.4,0.1,0.7,0.1,0.9v6.2c0,0.6-0.2,1-0.5,1H110.6z"/>
		<path id="XMLID_3_" class="st1" d="M122.6,68.1c0,2,0,3.5-0.1,4.6l-0.1,1.3c0,0.4-0.1,0.6-0.1,0.7c-0.1,0.1-0.3,0.4-0.9,0.9
			c-0.9,0.8-1.4,1.3-1.6,1.3c-0.1,0-0.1-0.1-0.1-0.2l0-0.2c0-0.1,0-0.3,0-0.4l0-0.6l0-0.9l-0.1-3.2l-0.1-1.6c0-0.2,0-0.9-0.1-2
			l-0.1-1.7l-0.1-1.9l0-0.5c0-0.2,0-0.3,0-0.3c0-0.1,0-0.2,0-0.2c0-0.2,0.3-0.4,0.9-0.7l1.2-0.6l0.7-0.3c0.4-0.2,0.6-0.2,0.7-0.2
			c0.2,0,0.4,0.2,0.5,0.7l0.1,0.6c0,0.2,0.1,0.4,0.2,0.9l0.2,1c0.1,0.3,0.1,0.6,0.1,0.7c0,0.1,0.1,0.2,0.1,0.3c0,0.1,0,0.1,0,0.1
			c0,0.1-0.3,0.3-0.8,0.5c-0.2,0.1-0.3,0.2-0.3,0.4l0,0.5L122.6,68.1z"/>
	</g>
</g>
</svg>
