<!-- Generator: Adobe Illustrator 23.1.1, SVG Export Plug-In  -->
<svg version="1.1" xmlns="http://www.w3.org/2000/svg" xmlns:xlink="http://www.w3.org/1999/xlink" x="0px" y="0px" width="484px"
	 height="85px" viewBox="0 0 484 85" style="enable-background:new 0 0 484 85;" xml:space="preserve">
<style type="text/css">
	.st0{fill:#009579;}
	.st1{fill:#F6E948;}
</style>
<defs>
</defs>
<g id="XMLID_1_">
	<path id="XMLID_225_" class="st0" d="M470.2,85H13.8C6.2,85,0,78.9,0,71.2V13.8C0,6.2,6.2,0,13.8,0h456.4c7.6,0,13.8,6.2,13.8,13.8
		v57.4C484,78.9,477.8,85,470.2,85z"/>
	<g id="XMLID_101_">
		<g>
			<path id="XMLID_161_" class="st1" d="M17,61.1v7.6c0,1.5,0.1,2.4,0.3,2.8c0.2,0.4,0.5,0.7,0.9,0.9c0.5,0.2,1.3,0.3,2.5,0.3v0.7
				H6.9v-0.7c1.3,0,2.1-0.1,2.5-0.3c0.4-0.2,0.8-0.5,0.9-0.9c0.2-0.4,0.3-1.3,0.3-2.8V51.1c0-1.5-0.1-2.4-0.3-2.8s-0.5-0.7-0.9-0.9
				c-0.5-0.2-1.3-0.3-2.5-0.3v-0.7h12.6c3.3,0,5.7,0.2,7.2,0.7c1.5,0.5,2.8,1.3,3.7,2.5c1,1.2,1.4,2.6,1.4,4.3c0,2-0.7,3.6-2.2,5
				c-0.9,0.8-2.2,1.4-3.9,1.9l6.5,9.2c0.9,1.2,1.5,1.9,1.8,2.2c0.5,0.4,1.2,0.6,1.9,0.7v0.7h-8.5l-8.7-12.3H17z M17,47.8v11.9h1.1
				c1.9,0,3.2-0.2,4.2-0.5c0.9-0.3,1.6-1,2.2-1.8c0.5-0.9,0.8-2,0.8-3.5c0-2.1-0.5-3.6-1.4-4.6c-1-1-2.5-1.5-4.7-1.5H17z"/>
			<path id="XMLID_158_" class="st1" d="M42.7,54.8v14.8c0,1.3,0.2,2.2,0.5,2.5c0.3,0.4,0.9,0.6,1.8,0.6v0.7H34.8v-0.7
				c0.8,0,1.4-0.3,1.8-0.7c0.3-0.3,0.4-1.1,0.4-2.4V58.7c0-1.3-0.2-2.2-0.5-2.5c-0.3-0.4-0.9-0.6-1.8-0.6v-0.7H42.7z M39.9,45.7
				c0.9,0,1.6,0.3,2.2,0.9c0.6,0.6,0.9,1.3,0.9,2.2c0,0.9-0.3,1.6-0.9,2.2c-0.6,0.6-1.3,0.9-2.2,0.9c-0.9,0-1.6-0.3-2.2-0.9
				s-0.9-1.3-0.9-2.2c0-0.9,0.3-1.6,0.9-2.2C38.3,46,39,45.7,39.9,45.7z"/>
			<path id="XMLID_154_" class="st1" d="M57.1,55h6.3v2.2h-3.6c0.7,0.7,1.1,1.2,1.4,1.8c0.3,0.7,0.5,1.5,0.5,2.3
				c0,1.3-0.4,2.5-1.1,3.5c-0.7,1-1.7,1.7-3,2.3c-1.3,0.6-2.4,0.8-3.4,0.8c-0.1,0-0.9,0-2.4-0.1c-0.6,0-1.1,0.2-1.5,0.6
				c-0.4,0.4-0.6,0.9-0.6,1.4c0,0.5,0.2,0.9,0.5,1.2c0.4,0.3,1,0.5,1.8,0.5l3.5,0c2.8,0,4.7,0.3,5.8,0.9c1.5,0.9,2.3,2.2,2.3,3.9
				c0,1.1-0.3,2.2-1,3.1c-0.7,0.9-1.6,1.6-2.7,2c-1.7,0.7-3.7,1-5.9,1c-1.7,0-3.2-0.2-4.6-0.5c-1.4-0.3-2.4-0.8-3-1.4
				c-0.6-0.6-0.9-1.2-0.9-1.8c0-0.6,0.2-1.2,0.7-1.6c0.5-0.5,1.3-0.9,2.6-1.2c-1.7-0.9-2.6-2-2.6-3.6c0-0.9,0.4-1.8,1.1-2.7
				c0.7-0.9,1.8-1.6,3.4-2.3c-1.8-0.7-3.1-1.5-3.9-2.6c-0.8-1.1-1.2-2.3-1.2-3.7c0-1.8,0.7-3.4,2.2-4.7c1.5-1.3,3.4-2,5.8-2
				C54.5,54.2,55.8,54.5,57.1,55z M52.5,76.2c-1.4,0-2.3,0.1-2.7,0.3c-0.8,0.4-1.1,1-1.1,1.7c0,0.7,0.4,1.3,1.2,1.8
				c0.8,0.6,2.3,0.8,4.4,0.8c1.9,0,3.3-0.2,4.4-0.7c1.1-0.5,1.6-1.2,1.6-2.1c0-0.3-0.1-0.6-0.3-0.8c-0.4-0.4-0.9-0.7-1.6-0.8
				C57.5,76.3,55.6,76.2,52.5,76.2z M53.6,55.4c-0.8,0-1.4,0.4-2,1.2c-0.5,0.8-0.8,2.4-0.8,4.8c0,2,0.3,3.3,0.8,4.1s1.1,1.1,1.9,1.1
				c0.8,0,1.5-0.4,2-1.1c0.5-0.7,0.8-2.2,0.8-4.3c0-2.4-0.3-4-0.9-4.9C55,55.8,54.4,55.4,53.6,55.4z"/>
			<path id="XMLID_152_" class="st1" d="M71.6,46.4v10.8c1-1.1,2-1.8,2.8-2.3c0.9-0.4,1.7-0.7,2.7-0.7c1.2,0,2.2,0.3,3,1
				c0.8,0.7,1.4,1.4,1.7,2.3c0.3,0.9,0.4,2.4,0.4,4.5v7.3c0,1.4,0.1,2.3,0.4,2.7c0.3,0.4,0.8,0.6,1.6,0.7v0.7h-9.5v-0.7
				c0.7-0.1,1.2-0.4,1.5-0.8c0.2-0.3,0.4-1.2,0.4-2.5v-8.3c0-1.5-0.1-2.5-0.2-2.9c-0.1-0.4-0.3-0.7-0.6-0.9c-0.3-0.2-0.6-0.3-1-0.3
				c-0.5,0-1.1,0.2-1.6,0.5c-0.5,0.4-1.1,1-1.6,1.9v10c0,1.3,0.1,2.2,0.3,2.5c0.3,0.5,0.8,0.7,1.6,0.8v0.7h-9.5v-0.7
				c0.8-0.1,1.3-0.3,1.7-0.8c0.2-0.3,0.3-1.2,0.3-2.6v-19c0-1.4-0.1-2.3-0.4-2.6c-0.3-0.3-0.8-0.6-1.6-0.7v-0.7H71.6z"/>
			<path id="XMLID_150_" class="st1" d="M92.5,47.9v6.8h4.4v2h-4.4v11.5c0,1.1,0,1.8,0.1,2.1c0.1,0.3,0.3,0.6,0.5,0.8
				c0.3,0.2,0.5,0.3,0.7,0.3c0.9,0,1.7-0.7,2.5-2l0.6,0.4c-1.1,2.6-2.8,3.8-5.3,3.8c-1.2,0-2.2-0.3-3-1c-0.8-0.7-1.3-1.4-1.6-2.2
				c-0.1-0.5-0.2-1.7-0.2-3.7V56.7h-2.4V56c1.7-1.2,3.1-2.4,4.3-3.7c1.2-1.3,2.2-2.8,3.1-4.4H92.5z"/>
			<path id="XMLID_148_" class="st1" d="M108.8,54.2l0.3,6.4h-0.7c-0.8-1.9-1.7-3.2-2.5-3.9c-0.9-0.7-1.7-1-2.6-1
				c-0.5,0-1,0.2-1.4,0.5c-0.4,0.4-0.6,0.8-0.6,1.3c0,0.4,0.1,0.7,0.4,1c0.4,0.5,1.6,1.5,3.6,2.8c2,1.3,3.2,2.5,3.9,3.4
				c0.6,0.9,0.9,2,0.9,3.1c0,1-0.3,2.1-0.8,3.1s-1.3,1.8-2.2,2.3c-0.9,0.5-2,0.8-3.1,0.8c-0.9,0-2.1-0.3-3.6-0.8
				c-0.4-0.1-0.7-0.2-0.8-0.2c-0.4,0-0.8,0.3-1.1,1h-0.7l-0.3-6.7h0.7c0.6,1.8,1.4,3.1,2.5,4c1,0.9,2,1.3,3,1.3
				c0.6,0,1.2-0.2,1.6-0.6c0.4-0.4,0.6-0.9,0.6-1.4c0-0.6-0.2-1.2-0.6-1.7c-0.4-0.5-1.3-1.2-2.7-2.1c-2-1.4-3.4-2.5-4-3.2
				c-0.9-1.1-1.3-2.3-1.3-3.6c0-1.4,0.5-2.7,1.5-3.9c1-1.2,2.4-1.7,4.3-1.7c1,0,2,0.2,2.9,0.7c0.4,0.2,0.7,0.3,0.9,0.3
				c0.2,0,0.4,0,0.6-0.1c0.1-0.1,0.4-0.4,0.7-0.8H108.8z"/>
			<path id="XMLID_145_" class="st1" d="M128.7,54.2c1.6,0,3.1,0.4,4.5,1.3c1.4,0.8,2.5,2,3.2,3.6c0.7,1.5,1.1,3.2,1.1,5.1
				c0,2.7-0.7,4.9-2,6.7c-1.6,2.2-3.9,3.2-6.7,3.2c-2.8,0-5-1-6.5-3c-1.5-2-2.3-4.3-2.3-6.9c0-2.7,0.8-5,2.3-7
				C123.9,55.2,126,54.2,128.7,54.2z M128.8,55.6c-0.7,0-1.3,0.3-1.7,0.8c-0.5,0.5-0.8,1.5-1,3c-0.2,1.5-0.2,3.6-0.2,6.3
				c0,1.4,0.1,2.8,0.3,4c0.1,0.9,0.5,1.7,0.9,2.2c0.5,0.5,1,0.7,1.6,0.7c0.6,0,1.1-0.2,1.5-0.5c0.5-0.5,0.9-1.1,1-1.9
				c0.3-1.3,0.4-3.8,0.4-7.7c0-2.3-0.1-3.8-0.4-4.7c-0.3-0.8-0.6-1.5-1.1-1.8C129.8,55.8,129.4,55.6,128.8,55.6z"/>
			<path id="XMLID_143_" class="st1" d="M146.9,56.7v13c0,1.3,0.1,2,0.4,2.4c0.4,0.5,1.2,0.7,2.4,0.7v0.7h-11v-0.7
				c0.8,0,1.4-0.1,1.8-0.3c0.4-0.2,0.6-0.4,0.7-0.7s0.2-1,0.2-2v-13h-2.7v-2h2.7v-1.4l0-0.9c0-1.9,0.7-3.5,2.1-4.8
				c1.4-1.3,3.3-1.9,5.7-1.9c1.6,0,2.9,0.3,3.6,0.9c0.8,0.6,1.2,1.3,1.2,2c0,0.6-0.2,1.1-0.7,1.6s-1.1,0.7-2,0.7
				c-0.7,0-1.2-0.2-1.6-0.5c-0.4-0.4-0.6-0.8-0.6-1.2c0-0.1,0-0.4,0.1-0.7c0.1-0.2,0.1-0.4,0.1-0.6c0-0.3-0.1-0.5-0.2-0.6
				c-0.2-0.2-0.5-0.3-0.8-0.3c-0.4,0-0.7,0.2-1,0.5c-0.3,0.3-0.4,0.8-0.4,1.5l0,3.5v2.4h2.8v2H146.9z"/>
			<path id="XMLID_141_" class="st1" d="M169.2,47.9V59h0.8c1.2,0,2.2-0.2,2.9-0.5c0.8-0.4,1.4-1,1.9-1.8c0.5-0.9,0.9-2,1-3.5h0.7
				v13.6h-0.7c-0.3-2.6-0.9-4.3-2.1-5.1c-1.1-0.8-2.4-1.2-3.8-1.2h-0.8v8.3c0,1.4,0.1,2.3,0.2,2.6c0.2,0.3,0.5,0.6,0.9,0.9
				c0.4,0.3,1,0.4,1.8,0.4h0.9v0.7h-14.2v-0.7h0.9c0.8,0,1.4-0.1,1.9-0.4c0.3-0.2,0.6-0.5,0.8-1c0.1-0.3,0.2-1.2,0.2-2.5V51
				c0-1.4-0.1-2.3-0.2-2.6c-0.1-0.3-0.4-0.6-0.9-0.9c-0.4-0.3-1-0.4-1.8-0.4h-0.9v-0.7h22.9v7.8h-0.8c-0.2-1.8-0.7-3.2-1.4-4.1
				c-0.8-0.9-1.9-1.5-3.3-1.9c-0.8-0.2-2.3-0.3-4.4-0.3H169.2z"/>
			<path id="XMLID_139_" class="st1" d="M200.7,54.8v14.6c0,1.4,0.1,2.3,0.4,2.7c0.3,0.4,0.8,0.6,1.6,0.7v0.7h-7.6v-2.5
				c-0.9,1.1-1.8,1.8-2.7,2.3c-0.9,0.5-1.9,0.7-3,0.7c-1.1,0-2-0.3-2.8-1c-0.8-0.6-1.4-1.4-1.6-2.3c-0.3-0.9-0.4-2.4-0.4-4.5v-7.4
				c0-1.4-0.1-2.3-0.4-2.6c-0.3-0.3-0.8-0.6-1.6-0.7v-0.7h7.6v12.8c0,1.3,0.1,2.2,0.2,2.6c0.1,0.4,0.3,0.7,0.6,0.9
				c0.3,0.2,0.6,0.3,0.9,0.3c0.5,0,0.9-0.1,1.3-0.4c0.5-0.3,1.2-1,1.9-2.1v-10c0-1.4-0.1-2.3-0.4-2.6c-0.3-0.3-0.8-0.6-1.6-0.7v-0.7
				H200.7z"/>
			<path id="XMLID_137_" class="st1" d="M211.2,47.9v6.8h4.4v2h-4.4v11.5c0,1.1,0,1.8,0.1,2.1c0.1,0.3,0.3,0.6,0.5,0.8
				c0.3,0.2,0.5,0.3,0.7,0.3c0.9,0,1.7-0.7,2.5-2l0.6,0.4c-1.1,2.6-2.8,3.8-5.3,3.8c-1.2,0-2.2-0.3-3-1c-0.8-0.7-1.3-1.4-1.6-2.2
				c-0.1-0.5-0.2-1.7-0.2-3.7V56.7h-2.4V56c1.7-1.2,3.1-2.4,4.3-3.7c1.2-1.3,2.2-2.8,3.1-4.4H211.2z"/>
			<path id="XMLID_135_" class="st1" d="M233.8,54.8v14.6c0,1.4,0.1,2.3,0.4,2.7c0.3,0.4,0.8,0.6,1.6,0.7v0.7h-7.6v-2.5
				c-0.9,1.1-1.8,1.8-2.7,2.3c-0.9,0.5-1.9,0.7-3,0.7c-1.1,0-2-0.3-2.8-1c-0.8-0.6-1.4-1.4-1.6-2.3c-0.3-0.9-0.4-2.4-0.4-4.5v-7.4
				c0-1.4-0.1-2.3-0.4-2.6c-0.3-0.3-0.8-0.6-1.6-0.7v-0.7h7.6v12.8c0,1.3,0.1,2.2,0.2,2.6c0.1,0.4,0.3,0.7,0.6,0.9
				c0.3,0.2,0.6,0.3,0.9,0.3c0.5,0,0.9-0.1,1.3-0.4c0.5-0.3,1.2-1,1.9-2.1v-10c0-1.4-0.1-2.3-0.4-2.6c-0.3-0.3-0.8-0.6-1.6-0.7v-0.7
				H233.8z"/>
			<path id="XMLID_133_" class="st1" d="M244.6,54.8V59c1.2-1.9,2.3-3.2,3.3-3.8c0.9-0.6,1.8-0.9,2.7-0.9c0.7,0,1.3,0.2,1.8,0.7
				c0.4,0.5,0.7,1.1,0.7,1.9c0,0.9-0.2,1.6-0.6,2.1c-0.4,0.5-1,0.7-1.6,0.7c-0.7,0-1.3-0.2-1.8-0.7c-0.5-0.5-0.8-0.7-0.9-0.8
				c-0.1-0.1-0.3-0.1-0.5-0.1c-0.4,0-0.8,0.1-1.1,0.4c-0.5,0.5-1,1.1-1.2,1.9c-0.4,1.3-0.6,2.7-0.6,4.3V69l0,1.1
				c0,0.8,0,1.2,0.1,1.5c0.2,0.4,0.4,0.6,0.7,0.8c0.3,0.2,0.8,0.3,1.6,0.3v0.7H237v-0.7c0.8-0.1,1.4-0.3,1.6-0.7
				c0.3-0.4,0.4-1.4,0.4-3V58.7c0-1.1-0.1-1.7-0.2-2c-0.1-0.4-0.3-0.6-0.6-0.8c-0.3-0.2-0.7-0.3-1.3-0.4v-0.7H244.6z"/>
			<path id="XMLID_130_" class="st1" d="M268.5,63.4h-10.2c0.1,2.5,0.8,4.4,2,5.9c0.9,1.1,2,1.7,3.3,1.7c0.8,0,1.5-0.2,2.2-0.7
				c0.7-0.4,1.4-1.2,2.1-2.4l0.7,0.4c-1,2.1-2.1,3.5-3.4,4.4c-1.2,0.9-2.6,1.3-4.3,1.3c-2.8,0-4.9-1.1-6.3-3.2
				c-1.1-1.7-1.7-3.8-1.7-6.4c0-3.1,0.8-5.6,2.5-7.4c1.7-1.8,3.7-2.8,5.9-2.8c1.9,0,3.5,0.8,4.9,2.3
				C267.6,58.1,268.4,60.4,268.5,63.4z M263.6,62.1c0-2.1-0.1-3.6-0.3-4.4c-0.2-0.8-0.6-1.4-1.1-1.8c-0.3-0.2-0.7-0.4-1.1-0.4
				c-0.7,0-1.3,0.3-1.7,1c-0.8,1.2-1.2,2.8-1.2,4.9v0.7H263.6z"/>
			<path id="XMLID_128_" class="st1" d="M304.6,45.7v9.5h-0.7c-0.9-2.6-2.2-4.6-4-6s-3.7-2-5.9-2c-2,0-3.7,0.6-5.1,1.7
				c-1.3,1.1-2.3,2.7-2.9,4.8c-0.6,2-0.8,4.1-0.8,6.3c0,2.6,0.3,4.9,0.9,6.8c0.6,2,1.6,3.4,3,4.3c1.4,0.9,3,1.4,4.9,1.4
				c0.7,0,1.3-0.1,2-0.2s1.4-0.3,2.1-0.6v-5.6c0-1.1-0.1-1.8-0.2-2.1c-0.1-0.3-0.4-0.6-0.9-0.8c-0.5-0.3-1-0.4-1.7-0.4h-0.7v-0.7
				h13.2v0.7c-1,0.1-1.7,0.2-2.1,0.4c-0.4,0.2-0.7,0.5-0.9,1c-0.1,0.3-0.2,0.9-0.2,1.9v5.6c-1.7,0.8-3.5,1.4-5.4,1.7
				c-1.9,0.4-3.8,0.6-5.8,0.6c-2.6,0-4.7-0.3-6.4-1c-1.7-0.7-3.2-1.6-4.5-2.8c-1.3-1.1-2.3-2.4-3-3.8c-0.9-1.8-1.4-3.9-1.4-6.2
				c0-4.1,1.4-7.5,4.3-10.3c2.9-2.8,6.5-4.2,10.8-4.2c1.3,0,2.6,0.1,3.6,0.3c0.6,0.1,1.5,0.4,2.8,0.9s2.1,0.7,2.3,0.7
				c0.4,0,0.7-0.1,1-0.4c0.3-0.3,0.6-0.8,0.9-1.5H304.6z"/>
			<path id="XMLID_125_" class="st1" d="M323.8,63.4h-10.2c0.1,2.5,0.8,4.4,2,5.9c0.9,1.1,2,1.7,3.3,1.7c0.8,0,1.5-0.2,2.2-0.7
				c0.7-0.4,1.4-1.2,2.1-2.4l0.7,0.4c-1,2.1-2.1,3.5-3.4,4.4c-1.2,0.9-2.6,1.3-4.3,1.3c-2.8,0-4.9-1.1-6.3-3.2
				c-1.1-1.7-1.7-3.8-1.7-6.4c0-3.1,0.8-5.6,2.5-7.4c1.7-1.8,3.7-2.8,5.9-2.8c1.9,0,3.5,0.8,4.9,2.3
				C322.9,58.1,323.7,60.4,323.8,63.4z M318.9,62.1c0-2.1-0.1-3.6-0.3-4.4c-0.2-0.8-0.6-1.4-1.1-1.8c-0.3-0.2-0.7-0.4-1.1-0.4
				c-0.7,0-1.3,0.3-1.7,1c-0.8,1.2-1.2,2.8-1.2,4.9v0.7H318.9z"/>
			<path id="XMLID_123_" class="st1" d="M332.1,54.8v2.4c1-1,1.9-1.8,2.8-2.3c0.9-0.5,1.8-0.7,2.8-0.7c1.2,0,2.2,0.3,3,1
				c0.8,0.7,1.3,1.5,1.6,2.5c0.2,0.8,0.3,2.2,0.3,4.4v7.3c0,1.4,0.1,2.3,0.4,2.7c0.3,0.4,0.8,0.6,1.6,0.7v0.7h-9.4v-0.7
				c0.7-0.1,1.2-0.4,1.5-0.9c0.2-0.3,0.3-1.2,0.3-2.5v-8.3c0-1.5-0.1-2.5-0.2-2.9c-0.1-0.4-0.3-0.7-0.6-0.9
				c-0.3-0.2-0.6-0.3-0.9-0.3c-1.1,0-2.2,0.8-3.2,2.5v10c0,1.4,0.1,2.3,0.4,2.7c0.3,0.4,0.7,0.6,1.4,0.7v0.7h-9.4v-0.7
				c0.8-0.1,1.3-0.3,1.7-0.8c0.2-0.3,0.3-1.2,0.3-2.6V58.8c0-1.4-0.1-2.3-0.4-2.6c-0.3-0.3-0.8-0.6-1.6-0.7v-0.7H332.1z"/>
			<path id="XMLID_120_" class="st1" d="M361.4,63.4h-10.2c0.1,2.5,0.8,4.4,2,5.9c0.9,1.1,2,1.7,3.3,1.7c0.8,0,1.5-0.2,2.2-0.7
				c0.7-0.4,1.4-1.2,2.1-2.4l0.7,0.4c-1,2.1-2.1,3.5-3.4,4.4c-1.2,0.9-2.6,1.3-4.3,1.3c-2.8,0-4.9-1.1-6.3-3.2
				c-1.1-1.7-1.7-3.8-1.7-6.4c0-3.1,0.8-5.6,2.5-7.4c1.7-1.8,3.7-2.8,5.9-2.8c1.9,0,3.5,0.8,4.9,2.3
				C360.5,58.1,361.3,60.4,361.4,63.4z M356.5,62.1c0-2.1-0.1-3.6-0.3-4.4c-0.2-0.8-0.6-1.4-1.1-1.8c-0.3-0.2-0.7-0.4-1.1-0.4
				c-0.7,0-1.3,0.3-1.7,1c-0.8,1.2-1.2,2.8-1.2,4.9v0.7H356.5z"/>
			<path id="XMLID_118_" class="st1" d="M369.9,54.8V59c1.2-1.9,2.3-3.2,3.3-3.8c0.9-0.6,1.8-0.9,2.7-0.9c0.7,0,1.3,0.2,1.8,0.7
				c0.4,0.5,0.7,1.1,0.7,1.9c0,0.9-0.2,1.6-0.6,2.1c-0.4,0.5-1,0.7-1.6,0.7c-0.7,0-1.3-0.2-1.8-0.7c-0.5-0.5-0.8-0.7-0.9-0.8
				c-0.1-0.1-0.3-0.1-0.5-0.1c-0.4,0-0.8,0.1-1.1,0.4c-0.5,0.5-1,1.1-1.2,1.9c-0.4,1.3-0.6,2.7-0.6,4.3V69l0,1.1
				c0,0.8,0,1.2,0.1,1.5c0.2,0.4,0.4,0.6,0.7,0.8c0.3,0.2,0.8,0.3,1.6,0.3v0.7h-10.1v-0.7c0.8-0.1,1.4-0.3,1.6-0.7
				c0.3-0.4,0.4-1.4,0.4-3V58.7c0-1.1-0.1-1.7-0.2-2c-0.1-0.4-0.3-0.6-0.6-0.8c-0.3-0.2-0.7-0.3-1.3-0.4v-0.7H369.9z"/>
			<path id="XMLID_115_" class="st1" d="M388.9,70.7c-2.3,2-4.3,3-6.1,3c-1.1,0-2-0.3-2.7-1c-0.7-0.7-1.1-1.6-1.1-2.6
				c0-1.4,0.6-2.7,1.8-3.8c1.2-1.1,3.9-2.7,8-4.5v-1.9c0-1.4-0.1-2.3-0.2-2.7c-0.2-0.4-0.4-0.7-0.9-1c-0.4-0.3-0.9-0.4-1.4-0.4
				c-0.9,0-1.6,0.2-2.1,0.6c-0.3,0.2-0.5,0.5-0.5,0.8c0,0.3,0.2,0.6,0.6,1c0.5,0.6,0.8,1.1,0.8,1.7c0,0.7-0.2,1.2-0.7,1.7
				c-0.5,0.5-1.1,0.7-1.9,0.7c-0.8,0-1.5-0.3-2.1-0.8c-0.6-0.5-0.8-1.1-0.8-1.8c0-1,0.4-1.9,1.1-2.7c0.8-0.9,1.8-1.5,3.2-2
				c1.4-0.5,2.8-0.7,4.2-0.7c1.8,0,3.2,0.4,4.2,1.1c1,0.8,1.7,1.6,2,2.4c0.2,0.6,0.3,1.8,0.3,3.9v7.3c0,0.9,0,1.4,0.1,1.6
				s0.2,0.4,0.3,0.5c0.1,0.1,0.3,0.2,0.5,0.2c0.3,0,0.7-0.2,1.1-0.7l0.6,0.5c-0.7,1-1.4,1.7-2.1,2.1c-0.7,0.4-1.5,0.7-2.4,0.7
				c-1.1,0-1.9-0.2-2.5-0.7C389.4,72.5,389.1,71.7,388.9,70.7z M388.9,69.2V63c-1.6,0.9-2.8,2-3.6,3c-0.5,0.7-0.8,1.4-0.8,2.2
				c0,0.6,0.2,1.2,0.7,1.6c0.3,0.4,0.8,0.5,1.4,0.5C387.3,70.3,388.1,70,388.9,69.2z"/>
			<path id="XMLID_113_" class="st1" d="M404.9,47.9v6.8h4.4v2h-4.4v11.5c0,1.1,0,1.8,0.1,2.1c0.1,0.3,0.3,0.6,0.5,0.8
				c0.3,0.2,0.5,0.3,0.7,0.3c0.9,0,1.7-0.7,2.5-2l0.6,0.4c-1.1,2.6-2.8,3.8-5.3,3.8c-1.2,0-2.2-0.3-3-1c-0.8-0.7-1.3-1.4-1.6-2.2
				c-0.1-0.5-0.2-1.7-0.2-3.7V56.7h-2.4V56c1.7-1.2,3.1-2.4,4.3-3.7c1.2-1.3,2.2-2.8,3.1-4.4H404.9z"/>
			<path id="XMLID_110_" class="st1" d="M416.7,54.8v14.8c0,1.3,0.2,2.2,0.5,2.5c0.3,0.4,0.9,0.6,1.8,0.6v0.7h-10.1v-0.7
				c0.8,0,1.4-0.3,1.8-0.7c0.3-0.3,0.4-1.1,0.4-2.4V58.7c0-1.3-0.2-2.2-0.5-2.5c-0.3-0.4-0.9-0.6-1.8-0.6v-0.7H416.7z M413.9,45.7
				c0.9,0,1.6,0.3,2.2,0.9c0.6,0.6,0.9,1.3,0.9,2.2c0,0.9-0.3,1.6-0.9,2.2c-0.6,0.6-1.3,0.9-2.2,0.9c-0.9,0-1.6-0.3-2.2-0.9
				s-0.9-1.3-0.9-2.2c0-0.9,0.3-1.6,0.9-2.2C412.3,46,413.1,45.7,413.9,45.7z"/>
			<path id="XMLID_107_" class="st1" d="M428,54.2c1.6,0,3.1,0.4,4.5,1.3c1.4,0.8,2.5,2,3.2,3.6c0.7,1.5,1.1,3.2,1.1,5.1
				c0,2.7-0.7,4.9-2,6.7c-1.6,2.2-3.9,3.2-6.7,3.2c-2.8,0-5-1-6.5-3c-1.5-2-2.3-4.3-2.3-6.9c0-2.7,0.8-5,2.3-7
				C423.1,55.2,425.3,54.2,428,54.2z M428,55.6c-0.7,0-1.3,0.3-1.7,0.8c-0.5,0.5-0.8,1.5-1,3c-0.2,1.5-0.2,3.6-0.2,6.3
				c0,1.4,0.1,2.8,0.3,4c0.1,0.9,0.5,1.7,0.9,2.2c0.5,0.5,1,0.7,1.6,0.7c0.6,0,1.1-0.2,1.5-0.5c0.5-0.5,0.9-1.1,1-1.9
				c0.3-1.3,0.4-3.8,0.4-7.7c0-2.3-0.1-3.8-0.4-4.7c-0.3-0.8-0.6-1.5-1.1-1.8C429.1,55.8,428.6,55.6,428,55.6z"/>
			<path id="XMLID_105_" class="st1" d="M445.6,54.8v2.4c1-1,1.9-1.8,2.8-2.3c0.9-0.5,1.8-0.7,2.8-0.7c1.2,0,2.2,0.3,3,1
				c0.8,0.7,1.3,1.5,1.6,2.5c0.2,0.8,0.3,2.2,0.3,4.4v7.3c0,1.4,0.1,2.3,0.4,2.7c0.3,0.4,0.8,0.6,1.6,0.7v0.7h-9.4v-0.7
				c0.7-0.1,1.2-0.4,1.5-0.9c0.2-0.3,0.3-1.2,0.3-2.5v-8.3c0-1.5-0.1-2.5-0.2-2.9c-0.1-0.4-0.3-0.7-0.6-0.9
				c-0.3-0.2-0.6-0.3-0.9-0.3c-1.1,0-2.2,0.8-3.2,2.5v10c0,1.4,0.1,2.3,0.4,2.7c0.3,0.4,0.7,0.6,1.4,0.7v0.7H438v-0.7
				c0.8-0.1,1.3-0.3,1.7-0.8c0.2-0.3,0.3-1.2,0.3-2.6V58.8c0-1.4-0.1-2.3-0.4-2.6c-0.3-0.3-0.8-0.6-1.6-0.7v-0.7H445.6z"/>
			<path id="XMLID_103_" class="st1" d="M470.9,54.2l0.3,6.4h-0.7c-0.8-1.9-1.7-3.2-2.5-3.9c-0.9-0.7-1.7-1-2.6-1
				c-0.5,0-1,0.2-1.4,0.5c-0.4,0.4-0.6,0.8-0.6,1.3c0,0.4,0.1,0.7,0.4,1c0.4,0.5,1.6,1.5,3.6,2.8c2,1.3,3.2,2.5,3.9,3.4
				c0.6,0.9,0.9,2,0.9,3.1c0,1-0.3,2.1-0.8,3.1c-0.5,1-1.3,1.8-2.2,2.3c-0.9,0.5-2,0.8-3.1,0.8c-0.9,0-2.1-0.3-3.6-0.8
				c-0.4-0.1-0.7-0.2-0.8-0.2c-0.4,0-0.8,0.3-1.1,1h-0.7l-0.3-6.7h0.7c0.6,1.8,1.4,3.1,2.5,4c1,0.9,2,1.3,3,1.3
				c0.6,0,1.2-0.2,1.6-0.6c0.4-0.4,0.6-0.9,0.6-1.4c0-0.6-0.2-1.2-0.6-1.7c-0.4-0.5-1.3-1.2-2.7-2.1c-2-1.4-3.4-2.5-4-3.2
				c-0.9-1.1-1.3-2.3-1.3-3.6c0-1.4,0.5-2.7,1.5-3.9c1-1.2,2.4-1.7,4.3-1.7c1,0,2,0.2,2.9,0.7c0.4,0.2,0.7,0.3,0.9,0.3
				c0.2,0,0.4,0,0.6-0.1c0.1-0.1,0.4-0.4,0.7-0.8H470.9z"/>
		</g>
	</g>
	<g id="XMLID_2_">
		<path id="XMLID_97_" class="st1" d="M25.4,38.9h-2.6c-0.5,0-0.9-0.1-1.3-0.3c-0.8-0.4-1.4-1.1-2-2.1c-0.7-1.4-1.2-3.3-1.4-5.8
			c-0.9,1.1-1.6,1.9-2.1,2.4c-0.7,0.7-1.3,1-1.8,1c-0.3,0-0.6,0-1-0.1l-2.4-0.5c-1-0.2-1.7-0.4-1.9-0.5c-0.2-0.1-0.4-0.3-0.4-0.5
			c0-0.4,0.5-1.5,1.4-3.4c0.9-1.9,1.6-3.1,2-3.5c0.3-0.4,0.9-0.8,1.8-1.4c0.5-0.3,1.2-0.8,2.2-1.3l1.1-0.6c0-0.2-0.1-0.4-0.1-0.6
			c0-0.2,0-0.4,0-0.5c0-0.5,0.1-1.1,0.3-1.9c0.2-0.8,0.6-1.7,1.2-2.8l1.9,12.5c0.3,2,0.7,3.3,1.2,4c0.3,0.5,0.8,0.7,1.3,0.7h2.6
			V38.9z M20.7,10.9l-2.2,3.7l-2.8-1.6l-1.6,3.2l-3.7-2l2.1-3.5l3,1.5l1.7-3.1L20.7,10.9z M17.6,27.7l-0.4-2.4
			c-0.4,0.2-0.8,0.4-1,0.5c-0.7,0.4-1.3,0.7-1.8,1.1c-0.3,0.3-0.6,0.5-0.8,0.7c-0.3,0.3-0.4,0.5-0.4,0.7c0,0.2,0.2,0.3,0.7,0.4
			c0.5,0.1,0.9,0.2,1.4,0.2c0.3,0,0.6-0.1,0.9-0.2C16.5,28.4,17,28.1,17.6,27.7z"/>
		<path id="XMLID_95_" class="st1" d="M33.5,38.9H24v-5.4h9.5V38.9z"/>
		<path id="XMLID_93_" class="st1" d="M39.5,38.9H30v-5.4h9.5V38.9z"/>
		<path id="XMLID_91_" class="st1" d="M47.2,38.9h-9.5v-5.4h9.5V38.9z"/>
		<path id="XMLID_89_" class="st1" d="M55.3,38.9h-9.5v-5.4h9.5V38.9z"/>
		<path id="XMLID_87_" class="st1" d="M63.5,38.9h-9.5v-5.4h9.5V38.9z"/>
		<path id="XMLID_85_" class="st1" d="M71.6,38.9h-9.5v-5.4h9.5V38.9z"/>
		<path id="XMLID_83_" class="st1" d="M79.7,38.9h-9.5v-5.4h9.5V38.9z"/>
		<path id="XMLID_81_" class="st1" d="M87.8,38.9h-9.5v-5.4h9.5V38.9z"/>
		<path id="XMLID_79_" class="st1" d="M95.9,38.9h-9.5v-5.4h9.5V38.9z"/>
		<path id="XMLID_77_" class="st1" d="M104,38.9h-9.5v-5.4h9.5V38.9z"/>
		<path id="XMLID_75_" class="st1" d="M112.1,38.9h-9.5v-5.4h9.5V38.9z"/>
		<path id="XMLID_73_" class="st1" d="M120.2,38.9h-9.5v-5.4h9.5V38.9z"/>
		<path id="XMLID_71_" class="st1" d="M128.3,38.9h-9.5v-5.4h9.5V38.9z"/>
		<path id="XMLID_69_" class="st1" d="M136.4,38.9h-9.5v-5.4h9.5V38.9z"/>
		<path id="XMLID_67_" class="st1" d="M144.6,38.9H135v-5.4h9.5V38.9z"/>
		<path id="XMLID_65_" class="st1" d="M152.7,38.9h-9.5v-5.4h9.5V38.9z"/>
		<path id="XMLID_62_" class="st1" d="M169.6,38.9c-1.4,0-3-0.3-4.9-0.8c-1.7-0.5-3.1-1-4.4-1.7c-0.8,1.2-1.7,1.9-2.9,2.3
			c-0.5,0.2-1.3,0.3-2.2,0.3h-4v-5.4h4c1.2,0,2.2-0.1,2.9-0.4c0.9-0.4,1.5-1,1.9-1.9c0.8-1.7,1.7-3.1,2.9-4.2c1.1-1,1.9-1.5,2.7-1.5
			c0.7,0,1.5,1,2.5,3.1c1.1,2.2,1.6,4.2,1.6,6V38.9z M165.9,32.9c0-0.3-0.3-0.8-0.9-1.5c-0.6-0.8-1.2-1.2-1.7-1.2
			c-0.5,0-1,0.6-1.3,1.8c0.7,0.3,1.2,0.5,1.6,0.6c1.1,0.4,1.7,0.6,1.8,0.6C165.8,33.2,165.9,33.1,165.9,32.9z"/>
		<path id="XMLID_60_" class="st1" d="M183.3,38.9h-9c-0.9,0-1.6-0.2-2-0.6c-0.6-0.5-0.9-1.2-0.9-2.2c0-0.6,0-1.2,0.1-1.9
			c0.1-0.7,0.1-1.4,0.3-2.1l0.8,0c0.1,0.5,0.3,0.8,0.7,1c0.4,0.2,0.8,0.3,1.3,0.3h6.9c-0.3-2-0.8-3.5-1.6-4.7
			c-0.6-1-1.5-1.8-2.6-2.5l1.4-6.2c1.7,1.3,3,3,3.7,5c0.7,1.9,1,4.4,1,7.5V38.9z"/>
		<path id="XMLID_58_" class="st1" d="M192.4,38.9h-2.8c-1.6,0-2.7-0.6-3.4-1.9c-0.8-1.4-1.2-3.8-1.2-7.1v-5.7c0-1.3-0.2-2.3-0.5-3
			c-0.2-0.3-0.6-0.8-1.2-1.5l2.2-5c0.8,1.1,1.3,2.1,1.6,3.2c0.4,1.2,0.5,2.8,0.5,4.6v3.9c0,2.8,0.2,4.7,0.6,5.8
			c0.3,0.9,0.8,1.3,1.4,1.3h2.8V38.9z"/>
		<path id="XMLID_54_" class="st1" d="M205.7,38.9H191v-5.4h3.6c0.6,0,1.2,0,1.7,0.1c1.5,0.2,3.1,0.3,5,0.5c-2-0.4-3.4-1-4.2-1.7
			c-0.8-0.7-1.2-1.8-1.2-3.2c0-2.1,0.5-3.9,1.4-5.6c1-1.7,2-2.5,3.2-2.5c1.3,0,2.5,1.2,3.5,3.5c1,2.3,1.5,5.1,1.5,8.4V38.9z
			 M203.2,14.9L201,19l-2.8-1.6l-1.6,3.2l-3.7-2l2.1-3.9l3,1.5l1.7-3.2L203.2,14.9z M203,30.6c-0.5-1.1-1-2-1.6-2.7
			c-0.6-0.6-1.2-1-1.8-1c-0.3,0-0.5,0.1-0.7,0.3c-0.2,0.2-0.3,0.4-0.3,0.6c0,0.6,0.4,1.1,1.3,1.7C200.8,30.1,201.8,30.5,203,30.6z"
			/>
		<path id="XMLID_52_" class="st1" d="M215.3,38.9h-11v-5.4h8.6l-2.4-13.6l-1.3-0.8c0-0.8,0.1-1.6,0.4-2.4c0.3-1,0.8-2.2,1.6-3.6
			l0.9,0.5c0,0.1,0,0.3-0.1,0.6c0,0.4,0.3,0.9,0.8,1.3c0.5,0.4,1.3,0.8,2.4,1.2c-0.1,0.9-0.3,1.7-0.5,2.5c-0.2,0.8-0.5,1.5-0.8,2.2
			l-0.7-0.3l2.2,12.4V38.9z"/>
		<path id="XMLID_50_" class="st1" d="M222.3,33.1c0,1.2-0.1,2.3-0.4,3.2c-0.3,1-0.8,2.3-1.6,3.9l-1.2-0.5c0.3-1.7,0.5-3.1,0.5-4.2
			c0-0.8-0.1-2-0.2-3.6c-0.1-1.6-0.3-3.1-0.5-4.7s-0.5-3.4-1-5.5c-0.2-0.7-0.2-1.3-0.2-1.5c0-0.4,0.2-1.1,0.6-2.1
			c0.4-1,1-2.2,1.7-3.6l1.2,7.1c0.4,2.7,0.7,5,0.9,7C222.2,30.3,222.3,31.7,222.3,33.1z"/>
		<path id="XMLID_48_" class="st1" d="M250.2,38.4c0,2.1-1.1,3.9-3.2,5.5c-2.1,1.6-4.6,2.4-7.3,2.4c-2.3,0-4.1-0.6-5.3-1.7
			c-1.3-1.2-1.9-2.8-1.9-4.8c0-1.9,0.2-3.6,0.7-5.1c0.5-1.6,1.6-3.6,3.2-6l1.2,0.8c-1,1.6-1.8,2.9-2.2,4.1c-0.4,1.1-0.7,2.3-0.7,3.4
			c0,1.2,0.4,2.1,1.3,2.8s2.2,1,3.8,1c2.3,0,4.2-0.5,5.7-1.4c1.5-0.9,2.2-2.1,2.2-3.6c0-0.3,0-0.5,0-0.6c0-0.1,0-0.3,0-0.3
			c0-0.5,0-1.1-0.1-1.7c-0.1-0.6-0.3-1.9-0.7-3.9c-0.6-3.2-1.1-6.3-1.7-9.5l-1-0.7c0-1.3,0.6-3.3,1.8-6l0.9,0.4
			c-0.1,0.2-0.1,0.4-0.1,0.6c0,0.5,0.3,1,0.8,1.3c0.8,0.5,1.6,0.9,2.3,1.3c-0.1,1.1-0.3,2-0.4,2.5c-0.1,0.5-0.5,1.2-0.9,2.2
			l-0.6-0.2c0,0.2,0.2,1.3,0.6,3.4c0.4,2.1,0.7,3.9,1,5.4c0.4,2.2,0.6,3.5,0.6,3.9V38.4z"/>
		<path id="XMLID_46_" class="st1" d="M259.4,38.9h-2.8c-1.6,0-2.7-0.6-3.4-1.9c-0.8-1.4-1.2-3.8-1.2-7.1v-5.7c0-1.3-0.2-2.3-0.5-3
			c-0.2-0.3-0.6-0.8-1.2-1.5l2.2-5c0.8,1.1,1.3,2.1,1.6,3.2c0.4,1.2,0.5,2.8,0.5,4.6v3.9c0,2.8,0.2,4.7,0.6,5.8
			c0.3,0.9,0.8,1.3,1.4,1.3h2.8V38.9z"/>
		<path id="XMLID_44_" class="st1" d="M267.5,38.9H258v-5.4h9.5V38.9z"/>
		<path id="XMLID_42_" class="st1" d="M275.6,38.9h-9.5v-5.4h9.5V38.9z"/>
		<path id="XMLID_40_" class="st1" d="M283.8,38.9h-9.5v-5.4h9.5V38.9z"/>
		<path id="XMLID_38_" class="st1" d="M291.9,38.9h-9.5v-5.4h9.5V38.9z"/>
		<path id="XMLID_36_" class="st1" d="M300,38.9h-9.5v-5.4h9.5V38.9z"/>
		<path id="XMLID_34_" class="st1" d="M308.1,38.9h-9.5v-5.4h9.5V38.9z"/>
		<path id="XMLID_31_" class="st1" d="M319.2,38.9h-12.5v-5.4h10.5c-0.1-0.9-0.4-1.7-0.8-2.3c-0.2-0.3-0.7-0.9-1.4-1.8l1.6-4.8
			c1,1.1,1.7,2.3,2,3.6s0.5,3.1,0.5,5.5V38.9z M318.9,42.5l-2.2,4.1l-2.8-1.6l-1.6,3.2l-3.7-2l2.1-3.9l3,1.5l1.7-3.2L318.9,42.5z"/>
		<path id="XMLID_28_" class="st1" d="M340.6,38.9h-22.8v-5.4H332c-1.6-1.7-3.1-2.9-4.5-3.6c-1.2-0.7-2.4-1-3.6-1
			c-0.3,0-0.7,0-0.9,0c-0.3,0-0.7,0.1-1.2,0.2c0.7-1.7,1.5-2.9,2.4-3.7c0.9-0.8,1.9-1.2,3.1-1.2c0.9,0,1.7,0.2,2.5,0.6
			c0.8,0.4,1.7,1.1,2.7,2.1c0.8,0.7,1.9,1.9,3.4,3.5c1,1.1,1.8,1.8,2.3,2.2c0.5,0.3,1.3,0.6,2.4,0.8V38.9z M333.2,43.3l-2.5,4.5
			l-4.6-2.5l2.5-4.5L333.2,43.3z"/>
		<path id="XMLID_24_" class="st1" d="M359.5,17.7c0,0.9-0.1,1.9-0.3,2.8c-0.1,0.4-0.3,1.1-0.6,2.2l-1.4-0.6c0,1.6-0.2,3.1-0.6,4.7
			c-0.4,1.6-1,3.1-1.8,4.6c0.7,1.3,1.2,2.1,1.3,2.3c0.3,0.6,0.5,1.2,0.5,1.7V36c0,0.3-0.1,1.7-0.3,4.1c-1.5,0.7-2.9,1.2-4.1,1.4
			c-1.2,0.2-3,0.3-5.3,0.3v-5.9c1.3-0.7,2.3-1.3,2.9-1.7c0.6-0.5,1.3-1.3,2.3-2.4c-1.5-1.9-2.6-3.3-3.3-4.1
			c-0.6-0.6-1.3-1.4-2.2-2.2c-0.2,0.4-0.4,0.7-0.5,0.9s-0.2,0.2-0.3,0.2c-0.3,0-0.9-0.3-1.8-0.8c-0.8-0.5-1.4-0.9-1.8-1.3
			c-0.4-0.4-0.7-1.1-1-2.2c-0.2-1.1-0.3-2.4-0.3-4c0-0.7,0-1.2,0.1-1.5c0.1-0.3,0.3-0.4,0.5-0.4c0.5,0,1.6,0.7,3.2,2.2
			c1.4,1.3,2.6,2.6,3.6,3.8c0.8,0.9,1.6,1.8,2.3,2.8c0.6,0.8,1.6,2.2,2.9,4.2c0.6-1.1,1-2.6,1.2-4.3c0.1-1.1,0.2-2.3,0.2-3.8
			c-0.5-0.2-0.8-0.4-1-0.7c-0.2-0.2-0.3-0.5-0.3-0.9c0-0.8,0.1-1.6,0.3-2.4c0.2-0.8,0.5-1.7,0.9-2.6l0.8,0.3c0,0.9,0.2,1.4,0.6,1.7
			C356.6,16.8,357.6,17.1,359.5,17.7z M346.9,12.1c-0.1,0.4-0.3,0.7-0.5,0.9c-0.1,0.1-0.4,0.3-0.7,0.4l-4.3,1.3
			c0.3-0.5,0.5-0.8,0.7-1c0.2-0.2,0.5-0.4,1-0.5c-0.4-0.2-0.6-0.5-0.8-0.7c-0.2-0.2-0.2-0.4-0.2-0.6c0-0.2,0.1-0.4,0.2-0.6
			c0.1-0.2,0.2-0.4,0.4-0.6c0.9-1.2,1.7-1.7,2.6-1.7c0.3,0,0.5,0.1,0.6,0.2c0.2,0.2,0.2,0.4,0.2,0.6c0,0.2,0,0.4-0.1,0.5
			c-0.1,0.2-0.2,0.4-0.4,0.7c-0.7-0.3-1.1-0.5-1.4-0.5c-0.2,0-0.5,0.1-0.7,0.2c-0.2,0.1-0.3,0.2-0.4,0.3c0,0.2,0.3,0.4,1,0.8
			c0.6,0.4,1.1,0.5,1.4,0.5C345.6,12.4,346.1,12.3,346.9,12.1z M354.2,35.1l-1-1.5c-0.6,0.7-1,1.1-1.3,1.4c-0.3,0.3-0.9,0.7-1.6,1.2
			c1-0.1,1.7-0.2,2.2-0.3C352.9,35.8,353.5,35.5,354.2,35.1z"/>
		<path id="XMLID_22_" class="st1" d="M367.1,33.1c0,1.2-0.1,2.3-0.4,3.2c-0.3,1-0.8,2.3-1.6,3.9l-1.2-0.5c0.3-1.7,0.5-3.1,0.5-4.2
			c0-0.8-0.1-2-0.2-3.6c-0.1-1.6-0.3-3.1-0.5-4.7c-0.2-1.5-0.5-3.4-1-5.5c-0.2-0.7-0.2-1.3-0.2-1.5c0-0.4,0.2-1.1,0.6-2.1
			c0.4-1,1-2.2,1.7-3.6l1.2,7.1c0.4,2.7,0.7,5,0.9,7C367,30.3,367.1,31.7,367.1,33.1z"/>
		<path id="XMLID_18_" class="st1" d="M399.1,39.5c0,2.6-0.1,4.4-0.4,5.2s-1,1.7-2.1,2.6c-2.4,1.9-5.8,2.8-10.2,2.8
			c-3.7,0-6.5-0.6-8.5-1.8c-2-1.2-3-2.9-3-5.2c0-2,0.3-3.7,0.9-5.3c0.7-1.8,1.9-3.9,3.8-6.5l1.2,0.8c-1.2,1.8-2.1,3.2-2.6,4.5
			c-0.5,1.2-0.8,2.4-0.8,3.5c0,1.6,0.8,2.9,2.5,3.8c1.7,0.9,4,1.4,7.1,1.4c2.7,0,5.2-0.5,7.3-1.6c2.1-1.1,3.2-2.3,3.2-3.6
			c0-0.2,0-0.4,0-0.5c0-0.2,0-0.4-0.1-0.7c-1.4,0.1-2.4,0.2-3.1,0.2c-1.5,0-2.6-0.4-3.4-1.1c-0.8-0.7-1.2-1.8-1.2-3.1
			c0-2,0.5-3.9,1.5-5.9c1.1-2.1,2.3-3.1,3.6-3.1c1.4,0,2.6,1,3.4,3.1c0.8,1.9,1.2,4.2,1.2,7.1V39.5z M398.2,19.9L396,24l-2.8-1.6
			l-1.6,3.2l-3.7-2l2.1-3.9l3,1.5l1.7-3.2L398.2,19.9z M395.4,33.5c-0.4-0.8-0.7-1.4-1.1-1.8c-0.4-0.3-0.8-0.5-1.3-0.5
			c-0.3,0-0.6,0.1-0.8,0.3c-0.2,0.2-0.3,0.5-0.3,0.8c0,0.9,0.6,1.3,1.7,1.3c0.4,0,0.7,0,0.9,0C394.7,33.6,395,33.6,395.4,33.5z"/>
		<path id="XMLID_15_" class="st1" d="M415.5,37.6c0,2.3-1,4.6-2.9,6.8s-3.9,3.4-5.8,3.4c-1.1,0-2.3-0.4-3.6-1.1
			c-1.3-0.7-3.3-2.1-6-4.2l0.8-1.2c1.4,1,2.6,1.6,3.5,1.9c0.8,0.3,1.6,0.4,2.6,0.4c1.3,0,2.6-0.4,3.8-1.1c1.5-0.9,3-2.2,4.6-4.1
			c-0.6,0.1-1,0.1-1.4,0.1c-1.3,0-2.4-0.4-3.1-1.3c-0.8-0.9-1.2-2-1.2-3.5c0-2,0.5-3.9,1.4-5.8c1-2,2.1-3,3.4-3c1.1,0,2,0.7,2.7,2.2
			c0.7,1.5,1.1,3.2,1.1,5.3V37.6z M413.1,33.5c-0.4-2.1-1.1-3.2-2.3-3.2c-0.4,0-0.7,0.2-1,0.5c-0.2,0.3-0.4,0.7-0.4,1.1
			c0,0.5,0.3,0.9,0.8,1.2c0.5,0.3,1.2,0.5,2.1,0.5H413.1z"/>
		<path id="XMLID_13_" class="st1" d="M421.9,38.9h-9.5v-5.4h9.5V38.9z"/>
		<path id="XMLID_11_" class="st1" d="M429.6,38.9h-9.5v-5.4h9.5V38.9z"/>
		<path id="XMLID_7_" class="st1" d="M442.9,38.9h-14.7v-5.4h3.6c0.6,0,1.2,0,1.7,0.1c1.5,0.2,3.1,0.3,5,0.5c-2-0.4-3.4-1-4.2-1.7
			c-0.8-0.7-1.2-1.8-1.2-3.2c0-2.1,0.5-3.9,1.4-5.6c1-1.7,2-2.5,3.2-2.5c1.3,0,2.5,1.2,3.5,3.5c1,2.3,1.5,5.1,1.5,8.4V38.9z
			 M440.4,14.9l-2.2,4.1l-2.8-1.6l-1.6,3.2l-3.7-2l2.1-3.9l3,1.5l1.7-3.2L440.4,14.9z M440.2,30.6c-0.5-1.1-1-2-1.6-2.7
			s-1.2-1-1.8-1c-0.3,0-0.5,0.1-0.7,0.3c-0.2,0.2-0.3,0.4-0.3,0.6c0,0.6,0.4,1.1,1.3,1.7C438,30.1,439,30.5,440.2,30.6z"/>
		<path id="XMLID_5_" class="st1" d="M451,38.9h-9.5v-5.4h9.5V38.9z"/>
		<path id="XMLID_3_" class="st1" d="M472.4,38.9h-22.8v-5.4h14.2c-1.6-1.7-3.1-2.9-4.5-3.6c-1.2-0.7-2.4-1-3.6-1
			c-0.3,0-0.7,0-0.9,0c-0.3,0-0.7,0.1-1.2,0.2c0.7-1.7,1.5-2.9,2.4-3.7c0.9-0.8,1.9-1.2,3.1-1.2c0.9,0,1.7,0.2,2.5,0.6
			c0.8,0.4,1.7,1.1,2.7,2.1c0.8,0.7,1.9,1.9,3.4,3.5c1,1.1,1.8,1.8,2.3,2.2c0.5,0.3,1.3,0.6,2.4,0.8V38.9z"/>
	</g>
</g>
</svg>
