<!-- Generator: Adobe Illustrator 23.1.1, SVG Export Plug-In  -->
<svg version="1.1" xmlns="http://www.w3.org/2000/svg" xmlns:xlink="http://www.w3.org/1999/xlink" x="0px" y="0px" width="99.2px"
	 height="534.7px" viewBox="0 0 99.2 534.7" style="enable-background:new 0 0 99.2 534.7;" xml:space="preserve">
<style type="text/css">
	.st0{fill:#FF4433;}
	.st1{fill:#FFFFFF;}
	.st2{fill:#1D1D1B;}
</style>
<defs>
</defs>
<g id="XMLID_1_">
	<path id="XMLID_227_" class="st0" d="M83.5,534.7H15.7C7,534.7,0,527.7,0,519V15.7C0,7,7,0,15.7,0h67.9c8.7,0,15.7,7,15.7,15.7V519
		C99.2,527.7,92.2,534.7,83.5,534.7z"/>
	<g id="XMLID_103_">
		<g>
			<path id="XMLID_163_" class="st1" d="M67.2,22.1H59c-1.6,0-2.6,0.1-3,0.3s-0.7,0.5-1,1c-0.2,0.5-0.4,1.4-0.4,2.7h-0.8v-15h0.8
				c0,1.4,0.1,2.3,0.4,2.8c0.3,0.5,0.6,0.8,1,1c0.4,0.2,1.4,0.3,3,0.3h19c1.6,0,2.6-0.1,3-0.3s0.7-0.5,1-1c0.2-0.5,0.4-1.4,0.4-2.7
				h0.8v13.6c0,3.5-0.2,6.1-0.7,7.8c-0.5,1.6-1.4,3-2.7,4c-1.3,1-2.9,1.6-4.6,1.6c-2.2,0-3.9-0.8-5.4-2.3c-0.9-1-1.6-2.4-2-4.2
				l-9.9,7c-1.3,0.9-2.1,1.6-2.4,2c-0.4,0.6-0.7,1.3-0.7,2.1h-0.8v-9.2L67.2,24V22.1z M81.6,22.1H68.7v1.2c0,2,0.2,3.5,0.6,4.5
				s1,1.8,2,2.3c1,0.6,2.2,0.9,3.7,0.9c2.2,0,3.9-0.5,4.9-1.6c1.1-1,1.6-2.7,1.6-5V22.1z"/>
			<path id="XMLID_160_" class="st1" d="M74,49.9H58c-1.4,0-2.3,0.2-2.7,0.5c-0.4,0.3-0.6,1-0.7,1.9h-0.8V41.4h0.8
				c0,0.9,0.3,1.6,0.8,2c0.3,0.3,1.2,0.4,2.6,0.4h11.8c1.4,0,2.3-0.2,2.7-0.5c0.4-0.3,0.6-1,0.7-1.9H74V49.9z M83.8,46.9
				c0,0.9-0.3,1.7-1,2.4c-0.7,0.6-1.4,1-2.4,1c-0.9,0-1.7-0.3-2.4-1c-0.6-0.7-1-1.4-1-2.4c0-0.9,0.3-1.7,1-2.4c0.6-0.6,1.4-1,2.4-1
				c0.9,0,1.7,0.3,2.4,1C83.5,45.1,83.8,45.9,83.8,46.9z"/>
			<path id="XMLID_156_" class="st1" d="M73.8,65.5v6.8h-2.4v-3.9c-0.7,0.7-1.3,1.2-1.9,1.5c-0.8,0.3-1.6,0.5-2.4,0.5
				c-1.4,0-2.7-0.4-3.7-1.2c-1.1-0.8-1.9-1.9-2.5-3.3c-0.6-1.4-0.9-2.6-0.9-3.7c0-0.1,0-0.9,0.1-2.6c0-0.6-0.2-1.2-0.6-1.6
				c-0.4-0.4-0.9-0.7-1.5-0.7c-0.5,0-0.9,0.2-1.3,0.6c-0.3,0.4-0.5,1-0.5,1.9l0,3.7c0,3-0.3,5.1-1,6.2c-0.9,1.6-2.3,2.4-4.3,2.4
				c-1.2,0-2.3-0.4-3.3-1.1c-1-0.7-1.7-1.7-2.2-3c-0.7-1.9-1.1-4-1.1-6.4c0-1.8,0.2-3.5,0.5-5c0.4-1.5,0.8-2.6,1.5-3.2
				c0.6-0.6,1.3-1,2-1c0.7,0,1.3,0.2,1.8,0.7s1,1.4,1.3,2.8c0.9-1.9,2.2-2.8,3.8-2.8c1,0,2,0.4,2.9,1.1c0.9,0.8,1.7,2,2.4,3.6
				c0.7-1.9,1.6-3.3,2.8-4.2c1.2-0.9,2.5-1.3,4-1.3c2,0,3.7,0.8,5.1,2.4c1.4,1.6,2.2,3.7,2.2,6.2C74.6,62.7,74.4,64,73.8,65.5z
				 M50.9,60.5c0-1.5-0.1-2.4-0.4-2.9c-0.4-0.8-1.1-1.2-1.8-1.2c-0.7,0-1.4,0.4-2,1.3c-0.6,0.8-0.9,2.4-0.9,4.8c0,2,0.3,3.6,0.8,4.7
				c0.5,1.1,1.3,1.7,2.2,1.7c0.4,0,0.7-0.1,0.9-0.3c0.4-0.4,0.7-1,0.9-1.8C50.8,65.9,50.9,63.9,50.9,60.5z M73.3,61.7
				c0-0.8-0.4-1.5-1.3-2.1c-0.8-0.6-2.6-0.9-5.2-0.9c-2.1,0-3.6,0.3-4.4,0.9c-0.8,0.6-1.2,1.2-1.2,2c0,0.9,0.4,1.6,1.2,2.2
				c0.8,0.6,2.3,0.9,4.6,0.9c2.6,0,4.3-0.3,5.3-1C73,63.2,73.3,62.6,73.3,61.7z"/>
			<path id="XMLID_154_" class="st1" d="M83.1,81.1H71.5c1.2,1.1,2,2.1,2.5,3c0.5,0.9,0.7,1.9,0.7,2.9c0,1.3-0.4,2.3-1.1,3.2
				C72.9,91.2,72,91.8,71,92c-1,0.3-2.6,0.4-4.9,0.4h-7.9c-1.5,0-2.5,0.1-2.9,0.4c-0.4,0.3-0.6,0.9-0.7,1.7h-0.8V84.4h0.8
				c0.1,0.7,0.4,1.3,0.9,1.6c0.4,0.3,1.3,0.4,2.7,0.4h9c1.7,0,2.7-0.1,3.1-0.2c0.4-0.1,0.8-0.3,1-0.7c0.2-0.3,0.4-0.7,0.4-1
				c0-0.6-0.2-1.1-0.6-1.7c-0.4-0.5-1.1-1.1-2.1-1.8H58.2c-1.4,0-2.3,0.1-2.7,0.3c-0.5,0.3-0.8,0.8-0.9,1.7h-0.8V72.9h0.8
				c0.1,0.8,0.4,1.5,0.8,1.8c0.3,0.2,1.2,0.4,2.8,0.4h20.5c1.5,0,2.5-0.1,2.8-0.4c0.4-0.3,0.6-0.9,0.7-1.8h0.8V81.1z"/>
			<path id="XMLID_152_" class="st1" d="M81.4,103.7H74v4.8h-2.1v-4.8H59.5c-1.2,0-1.9,0.1-2.3,0.2c-0.3,0.1-0.6,0.3-0.8,0.6
				c-0.2,0.3-0.3,0.5-0.3,0.8c0,0.9,0.7,1.8,2.1,2.7l-0.5,0.6c-2.8-1.2-4.1-3.1-4.1-5.7c0-1.3,0.4-2.4,1.1-3.2
				c0.7-0.9,1.5-1.5,2.4-1.7c0.5-0.1,1.8-0.2,4-0.2h10.9V95h0.8c1.3,1.8,2.6,3.4,4,4.6c1.4,1.3,3,2.4,4.7,3.3V103.7z"/>
			<path id="XMLID_150_" class="st1" d="M74.6,121.4l-6.9,0.3V121c2-0.9,3.4-1.8,4.2-2.7c0.7-0.9,1.1-1.9,1.1-2.8
				c0-0.6-0.2-1.1-0.6-1.5c-0.4-0.4-0.9-0.6-1.4-0.6c-0.4,0-0.8,0.1-1.1,0.4c-0.6,0.5-1.6,1.7-3,3.9c-1.4,2.1-2.6,3.5-3.6,4.2
				c-1,0.7-2.1,1-3.4,1c-1.1,0-2.2-0.3-3.3-0.8c-1.1-0.6-1.9-1.4-2.5-2.4c-0.6-1-0.9-2.2-0.9-3.4c0-1,0.3-2.3,0.9-3.9
				c0.2-0.4,0.2-0.7,0.2-0.9c0-0.5-0.4-0.9-1.1-1.2v-0.7l7.3-0.3v0.7c-1.9,0.6-3.3,1.5-4.3,2.7c-0.9,1.1-1.4,2.2-1.4,3.2
				c0,0.7,0.2,1.3,0.6,1.7c0.4,0.4,0.9,0.7,1.5,0.7c0.7,0,1.3-0.2,1.8-0.6c0.5-0.4,1.3-1.4,2.3-2.9c1.5-2.2,2.7-3.6,3.5-4.3
				c1.2-0.9,2.5-1.4,3.9-1.4c1.6,0,3,0.5,4.2,1.6c1.3,1.1,1.9,2.6,1.9,4.7c0,1.1-0.3,2.2-0.8,3.2c-0.2,0.4-0.3,0.7-0.3,0.9
				c0,0.3,0.1,0.5,0.2,0.6c0.1,0.2,0.4,0.4,0.9,0.8V121.4z"/>
			<path id="XMLID_147_" class="st1" d="M74.6,142.9c0,1.8-0.5,3.4-1.4,4.9c-0.9,1.5-2.2,2.7-3.9,3.4c-1.7,0.8-3.5,1.2-5.5,1.2
				c-2.9,0-5.3-0.7-7.2-2.2c-2.3-1.8-3.5-4.2-3.5-7.3c0-3,1.1-5.4,3.2-7c2.1-1.6,4.6-2.5,7.4-2.5c2.9,0,5.4,0.8,7.6,2.5
				C73.6,137.6,74.6,139.9,74.6,142.9z M73.1,142.9c0-0.7-0.3-1.4-0.8-1.9c-0.6-0.5-1.6-0.9-3.3-1c-1.6-0.2-3.9-0.2-6.8-0.2
				c-1.5,0-3,0.1-4.3,0.3c-1,0.2-1.8,0.5-2.3,1c-0.5,0.5-0.8,1.1-0.8,1.8c0,0.6,0.2,1.2,0.5,1.6c0.5,0.6,1.2,0.9,2.1,1.1
				c1.4,0.3,4.1,0.4,8.3,0.4c2.4,0,4.1-0.1,5-0.4c0.9-0.3,1.6-0.7,2-1.2C73,144,73.1,143.6,73.1,142.9z"/>
			<path id="XMLID_145_" class="st1" d="M71.9,162.5h-14c-1.4,0-2.2,0.1-2.5,0.4c-0.5,0.5-0.8,1.3-0.7,2.5h-0.8v-11.9h0.8
				c0,0.9,0.1,1.6,0.3,1.9c0.2,0.4,0.5,0.6,0.8,0.8c0.3,0.1,1.1,0.2,2.2,0.2h14v-2.9H74v2.9h1.5l1,0c2.1,0,3.8,0.8,5.2,2.3
				c1.4,1.5,2.1,3.6,2.1,6.2c0,1.8-0.3,3.1-1,3.9c-0.7,0.9-1.4,1.3-2.2,1.3c-0.6,0-1.2-0.3-1.7-0.8c-0.5-0.5-0.7-1.2-0.7-2.1
				c0-0.7,0.2-1.3,0.6-1.8c0.4-0.4,0.8-0.7,1.3-0.7c0.1,0,0.4,0,0.8,0.1c0.2,0.1,0.5,0.1,0.7,0.1c0.3,0,0.5-0.1,0.7-0.3
				c0.2-0.2,0.3-0.5,0.3-0.8c0-0.4-0.2-0.8-0.5-1c-0.3-0.3-0.9-0.4-1.7-0.4l-3.8,0H74v3h-2.1V162.5z"/>
			<path id="XMLID_143_" class="st1" d="M81.4,186.6h-12v0.8c0,1.3,0.2,2.4,0.6,3.2c0.4,0.8,1,1.5,2,2.1c0.9,0.6,2.2,0.9,3.7,1.1
				v0.8H61v-0.8c2.8-0.3,4.6-1,5.5-2.2c0.9-1.2,1.3-2.6,1.3-4.1v-0.8h-9c-1.5,0-2.4,0.1-2.8,0.2c-0.4,0.2-0.7,0.5-1,1
				c-0.3,0.5-0.4,1.1-0.4,2v1h-0.8v-15.3h0.8v1c0,0.8,0.2,1.5,0.5,2.1c0.2,0.4,0.5,0.7,1,0.9c0.3,0.2,1.3,0.2,2.7,0.2h19.3
				c1.5,0,2.4-0.1,2.8-0.2c0.4-0.2,0.7-0.5,1-1c0.3-0.5,0.4-1.1,0.4-2v-1h0.8v24.7h-8.4v-0.9c2-0.2,3.4-0.7,4.4-1.5
				c0.9-0.8,1.6-2,2-3.6c0.2-0.9,0.3-2.5,0.3-4.8V186.6z"/>
			<path id="XMLID_141_" class="st1" d="M74,220.6H58.2c-1.5,0-2.5,0.1-2.9,0.4c-0.4,0.3-0.6,0.9-0.7,1.7h-0.8v-8.2h2.7
				c-1.2-1-2-1.9-2.5-2.9c-0.5-1-0.8-2-0.8-3.2c0-1.1,0.3-2.1,1-3c0.7-0.9,1.5-1.5,2.5-1.8c0.9-0.3,2.6-0.5,4.9-0.5h8
				c1.5,0,2.5-0.1,2.8-0.4c0.4-0.3,0.6-0.9,0.7-1.8H74v8.2H60.3c-1.4,0-2.4,0.1-2.8,0.2c-0.4,0.1-0.7,0.4-0.9,0.6
				c-0.2,0.3-0.3,0.6-0.3,1c0,0.5,0.1,1,0.4,1.4c0.4,0.6,1.1,1.3,2.3,2.1h10.8c1.5,0,2.5-0.1,2.8-0.4c0.4-0.3,0.6-0.9,0.7-1.8H74
				V220.6z"/>
			<path id="XMLID_139_" class="st1" d="M81.4,232H74v4.8h-2.1V232H59.5c-1.2,0-1.9,0.1-2.3,0.2c-0.3,0.1-0.6,0.3-0.8,0.6
				c-0.2,0.3-0.3,0.5-0.3,0.8c0,0.9,0.7,1.8,2.1,2.7l-0.5,0.6c-2.8-1.2-4.1-3.1-4.1-5.7c0-1.3,0.4-2.4,1.1-3.2s1.5-1.4,2.4-1.7
				c0.5-0.1,1.8-0.2,4-0.2h10.9v-2.6h0.8c1.3,1.8,2.6,3.4,4,4.6c1.4,1.3,3,2.4,4.7,3.3V232z"/>
			<path id="XMLID_137_" class="st1" d="M74,256.4H58.2c-1.5,0-2.5,0.1-2.9,0.4c-0.4,0.3-0.6,0.9-0.7,1.7h-0.8v-8.2h2.7
				c-1.2-1-2-1.9-2.5-2.9c-0.5-1-0.8-2-0.8-3.2c0-1.1,0.3-2.1,1-3c0.7-0.9,1.5-1.5,2.5-1.8c0.9-0.3,2.6-0.5,4.9-0.5h8
				c1.5,0,2.5-0.1,2.8-0.4c0.4-0.3,0.6-0.9,0.7-1.8H74v8.2H60.3c-1.4,0-2.4,0.1-2.8,0.2c-0.4,0.1-0.7,0.4-0.9,0.6
				c-0.2,0.3-0.3,0.6-0.3,1c0,0.5,0.1,1,0.4,1.4c0.4,0.6,1.1,1.3,2.3,2.1h10.8c1.5,0,2.5-0.1,2.8-0.4c0.4-0.3,0.6-0.9,0.7-1.8H74
				V256.4z"/>
			<path id="XMLID_135_" class="st1" d="M74,268.1h-4.6c2.1,1.3,3.5,2.5,4.2,3.5c0.7,1,1,2,1,2.9c0,0.8-0.2,1.4-0.7,1.9
				c-0.5,0.5-1.2,0.7-2.1,0.7c-1,0-1.7-0.2-2.2-0.7c-0.5-0.5-0.8-1-0.8-1.7c0-0.8,0.2-1.4,0.7-2c0.5-0.6,0.8-0.9,0.8-1
				c0.1-0.1,0.1-0.3,0.1-0.5c0-0.4-0.2-0.8-0.5-1.2c-0.5-0.6-1.2-1-2.1-1.3c-1.4-0.5-2.9-0.7-4.6-0.7h-4.6l-1.2,0
				c-0.8,0-1.3,0-1.6,0.2c-0.4,0.2-0.7,0.4-0.9,0.8c-0.2,0.3-0.3,0.9-0.3,1.7h-0.8v-10.9h0.8c0.1,0.9,0.3,1.5,0.7,1.8
				c0.4,0.3,1.5,0.5,3.2,0.5h11.2c1.2,0,1.9-0.1,2.2-0.2c0.4-0.1,0.7-0.4,0.9-0.6c0.2-0.3,0.3-0.8,0.4-1.4H74V268.1z"/>
			<path id="XMLID_132_" class="st1" d="M64.7,293.9v-11.1c-2.7,0.1-4.8,0.8-6.3,2.1c-1.2,1-1.8,2.2-1.8,3.6c0,0.9,0.2,1.6,0.7,2.4
				c0.5,0.7,1.3,1.5,2.6,2.3l-0.5,0.7c-2.2-1.1-3.8-2.3-4.7-3.6c-0.9-1.3-1.4-2.9-1.4-4.6c0-3,1.2-5.3,3.5-6.8
				c1.9-1.2,4.2-1.9,6.9-1.9c3.4,0,6,0.9,8,2.7c2,1.8,3,4,3,6.4c0,2-0.8,3.8-2.5,5.3C70.5,293,68,293.8,64.7,293.9z M66.1,288.6
				c2.3,0,3.9-0.1,4.8-0.4c0.9-0.3,1.5-0.6,2-1.2c0.3-0.3,0.4-0.7,0.4-1.2c0-0.7-0.4-1.4-1.1-1.8c-1.3-0.8-3-1.3-5.3-1.3h-0.8V288.6
				z"/>
			<path id="XMLID_130_" class="st1" d="M83.8,333H73.5v-0.8c2.8-1,5-2.4,6.4-4.3s2.2-4,2.2-6.3c0-2.2-0.6-4-1.8-5.5
				c-1.2-1.5-2.9-2.5-5.1-3.1c-2.2-0.6-4.5-0.9-6.8-0.9c-2.8,0-5.3,0.3-7.4,1c-2.1,0.7-3.7,1.7-4.7,3.2c-1,1.5-1.5,3.2-1.5,5.3
				c0,0.7,0.1,1.4,0.2,2.2c0.2,0.7,0.4,1.5,0.7,2.3h6.1c1.2,0,1.9-0.1,2.2-0.2c0.3-0.2,0.6-0.5,0.9-1c0.3-0.5,0.4-1.1,0.4-1.8v-0.8
				h0.8v14.2h-0.8c-0.1-1.1-0.2-1.8-0.4-2.3c-0.2-0.4-0.6-0.8-1.1-1c-0.3-0.1-0.9-0.2-2-0.2h-6.1c-0.8-1.9-1.5-3.8-1.9-5.8
				c-0.4-2-0.6-4.1-0.6-6.3c0-2.8,0.4-5.1,1.1-6.9s1.7-3.5,3-4.9s2.6-2.5,4.2-3.3c2-1,4.2-1.5,6.7-1.5c4.4,0,8.1,1.5,11.2,4.6
				c3,3.1,4.6,7,4.6,11.7c0,1.5-0.1,2.8-0.3,3.9c-0.1,0.6-0.4,1.7-1,3.1c-0.5,1.4-0.8,2.3-0.8,2.5c0,0.4,0.1,0.8,0.4,1.1
				c0.3,0.3,0.9,0.7,1.7,0.9V333z"/>
			<path id="XMLID_127_" class="st1" d="M64.7,353.7v-11.1c-2.7,0.1-4.8,0.8-6.3,2.1c-1.2,1-1.8,2.2-1.8,3.6c0,0.9,0.2,1.6,0.7,2.4
				c0.5,0.7,1.3,1.5,2.6,2.3l-0.5,0.7c-2.2-1.1-3.8-2.3-4.7-3.6s-1.4-2.9-1.4-4.6c0-3,1.2-5.3,3.5-6.8c1.9-1.2,4.2-1.9,6.9-1.9
				c3.4,0,6,0.9,8,2.7c2,1.8,3,4,3,6.4c0,2-0.8,3.8-2.5,5.3C70.5,352.7,68,353.5,64.7,353.7z M66.1,348.3c2.3,0,3.9-0.1,4.8-0.4
				c0.9-0.3,1.5-0.6,2-1.2c0.3-0.3,0.4-0.7,0.4-1.2c0-0.7-0.4-1.4-1.1-1.8c-1.3-0.8-3-1.3-5.3-1.3h-0.8V348.3z"/>
			<path id="XMLID_125_" class="st1" d="M74,362.7h-2.6c1.1,1,1.9,2,2.5,3c0.5,0.9,0.8,2,0.8,3.1c0,1.3-0.4,2.4-1.1,3.3
				c-0.7,0.9-1.6,1.4-2.7,1.7c-0.8,0.2-2.4,0.3-4.7,0.3h-7.9c-1.6,0-2.5,0.1-2.9,0.4c-0.4,0.3-0.6,0.9-0.7,1.8h-0.8V366h0.8
				c0.1,0.8,0.4,1.3,0.9,1.6c0.4,0.2,1.3,0.3,2.7,0.3h9c1.7,0,2.7-0.1,3.1-0.2c0.4-0.1,0.8-0.3,1-0.7c0.2-0.3,0.4-0.7,0.4-1
				c0-1.2-0.9-2.4-2.7-3.5H58.3c-1.5,0-2.5,0.1-2.9,0.4c-0.4,0.3-0.7,0.8-0.8,1.6h-0.8v-10.2h0.8c0.1,0.8,0.4,1.5,0.8,1.8
				c0.3,0.2,1.3,0.4,2.8,0.4h11.4c1.5,0,2.5-0.1,2.8-0.4c0.4-0.3,0.6-0.9,0.7-1.8H74V362.7z"/>
			<path id="XMLID_122_" class="st1" d="M64.7,394.3v-11.1c-2.7,0.1-4.8,0.8-6.3,2.1c-1.2,1-1.8,2.2-1.8,3.6c0,0.9,0.2,1.6,0.7,2.4
				c0.5,0.7,1.3,1.5,2.6,2.3l-0.5,0.7c-2.2-1.1-3.8-2.3-4.7-3.6c-0.9-1.3-1.4-2.9-1.4-4.6c0-3,1.2-5.3,3.5-6.8
				c1.9-1.2,4.2-1.9,6.9-1.9c3.4,0,6,0.9,8,2.7c2,1.8,3,4,3,6.4c0,2-0.8,3.8-2.5,5.3C70.5,393.4,68,394.2,64.7,394.3z M66.1,389
				c2.3,0,3.9-0.1,4.8-0.4c0.9-0.3,1.5-0.6,2-1.2c0.3-0.3,0.4-0.7,0.4-1.2c0-0.7-0.4-1.4-1.1-1.8c-1.3-0.8-3-1.3-5.3-1.3h-0.8V389z"
				/>
			<path id="XMLID_120_" class="st1" d="M74,403.5h-4.6c2.1,1.3,3.5,2.5,4.2,3.5c0.7,1,1,2,1,2.9c0,0.8-0.2,1.4-0.7,1.9
				c-0.5,0.5-1.2,0.7-2.1,0.7c-1,0-1.7-0.2-2.2-0.7c-0.5-0.5-0.8-1-0.8-1.7c0-0.8,0.2-1.4,0.7-2c0.5-0.6,0.8-0.9,0.8-1
				c0.1-0.1,0.1-0.3,0.1-0.5c0-0.4-0.2-0.8-0.5-1.2c-0.5-0.6-1.2-1-2.1-1.3c-1.4-0.5-2.9-0.7-4.6-0.7h-4.6l-1.2,0
				c-0.8,0-1.3,0.1-1.6,0.2c-0.4,0.2-0.7,0.4-0.9,0.8c-0.2,0.3-0.3,0.9-0.3,1.7h-0.8v-10.9h0.8c0.1,0.9,0.3,1.5,0.7,1.8
				s1.5,0.5,3.2,0.5h11.2c1.2,0,1.9-0.1,2.2-0.2c0.4-0.1,0.7-0.4,0.9-0.6c0.2-0.3,0.3-0.8,0.4-1.4H74V403.5z"/>
			<path id="XMLID_117_" class="st1" d="M56.8,424.1c-2.2-2.5-3.3-4.7-3.3-6.6c0-1.2,0.4-2.1,1.1-2.9c0.8-0.8,1.7-1.1,2.8-1.1
				c1.5,0,2.9,0.7,4.2,2s2.9,4.2,4.9,8.7h2c1.5,0,2.5-0.1,2.9-0.2c0.4-0.2,0.7-0.5,1-0.9c0.3-0.5,0.4-1,0.4-1.6
				c0-0.9-0.2-1.7-0.6-2.3c-0.3-0.4-0.6-0.6-0.9-0.6c-0.3,0-0.7,0.2-1.1,0.6c-0.6,0.5-1.2,0.8-1.8,0.8c-0.7,0-1.3-0.3-1.8-0.8
				c-0.5-0.5-0.7-1.2-0.7-2.1c0-0.9,0.3-1.7,0.8-2.3c0.5-0.6,1.2-0.9,1.9-0.9c1,0,2,0.4,3,1.2c0.9,0.8,1.7,2,2.2,3.4
				c0.5,1.5,0.8,3,0.8,4.6c0,1.9-0.4,3.4-1.2,4.5c-0.8,1.1-1.7,1.8-2.6,2.2c-0.6,0.2-2,0.3-4.2,0.3h-7.8c-0.9,0-1.5,0-1.7,0.1
				c-0.2,0.1-0.4,0.2-0.5,0.3c-0.1,0.1-0.2,0.3-0.2,0.5c0,0.4,0.3,0.8,0.8,1.1l-0.5,0.6c-1.1-0.7-1.8-1.5-2.3-2.2
				c-0.5-0.8-0.7-1.6-0.7-2.6c0-1.2,0.3-2.1,0.8-2.7C54.9,424.6,55.7,424.2,56.8,424.1z M58.4,424.1h6.8c-1-1.7-2.1-3-3.3-3.9
				c-0.8-0.6-1.6-0.8-2.4-0.8c-0.7,0-1.2,0.2-1.7,0.7c-0.4,0.4-0.6,0.9-0.6,1.5C57.2,422.3,57.6,423.1,58.4,424.1z"/>
			<path id="XMLID_115_" class="st1" d="M81.4,441.3H74v4.8h-2.1v-4.8H59.5c-1.2,0-1.9,0.1-2.3,0.2c-0.3,0.1-0.6,0.3-0.8,0.6
				c-0.2,0.3-0.3,0.5-0.3,0.8c0,0.9,0.7,1.8,2.1,2.7l-0.5,0.6c-2.8-1.2-4.1-3.1-4.1-5.7c0-1.3,0.4-2.4,1.1-3.2s1.5-1.4,2.4-1.7
				c0.5-0.1,1.8-0.2,4-0.2h10.9v-2.6h0.8c1.3,1.8,2.6,3.4,4,4.6c1.4,1.3,3,2.4,4.7,3.3V441.3z"/>
			<path id="XMLID_112_" class="st1" d="M74,454.1H58c-1.4,0-2.3,0.2-2.7,0.5c-0.4,0.3-0.6,1-0.7,1.9h-0.8v-10.9h0.8
				c0,0.9,0.3,1.6,0.8,2c0.3,0.3,1.2,0.4,2.6,0.4h11.8c1.4,0,2.3-0.2,2.7-0.5c0.4-0.3,0.6-1,0.7-1.9H74V454.1z M83.8,451.1
				c0,0.9-0.3,1.7-1,2.4c-0.7,0.6-1.4,1-2.4,1c-0.9,0-1.7-0.3-2.4-1c-0.6-0.7-1-1.4-1-2.4c0-0.9,0.3-1.7,1-2.4c0.6-0.6,1.4-1,2.4-1
				c0.9,0,1.7,0.3,2.4,1C83.5,449.4,83.8,450.2,83.8,451.1z"/>
			<path id="XMLID_109_" class="st1" d="M74.6,466.3c0,1.8-0.5,3.4-1.4,4.9c-0.9,1.5-2.2,2.7-3.9,3.4c-1.7,0.8-3.5,1.2-5.5,1.2
				c-2.9,0-5.3-0.7-7.2-2.2c-2.3-1.8-3.5-4.2-3.5-7.3c0-3,1.1-5.4,3.2-7c2.1-1.6,4.6-2.5,7.4-2.5c2.9,0,5.4,0.8,7.6,2.5
				C73.6,461,74.6,463.3,74.6,466.3z M73.1,466.4c0-0.7-0.3-1.4-0.8-1.9c-0.6-0.5-1.6-0.9-3.3-1c-1.6-0.2-3.9-0.2-6.8-0.2
				c-1.5,0-3,0.1-4.3,0.3c-1,0.2-1.8,0.5-2.3,1c-0.5,0.5-0.8,1.1-0.8,1.8c0,0.6,0.2,1.2,0.5,1.6c0.5,0.6,1.2,0.9,2.1,1.1
				c1.4,0.3,4.1,0.4,8.3,0.4c2.4,0,4.1-0.1,5-0.4c0.9-0.3,1.6-0.7,2-1.2C73,467.4,73.1,467,73.1,466.4z"/>
			<path id="XMLID_107_" class="st1" d="M74,485.3h-2.6c1.1,1,1.9,2,2.5,3c0.5,0.9,0.8,2,0.8,3.1c0,1.3-0.4,2.4-1.1,3.3
				c-0.7,0.9-1.6,1.4-2.7,1.7c-0.8,0.2-2.4,0.3-4.7,0.3h-7.9c-1.6,0-2.5,0.1-2.9,0.4c-0.4,0.3-0.6,0.9-0.7,1.8h-0.8v-10.2h0.8
				c0.1,0.8,0.4,1.3,0.9,1.6c0.4,0.2,1.3,0.3,2.7,0.3h9c1.7,0,2.7-0.1,3.1-0.2c0.4-0.1,0.8-0.3,1-0.7c0.2-0.3,0.4-0.7,0.4-1
				c0-1.2-0.9-2.4-2.7-3.5H58.3c-1.5,0-2.5,0.1-2.9,0.4c-0.4,0.3-0.7,0.8-0.8,1.6h-0.8v-10.2h0.8c0.1,0.8,0.4,1.5,0.8,1.8
				c0.3,0.2,1.3,0.4,2.8,0.4h11.4c1.5,0,2.5-0.1,2.8-0.4c0.4-0.3,0.6-0.9,0.7-1.8H74V485.3z"/>
			<path id="XMLID_105_" class="st1" d="M74.6,512.7l-6.9,0.3v-0.7c2-0.9,3.4-1.8,4.2-2.7c0.7-0.9,1.1-1.9,1.1-2.8
				c0-0.6-0.2-1.1-0.6-1.5c-0.4-0.4-0.9-0.6-1.4-0.6c-0.4,0-0.8,0.1-1.1,0.4c-0.6,0.5-1.6,1.7-3,3.9c-1.4,2.1-2.6,3.5-3.6,4.2
				c-1,0.7-2.1,1-3.4,1c-1.1,0-2.2-0.3-3.3-0.8c-1.1-0.6-1.9-1.4-2.5-2.4c-0.6-1-0.9-2.2-0.9-3.4c0-1,0.3-2.3,0.9-3.9
				c0.2-0.4,0.2-0.7,0.2-0.9c0-0.5-0.4-0.9-1.1-1.2v-0.7l7.3-0.3v0.7c-1.9,0.6-3.3,1.5-4.3,2.7c-0.9,1.1-1.4,2.2-1.4,3.2
				c0,0.7,0.2,1.3,0.6,1.7c0.4,0.4,0.9,0.7,1.5,0.7c0.7,0,1.3-0.2,1.8-0.6c0.5-0.4,1.3-1.4,2.3-2.9c1.5-2.2,2.7-3.6,3.5-4.3
				c1.2-0.9,2.5-1.4,3.9-1.4c1.6,0,3,0.5,4.2,1.6c1.3,1.1,1.9,2.6,1.9,4.7c0,1.1-0.3,2.2-0.8,3.2c-0.2,0.4-0.3,0.7-0.3,0.9
				c0,0.3,0.1,0.5,0.2,0.6c0.1,0.2,0.4,0.4,0.9,0.8V512.7z"/>
		</g>
	</g>
	<g id="XMLID_2_">
		<path id="XMLID_99_" class="st2" d="M6.6,501.5l4,2.4l-1.7,3.1l3.4,1.7l-2.2,4l-3.8-2.2l1.6-3.2l-3.3-1.9L6.6,501.5z M36.9,496.5
			v2.8c0,0.5-0.1,1-0.3,1.4c-0.4,0.8-1.2,1.5-2.3,2.1c-1.5,0.8-3.6,1.3-6.3,1.5c1.2,1,2.1,1.7,2.6,2.3c0.7,0.8,1.1,1.5,1.1,2
			c0,0.3,0,0.6-0.1,1l-0.5,2.6c-0.2,1.1-0.4,1.8-0.5,2.1s-0.3,0.4-0.5,0.4c-0.4,0-1.6-0.5-3.7-1.5s-3.3-1.7-3.8-2.2
			c-0.4-0.4-0.9-1-1.5-1.9c-0.4-0.5-0.9-1.3-1.4-2.3l-0.7-1.1c-0.2,0-0.4,0.1-0.6,0.1c-0.2,0-0.4,0-0.6,0c-0.5,0-1.2-0.1-2.1-0.4
			c-0.8-0.3-1.9-0.7-3.1-1.3l13.5-2.1c2.1-0.3,3.5-0.8,4.3-1.3c0.5-0.3,0.7-0.8,0.7-1.4v-2.8H36.9z M24.7,504.9l-2.6,0.4
			c0.2,0.5,0.4,0.8,0.5,1.1c0.4,0.8,0.8,1.4,1.2,1.9c0.3,0.3,0.6,0.6,0.8,0.9c0.3,0.3,0.6,0.4,0.7,0.4c0.2,0,0.4-0.3,0.5-0.8
			s0.2-1,0.2-1.5c0-0.3-0.1-0.6-0.3-1C25.5,506,25.1,505.5,24.7,504.9z"/>
		<path id="XMLID_97_" class="st2" d="M36.9,487.7V498H31v-10.3H36.9z"/>
		<path id="XMLID_95_" class="st2" d="M36.9,479v10.3H31V479H36.9z"/>
		<path id="XMLID_93_" class="st2" d="M36.9,473.3v10.3H31v-10.3H36.9z"/>
		<path id="XMLID_91_" class="st2" d="M36.9,466.8V477H31v-10.3H36.9z"/>
		<path id="XMLID_89_" class="st2" d="M36.9,458.4v10.3H31v-10.3H36.9z"/>
		<path id="XMLID_87_" class="st2" d="M36.9,449.7v10.3H31v-10.3H36.9z"/>
		<path id="XMLID_85_" class="st2" d="M36.9,440.9v10.3H31v-10.3H36.9z"/>
		<path id="XMLID_83_" class="st2" d="M36.9,432.1v10.3H31v-10.3H36.9z"/>
		<path id="XMLID_81_" class="st2" d="M36.9,423.4v10.3H31v-10.3H36.9z"/>
		<path id="XMLID_79_" class="st2" d="M36.9,414.6v10.3H31v-10.3H36.9z"/>
		<path id="XMLID_77_" class="st2" d="M36.9,405.9v10.3H31v-10.3H36.9z"/>
		<path id="XMLID_75_" class="st2" d="M36.9,397.1v10.3H31v-10.3H36.9z"/>
		<path id="XMLID_73_" class="st2" d="M36.9,388.3v10.3H31v-10.3H36.9z"/>
		<path id="XMLID_71_" class="st2" d="M36.9,379.6v10.3H31v-10.3H36.9z"/>
		<path id="XMLID_68_" class="st2" d="M36.8,361.2c0,1.5-0.3,3.3-0.9,5.3c-0.5,1.8-1.1,3.4-1.8,4.7c1.3,0.8,2.1,1.9,2.5,3.1
			c0.2,0.6,0.3,1.4,0.3,2.4v4.3H31v-4.3c0-1.3-0.2-2.3-0.5-3.1c-0.4-1-1.1-1.7-2.1-2c-1.8-0.8-3.3-1.9-4.5-3.2
			c-1.1-1.1-1.6-2.1-1.6-2.9c0-0.7,1.1-1.6,3.3-2.7c2.3-1.1,4.5-1.7,6.5-1.7H36.8z M30.3,365.2c-0.3,0-0.9,0.3-1.6,0.9
			c-0.9,0.7-1.3,1.3-1.3,1.8c0,0.6,0.6,1,1.9,1.4c0.3-0.7,0.5-1.3,0.6-1.7c0.4-1.2,0.6-1.8,0.6-2C30.6,365.4,30.5,365.2,30.3,365.2z
			"/>
		<path id="XMLID_66_" class="st2" d="M36.9,346.5v9.8c0,0.9-0.2,1.7-0.6,2.2c-0.5,0.6-1.3,0.9-2.4,0.9c-0.6,0-1.3,0-2.1-0.1
			s-1.5-0.2-2.2-0.3l0-0.8c0.5-0.1,0.9-0.4,1.1-0.8c0.2-0.4,0.3-0.9,0.3-1.4v-7.4c-2.1,0.3-3.8,0.9-5.1,1.7c-1.1,0.7-2,1.6-2.7,2.8
			l-6.7-1.6c1.4-1.9,3.2-3.2,5.4-4c2-0.7,4.7-1.1,8.1-1.1H36.9z"/>
		<path id="XMLID_64_" class="st2" d="M36.9,336.6v3c0,1.7-0.7,2.9-2.1,3.6c-1.5,0.8-4.1,1.3-7.7,1.3h-6.2c-1.4,0-2.5,0.2-3.3,0.6
			c-0.4,0.2-0.9,0.6-1.6,1.3l-5.4-2.3c1.2-0.8,2.3-1.4,3.4-1.7c1.3-0.4,3-0.6,5-0.6h4.3c3,0,5.1-0.2,6.3-0.6
			c0.9-0.3,1.4-0.8,1.4-1.5v-3H36.9z"/>
		<path id="XMLID_60_" class="st2" d="M10.9,324.9l4.4,2.4l-1.7,3.1l3.4,1.7l-2.2,4l-4.2-2.2l1.6-3.2l-3.5-1.8L10.9,324.9z
			 M36.9,322.2v15.8H31v-3.9c0-0.7,0-1.3,0.1-1.9c0.2-1.6,0.4-3.4,0.6-5.4c-0.5,2.1-1.1,3.6-1.9,4.5s-1.9,1.3-3.4,1.3
			c-2.2,0-4.2-0.5-6-1.5c-1.8-1-2.7-2.2-2.7-3.5c0-1.5,1.3-2.7,3.8-3.8s5.5-1.6,9.1-1.6H36.9z M27.9,325.2c-1.2,0.5-2.2,1.1-2.9,1.7
			c-0.7,0.6-1,1.3-1,1.9c0,0.3,0.1,0.5,0.3,0.8c0.2,0.2,0.4,0.3,0.7,0.3c0.6,0,1.2-0.5,1.8-1.4C27.3,327.6,27.7,326.5,27.9,325.2z"
			/>
		<path id="XMLID_58_" class="st2" d="M36.9,311.9v11.9H31v-9.3l-14.7,2.6l-0.9,1.4c-0.8,0-1.7-0.1-2.6-0.4
			c-1.1-0.3-2.4-0.9-3.9-1.7l0.5-1c0.1,0,0.3,0,0.7,0.1c0.5,0,0.9-0.3,1.4-0.9c0.4-0.5,0.8-1.4,1.3-2.5c0.9,0.1,1.8,0.3,2.7,0.6
			c0.9,0.3,1.7,0.5,2.4,0.9l-0.3,0.8l13.4-2.4H36.9z"/>
		<path id="XMLID_56_" class="st2" d="M30.6,304.3c1.3,0,2.5,0.2,3.5,0.5c1.1,0.3,2.5,0.9,4.3,1.7l-0.5,1.3
			c-1.8-0.3-3.3-0.5-4.5-0.5c-0.9,0-2.2,0.1-3.9,0.2c-1.7,0.1-3.4,0.3-5,0.5c-1.7,0.2-3.6,0.6-5.9,1.1c-0.8,0.2-1.4,0.3-1.7,0.3
			c-0.4,0-1.2-0.2-2.3-0.7c-1.1-0.4-2.4-1.1-3.9-1.9l7.6-1.3c2.9-0.5,5.4-0.8,7.6-1C27.5,304.4,29.1,304.3,30.6,304.3z"/>
		<path id="XMLID_54_" class="st2" d="M36.3,275c2.2,0,4.2,1.2,5.9,3.5s2.6,4.9,2.6,7.9c0,2.5-0.6,4.4-1.9,5.8
			c-1.2,1.4-3,2.1-5.2,2.1c-2.1,0-3.9-0.3-5.5-0.8c-1.8-0.6-3.9-1.7-6.5-3.5l0.9-1.3c1.7,1.1,3.1,1.9,4.4,2.4
			c1.2,0.5,2.5,0.7,3.7,0.7c1.3,0,2.3-0.5,3-1.5c0.7-1,1.1-2.3,1.1-4.1c0-2.5-0.5-4.6-1.5-6.2c-1-1.6-2.3-2.4-3.8-2.4
			c-0.3,0-0.5,0-0.6,0c-0.2,0-0.3,0-0.4,0c-0.6,0-1.2,0-1.9,0.1c-0.7,0.1-2.1,0.3-4.2,0.7c-3.4,0.6-6.8,1.2-10.3,1.9l-0.8,1.1
			c-1.4,0-3.6-0.7-6.5-2l0.5-1c0.2,0.1,0.4,0.1,0.7,0.1c0.6,0,1-0.3,1.4-0.9c0.5-0.9,1-1.7,1.4-2.5c1.2,0.2,2.1,0.3,2.7,0.5
			c0.5,0.2,1.3,0.5,2.4,1l-0.3,0.6c0.2,0,1.4-0.2,3.7-0.6s4.2-0.8,5.8-1c2.3-0.4,3.7-0.6,4.3-0.6H36.3z"/>
		<path id="XMLID_52_" class="st2" d="M36.9,265.1v3c0,1.7-0.7,2.9-2.1,3.6c-1.5,0.8-4.1,1.3-7.7,1.3h-6.2c-1.4,0-2.5,0.2-3.3,0.6
			c-0.4,0.2-0.9,0.6-1.6,1.3l-5.4-2.3c1.2-0.8,2.3-1.4,3.4-1.7c1.3-0.4,3-0.6,5-0.6h4.3c3,0,5.1-0.2,6.3-0.6
			c0.9-0.3,1.4-0.8,1.4-1.5v-3H36.9z"/>
		<path id="XMLID_50_" class="st2" d="M36.9,256.3v10.3H31v-10.3H36.9z"/>
		<path id="XMLID_48_" class="st2" d="M36.9,248.9v10.3H31v-10.3H36.9z"/>
		<path id="XMLID_46_" class="st2" d="M36.9,240.5v10.3H31v-10.3H36.9z"/>
		<path id="XMLID_44_" class="st2" d="M36.9,231.8V242H31v-10.3H36.9z"/>
		<path id="XMLID_42_" class="st2" d="M36.9,223v10.3H31V223H36.9z"/>
		<path id="XMLID_40_" class="st2" d="M36.9,214.2v10.3H31v-10.3H36.9z"/>
		<path id="XMLID_38_" class="st2" d="M36.9,205.5v10.3H31v-10.3H36.9z"/>
		<path id="XMLID_36_" class="st2" d="M36.9,196.7V207H31v-10.3H36.9z"/>
		<path id="XMLID_33_" class="st2" d="M36.9,184.7v13.5H31v-11.4c-1,0.2-1.8,0.4-2.5,0.9c-0.4,0.2-1,0.7-1.9,1.5l-5.1-1.7
			c1.2-1.1,2.5-1.8,3.8-2.2c1.3-0.4,3.3-0.6,6-0.6H36.9z M40.7,185.1l4.4,2.4l-1.7,3.1l3.4,1.7l-2.2,4l-4.2-2.2l1.6-3.2l-3.5-1.8
			L40.7,185.1z"/>
		<path id="XMLID_30_" class="st2" d="M36.9,161.6v24.7H31v-15.3c-1.8,1.7-3.1,3.4-3.9,4.8c-0.7,1.3-1.1,2.6-1.1,3.8
			c0,0.4,0,0.7,0.1,1c0,0.3,0.1,0.8,0.2,1.3c-1.8-0.8-3.2-1.7-4-2.6c-0.9-1-1.3-2.1-1.3-3.3c0-0.9,0.2-1.9,0.7-2.7
			c0.5-0.9,1.2-1.9,2.2-3c0.8-0.9,2.1-2.1,3.8-3.7c1.2-1.1,2-1.9,2.4-2.5c0.4-0.6,0.7-1.4,0.9-2.6H36.9z M41.6,169.6l4.9,2.7l-2.7,5
			l-4.9-2.7L41.6,169.6z"/>
		<path id="XMLID_26_" class="st2" d="M7.9,154.8c0.5,0.1,0.8,0.3,1,0.5c0.2,0.2,0.3,0.4,0.4,0.7l1.4,4.7c-0.5-0.3-0.9-0.5-1.1-0.8
			c-0.2-0.2-0.4-0.6-0.6-1.1c-0.3,0.4-0.5,0.7-0.7,0.9c-0.2,0.2-0.4,0.3-0.7,0.3c-0.2,0-0.4-0.1-0.6-0.2c-0.2-0.1-0.5-0.3-0.7-0.5
			c-1.3-0.9-1.9-1.9-1.9-2.8c0-0.3,0.1-0.5,0.3-0.7c0.2-0.2,0.4-0.2,0.7-0.2c0.2,0,0.4,0,0.6,0.1c0.2,0.1,0.4,0.2,0.7,0.4
			c-0.4,0.7-0.5,1.2-0.5,1.5s0.1,0.5,0.2,0.8c0.1,0.2,0.2,0.3,0.3,0.5c0.2,0,0.5-0.3,0.9-1c0.4-0.7,0.6-1.2,0.6-1.5
			C8.2,156.1,8.1,155.6,7.9,154.8z M13.9,141.2c1,0,2,0.1,3,0.3c0.4,0.1,1.2,0.3,2.4,0.6l-0.6,1.6c1.7,0,3.4,0.2,5.1,0.6
			c1.7,0.4,3.3,1.1,5,1.9c1.4-0.8,2.3-1.3,2.5-1.4c0.7-0.3,1.3-0.5,1.8-0.5h0.7c0.4,0,1.8,0.1,4.4,0.3c0.8,1.6,1.3,3.1,1.5,4.4
			c0.2,1.3,0.3,3.2,0.3,5.8h-6.4c-0.7-1.5-1.4-2.5-1.9-3.1c-0.5-0.6-1.4-1.4-2.6-2.5c-2.1,1.6-3.5,2.8-4.4,3.6
			c-0.7,0.6-1.5,1.4-2.4,2.3c0.5,0.2,0.8,0.4,0.9,0.5c0.2,0.1,0.2,0.2,0.2,0.3c0,0.3-0.3,1-0.9,1.9c-0.5,0.8-1,1.5-1.4,2
			c-0.4,0.5-1.2,0.8-2.3,1c-1.1,0.2-2.6,0.4-4.4,0.4c-0.8,0-1.3,0-1.6-0.1c-0.3-0.1-0.5-0.3-0.5-0.6c0-0.6,0.8-1.7,2.4-3.4
			c1.4-1.5,2.8-2.8,4.1-3.9c1-0.9,2-1.7,3-2.5c0.9-0.7,2.4-1.7,4.5-3.1c-1.2-0.6-2.8-1.1-4.7-1.3c-1.2-0.1-2.5-0.2-4.1-0.2
			c-0.2,0.5-0.5,0.9-0.7,1.1c-0.2,0.2-0.6,0.3-1,0.3c-0.9,0-1.7-0.1-2.6-0.3c-0.9-0.2-1.8-0.5-2.8-0.9l0.3-0.9
			c0.9,0,1.5-0.2,1.8-0.6C12.9,144.3,13.3,143.2,13.9,141.2z M32.7,146.9l-1.6,1c0.7,0.6,1.2,1.1,1.5,1.5c0.3,0.3,0.7,0.9,1.3,1.8
			c-0.1-1.1-0.2-1.9-0.4-2.3C33.4,148.3,33.1,147.7,32.7,146.9z"/>
		<path id="XMLID_24_" class="st2" d="M30.6,133c1.3,0,2.5,0.2,3.5,0.5c1.1,0.3,2.5,0.9,4.3,1.7l-0.5,1.3c-1.8-0.3-3.3-0.5-4.5-0.5
			c-0.9,0-2.2,0.1-3.9,0.2c-1.7,0.1-3.4,0.3-5,0.5c-1.7,0.2-3.6,0.6-5.9,1.1c-0.8,0.2-1.4,0.3-1.7,0.3c-0.4,0-1.2-0.2-2.3-0.7
			c-1.1-0.4-2.4-1.1-3.9-1.9l7.6-1.3c2.9-0.5,5.4-0.8,7.6-1C27.5,133,29.1,133,30.6,133z"/>
		<path id="XMLID_20_" class="st2" d="M16.3,97.1l4.4,2.4l-1.7,3.1l3.4,1.7l-2.2,4L16,106l1.6-3.2l-3.5-1.8L16.3,97.1z M37.4,96.2
			c2.8,0,4.7,0.2,5.6,0.5c0.9,0.3,1.8,1.1,2.8,2.3c2,2.6,3.1,6.3,3.1,11.1c0,4-0.7,7.1-2,9.2c-1.3,2.1-3.2,3.2-5.6,3.2
			c-2.1,0-4-0.3-5.8-1c-1.9-0.7-4.2-2.1-7-4.1l0.9-1.3c1.9,1.3,3.5,2.2,4.8,2.8c1.3,0.6,2.6,0.8,3.8,0.8c1.8,0,3.1-0.9,4.1-2.7
			s1.5-4.4,1.5-7.6c0-3-0.6-5.6-1.7-7.9C40.8,99.2,39.5,98,38,98c-0.2,0-0.4,0-0.6,0c-0.2,0-0.4,0-0.7,0.1c0.1,1.5,0.2,2.6,0.2,3.4
			c0,1.6-0.4,2.8-1.2,3.7c-0.8,0.9-1.9,1.3-3.3,1.3c-2.1,0-4.2-0.5-6.3-1.6c-2.3-1.2-3.4-2.4-3.4-3.8c0-1.6,1.1-2.8,3.3-3.7
			c2-0.8,4.6-1.3,7.6-1.3H37.4z M31,100.1c-0.9,0.4-1.5,0.8-1.9,1.2c-0.4,0.4-0.6,0.9-0.6,1.4c0,0.4,0.1,0.6,0.3,0.9
			c0.2,0.2,0.5,0.3,0.9,0.3c0.9,0,1.4-0.6,1.4-1.8c0-0.4,0-0.7,0-0.9C31.1,100.9,31,100.6,31,100.1z"/>
		<path id="XMLID_17_" class="st2" d="M35.4,78.5c2.5,0,4.9,1.1,7.3,3.2c2.4,2.1,3.6,4.2,3.6,6.2c0,1.2-0.4,2.5-1.1,3.9
			c-0.8,1.4-2.3,3.6-4.5,6.5l-1.3-0.9c1-1.6,1.7-2.8,2.1-3.8c0.3-0.8,0.4-1.7,0.4-2.8c0-1.4-0.4-2.8-1.2-4.1c-0.9-1.6-2.4-3.3-4.4-5
			c0.1,0.6,0.1,1.1,0.1,1.5c0,1.4-0.5,2.6-1.4,3.4c-0.9,0.8-2.2,1.3-3.8,1.3c-2.2,0-4.2-0.5-6.2-1.5c-2.2-1.1-3.3-2.3-3.3-3.7
			c0-1.2,0.8-2.1,2.4-2.9c1.6-0.8,3.5-1.2,5.7-1.2H35.4z M31,81c-2.3,0.4-3.5,1.2-3.5,2.5c0,0.4,0.2,0.8,0.5,1.1
			c0.4,0.3,0.7,0.4,1.2,0.4c0.5,0,0.9-0.3,1.3-0.9c0.3-0.6,0.5-1.3,0.5-2.3V81z"/>
		<path id="XMLID_15_" class="st2" d="M36.9,71.5v10.3H31V71.5H36.9z"/>
		<path id="XMLID_13_" class="st2" d="M36.9,66.7V77H31V66.7H36.9z"/>
		<path id="XMLID_11_" class="st2" d="M36.9,58.4v10.3H31V58.4H36.9z"/>
		<path id="XMLID_9_" class="st2" d="M36.9,49.6v10.3H31V49.6H36.9z"/>
		<path id="XMLID_5_" class="st2" d="M10.9,38l4.4,2.4l-1.7,3.1l3.4,1.7l-2.2,4l-4.2-2.2l1.6-3.2l-3.5-1.8L10.9,38z M36.9,35.3v15.8
			H31v-3.9c0-0.7,0-1.3,0.1-1.9c0.2-1.6,0.4-3.4,0.6-5.4c-0.5,2.1-1.1,3.6-1.9,4.5c-0.8,0.9-1.9,1.3-3.4,1.3c-2.2,0-4.2-0.5-6-1.5
			c-1.8-1-2.7-2.2-2.7-3.5c0-1.5,1.3-2.7,3.8-3.8c2.5-1.1,5.5-1.6,9.1-1.6H36.9z M27.9,38.2c-1.2,0.5-2.2,1.1-2.9,1.7
			c-0.7,0.6-1,1.3-1,1.9c0,0.3,0.1,0.5,0.3,0.8c0.2,0.2,0.4,0.3,0.7,0.3c0.6,0,1.2-0.5,1.8-1.4S27.7,39.5,27.9,38.2z"/>
		<path id="XMLID_3_" class="st2" d="M36.9,12.1v24.7H31V21.4c-1.8,1.7-3.1,3.4-3.9,4.8c-0.7,1.3-1.1,2.6-1.1,3.8c0,0.4,0,0.7,0.1,1
			c0,0.3,0.1,0.8,0.2,1.3c-1.8-0.8-3.2-1.7-4-2.6c-0.9-1-1.3-2.1-1.3-3.3c0-0.9,0.2-1.9,0.7-2.7c0.5-0.9,1.2-1.9,2.2-3
			c0.8-0.9,2.1-2.1,3.8-3.7c1.2-1.1,2-1.9,2.4-2.5c0.4-0.6,0.7-1.4,0.9-2.6H36.9z"/>
	</g>
</g>
</svg>
