<!-- Generator: Adobe Illustrator 23.1.1, SVG Export Plug-In  -->
<svg version="1.1" xmlns="http://www.w3.org/2000/svg" xmlns:xlink="http://www.w3.org/1999/xlink" x="0px" y="0px" width="549.6px"
	 height="126.5px" viewBox="0 0 549.6 126.5" style="enable-background:new 0 0 549.6 126.5;" xml:space="preserve">
<style type="text/css">
	.st0{fill:#FFFFFF;}
</style>
<defs>
</defs>
<g id="XMLID_1_">
	<path id="XMLID_225_" class="st0" d="M531.6,126.5H17.9c-9.9,0-17.9-8-17.9-17.9V17.9C0,8,8,0,17.9,0h513.7c9.9,0,17.9,8,17.9,17.9
		v90.6C549.6,118.5,541.5,126.5,531.6,126.5z"/>
	<g id="XMLID_101_">
		<g>
			<path id="XMLID_161_" d="M38.1,113.4h-8.2L19.6,99.1c-0.8,0-1.4,0-1.9,0c-0.2,0-0.4,0-0.6,0c-0.2,0-0.5,0-0.7,0v8.9
				c0,1.9,0.2,3.1,0.6,3.6c0.6,0.7,1.4,1,2.6,1h1.2v0.8H7.7v-0.8h1.1c1.3,0,2.2-0.4,2.8-1.3c0.3-0.5,0.5-1.6,0.5-3.3V88.3
				c0-1.9-0.2-3.1-0.6-3.6c-0.6-0.7-1.5-1-2.6-1H7.7v-0.8h11.1c3.2,0,5.6,0.2,7.2,0.7c1.5,0.5,2.8,1.3,3.9,2.6
				c1.1,1.3,1.6,2.8,1.6,4.5c0,1.9-0.6,3.5-1.8,4.9C28.5,97,26.6,98,24,98.5l6.3,8.8c1.4,2,2.7,3.4,3.7,4c1,0.7,2.4,1.1,4.1,1.3
				V113.4z M16.4,97.7c0.3,0,0.5,0,0.7,0c0.2,0,0.4,0,0.5,0c2.9,0,5.1-0.6,6.6-1.9c1.5-1.3,2.2-2.9,2.2-4.8c0-1.9-0.6-3.5-1.8-4.7
				c-1.2-1.2-2.8-1.8-4.7-1.8c-0.9,0-2.1,0.1-3.5,0.4V97.7z"/>
			<path id="XMLID_158_" d="M44.4,92.1v16.6c0,1.3,0.1,2.2,0.3,2.6c0.2,0.4,0.5,0.7,0.8,1c0.4,0.2,1,0.3,2,0.3v0.8h-10v-0.8
				c1,0,1.7-0.1,2-0.3s0.6-0.5,0.8-1c0.2-0.4,0.3-1.3,0.3-2.6v-8c0-2.2-0.1-3.7-0.2-4.3c-0.1-0.5-0.3-0.8-0.5-1s-0.5-0.3-0.9-0.3
				c-0.4,0-0.9,0.1-1.5,0.3l-0.3-0.8l6.2-2.5H44.4z M42.5,81.4c0.6,0,1.2,0.2,1.6,0.7c0.4,0.4,0.7,1,0.7,1.6c0,0.6-0.2,1.2-0.7,1.6
				c-0.4,0.5-1,0.7-1.6,0.7s-1.2-0.2-1.6-0.7c-0.5-0.4-0.7-1-0.7-1.6c0-0.6,0.2-1.2,0.7-1.6C41.3,81.6,41.9,81.4,42.5,81.4z"/>
			<path id="XMLID_154_" d="M53.8,105.9c-1.3-0.6-2.2-1.5-2.9-2.6c-0.7-1.1-1-2.3-1-3.7c0-2,0.8-3.8,2.3-5.3
				c1.5-1.5,3.5-2.2,5.9-2.2c2,0,3.7,0.5,5.1,1.4h4.4c0.6,0,1,0,1.1,0.1c0.1,0,0.2,0.1,0.2,0.2C69,94,69,94.2,69,94.6
				c0,0.4,0,0.7-0.1,0.8c0,0.1-0.1,0.1-0.2,0.2c-0.1,0-0.5,0.1-1.1,0.1h-2.7c0.8,1.1,1.3,2.5,1.3,4.1c0,1.9-0.7,3.6-2.2,4.9
				c-1.5,1.4-3.4,2.1-5.9,2.1c-1,0-2.1-0.2-3.1-0.5c-0.7,0.6-1.1,1.1-1.3,1.5c-0.2,0.4-0.3,0.8-0.3,1.1c0,0.3,0.1,0.5,0.4,0.7
				c0.2,0.2,0.7,0.4,1.5,0.5c0.4,0.1,1.5,0.1,3.2,0.2c3.1,0.1,5.1,0.2,6,0.3c1.4,0.2,2.5,0.7,3.3,1.6c0.8,0.8,1.3,1.9,1.3,3.1
				c0,1.7-0.8,3.3-2.4,4.8c-2.3,2.2-5.4,3.3-9.2,3.3c-2.9,0-5.3-0.7-7.3-2c-1.1-0.8-1.7-1.5-1.7-2.3c0-0.4,0.1-0.7,0.2-1.1
				c0.3-0.6,0.8-1.3,1.6-2.3c0.1-0.1,0.9-0.9,2.3-2.4c-0.8-0.5-1.3-0.9-1.7-1.3c-0.3-0.4-0.5-0.8-0.5-1.3c0-0.5,0.2-1.1,0.6-1.8
				C51.2,108.2,52.2,107.2,53.8,105.9z M53.5,113.4c-0.7,0.8-1.2,1.5-1.6,2.1c-0.4,0.7-0.5,1.3-0.5,1.8c0,0.7,0.4,1.4,1.3,1.9
				c1.5,0.9,3.7,1.4,6.5,1.4c2.7,0,4.7-0.5,6-1.4c1.3-1,1.9-2,1.9-3.1c0-0.8-0.4-1.3-1.1-1.7c-0.8-0.3-2.3-0.5-4.6-0.6
				C58,113.8,55.4,113.7,53.5,113.4z M57.7,93.2c-1.1,0-2,0.4-2.8,1.3c-0.8,0.9-1.1,2.2-1.1,4.1c0,2.4,0.5,4.2,1.5,5.5
				c0.8,1,1.8,1.5,3,1.5c1.1,0,2.1-0.4,2.8-1.3c0.7-0.9,1.1-2.2,1.1-4c0-2.4-0.5-4.3-1.6-5.6C59.9,93.7,58.9,93.2,57.7,93.2z"/>
			<path id="XMLID_152_" d="M75.5,81.4v15.1c1.7-1.8,3-3,4-3.5s2-0.8,2.9-0.8c1.2,0,2.2,0.3,3,1c0.8,0.6,1.5,1.7,1.9,3
				c0.3,1,0.4,2.7,0.4,5.3v7.3c0,1.3,0.1,2.2,0.3,2.7c0.2,0.4,0.4,0.6,0.8,0.9c0.4,0.2,1,0.3,2,0.3v0.8H80.7v-0.8h0.5
				c1,0,1.6-0.1,2-0.4c0.4-0.3,0.6-0.7,0.8-1.3c0-0.2,0.1-0.9,0.1-2.1v-7.3c0-2.3-0.1-3.7-0.3-4.4s-0.6-1.2-1.1-1.6
				c-0.5-0.4-1.1-0.5-1.8-0.5c-0.7,0-1.5,0.2-2.3,0.6s-1.8,1.2-2.9,2.4v10.9c0,1.4,0.1,2.3,0.2,2.6c0.2,0.3,0.5,0.6,0.9,0.9
				c0.4,0.2,1.2,0.3,2.2,0.3v0.8H68.6v-0.8c0.9,0,1.6-0.1,2.2-0.4c0.3-0.2,0.5-0.4,0.7-0.9s0.3-1.3,0.3-2.6V90.1
				c0-2.4-0.1-3.8-0.2-4.4c-0.1-0.5-0.3-0.9-0.5-1.1c-0.2-0.2-0.5-0.3-0.9-0.3c-0.3,0-0.8,0.1-1.5,0.4l-0.3-0.8l6.2-2.5H75.5z"/>
			<path id="XMLID_150_" d="M96.7,86v6.8h4.8v1.6h-4.8v13.4c0,1.3,0.2,2.2,0.6,2.7c0.4,0.5,0.9,0.7,1.5,0.7c0.5,0,1-0.2,1.4-0.5
				c0.5-0.3,0.8-0.8,1.1-1.4h0.9c-0.5,1.5-1.3,2.6-2.2,3.3s-2,1.1-3,1.1c-0.7,0-1.4-0.2-2-0.6c-0.7-0.4-1.1-0.9-1.5-1.6
				c-0.3-0.7-0.5-1.8-0.5-3.3V94.3h-3.3v-0.7c0.8-0.3,1.7-0.9,2.5-1.7c0.9-0.8,1.6-1.7,2.3-2.8c0.3-0.6,0.8-1.6,1.4-3.1H96.7z"/>
			<path id="XMLID_148_" d="M115,92.1v7h-0.7c-0.6-2.2-1.3-3.7-2.2-4.5c-0.9-0.8-2-1.2-3.4-1.2c-1.1,0-1.9,0.3-2.5,0.8
				c-0.6,0.6-1,1.2-1,1.8c0,0.8,0.2,1.6,0.7,2.2c0.5,0.6,1.4,1.3,2.8,2l3.3,1.6c3,1.5,4.6,3.4,4.6,5.9c0,1.9-0.7,3.4-2.1,4.5
				c-1.4,1.1-3,1.7-4.8,1.7c-1.3,0-2.7-0.2-4.3-0.7c-0.5-0.1-0.9-0.2-1.2-0.2c-0.3,0-0.6,0.2-0.8,0.6h-0.7v-7.4h0.7
				c0.4,2.1,1.2,3.7,2.4,4.8c1.2,1.1,2.5,1.6,4,1.6c1,0,1.9-0.3,2.5-0.9c0.7-0.6,1-1.3,1-2.2c0-1-0.4-1.9-1.1-2.6s-2.2-1.6-4.4-2.7
				c-2.2-1.1-3.6-2.1-4.3-2.9c-0.7-0.9-1-1.9-1-3.2c0-1.7,0.6-3.1,1.7-4.3c1.2-1.1,2.7-1.7,4.5-1.7c0.8,0,1.8,0.2,3,0.5
				c0.8,0.2,1.3,0.3,1.5,0.3c0.2,0,0.4-0.1,0.6-0.2s0.3-0.3,0.5-0.7H115z"/>
			<path id="XMLID_145_" d="M137.6,92.1c3.1,0,5.6,1.2,7.5,3.6c1.6,2,2.4,4.4,2.4,7c0,1.8-0.4,3.7-1.3,5.6c-0.9,1.9-2.1,3.3-3.7,4.3
				c-1.6,1-3.3,1.4-5.2,1.4c-3.1,0-5.6-1.2-7.4-3.7c-1.5-2.1-2.3-4.4-2.3-7c0-1.9,0.5-3.8,1.4-5.6s2.2-3.3,3.7-4.1
				C134.3,92.6,135.9,92.1,137.6,92.1z M136.9,93.6c-0.8,0-1.6,0.2-2.4,0.7c-0.8,0.5-1.5,1.3-1.9,2.5c-0.5,1.2-0.7,2.7-0.7,4.6
				c0,3,0.6,5.6,1.8,7.8c1.2,2.2,2.8,3.3,4.7,3.3c1.5,0,2.7-0.6,3.6-1.8c0.9-1.2,1.4-3.3,1.4-6.2c0-3.7-0.8-6.6-2.4-8.7
				C139.9,94.3,138.6,93.6,136.9,93.6z"/>
			<path id="XMLID_143_" d="M156.8,94.4v13.6c0,1.9,0.2,3.1,0.6,3.7c0.6,0.7,1.3,1,2.2,1h1.9v0.8h-12.3v-0.8h0.9
				c0.6,0,1.1-0.1,1.6-0.5c0.5-0.3,0.8-0.7,1-1.2c0.2-0.5,0.3-1.5,0.3-3V94.4h-4v-1.6h4v-1.4c0-2.1,0.3-3.8,1-5.2
				c0.7-1.4,1.7-2.6,3-3.5c1.4-0.9,2.9-1.3,4.6-1.3c1.6,0,3,0.5,4.4,1.5c0.9,0.7,1.3,1.4,1.3,2.3c0,0.4-0.2,0.9-0.6,1.3
				c-0.4,0.4-0.8,0.6-1.3,0.6c-0.3,0-0.7-0.1-1.1-0.4c-0.4-0.2-0.9-0.8-1.4-1.6c-0.6-0.8-1.1-1.4-1.5-1.7s-1-0.4-1.6-0.4
				c-0.7,0-1.3,0.2-1.8,0.6c-0.5,0.4-0.8,0.9-1,1.7c-0.2,0.8-0.3,2.8-0.3,6v1.5h5.3v1.6H156.8z"/>
			<path id="XMLID_141_" d="M180,84.5v12h5.6c1.3,0,2.2-0.3,2.8-0.8c0.6-0.6,1-1.7,1.2-3.3h0.8v10.3h-0.8c0-1.2-0.2-2.1-0.5-2.6
				c-0.3-0.6-0.7-1-1.2-1.3s-1.3-0.4-2.3-0.4H180v9.6c0,1.5,0.1,2.6,0.3,3.1c0.2,0.4,0.5,0.7,0.9,1c0.7,0.4,1.4,0.5,2.1,0.5h1.1v0.8
				h-13.1v-0.8h1.1c1.3,0,2.2-0.4,2.8-1.1c0.4-0.5,0.5-1.6,0.5-3.5V88.3c0-1.5-0.1-2.6-0.3-3.1c-0.2-0.4-0.5-0.7-0.9-1
				c-0.6-0.4-1.3-0.5-2.1-0.5h-1.1v-0.8H194l0.3,6.7h-0.8c-0.4-1.4-0.8-2.5-1.4-3.1s-1.2-1.2-1.9-1.5c-0.8-0.3-1.9-0.4-3.5-0.4H180z
				"/>
			<path id="XMLID_139_" d="M213.9,92.8v12.5c0,2.4,0.1,3.9,0.2,4.4s0.3,0.9,0.5,1.1c0.2,0.2,0.5,0.3,0.9,0.3c0.5,0,1-0.1,1.6-0.4
				l0.3,0.8l-6.2,2.5h-1v-4.4c-1.8,1.9-3.1,3.1-4.1,3.6c-0.9,0.5-1.9,0.7-3,0.7c-1.2,0-2.2-0.3-3-1c-0.8-0.7-1.4-1.5-1.8-2.6
				c-0.3-1.1-0.5-2.5-0.5-4.5v-9.2c0-1-0.1-1.7-0.3-2c-0.2-0.4-0.5-0.7-0.9-0.9c-0.4-0.2-1.2-0.3-2.2-0.3v-0.8h7.2v13.8
				c0,1.9,0.3,3.2,1,3.8c0.7,0.6,1.5,0.9,2.4,0.9c0.6,0,1.4-0.2,2.2-0.6s1.8-1.2,2.9-2.3V96.6c0-1.2-0.2-2-0.6-2.4
				c-0.4-0.4-1.3-0.6-2.7-0.7v-0.8H213.9z"/>
			<path id="XMLID_137_" d="M223,86v6.8h4.8v1.6H223v13.4c0,1.3,0.2,2.2,0.6,2.7c0.4,0.5,0.9,0.7,1.5,0.7c0.5,0,1-0.2,1.4-0.5
				c0.5-0.3,0.8-0.8,1.1-1.4h0.9c-0.5,1.5-1.3,2.6-2.2,3.3s-2,1.1-3,1.1c-0.7,0-1.4-0.2-2-0.6c-0.7-0.4-1.1-0.9-1.5-1.6
				c-0.3-0.7-0.5-1.8-0.5-3.3V94.3H216v-0.7c0.8-0.3,1.7-0.9,2.5-1.7c0.9-0.8,1.6-1.7,2.3-2.8c0.3-0.6,0.8-1.6,1.4-3.1H223z"/>
			<path id="XMLID_135_" d="M246.1,92.8v12.5c0,2.4,0.1,3.9,0.2,4.4s0.3,0.9,0.5,1.1c0.2,0.2,0.5,0.3,0.9,0.3c0.5,0,1-0.1,1.6-0.4
				l0.3,0.8l-6.2,2.5h-1v-4.4c-1.8,1.9-3.1,3.1-4.1,3.6c-0.9,0.5-1.9,0.7-3,0.7c-1.2,0-2.2-0.3-3-1c-0.8-0.7-1.4-1.5-1.8-2.6
				c-0.3-1.1-0.5-2.5-0.5-4.5v-9.2c0-1-0.1-1.7-0.3-2c-0.2-0.4-0.5-0.7-0.9-0.9c-0.4-0.2-1.2-0.3-2.2-0.3v-0.8h7.2v13.8
				c0,1.9,0.3,3.2,1,3.8c0.7,0.6,1.5,0.9,2.4,0.9c0.6,0,1.4-0.2,2.2-0.6s1.8-1.2,2.9-2.3V96.6c0-1.2-0.2-2-0.6-2.4
				c-0.4-0.4-1.3-0.6-2.7-0.7v-0.8H246.1z"/>
			<path id="XMLID_133_" d="M255.3,92.1v4.6c1.7-3.1,3.5-4.6,5.3-4.6c0.8,0,1.5,0.3,2.1,0.8c0.5,0.5,0.8,1.1,0.8,1.7
				c0,0.6-0.2,1.1-0.6,1.5c-0.4,0.4-0.9,0.6-1.4,0.6c-0.5,0-1.1-0.3-1.8-0.8s-1.1-0.8-1.5-0.8c-0.3,0-0.6,0.2-0.9,0.5
				c-0.7,0.6-1.4,1.6-2.1,3v9.9c0,1.1,0.1,2,0.4,2.6c0.2,0.4,0.5,0.7,1,1c0.5,0.3,1.2,0.4,2.1,0.4v0.8h-10.6v-0.8
				c1.1,0,1.8-0.2,2.3-0.5c0.4-0.2,0.6-0.6,0.8-1.1c0.1-0.3,0.1-1,0.1-2.2v-8c0-2.4,0-3.8-0.1-4.3c-0.1-0.5-0.3-0.8-0.5-1
				c-0.3-0.2-0.6-0.3-1-0.3c-0.5,0-1,0.1-1.6,0.3l-0.2-0.8l6.2-2.5H255.3z"/>
			<path id="XMLID_130_" d="M266.2,100.5c0,3.1,0.7,5.5,2.2,7.2c1.5,1.7,3.3,2.6,5.3,2.6c1.4,0,2.5-0.4,3.5-1.1c1-0.7,1.8-2,2.5-3.8
				l0.7,0.5c-0.3,2.1-1.2,3.9-2.7,5.6s-3.4,2.5-5.7,2.5c-2.5,0-4.6-1-6.4-2.9c-1.8-1.9-2.6-4.5-2.6-7.8c0-3.5,0.9-6.3,2.7-8.3
				c1.8-2,4.1-3,6.8-3c2.3,0,4.2,0.8,5.7,2.3c1.5,1.5,2.2,3.6,2.2,6.1H266.2z M266.2,99.2h9.6c-0.1-1.3-0.2-2.3-0.5-2.8
				c-0.4-0.8-0.9-1.5-1.7-2c-0.7-0.5-1.5-0.7-2.3-0.7c-1.2,0-2.4,0.5-3.3,1.5C267,96.2,266.4,97.5,266.2,99.2z"/>
			<path id="XMLID_128_" d="M318,82.1l0.8,9.6H318c-0.8-2.4-1.8-4.2-3.1-5.4c-1.8-1.8-4.2-2.6-7-2.6c-3.9,0-6.9,1.5-8.9,4.6
				c-1.7,2.6-2.5,5.7-2.5,9.3c0,2.9,0.6,5.6,1.7,8s2.6,4.2,4.4,5.3c1.8,1.1,3.7,1.7,5.6,1.7c1.1,0,2.2-0.1,3.3-0.4
				c1.1-0.3,2.1-0.7,3-1.3V102c0-1.5-0.1-2.5-0.4-3s-0.6-0.8-1.1-1.1c-0.5-0.2-1.3-0.4-2.6-0.4v-0.9h11.8v0.9h-0.6
				c-1.2,0-2,0.4-2.4,1.2c-0.3,0.6-0.5,1.7-0.5,3.3v9.4c-1.7,0.9-3.4,1.6-5.1,2.1c-1.7,0.4-3.6,0.7-5.6,0.7
				c-5.9,0-10.4-1.9-13.5-5.7c-2.3-2.8-3.4-6.1-3.4-9.8c0-2.7,0.6-5.3,1.9-7.7c1.5-2.9,3.6-5.2,6.3-6.8c2.2-1.3,4.9-2,7.9-2
				c1.1,0,2.1,0.1,3,0.3c0.9,0.2,2.2,0.6,3.9,1.2c0.8,0.3,1.4,0.5,1.7,0.5s0.5-0.1,0.7-0.4c0.2-0.3,0.3-0.8,0.4-1.5H318z"/>
			<path id="XMLID_125_" d="M326,100.5c0,3.1,0.7,5.5,2.2,7.2c1.5,1.7,3.3,2.6,5.3,2.6c1.4,0,2.5-0.4,3.5-1.1c1-0.7,1.8-2,2.5-3.8
				l0.7,0.5c-0.3,2.1-1.2,3.9-2.7,5.6s-3.4,2.5-5.7,2.5c-2.5,0-4.6-1-6.4-2.9c-1.8-1.9-2.6-4.5-2.6-7.8c0-3.5,0.9-6.3,2.7-8.3
				c1.8-2,4.1-3,6.8-3c2.3,0,4.2,0.8,5.7,2.3c1.5,1.5,2.2,3.6,2.2,6.1H326z M326,99.2h9.6c-0.1-1.3-0.2-2.3-0.5-2.8
				c-0.4-0.8-0.9-1.5-1.7-2c-0.7-0.5-1.5-0.7-2.3-0.7c-1.2,0-2.4,0.5-3.3,1.5C326.8,96.2,326.2,97.5,326,99.2z"/>
			<path id="XMLID_123_" d="M347.2,96.5c2.4-2.9,4.7-4.4,6.9-4.4c1.1,0,2.1,0.3,2.9,0.8s1.5,1.5,1.9,2.8c0.3,0.9,0.5,2.3,0.5,4.1
				v8.8c0,1.3,0.1,2.2,0.3,2.7c0.2,0.4,0.4,0.7,0.8,0.9c0.4,0.2,1,0.3,2,0.3v0.8h-10.2v-0.8h0.4c1,0,1.6-0.1,2-0.4s0.7-0.7,0.8-1.3
				c0.1-0.2,0.1-0.9,0.1-2.1v-8.5c0-1.9-0.2-3.2-0.7-4.1c-0.5-0.8-1.3-1.3-2.5-1.3c-1.8,0-3.6,1-5.3,2.9v10.9c0,1.4,0.1,2.3,0.2,2.6
				c0.2,0.4,0.5,0.8,0.9,1c0.4,0.2,1.1,0.3,2.2,0.3v0.8h-10.2v-0.8h0.5c1.1,0,1.8-0.3,2.1-0.8c0.4-0.5,0.6-1.6,0.6-3.1v-7.7
				c0-2.5-0.1-4-0.2-4.5c-0.1-0.5-0.3-0.9-0.5-1.1c-0.2-0.2-0.5-0.3-0.9-0.3c-0.4,0-0.9,0.1-1.5,0.3l-0.3-0.8l6.2-2.5h1V96.5z"/>
			<path id="XMLID_120_" d="M365.9,100.5c0,3.1,0.7,5.5,2.2,7.2c1.5,1.7,3.3,2.6,5.3,2.6c1.4,0,2.5-0.4,3.5-1.1c1-0.7,1.8-2,2.5-3.8
				l0.7,0.5c-0.3,2.1-1.2,3.9-2.7,5.6s-3.4,2.5-5.7,2.5c-2.5,0-4.6-1-6.4-2.9c-1.8-1.9-2.6-4.5-2.6-7.8c0-3.5,0.9-6.3,2.7-8.3
				c1.8-2,4.1-3,6.8-3c2.3,0,4.2,0.8,5.7,2.3c1.5,1.5,2.2,3.6,2.2,6.1H365.9z M365.9,99.2h9.6c-0.1-1.3-0.2-2.3-0.5-2.8
				c-0.4-0.8-0.9-1.5-1.7-2c-0.7-0.5-1.5-0.7-2.3-0.7c-1.2,0-2.4,0.5-3.3,1.5C366.7,96.2,366.1,97.5,365.9,99.2z"/>
			<path id="XMLID_118_" d="M387.1,92.1v4.6c1.7-3.1,3.5-4.6,5.3-4.6c0.8,0,1.5,0.3,2.1,0.8c0.5,0.5,0.8,1.1,0.8,1.7
				c0,0.6-0.2,1.1-0.6,1.5c-0.4,0.4-0.9,0.6-1.4,0.6c-0.5,0-1.1-0.3-1.8-0.8s-1.1-0.8-1.5-0.8c-0.3,0-0.6,0.2-0.9,0.5
				c-0.7,0.6-1.4,1.6-2.1,3v9.9c0,1.1,0.1,2,0.4,2.6c0.2,0.4,0.5,0.7,1,1c0.5,0.3,1.2,0.4,2.1,0.4v0.8h-10.6v-0.8
				c1.1,0,1.8-0.2,2.3-0.5c0.4-0.2,0.6-0.6,0.8-1.1c0.1-0.3,0.1-1,0.1-2.2v-8c0-2.4,0-3.8-0.1-4.3c-0.1-0.5-0.3-0.8-0.5-1
				c-0.3-0.2-0.6-0.3-1-0.3c-0.5,0-1,0.1-1.6,0.3l-0.2-0.8l6.2-2.5H387.1z"/>
			<path id="XMLID_115_" d="M406.3,110.4c-2.1,1.6-3.4,2.6-4,2.8c-0.8,0.4-1.7,0.6-2.6,0.6c-1.4,0-2.6-0.5-3.5-1.5
				c-0.9-1-1.4-2.3-1.4-3.9c0-1,0.2-1.9,0.7-2.6c0.6-1,1.7-2,3.2-2.9c1.5-0.9,4.1-2,7.6-3.3v-0.8c0-2.1-0.3-3.5-1-4.2
				c-0.7-0.8-1.6-1.1-2.9-1.1c-0.9,0-1.7,0.3-2.3,0.8c-0.6,0.5-0.9,1.1-0.9,1.8l0,1.3c0,0.7-0.2,1.2-0.5,1.6
				c-0.4,0.4-0.8,0.6-1.4,0.6c-0.6,0-1-0.2-1.4-0.6c-0.4-0.4-0.5-0.9-0.5-1.6c0-1.3,0.7-2.5,2-3.6c1.3-1.1,3.2-1.6,5.6-1.6
				c1.8,0,3.3,0.3,4.5,0.9c0.9,0.5,1.5,1.2,2,2.2c0.3,0.6,0.4,2,0.4,4v7c0,2,0,3.2,0.1,3.6c0.1,0.4,0.2,0.7,0.4,0.9
				c0.2,0.2,0.4,0.2,0.6,0.2c0.2,0,0.5-0.1,0.6-0.2c0.3-0.2,0.9-0.7,1.8-1.6v1.3c-1.7,2.3-3.3,3.4-4.8,3.4c-0.7,0-1.3-0.3-1.8-0.8
				C406.6,112.5,406.3,111.7,406.3,110.4z M406.3,109v-7.9c-2.3,0.9-3.7,1.5-4.4,1.9c-1.2,0.7-2,1.4-2.5,2.1
				c-0.5,0.7-0.8,1.5-0.8,2.4c0,1.1,0.3,2,1,2.7c0.6,0.7,1.4,1.1,2.2,1.1C403,111.2,404.5,110.5,406.3,109z"/>
			<path id="XMLID_113_" d="M419.3,86v6.8h4.8v1.6h-4.8v13.4c0,1.3,0.2,2.2,0.6,2.7c0.4,0.5,0.9,0.7,1.5,0.7c0.5,0,1-0.2,1.4-0.5
				c0.5-0.3,0.8-0.8,1.1-1.4h0.9c-0.5,1.5-1.3,2.6-2.2,3.3s-2,1.1-3,1.1c-0.7,0-1.4-0.2-2-0.6c-0.7-0.4-1.1-0.9-1.5-1.6
				c-0.3-0.7-0.5-1.8-0.5-3.3V94.3h-3.3v-0.7c0.8-0.3,1.7-0.9,2.5-1.7c0.9-0.8,1.6-1.7,2.3-2.8c0.3-0.6,0.8-1.6,1.4-3.1H419.3z"/>
			<path id="XMLID_110_" d="M431.4,92.1v16.6c0,1.3,0.1,2.2,0.3,2.6c0.2,0.4,0.5,0.7,0.8,1c0.4,0.2,1,0.3,2,0.3v0.8h-10v-0.8
				c1,0,1.7-0.1,2-0.3s0.6-0.5,0.8-1c0.2-0.4,0.3-1.3,0.3-2.6v-8c0-2.2-0.1-3.7-0.2-4.3c-0.1-0.5-0.3-0.8-0.5-1s-0.5-0.3-0.9-0.3
				c-0.4,0-0.9,0.1-1.5,0.3l-0.3-0.8l6.2-2.5H431.4z M429.5,81.4c0.6,0,1.2,0.2,1.6,0.7c0.4,0.4,0.7,1,0.7,1.6
				c0,0.6-0.2,1.2-0.7,1.6c-0.4,0.5-1,0.7-1.6,0.7s-1.2-0.2-1.6-0.7c-0.5-0.4-0.7-1-0.7-1.6c0-0.6,0.2-1.2,0.7-1.6
				C428.3,81.6,428.8,81.4,429.5,81.4z"/>
			<path id="XMLID_107_" d="M445.3,92.1c3.1,0,5.6,1.2,7.5,3.6c1.6,2,2.4,4.4,2.4,7c0,1.8-0.4,3.7-1.3,5.6c-0.9,1.9-2.1,3.3-3.7,4.3
				c-1.6,1-3.3,1.4-5.2,1.4c-3.1,0-5.6-1.2-7.4-3.7c-1.5-2.1-2.3-4.4-2.3-7c0-1.9,0.5-3.8,1.4-5.6s2.2-3.3,3.7-4.1
				C442,92.6,443.6,92.1,445.3,92.1z M444.6,93.6c-0.8,0-1.6,0.2-2.4,0.7c-0.8,0.5-1.5,1.3-1.9,2.5c-0.5,1.2-0.7,2.7-0.7,4.6
				c0,3,0.6,5.6,1.8,7.8c1.2,2.2,2.8,3.3,4.7,3.3c1.5,0,2.7-0.6,3.6-1.8c0.9-1.2,1.4-3.3,1.4-6.2c0-3.7-0.8-6.6-2.4-8.7
				C447.6,94.3,446.3,93.6,444.6,93.6z"/>
			<path id="XMLID_105_" d="M462.5,96.5c2.4-2.9,4.7-4.4,6.9-4.4c1.1,0,2.1,0.3,2.9,0.8s1.5,1.5,1.9,2.8c0.3,0.9,0.5,2.3,0.5,4.1
				v8.8c0,1.3,0.1,2.2,0.3,2.7c0.2,0.4,0.4,0.7,0.8,0.9c0.4,0.2,1,0.3,2,0.3v0.8h-10.2v-0.8h0.4c1,0,1.6-0.1,2-0.4s0.7-0.7,0.8-1.3
				c0.1-0.2,0.1-0.9,0.1-2.1v-8.5c0-1.9-0.2-3.2-0.7-4.1c-0.5-0.8-1.3-1.3-2.5-1.3c-1.8,0-3.6,1-5.3,2.9v10.9c0,1.4,0.1,2.3,0.2,2.6
				c0.2,0.4,0.5,0.8,0.9,1c0.4,0.2,1.1,0.3,2.2,0.3v0.8h-10.2v-0.8h0.5c1.1,0,1.8-0.3,2.1-0.8c0.4-0.5,0.6-1.6,0.6-3.1v-7.7
				c0-2.5-0.1-4-0.2-4.5c-0.1-0.5-0.3-0.9-0.5-1.1c-0.2-0.2-0.5-0.3-0.9-0.3c-0.4,0-0.9,0.1-1.5,0.3l-0.3-0.8l6.2-2.5h1V96.5z"/>
			<path id="XMLID_103_" d="M491,92.1v7h-0.7c-0.6-2.2-1.3-3.7-2.2-4.5c-0.9-0.8-2-1.2-3.4-1.2c-1.1,0-1.9,0.3-2.5,0.8
				c-0.6,0.6-1,1.2-1,1.8c0,0.8,0.2,1.6,0.7,2.2c0.5,0.6,1.4,1.3,2.8,2l3.3,1.6c3,1.5,4.6,3.4,4.6,5.9c0,1.9-0.7,3.4-2.1,4.5
				c-1.4,1.1-3,1.7-4.8,1.7c-1.3,0-2.7-0.2-4.3-0.7c-0.5-0.1-0.9-0.2-1.2-0.2c-0.3,0-0.6,0.2-0.8,0.6h-0.7v-7.4h0.7
				c0.4,2.1,1.2,3.7,2.4,4.8c1.2,1.1,2.5,1.6,4,1.6c1,0,1.9-0.3,2.5-0.9c0.7-0.6,1-1.3,1-2.2c0-1-0.4-1.9-1.1-2.6s-2.2-1.6-4.4-2.7
				c-2.2-1.1-3.6-2.1-4.3-2.9c-0.7-0.9-1-1.9-1-3.2c0-1.7,0.6-3.1,1.7-4.3c1.2-1.1,2.7-1.7,4.5-1.7c0.8,0,1.8,0.2,3,0.5
				c0.8,0.2,1.3,0.3,1.5,0.3c0.2,0,0.4-0.1,0.6-0.2s0.3-0.3,0.5-0.7H491z"/>
		</g>
	</g>
	<g id="XMLID_5_">
		<path id="XMLID_96_" d="M70.6,43.9h-3.2c-1.1,0-2-0.9-2.9-2.8c-0.6-1.4-1.1-3.2-1.5-5.3c-0.5,0.8-1,1.5-1.7,2s-1.4,0.7-2.2,0.7
			c-1.7,0-3.2-0.1-4.3-0.4c-1.1-0.2-1.7-0.5-1.7-0.9c0-1.3,0.8-2.7,2.5-4.3c1.7-1.6,3.8-2.9,6.3-4.1c0-0.1-0.1-0.4-0.2-0.9
			c-0.1-0.5-0.1-0.8-0.1-0.9c0-0.5,0.2-1.1,0.5-1.7c0.3-0.5,0.7-1,1.1-1.6c0.1,0.9,0.3,1.8,0.5,2.7s0.3,1.8,0.6,2.7l0.7,3.9
			c0.4,2.1,0.7,3.7,1,4.7c0.5,1.6,0.9,2.3,1.4,2.3h3.2V43.9z M59.7,19L58,22.3l-3.7-1.9l1.7-3.3L59.7,19z M62.7,33.9l-0.4-2.5
			c-1.3,0.5-2.3,1-3.1,1.5s-1.4,1.2-1.9,2c0.3,0.1,0.7,0.2,1.1,0.3s1,0.1,1.7,0.1C61,35.3,61.9,34.8,62.7,33.9z M64.9,17l-1.8,3.2
			l-3.7-1.9l1.7-3.2L64.9,17z"/>
		<path id="XMLID_94_" d="M80.1,43.9H69V40h11.1V43.9z"/>
		<path id="XMLID_92_" d="M89.7,43.9H78.5V40h11.1V43.9z"/>
		<path id="XMLID_90_" d="M99.2,43.9H88.1V40h11.1V43.9z"/>
		<path id="XMLID_88_" d="M108.8,43.9H97.7V40h11.1V43.9z"/>
		<path id="XMLID_86_" d="M118.4,43.9h-11.1V40h11.1V43.9z"/>
		<path id="XMLID_84_" d="M127.9,43.9h-11.1V40h11.1V43.9z"/>
		<path id="XMLID_82_" d="M137.5,43.9h-11.1V40h11.1V43.9z"/>
		<path id="XMLID_80_" d="M147,43.9h-11.1V40H147V43.9z"/>
		<path id="XMLID_78_" d="M156.6,43.9h-11.1V40h11.1V43.9z"/>
		<path id="XMLID_76_" d="M166.1,43.9H155V40h11.1V43.9z"/>
		<path id="XMLID_74_" d="M175.7,43.9h-11.1V40h11.1V43.9z"/>
		<path id="XMLID_72_" d="M185.3,43.9h-11.1V40h11.1V43.9z"/>
		<path id="XMLID_69_" d="M203.4,43.9h-2.3c-1,0-2.1-0.2-3.4-0.7c-1.5-0.5-2.7-1.2-3.9-2.2c-0.9,1.1-1.8,1.8-2.7,2.2
			c-0.9,0.4-2.2,0.6-4,0.6h-3.5V40h3.4c1.4,0,2.6-0.3,3.7-1c0.8-0.5,1.6-1.3,2.3-2.3c0.9-1.3,2-2.5,3.4-3.4c1.2-0.9,2.3-1.4,3.3-1.7
			c1,1.6,1.9,3,2.5,4.3c0.8,1.7,1.2,3.1,1.2,4.2V43.9z M200.8,39.5c-0.2-0.9-0.5-1.7-0.9-2.6c-0.3-0.7-0.8-1.4-1.4-2.2
			c-0.7,0.2-1.3,0.5-1.8,1c-0.3,0.3-0.7,0.8-1.2,1.6c0.5,0.6,1.3,1.1,2.3,1.6s1.9,0.8,2.8,0.9L200.8,39.5z"/>
		<path id="XMLID_67_" d="M218.6,43.9h-10.1c-0.9,0-1.6-0.2-2.3-0.7c-0.7-0.5-1-1.1-1-1.8c0-0.6,0-1.1,0.1-1.6s0.2-1,0.3-1.5h0.5
			c0.2,0.6,0.5,1.1,0.9,1.3c0.4,0.2,0.9,0.3,1.5,0.3h8.7c0-2.7-0.4-4.9-1.1-6.5c-0.9-2-2.5-3.4-4.7-4.1l0.3-4.4
			c2.6,1.3,4.4,3.3,5.5,6.1c0.9,2.3,1.3,5.2,1.3,8.8V43.9z"/>
		<path id="XMLID_65_" d="M228.7,43.9h-3.2c-1,0-1.8-0.4-2.5-1.2c-0.5-0.7-1-1.8-1.2-3.2s-0.5-3.2-0.6-5.3c-0.1-1.7-0.2-3.4-0.3-5.2
			c-0.1-1.8-0.2-3.1-0.4-4.1c-0.2-0.9-0.4-1.7-0.6-2.3c-0.3-0.7-0.8-1.4-1.4-1.9l2.8-4.4c0.6,1.8,1,4,1.2,6.5
			c0.2,1.6,0.3,5.3,0.5,11.1c0.3,2.7,0.7,4.4,1.2,5.1c0.4,0.6,0.9,0.9,1.4,0.9h3.2V43.9z"/>
		<path id="XMLID_60_" d="M240.8,43.9h-13.7V40h7.7c0.9,0,1.7,0,2.4-0.1s1.4-0.2,2.1-0.4c-2.6-0.4-4.3-0.7-5-1.1
			c-1.7-0.8-2.6-2-2.6-3.8c0-1.6,0.4-3.1,1.2-4.5c0.9-1.6,2.1-2.4,3.4-2.4c1.5,0,2.7,1,3.5,2.9c0.6,1.5,0.9,3.4,0.9,5.5V43.9z
			 M234.7,20.2l-1.8,3.1l-2.8-1.8l1.9-3L234.7,20.2z M238.8,36.1c-0.3-1.2-0.7-2.1-1-2.7c-0.6-1.1-1.4-1.7-2.2-1.7
			c-0.4,0-0.8,0.2-1.1,0.5c-0.3,0.3-0.4,0.7-0.4,1.2c0,1.1,0.6,1.9,1.8,2.3C236.2,35.8,237.2,35.9,238.8,36.1z M239.8,18.8l-1.9,3
			l-2.8-1.8l1.9-3L239.8,18.8z"/>
		<path id="XMLID_58_" d="M250.4,43.9h-11.1V40h8.9l-2.7-19.1l-1.2-0.6c0-1,0.1-2,0.3-2.9c0.2-0.9,0.5-1.8,0.8-2.6l0.3,0.2
			c0,0.9,0.5,1.5,1.5,2c0.8,0.3,1.5,0.6,2.3,0.9c0,0.8-0.1,1.6-0.2,2.4c-0.1,0.9-0.3,1.5-0.4,1.9l-1.1-0.4l2.7,17.7V43.9z"/>
		<path id="XMLID_56_" d="M257.5,38.2c0,1.2-0.2,2.4-0.7,3.5c-0.2,0.6-0.7,1.6-1.5,2.9l-0.4-0.2c0-0.4,0.1-0.9,0.1-1.5
			s0.1-1,0.1-1.1c0-1.6-0.1-3.7-0.4-6.5c-0.2-2.8-0.5-5.7-0.9-8.8c-0.2-1.8-0.4-3.7-0.7-5.7c0.3-0.7,0.6-1.4,1-2.1s0.7-1.5,1.1-2.2
			c0.2,1.7,0.5,4.1,0.9,7c0.4,3,0.7,5.7,0.9,8C257.4,34.4,257.5,36.7,257.5,38.2z"/>
		<path id="XMLID_54_" d="M290.7,41.1c0,2.4-0.6,4.3-1.7,5.7c-1,1.2-2.5,2.1-4.4,2.7c-1.7,0.5-3.7,0.7-6.3,0.7
			c-2.9,0-5.1-0.5-6.7-1.6c-1.7-1.2-2.6-2.9-2.6-5.3c0-1.3,0.2-2.6,0.6-4c0.3-1.2,0.8-2.5,1.4-3.9c0.5-1,1.1-2.3,1.9-3.7l0.7,0.4
			c-0.6,1-1,1.9-1.4,2.7c-0.5,1.1-0.9,2-1.1,2.9c-0.3,1-0.4,2-0.4,3c0,1.8,0.7,3.2,2,4.2c1.3,0.9,3.2,1.4,5.6,1.4
			c2.5,0,4.9-0.4,7.1-1.3c2.4-1,3.6-2.1,3.6-3.4c0-1.5-0.2-3.9-0.7-7.4c-0.4-2.7-0.8-5.7-1.3-9l-0.7-4.4l-1-0.5c0-2,0.4-3.8,1.2-5.5
			h0.4c0.1,0.6,0.2,1,0.3,1.3c0.1,0.3,0.4,0.5,0.7,0.6c0.5,0.2,1,0.4,1.5,0.7c0.4,0.2,0.8,0.4,1.1,0.5c0,1.1,0,1.8-0.1,2.3
			c-0.1,0.5-0.2,1.2-0.5,2l-1.3-0.4c0,0.3,0.2,1.8,0.7,4.5c0.5,3.1,0.8,5.7,1,7.6C290.5,37.1,290.7,39.5,290.7,41.1z"/>
		<path id="XMLID_52_" d="M300.8,43.9h-3.2c-1,0-1.8-0.4-2.5-1.2c-0.5-0.7-1-1.8-1.2-3.2s-0.5-3.2-0.6-5.3c-0.1-1.7-0.2-3.4-0.3-5.2
			c-0.1-1.8-0.2-3.1-0.4-4.1c-0.2-0.9-0.4-1.7-0.6-2.3c-0.3-0.7-0.8-1.4-1.4-1.9l2.8-4.4c0.6,1.8,1,4,1.2,6.5
			c0.2,1.6,0.3,5.3,0.5,11.1c0.3,2.7,0.7,4.4,1.2,5.1c0.4,0.6,0.9,0.9,1.4,0.9h3.2V43.9z"/>
		<path id="XMLID_50_" d="M310.4,43.9h-11.1V40h11.1V43.9z"/>
		<path id="XMLID_48_" d="M319.9,43.9h-11.1V40h11.1V43.9z"/>
		<path id="XMLID_46_" d="M329.5,43.9h-11.1V40h11.1V43.9z"/>
		<path id="XMLID_44_" d="M339,43.9h-11.1V40H339V43.9z"/>
		<path id="XMLID_42_" d="M348.6,43.9h-11.1V40h11.1V43.9z"/>
		<path id="XMLID_40_" d="M358.2,43.9H347V40h11.1V43.9z"/>
		<path id="XMLID_38_" d="M367.7,43.9h-11.1V40h11.1V43.9z"/>
		<path id="XMLID_34_" d="M379,43.9h-12.8V40h11.2c0-1.8-0.2-3.1-0.6-4.1c-0.3-0.6-1-1.6-2.1-2.8l1.8-3.7c1.1,1.4,1.8,2.4,2,3.2
			c0.4,1.2,0.6,3.1,0.6,5.7V43.9z M373.7,50.5l-1.7,3.3l-3.7-1.9l1.7-3.3L373.7,50.5z M378.9,48.4l-1.8,3.2l-3.7-1.9l1.7-3.2
			L378.9,48.4z"/>
		<path id="XMLID_31_" d="M403.4,43.9h-26V40h18.4c-1.5-1.2-2.8-2.1-3.9-2.8c-1.3-0.8-2.5-1.4-3.6-1.8c-1.2-0.4-2.4-0.6-3.7-0.6
			c-0.8,0-1.5,0.1-2.3,0.2c0.4-1.1,1-2,1.7-2.7c1-1,2.3-1.5,3.9-1.5c1.5,0,3.3,0.8,5.4,2.3c1,0.8,2.7,2.2,5.1,4.3
			c1.8,1.6,3.1,2.5,3.7,2.7h1.4V43.9z M392,48.8l-1.7,3.2l-3.7-1.9l1.8-3.3L392,48.8z"/>
		<path id="XMLID_27_" d="M410.1,13.6c0,0.4-0.2,0.7-0.7,1c-0.3,0.2-0.8,0.4-1.4,0.6l-4.2,1.4c0-0.7,0.8-1.3,2.3-1.8
			c-0.5-0.2-0.8-0.5-1.1-0.7c-0.3-0.3-0.5-0.6-0.5-0.9c0-0.5,0.4-1.1,1.2-2c0.9-0.9,1.7-1.4,2.3-1.4c0.3,0,0.6,0.1,0.8,0.3
			c0.2,0.2,0.3,0.5,0.3,0.8c0,0.2,0,0.4-0.1,0.6c-0.1,0.2-0.2,0.5-0.4,0.7c-0.5-0.4-1-0.6-1.5-0.6c-0.3,0-0.7,0.1-1,0.2
			c-0.3,0.1-0.5,0.3-0.5,0.5c0,0.2,0.3,0.5,1,0.9s1.3,0.6,1.8,0.6c0.3,0,0.6,0,0.7,0C409.4,13.9,409.7,13.8,410.1,13.6z M426.4,20.1
			l-1.1,4.1l-1.3-0.7l0,2.1c0,2-0.3,4-0.8,5.9c-0.6,2.1-1.4,4.1-2.6,6.2c0.6,1.1,1,1.9,1.2,2.5c0.3,0.9,0.5,1.9,0.5,2.9
			c0,0.6,0,1,0,1.4c0,0.4-0.1,0.8-0.2,1.4c-1.6,0.4-3.3,0.6-5.1,0.8c-1.8,0.2-3.6,0.3-5.3,0.3c0-0.3,0-0.5,0-0.7
			c0.1-1.1,0.3-2.2,0.5-3.2c2.6-1.4,4.7-3.1,6.5-5.3c-1.1-2-1.8-3.4-2.3-4.2c-0.5-0.9-1.4-2.3-2.7-4.2c-0.5-0.6-0.9-1.2-1.2-1.6
			c-0.5-0.5-0.9-0.8-1.2-0.8c-0.2,0-0.5,0.1-1,0.3c-0.2,0.1-0.4,0.2-0.6,0.2c-0.3,0-0.8-0.3-1.6-1c-0.6-0.6-1.3-1.3-1.9-2.2
			c-0.5-0.7-0.9-1.3-1.1-1.7s-0.3-1-0.3-1.7c0-0.9,0.1-1.7,0.2-2.2c0.2-0.8,0.5-1.2,0.9-1.2c0.6,0,1.5,0.6,2.7,1.8
			c1,1.1,2.2,2.4,3.5,4.1c1.1,1.5,2.2,3.2,3.3,4.9l2.3,3.7c0.7,1.1,1.4,2.4,2.1,3.8c1-2,1.7-4.1,2.1-6.2c0.3-1.8,0.5-4.1,0.5-6.9
			l-1.3-0.7c0-1,0.1-1.9,0.3-2.7c0.2-0.8,0.4-1.5,0.7-2.2l0.5,0.1c0.1,0.6,0.4,1.2,1.1,1.6c0.4,0.2,0.8,0.5,1.4,0.7
			C425.6,19.8,426.1,20,426.4,20.1z M420.5,42c0-0.3-0.1-0.7-0.2-1s-0.4-0.9-0.8-1.7c-0.4,0.6-1.1,1.3-2,2s-1.8,1.4-2.6,2
			c1.8,0,3-0.1,3.8-0.2C419.9,42.9,420.5,42.6,420.5,42z"/>
		<path id="XMLID_25_" d="M435.2,38.2c0,1.2-0.2,2.4-0.7,3.5c-0.2,0.6-0.7,1.6-1.5,2.9l-0.4-0.2c0-0.4,0.1-0.9,0.1-1.5
			s0.1-1,0.1-1.1c0-1.6-0.1-3.7-0.4-6.5c-0.2-2.8-0.5-5.7-0.9-8.8c-0.2-1.8-0.4-3.7-0.7-5.7c0.3-0.7,0.6-1.4,1-2.1s0.7-1.5,1.1-2.2
			c0.2,1.7,0.5,4.1,0.9,7c0.4,3,0.7,5.7,0.9,8C435.1,34.4,435.2,36.7,435.2,38.2z"/>
		<path id="XMLID_20_" d="M470.5,45.1c0,3-1.4,5.2-4.3,6.8c-2.6,1.4-6,2.1-10.2,2.1c-3.4,0-5.9-0.6-7.8-1.8c-2-1.3-3-3.2-3-5.8
			c0-1.8,0.3-3.6,0.9-5.6c0.5-1.8,1.3-3.6,2.3-5.4l0.9,0.4c-0.4,1.1-0.8,2-1.1,2.8c-0.4,1.1-0.7,2.1-0.9,2.9c-0.2,1-0.3,2-0.3,2.9
			c0,2,0.8,3.4,2.5,4.3c1.5,0.9,3.8,1.3,6.8,1.3c3.2,0,6-0.5,8.4-1.6c2.8-1.2,4.2-2.9,4.2-4.9c0-0.8,0-1.3-0.1-1.7
			c-0.1-0.3-0.1-0.7-0.3-1c-0.6,0.3-1.1,0.5-1.7,0.6c-0.6,0.2-1.2,0.2-1.7,0.2c-1.3,0-2.4-0.3-3.2-0.9c-1-0.7-1.5-1.8-1.5-3.3
			c0-1.7,0.4-3.3,1.3-4.9c1-1.7,2.1-2.6,3.5-2.6c1.8,0,3.1,1.2,4.2,3.6c0.9,2,1.3,4.4,1.3,7.1V45.1z M462.7,23l-1.7,3.3l-3.7-1.9
			l1.7-3.3L462.7,23z M466.9,36.7c-0.4-0.9-0.7-1.5-0.8-1.7c-0.4-0.6-0.9-0.9-1.6-0.9c-0.7,0-1.3,0.2-1.6,0.5s-0.5,0.8-0.5,1.3
			c0,0.5,0.2,0.8,0.7,1.1c0.4,0.3,0.9,0.4,1.5,0.4c0.4,0,0.8-0.1,1.1-0.2S466.4,37,466.9,36.7z M467.9,20.9l-1.8,3.2l-3.7-1.9
			l1.7-3.2L467.9,20.9z"/>
		<path id="XMLID_17_" d="M488.1,42.6c0,2.5-0.9,4.9-2.8,7.4c-2,2.7-4.4,4.1-7.1,4.1c-1,0-2-0.1-3.1-0.3c-0.8-0.2-1.8-0.5-3-0.9
			c-1-0.3-2-0.7-2.9-1l0.4-0.8c0.8,0.2,1.7,0.4,2.6,0.6c0.9,0.2,1.8,0.3,2.5,0.3c1.8,0,3.6-0.5,5.2-1.4c1.3-0.7,2.6-1.8,3.8-3.2
			c0.6-0.7,1.6-1.9,2.8-3.4c-2,0-3.5-0.3-4.6-1c-1.1-0.7-1.7-1.9-1.7-3.6c0-1.5,0.4-3,1.1-4.3c0.8-1.5,1.9-2.3,3.2-2.3
			c1.3,0,2.2,0.8,2.8,2.3c0.5,1.2,0.7,2.8,0.7,5V42.6z M486.7,40.1c-0.3-1.4-0.7-2.4-1.2-3c-0.4-0.5-0.9-0.7-1.5-0.7
			c-0.4,0-0.8,0.1-1.1,0.4c-0.3,0.3-0.5,0.6-0.5,1c0,0.7,0.3,1.3,1,1.7C484.1,39.9,485.2,40.1,486.7,40.1z"/>
		<path id="XMLID_15_" d="M495.8,43.9h-11.1V40h11.1V43.9z"/>
		<path id="XMLID_13_" d="M504.9,43.9h-11.1V40h11.1V43.9z"/>
		<path id="XMLID_8_" d="M517.1,43.9h-13.7V40h7.7c0.9,0,1.7,0,2.4-0.1s1.4-0.2,2.1-0.4c-2.6-0.4-4.3-0.7-5-1.1
			c-1.7-0.8-2.6-2-2.6-3.8c0-1.6,0.4-3.1,1.2-4.5c0.9-1.6,2.1-2.4,3.4-2.4c1.5,0,2.7,1,3.5,2.9c0.6,1.5,0.9,3.4,0.9,5.5V43.9z
			 M510.9,20.2l-1.8,3.1l-2.8-1.8l1.9-3L510.9,20.2z M515,36.1c-0.3-1.2-0.7-2.1-1-2.7c-0.6-1.1-1.4-1.7-2.2-1.7
			c-0.4,0-0.8,0.2-1.1,0.5c-0.3,0.3-0.4,0.7-0.4,1.2c0,1.1,0.6,1.9,1.8,2.3C512.5,35.8,513.5,35.9,515,36.1z M516.1,18.8l-1.9,3
			l-2.8-1.8l1.9-3L516.1,18.8z"/>
		<path id="XMLID_6_" d="M541.5,43.9h-26V40h18.4c-1.5-1.2-2.8-2.1-3.9-2.8c-1.3-0.8-2.5-1.4-3.6-1.8c-1.2-0.4-2.4-0.6-3.7-0.6
			c-0.8,0-1.5,0.1-2.3,0.2c0.4-1.1,1-2,1.7-2.7c1-1,2.3-1.5,3.9-1.5c1.5,0,3.3,0.8,5.4,2.3c1,0.8,2.7,2.2,5.1,4.3
			c1.8,1.6,3.1,2.5,3.7,2.7h1.4V43.9z"/>
	</g>
	<rect id="XMLID_4_" x="8.7" y="61.1" width="532.1" height="4.4"/>
	<circle id="XMLID_3_" cx="28.4" cy="28.4" r="19.6"/>
	<circle id="XMLID_2_" cx="521.2" cy="98.1" r="19.6"/>
</g>
</svg>
