<!-- Generator: Adobe Illustrator 23.1.1, SVG Export Plug-In  -->
<svg version="1.1" xmlns="http://www.w3.org/2000/svg" xmlns:xlink="http://www.w3.org/1999/xlink" x="0px" y="0px" width="181.4px"
	 height="90.7px" viewBox="0 0 181.4 90.7" style="enable-background:new 0 0 181.4 90.7;" xml:space="preserve">
<style type="text/css">
	.st0{fill:#009579;}
	.st1{fill:#F6E948;}
</style>
<defs>
</defs>
<path id="XMLID_108_" class="st0" d="M102,0L102,0c0,6.3-5.1,11.3-11.3,11.3c-6.3,0-11.3-5.1-11.3-11.3l0,0H0v90.7h79.4l0,0
	c0-6.3,5.1-11.3,11.3-11.3c6.3,0,11.3,5.1,11.3,11.3l0,0h79.4V0H102z"/>
<g id="XMLID_1_">
	<g>
		<path class="st1" d="M111.6,31.6c0.9,0,1.7-0.1,2.3-0.2c0.7-0.2,1.2-0.4,1.6-0.7c0.4-0.3,0.8-0.6,1-1c0.2-0.4,0.4-0.8,0.4-1.3
			c-0.5,0.2-1.2,0.2-1.9,0.2c-0.7,0-1.4-0.1-2-0.3c-0.6-0.2-1.1-0.5-1.6-0.9c-0.5-0.4-0.8-0.9-1.1-1.5c-0.3-0.6-0.4-1.4-0.4-2.2
			c0-0.7,0.1-1.4,0.4-2.1c0.2-0.7,0.6-1.3,1-1.8s1-1,1.7-1.3c0.7-0.3,1.4-0.5,2.3-0.5c1,0,1.8,0.2,2.4,0.5c0.7,0.3,1.2,0.8,1.6,1.4
			c0.4,0.6,0.7,1.3,0.8,2.1c0.2,0.8,0.3,1.7,0.3,2.7v2c0,2.5-0.7,4.5-2.2,5.9c-1.5,1.4-3.7,2.1-6.8,2.1c-2.7,0-4.8-0.5-6.2-1.5
			c-1.4-1-2.1-2.7-2.1-4.9v-4.2h3.4v3.5c0,1.4,0.4,2.4,1.2,3.1C108.5,31.3,109.8,31.6,111.6,31.6z M111,13.7c0-0.5,0.2-0.9,0.5-1.3
			c0.4-0.4,0.8-0.5,1.3-0.5c0.5,0,0.9,0.2,1.3,0.5c0.4,0.4,0.5,0.8,0.5,1.3c0,0.5-0.2,0.9-0.5,1.3c-0.4,0.4-0.8,0.5-1.3,0.5
			c-0.5,0-0.9-0.2-1.3-0.5C111.2,14.6,111,14.2,111,13.7z M113.3,23.5c0,0.9,0.2,1.5,0.5,1.8c0.4,0.3,0.8,0.5,1.4,0.5
			c0.7,0,1.3-0.1,1.7-0.4v-1.3c0-0.9-0.1-1.6-0.4-2.1s-0.7-0.8-1.4-0.8c-0.7,0-1.1,0.2-1.4,0.7C113.5,22.3,113.3,22.9,113.3,23.5z
			 M115.3,13.7c0-0.5,0.2-0.9,0.5-1.3c0.4-0.4,0.8-0.5,1.3-0.5c0.5,0,0.9,0.2,1.3,0.5c0.4,0.4,0.5,0.8,0.5,1.3
			c0,0.5-0.2,0.9-0.5,1.3c-0.4,0.4-0.8,0.5-1.3,0.5c-0.5,0-0.9-0.2-1.3-0.5C115.5,14.6,115.3,14.2,115.3,13.7z"/>
		<path class="st1" d="M131.1,30c-0.2,1.9-1,3.3-2.3,4.2c-1.3,0.9-3.3,1.3-5.9,1.3H122v-3.2h0.6c0.9,0,1.7-0.1,2.3-0.2
			c0.6-0.1,1.1-0.3,1.5-0.5c0.4-0.2,0.7-0.4,0.9-0.7c0.2-0.3,0.3-0.6,0.4-0.9H126c-0.8,0-1.5-0.1-2.1-0.3c-0.6-0.2-1.2-0.5-1.7-0.9
			c-0.5-0.4-0.8-0.9-1.1-1.5c-0.3-0.6-0.4-1.4-0.4-2.2c0-0.7,0.1-1.4,0.4-2.1c0.2-0.7,0.6-1.3,1-1.8c0.5-0.5,1-1,1.7-1.3
			c0.7-0.3,1.4-0.5,2.3-0.5c1,0,1.8,0.2,2.4,0.5c0.7,0.3,1.2,0.8,1.6,1.4c0.4,0.6,0.7,1.3,0.9,2.1s0.3,1.7,0.3,2.7v0.8h1.9
			c0.1,0,0.3,0,0.4,0s0.2,0.1,0.3,0.2c0.1,0.1,0.2,0.2,0.2,0.4c0.1,0.2,0.1,0.5,0.1,0.8c0,0.6-0.1,1-0.2,1.2
			c-0.2,0.2-0.4,0.3-0.8,0.3H131.1z M124.1,24.8c0,0.8,0.2,1.4,0.5,1.7c0.4,0.3,0.8,0.5,1.4,0.5h1.7v-1.6c0-0.8-0.1-1.5-0.4-2.1
			s-0.8-0.8-1.5-0.8c-0.6,0-1.1,0.2-1.4,0.7S124.1,24.1,124.1,24.8z"/>
		<path class="st1" d="M132.1,30c-0.1,0-0.3,0-0.4,0s-0.2-0.1-0.3-0.2c-0.1-0.1-0.2-0.2-0.2-0.4c-0.1-0.2-0.1-0.5-0.1-0.8
			c0-0.6,0.1-1,0.2-1.2c0.2-0.2,0.4-0.3,0.8-0.3h3.9c0.1,0,0.3,0,0.4,0c0.1,0,0.2,0.1,0.3,0.2c0.1,0.1,0.2,0.2,0.2,0.4
			c0.1,0.2,0.1,0.5,0.1,0.8c0,0.6-0.1,1-0.2,1.2c-0.2,0.2-0.4,0.3-0.8,0.3H132.1z"/>
		<path class="st1" d="M135.2,30c-0.1,0-0.3,0-0.4,0s-0.2-0.1-0.3-0.2c-0.1-0.1-0.2-0.2-0.2-0.4c-0.1-0.2-0.1-0.5-0.1-0.8
			c0-0.6,0.1-1,0.2-1.2c0.2-0.2,0.4-0.3,0.8-0.3h3.9c0.1,0,0.3,0,0.4,0c0.1,0,0.2,0.1,0.3,0.2c0.1,0.1,0.2,0.2,0.2,0.4
			c0.1,0.2,0.1,0.5,0.1,0.8c0,0.6-0.1,1-0.2,1.2c-0.2,0.2-0.4,0.3-0.8,0.3H135.2z"/>
		<path class="st1" d="M139,30c-0.1,0-0.3,0-0.4,0s-0.2-0.1-0.3-0.2c-0.1-0.1-0.2-0.2-0.2-0.4c-0.1-0.2-0.1-0.5-0.1-0.8
			c0-0.6,0.1-1,0.2-1.2c0.2-0.2,0.4-0.3,0.8-0.3h3.9c0.1,0,0.3,0,0.4,0c0.1,0,0.2,0.1,0.3,0.2c0.1,0.1,0.2,0.2,0.2,0.4
			c0.1,0.2,0.1,0.5,0.1,0.8c0,0.6-0.1,1-0.2,1.2c-0.2,0.2-0.4,0.3-0.8,0.3H139z"/>
		<path class="st1" d="M145.2,26.9c-0.1-0.3-0.2-0.6-0.3-1.1s-0.1-0.8-0.1-1.2c0-0.7,0.1-1.4,0.4-2c0.2-0.7,0.6-1.3,1-1.8
			c0.4-0.5,1-0.9,1.6-1.2c0.7-0.3,1.4-0.5,2.3-0.5c1,0,1.8,0.2,2.5,0.5c0.6,0.4,1.2,0.8,1.5,1.4c0.4,0.5,0.6,1.2,0.8,1.8
			s0.2,1.3,0.2,2v2.1h2c0.1,0,0.3,0,0.4,0s0.2,0.1,0.3,0.2c0.1,0.1,0.2,0.2,0.2,0.4s0.1,0.5,0.1,0.8c0,0.6-0.1,1-0.2,1.2
			c-0.2,0.2-0.4,0.3-0.8,0.3h-14.2c-0.1,0-0.3,0-0.4,0s-0.2-0.1-0.3-0.2c-0.1-0.1-0.2-0.2-0.2-0.4c-0.1-0.2-0.1-0.5-0.1-0.8
			c0-0.6,0.1-1,0.2-1.2c0.2-0.2,0.4-0.3,0.8-0.3H145.2z M145.9,15c0-0.5,0.2-0.9,0.6-1.3c0.4-0.4,0.8-0.5,1.3-0.5s0.9,0.2,1.3,0.5
			c0.4,0.4,0.5,0.8,0.5,1.3s-0.2,0.9-0.5,1.3c-0.4,0.4-0.8,0.5-1.3,0.5s-0.9-0.2-1.3-0.5C146.1,15.9,145.9,15.5,145.9,15z
			 M148.1,24.5c0,0.9,0.2,1.5,0.6,1.9c0.4,0.3,0.9,0.5,1.5,0.5h1.5v-2c0-0.3,0-0.7-0.1-1c0-0.3-0.1-0.6-0.3-0.9
			c-0.1-0.2-0.3-0.4-0.5-0.6s-0.5-0.2-0.9-0.2c-0.4,0-0.7,0.1-0.9,0.2c-0.2,0.1-0.4,0.3-0.6,0.5c-0.1,0.2-0.3,0.4-0.3,0.7
			C148.1,24,148.1,24.3,148.1,24.5z M150.2,15c0-0.5,0.2-0.9,0.5-1.3c0.4-0.4,0.8-0.5,1.3-0.5c0.5,0,0.9,0.2,1.3,0.5
			c0.4,0.4,0.5,0.8,0.5,1.3s-0.2,0.9-0.5,1.3c-0.4,0.4-0.8,0.5-1.3,0.5c-0.5,0-0.9-0.2-1.3-0.5C150.4,15.9,150.2,15.5,150.2,15z"/>
		<path class="st1" d="M166.5,26.9c-0.1-0.7-0.2-1.3-0.3-1.9c-0.2-0.6-0.4-1.1-0.8-1.5c-0.4-0.4-0.8-0.7-1.4-1
			c-0.6-0.2-1.3-0.4-2.1-0.4c-0.3,0-0.7,0-1.3,0.1c-0.6,0.1-1.2,0.2-1.8,0.4v-3c0.4-0.1,0.9-0.3,1.6-0.4s1.4-0.2,2.1-0.2
			c1.4,0,2.5,0.2,3.4,0.7c0.9,0.5,1.7,1.1,2.3,1.9s1,1.7,1.2,2.7c0.3,1,0.4,2.1,0.4,3.2V30h-12.7c-0.1,0-0.3,0-0.4,0
			s-0.2-0.1-0.3-0.2c-0.1-0.1-0.2-0.2-0.2-0.4c-0.1-0.2-0.1-0.5-0.1-0.8c0-0.6,0.1-1,0.2-1.2c0.2-0.2,0.4-0.3,0.8-0.3H166.5z"/>
		<path class="st1" d="M78.4,51.4c0,1.4-0.2,2.5-0.5,3.5s-0.8,1.7-1.4,2.2c-0.6,0.5-1.4,0.9-2.3,1.2c-0.9,0.2-1.9,0.4-3,0.4
			c-2.4,0-4.1-0.6-5.3-1.7c-1.2-1.1-1.8-2.8-1.8-5.1v-4.1h3.4v4c0,1.2,0.3,2.2,0.9,2.8c0.6,0.6,1.6,1,2.9,1c1.3,0,2.2-0.3,2.8-0.8
			s0.9-1.5,0.9-2.8V33.3h3.4V51.4z"/>
		<path class="st1" d="M86.9,50.4c0,0.6-0.1,1-0.2,1.2c-0.2,0.2-0.4,0.3-0.8,0.3h-1.1c-0.6,0-1.1-0.1-1.6-0.2s-0.9-0.3-1.3-0.7
			s-0.6-0.7-0.8-1.2c-0.2-0.5-0.3-1.1-0.3-1.9V33.3h3.4v14.3c0,0.6,0.1,1,0.3,1.2c0.2,0.2,0.5,0.2,0.9,0.2h0.5c0.1,0,0.3,0,0.4,0
			s0.2,0.1,0.3,0.2c0.1,0.1,0.2,0.2,0.2,0.4C86.9,49.8,86.9,50,86.9,50.4z"/>
		<path class="st1" d="M85.9,52c-0.1,0-0.3,0-0.4,0s-0.2-0.1-0.3-0.2c-0.1-0.1-0.2-0.2-0.2-0.4c-0.1-0.2-0.1-0.5-0.1-0.8
			c0-0.6,0.1-1,0.2-1.2c0.2-0.2,0.4-0.3,0.8-0.3h3.9c0.1,0,0.3,0,0.4,0c0.1,0,0.2,0.1,0.3,0.2c0.1,0.1,0.2,0.2,0.2,0.4
			c0.1,0.2,0.1,0.5,0.1,0.8c0,0.6-0.1,1-0.2,1.2c-0.2,0.2-0.4,0.3-0.8,0.3H85.9z"/>
		<path class="st1" d="M89.8,52c-0.1,0-0.3,0-0.4,0s-0.2-0.1-0.3-0.2c-0.1-0.1-0.2-0.2-0.2-0.4c-0.1-0.2-0.1-0.5-0.1-0.8
			c0-0.6,0.1-1,0.2-1.2c0.2-0.2,0.4-0.3,0.8-0.3h3.9c0.1,0,0.3,0,0.4,0c0.1,0,0.2,0.1,0.3,0.2c0.1,0.1,0.2,0.2,0.2,0.4
			c0.1,0.2,0.1,0.5,0.1,0.8c0,0.6-0.1,1-0.2,1.2C94.3,51.8,94,52,93.6,52H89.8z"/>
		<path class="st1" d="M93.9,52c-0.1,0-0.3,0-0.4,0s-0.2-0.1-0.3-0.2c-0.1-0.1-0.2-0.2-0.2-0.4c-0.1-0.2-0.1-0.5-0.1-0.8
			c0-0.6,0.1-1,0.2-1.2c0.2-0.2,0.4-0.3,0.8-0.3h3.9c0.1,0,0.3,0,0.4,0c0.1,0,0.2,0.1,0.3,0.2c0.1,0.1,0.2,0.2,0.2,0.4
			c0.1,0.2,0.1,0.5,0.1,0.8c0,0.6-0.1,1-0.2,1.2c-0.2,0.2-0.4,0.3-0.8,0.3H93.9z"/>
		<path class="st1" d="M97,52c-0.1,0-0.3,0-0.4,0s-0.2-0.1-0.3-0.2c-0.1-0.1-0.2-0.2-0.2-0.4C96,51.1,96,50.8,96,50.5
			c0-0.6,0.1-1,0.2-1.2c0.2-0.2,0.4-0.3,0.8-0.3h3.9c0.1,0,0.3,0,0.4,0c0.1,0,0.2,0.1,0.3,0.2c0.1,0.1,0.2,0.2,0.2,0.4
			c0.1,0.2,0.1,0.5,0.1,0.8c0,0.6-0.1,1-0.2,1.2c-0.2,0.2-0.4,0.3-0.8,0.3H97z"/>
		<path class="st1" d="M100.9,52c-0.1,0-0.3,0-0.4,0s-0.2-0.1-0.3-0.2c-0.1-0.1-0.2-0.2-0.2-0.4c-0.1-0.2-0.1-0.5-0.1-0.8
			c0-0.6,0.1-1,0.2-1.2c0.2-0.2,0.4-0.3,0.8-0.3h3.9c0.1,0,0.3,0,0.4,0c0.1,0,0.2,0.1,0.3,0.2c0.1,0.1,0.2,0.2,0.2,0.4
			c0.1,0.2,0.1,0.5,0.1,0.8c0,0.6-0.1,1-0.2,1.2c-0.2,0.2-0.4,0.3-0.8,0.3H100.9z"/>
		<path class="st1" d="M104.7,52c-0.1,0-0.3,0-0.4,0s-0.2-0.1-0.3-0.2c-0.1-0.1-0.2-0.2-0.2-0.4c-0.1-0.2-0.1-0.5-0.1-0.8
			c0-0.6,0.1-1,0.2-1.2c0.2-0.2,0.4-0.3,0.8-0.3h3.9c0.1,0,0.3,0,0.4,0c0.1,0,0.2,0.1,0.3,0.2c0.1,0.1,0.2,0.2,0.2,0.4
			c0.1,0.2,0.1,0.5,0.1,0.8c0,0.6-0.1,1-0.2,1.2c-0.2,0.2-0.4,0.3-0.8,0.3H104.7z"/>
		<path class="st1" d="M108.6,52c-0.1,0-0.3,0-0.4,0s-0.2-0.1-0.3-0.2c-0.1-0.1-0.2-0.2-0.2-0.4c-0.1-0.2-0.1-0.5-0.1-0.8
			c0-0.6,0.1-1,0.2-1.2c0.2-0.2,0.4-0.3,0.8-0.3h3.9c0.1,0,0.3,0,0.4,0c0.1,0,0.2,0.1,0.3,0.2c0.1,0.1,0.2,0.2,0.2,0.4
			c0.1,0.2,0.1,0.5,0.1,0.8c0,0.6-0.1,1-0.2,1.2c-0.2,0.2-0.4,0.3-0.8,0.3H108.6z"/>
		<path class="st1" d="M112.5,52c-0.1,0-0.3,0-0.4,0s-0.2-0.1-0.3-0.2c-0.1-0.1-0.2-0.2-0.2-0.4c-0.1-0.2-0.1-0.5-0.1-0.8
			c0-0.6,0.1-1,0.2-1.2c0.2-0.2,0.4-0.3,0.8-0.3h3.9c0.1,0,0.3,0,0.4,0c0.1,0,0.2,0.1,0.3,0.2c0.1,0.1,0.2,0.2,0.2,0.4
			c0.1,0.2,0.1,0.5,0.1,0.8c0,0.6-0.1,1-0.2,1.2c-0.2,0.2-0.4,0.3-0.8,0.3H112.5z"/>
		<path class="st1" d="M116.4,52c-0.1,0-0.3,0-0.4,0s-0.2-0.1-0.3-0.2c-0.1-0.1-0.2-0.2-0.2-0.4c-0.1-0.2-0.1-0.5-0.1-0.8
			c0-0.6,0.1-1,0.2-1.2c0.2-0.2,0.4-0.3,0.8-0.3h3.9c0.1,0,0.3,0,0.4,0c0.1,0,0.2,0.1,0.3,0.2c0.1,0.1,0.2,0.2,0.2,0.4
			c0.1,0.2,0.1,0.5,0.1,0.8c0,0.6-0.1,1-0.2,1.2c-0.2,0.2-0.4,0.3-0.8,0.3H116.4z"/>
		<path class="st1" d="M120.3,52c-0.1,0-0.3,0-0.4,0s-0.2-0.1-0.3-0.2c-0.1-0.1-0.2-0.2-0.2-0.4c-0.1-0.2-0.1-0.5-0.1-0.8
			c0-0.6,0.1-1,0.2-1.2c0.2-0.2,0.4-0.3,0.8-0.3h3.9c0.1,0,0.3,0,0.4,0c0.1,0,0.2,0.1,0.3,0.2c0.1,0.1,0.2,0.2,0.2,0.4
			c0.1,0.2,0.1,0.5,0.1,0.8c0,0.6-0.1,1-0.2,1.2c-0.2,0.2-0.4,0.3-0.8,0.3H120.3z"/>
		<path class="st1" d="M133.5,52c-0.2,0-0.5,0-0.8-0.1c-0.3,0-0.5-0.1-0.8-0.2c-0.3-0.1-0.5-0.2-0.7-0.4c-0.2-0.2-0.4-0.4-0.6-0.7
			c-0.2,0.3-0.5,0.5-0.8,0.7s-0.6,0.3-0.9,0.4c-0.3,0.1-0.7,0.1-1,0.2c-0.4,0-0.7,0-1.1,0h-2.6c-0.1,0-0.3,0-0.4,0s-0.2-0.1-0.3-0.2
			c-0.1-0.1-0.2-0.2-0.2-0.4c-0.1-0.2-0.1-0.5-0.1-0.8c0-0.6,0.1-1,0.2-1.2c0.2-0.2,0.4-0.3,0.8-0.3h2.1c0.6,0,1-0.1,1.2-0.3
			c0.2-0.2,0.4-0.6,0.4-1.2v-5.9h3.4v5.6c0,0.6,0.2,1.1,0.5,1.4c0.3,0.3,0.9,0.4,1.8,0.4c0.1,0,0.3,0,0.4,0s0.2,0.1,0.3,0.2
			c0.1,0.1,0.2,0.2,0.2,0.4c0.1,0.2,0.1,0.5,0.1,0.8c0,0.6-0.1,1-0.2,1.2C134.1,51.8,133.8,52,133.5,52z M124.8,56.4
			c0-0.5,0.2-0.9,0.5-1.3c0.4-0.4,0.8-0.5,1.3-0.5c0.5,0,0.9,0.2,1.3,0.5c0.4,0.4,0.5,0.8,0.5,1.3c0,0.5-0.2,0.9-0.5,1.3
			c-0.4,0.4-0.8,0.5-1.3,0.5c-0.5,0-0.9-0.2-1.3-0.5C125,57.3,124.8,56.9,124.8,56.4z M129.1,56.4c0-0.5,0.2-0.9,0.5-1.3
			c0.4-0.4,0.8-0.5,1.3-0.5c0.5,0,0.9,0.2,1.3,0.5s0.5,0.8,0.5,1.3c0,0.5-0.2,0.9-0.5,1.3c-0.4,0.4-0.8,0.5-1.3,0.5
			c-0.5,0-0.9-0.2-1.3-0.5C129.3,57.3,129.1,56.9,129.1,56.4z"/>
		<path class="st1" d="M142.9,48.9c-0.1-0.7-0.2-1.3-0.3-1.9c-0.2-0.6-0.4-1.1-0.8-1.5c-0.4-0.4-0.8-0.7-1.4-1
			c-0.6-0.2-1.3-0.4-2.1-0.4c-0.3,0-0.7,0-1.3,0.1c-0.6,0.1-1.2,0.2-1.8,0.4v-3c0.4-0.1,0.9-0.3,1.6-0.4s1.4-0.2,2.1-0.2
			c1.4,0,2.5,0.2,3.4,0.7c0.9,0.5,1.7,1.1,2.3,1.9s1,1.7,1.2,2.7c0.3,1,0.4,2.1,0.4,3.2V52h-12.7c-0.1,0-0.3,0-0.4,0
			s-0.2-0.1-0.3-0.2c-0.1-0.1-0.2-0.2-0.2-0.4c-0.1-0.2-0.1-0.5-0.1-0.8c0-0.6,0.1-1,0.2-1.2c0.2-0.2,0.4-0.3,0.8-0.3H142.9z
			 M137.6,56.3c0-0.5,0.2-0.9,0.5-1.3c0.4-0.4,0.8-0.5,1.3-0.5c0.5,0,0.9,0.2,1.3,0.5c0.4,0.4,0.5,0.8,0.5,1.3
			c0,0.5-0.2,0.9-0.5,1.3c-0.4,0.4-0.8,0.5-1.3,0.5c-0.5,0-0.9-0.2-1.3-0.5C137.8,57.2,137.6,56.8,137.6,56.3z"/>
		<path class="st1" d="M162.7,33.3V52h-15.2v-3h5v-9.2h3.4v9.2h3.4V33.3H162.7z M156.7,37.4h-5.1v-1.8h1.1c-0.1-0.1-0.1-0.3-0.2-0.5
			c0-0.2-0.1-0.4-0.1-0.5c0-0.4,0.1-0.8,0.2-1.1s0.3-0.6,0.5-0.8c0.2-0.2,0.5-0.4,0.8-0.5s0.6-0.2,0.9-0.2c0.3,0,0.5,0,0.8,0.1
			c0.2,0.1,0.4,0.1,0.6,0.2V34c-0.5-0.1-0.8-0.2-1-0.2c-0.3,0-0.6,0.1-0.7,0.2c-0.1,0.2-0.2,0.3-0.2,0.6c0,0.2,0.1,0.5,0.2,0.6
			s0.4,0.2,0.8,0.2h1.4V37.4z"/>
		<path class="st1" d="M168.5,33.3V52h-3.4V33.3H168.5z"/>
		<path class="st1" d="M58.5,74c-0.4,0-0.8,0-1.2-0.1c-0.4-0.1-0.8-0.2-1.1-0.3c-0.3-0.2-0.6-0.4-0.9-0.6s-0.4-0.6-0.6-1.1
			c-0.3,0.1-0.6,0.1-0.9,0.2c-0.3,0-0.6,0.1-0.9,0.1c-0.4,0-0.9-0.1-1.5-0.2s-1.1-0.4-1.6-0.7c-0.5-0.3-1-0.8-1.3-1.5
			c-0.4-0.6-0.5-1.4-0.5-2.4c0-1,0.2-1.8,0.5-2.4c0.3-0.7,0.8-1.2,1.3-1.6c0.5-0.4,1.1-0.7,1.8-0.9c0.7-0.2,1.3-0.3,1.9-0.3h4.5v7.8
			c0,0.4,0.1,0.7,0.2,0.8c0.1,0.1,0.3,0.2,0.7,0.2h0.6c0.1,0,0.3,0,0.4,0s0.2,0.1,0.3,0.2c0.1,0.1,0.2,0.2,0.2,0.4
			c0.1,0.2,0.1,0.5,0.1,0.8c0,0.6-0.1,1-0.2,1.2C60,73.8,59.7,74,59.4,74H58.5z M49.7,57.7c0-0.5,0.2-0.9,0.6-1.3
			c0.4-0.4,0.8-0.5,1.3-0.5s0.9,0.2,1.3,0.5c0.4,0.4,0.5,0.8,0.5,1.3c0,0.5-0.2,0.9-0.5,1.3c-0.4,0.4-0.8,0.5-1.3,0.5
			s-0.9-0.2-1.3-0.5C49.8,58.6,49.7,58.2,49.7,57.7z M51.2,67.1c0,0.2,0,0.4,0.1,0.7c0.1,0.2,0.1,0.4,0.3,0.6
			c0.1,0.2,0.3,0.3,0.6,0.5s0.5,0.2,0.9,0.2c0.2,0,0.5,0,0.7,0c0.2,0,0.5-0.1,0.7-0.2v-3.6h-1.3c-0.6,0-1.1,0.2-1.5,0.5
			S51.2,66.6,51.2,67.1z M53.9,57.7c0-0.5,0.2-0.9,0.5-1.3c0.4-0.4,0.8-0.5,1.3-0.5c0.5,0,0.9,0.2,1.3,0.5c0.4,0.4,0.5,0.8,0.5,1.3
			c0,0.5-0.2,0.9-0.5,1.3c-0.4,0.4-0.8,0.5-1.3,0.5c-0.5,0-0.9-0.2-1.3-0.5C54.1,58.6,53.9,58.2,53.9,57.7z"/>
		<path class="st1" d="M59.4,74c-0.1,0-0.3,0-0.4,0s-0.2-0.1-0.3-0.2c-0.1-0.1-0.2-0.2-0.2-0.4c-0.1-0.2-0.1-0.5-0.1-0.8
			c0-0.6,0.1-1,0.2-1.2c0.2-0.2,0.4-0.3,0.8-0.3h3.9c0.1,0,0.3,0,0.4,0c0.1,0,0.2,0.1,0.3,0.2c0.1,0.1,0.2,0.2,0.2,0.4
			c0.1,0.2,0.1,0.5,0.1,0.8c0,0.6-0.1,1-0.2,1.2c-0.2,0.2-0.4,0.3-0.8,0.3H59.4z"/>
		<path class="st1" d="M63.3,74c-0.1,0-0.3,0-0.4,0s-0.2-0.1-0.3-0.2c-0.1-0.1-0.2-0.2-0.2-0.4c-0.1-0.2-0.1-0.5-0.1-0.8
			c0-0.6,0.1-1,0.2-1.2c0.2-0.2,0.4-0.3,0.8-0.3h3.9c0.1,0,0.3,0,0.4,0c0.1,0,0.2,0.1,0.3,0.2c0.1,0.1,0.2,0.2,0.2,0.4
			c0.1,0.2,0.1,0.5,0.1,0.8c0,0.6-0.1,1-0.2,1.2c-0.2,0.2-0.4,0.3-0.8,0.3H63.3z"/>
		<path class="st1" d="M67.1,74c-0.1,0-0.3,0-0.4,0s-0.2-0.1-0.3-0.2c-0.1-0.1-0.2-0.2-0.2-0.4c-0.1-0.2-0.1-0.5-0.1-0.8
			c0-0.6,0.1-1,0.2-1.2c0.2-0.2,0.4-0.3,0.8-0.3H71c0.1,0,0.3,0,0.4,0c0.1,0,0.2,0.1,0.3,0.2c0.1,0.1,0.2,0.2,0.2,0.4
			C72,71.8,72,72,72,72.4c0,0.6-0.1,1-0.2,1.2C71.6,73.8,71.4,74,71,74H67.1z"/>
		<path class="st1" d="M71,74c-0.1,0-0.3,0-0.4,0s-0.2-0.1-0.3-0.2c-0.1-0.1-0.2-0.2-0.2-0.4C70,73.1,70,72.8,70,72.5
			c0-0.6,0.1-1,0.2-1.2c0.2-0.2,0.4-0.3,0.8-0.3h3.9c0.1,0,0.3,0,0.4,0c0.1,0,0.2,0.1,0.3,0.2c0.1,0.1,0.2,0.2,0.2,0.4
			c0.1,0.2,0.1,0.5,0.1,0.8c0,0.6-0.1,1-0.2,1.2c-0.2,0.2-0.4,0.3-0.8,0.3H71z"/>
		<path class="st1" d="M74.9,74c-0.1,0-0.3,0-0.4,0s-0.2-0.1-0.3-0.2c-0.1-0.1-0.2-0.2-0.2-0.4c-0.1-0.2-0.1-0.5-0.1-0.8
			c0-0.6,0.1-1,0.2-1.2c0.2-0.2,0.4-0.3,0.8-0.3h3.9c0.1,0,0.3,0,0.4,0c0.1,0,0.2,0.1,0.3,0.2c0.1,0.1,0.2,0.2,0.2,0.4
			c0.1,0.2,0.1,0.5,0.1,0.8c0,0.6-0.1,1-0.2,1.2c-0.2,0.2-0.4,0.3-0.8,0.3H74.9z"/>
		<path class="st1" d="M78.8,74c-0.1,0-0.3,0-0.4,0s-0.2-0.1-0.3-0.2c-0.1-0.1-0.2-0.2-0.2-0.4c-0.1-0.2-0.1-0.5-0.1-0.8
			c0-0.6,0.1-1,0.2-1.2c0.2-0.2,0.4-0.3,0.8-0.3h3.9c0.1,0,0.3,0,0.4,0c0.1,0,0.2,0.1,0.3,0.2c0.1,0.1,0.2,0.2,0.2,0.4
			c0.1,0.2,0.1,0.5,0.1,0.8c0,0.6-0.1,1-0.2,1.2C83.3,73.8,83,74,82.7,74H78.8z"/>
		<path class="st1" d="M82.7,74c-0.1,0-0.3,0-0.4,0s-0.2-0.1-0.3-0.2c-0.1-0.1-0.2-0.2-0.2-0.4c-0.1-0.2-0.1-0.5-0.1-0.8
			c0-0.6,0.1-1,0.2-1.2c0.2-0.2,0.4-0.3,0.8-0.3h3.9c0.1,0,0.3,0,0.4,0c0.1,0,0.2,0.1,0.3,0.2c0.1,0.1,0.2,0.2,0.2,0.4
			c0.1,0.2,0.1,0.5,0.1,0.8c0,0.6-0.1,1-0.2,1.2c-0.2,0.2-0.4,0.3-0.8,0.3H82.7z"/>
		<path class="st1" d="M86.5,74c-0.1,0-0.3,0-0.4,0s-0.2-0.1-0.3-0.2c-0.1-0.1-0.2-0.2-0.2-0.4c-0.1-0.2-0.1-0.5-0.1-0.8
			c0-0.6,0.1-1,0.2-1.2c0.2-0.2,0.4-0.3,0.8-0.3h3.9c0.1,0,0.3,0,0.4,0c0.1,0,0.2,0.1,0.3,0.2c0.1,0.1,0.2,0.2,0.2,0.4
			c0.1,0.2,0.1,0.5,0.1,0.8c0,0.6-0.1,1-0.2,1.2C91,73.8,90.7,74,90.4,74H86.5z"/>
		<path class="st1" d="M90.4,74c-0.1,0-0.3,0-0.4,0s-0.2-0.1-0.3-0.2c-0.1-0.1-0.2-0.2-0.2-0.4c-0.1-0.2-0.1-0.5-0.1-0.8
			c0-0.6,0.1-1,0.2-1.2c0.2-0.2,0.4-0.3,0.8-0.3h3.9c0.1,0,0.3,0,0.4,0c0.1,0,0.2,0.1,0.3,0.2c0.1,0.1,0.2,0.2,0.2,0.4
			c0.1,0.2,0.1,0.5,0.1,0.8c0,0.6-0.1,1-0.2,1.2c-0.2,0.2-0.4,0.3-0.8,0.3H90.4z"/>
		<path class="st1" d="M94.3,74c-0.1,0-0.3,0-0.4,0s-0.2-0.1-0.3-0.2c-0.1-0.1-0.2-0.2-0.2-0.4c-0.1-0.2-0.1-0.5-0.1-0.8
			c0-0.6,0.1-1,0.2-1.2c0.2-0.2,0.4-0.3,0.8-0.3h3.9c0.1,0,0.3,0,0.4,0c0.1,0,0.2,0.1,0.3,0.2c0.1,0.1,0.2,0.2,0.2,0.4
			c0.1,0.2,0.1,0.5,0.1,0.8c0,0.6-0.1,1-0.2,1.2c-0.2,0.2-0.4,0.3-0.8,0.3H94.3z"/>
		<path class="st1" d="M98.2,74c-0.1,0-0.3,0-0.4,0s-0.2-0.1-0.3-0.2c-0.1-0.1-0.2-0.2-0.2-0.4c-0.1-0.2-0.1-0.5-0.1-0.8
			c0-0.6,0.1-1,0.2-1.2c0.2-0.2,0.4-0.3,0.8-0.3h3.9c0.1,0,0.3,0,0.4,0c0.1,0,0.2,0.1,0.3,0.2c0.1,0.1,0.2,0.2,0.2,0.4
			c0.1,0.2,0.1,0.5,0.1,0.8c0,0.6-0.1,1-0.2,1.2c-0.2,0.2-0.4,0.3-0.8,0.3H98.2z"/>
		<path class="st1" d="M102,74c-0.1,0-0.3,0-0.4,0s-0.2-0.1-0.3-0.2c-0.1-0.1-0.2-0.2-0.2-0.4c-0.1-0.2-0.1-0.5-0.1-0.8
			c0-0.6,0.1-1,0.2-1.2c0.2-0.2,0.4-0.3,0.8-0.3h3.9c0.1,0,0.3,0,0.4,0c0.1,0,0.2,0.1,0.3,0.2c0.1,0.1,0.2,0.2,0.2,0.4
			c0.1,0.2,0.1,0.5,0.1,0.8c0,0.6-0.1,1-0.2,1.2c-0.2,0.2-0.4,0.3-0.8,0.3H102z"/>
		<path class="st1" d="M105.9,74c-0.1,0-0.3,0-0.4,0s-0.2-0.1-0.3-0.2c-0.1-0.1-0.2-0.2-0.2-0.4c-0.1-0.2-0.1-0.5-0.1-0.8
			c0-0.6,0.1-1,0.2-1.2c0.2-0.2,0.4-0.3,0.8-0.3h3.9c0.1,0,0.3,0,0.4,0c0.1,0,0.2,0.1,0.3,0.2c0.1,0.1,0.2,0.2,0.2,0.4
			c0.1,0.2,0.1,0.5,0.1,0.8c0,0.6-0.1,1-0.2,1.2c-0.2,0.2-0.4,0.3-0.8,0.3H105.9z"/>
		<path class="st1" d="M109.8,74c-0.1,0-0.3,0-0.4,0s-0.2-0.1-0.3-0.2c-0.1-0.1-0.2-0.2-0.2-0.4c-0.1-0.2-0.1-0.5-0.1-0.8
			c0-0.6,0.1-1,0.2-1.2c0.2-0.2,0.4-0.3,0.8-0.3h3.9c0.1,0,0.3,0,0.4,0c0.1,0,0.2,0.1,0.3,0.2c0.1,0.1,0.2,0.2,0.2,0.4
			c0.1,0.2,0.1,0.5,0.1,0.8c0,0.6-0.1,1-0.2,1.2c-0.2,0.2-0.4,0.3-0.8,0.3H109.8z"/>
		<path class="st1" d="M115,70.9c0.2,0,0.5-0.2,0.8-0.5c0.3-0.3,0.6-0.9,0.8-1.5c0.4-1,0.8-1.8,1.2-2.5c0.4-0.7,0.9-1.2,1.4-1.6
			c0.5-0.4,1-0.7,1.5-0.8c0.5-0.2,1-0.2,1.4-0.2c0.7,0,1.3,0.1,1.9,0.4c0.6,0.3,1.1,0.6,1.5,1.1s0.8,1,1,1.7
			c0.2,0.7,0.4,1.4,0.4,2.2c0,1.6-0.4,2.8-1.2,3.7c-0.8,0.9-1.9,1.4-3.5,1.4c-0.7,0-1.4-0.1-2.1-0.3s-1.5-0.6-2.2-1.1
			c-0.5,0.5-0.9,0.8-1.4,0.9s-1,0.2-1.5,0.2h-1.4c-0.1,0-0.3,0-0.4,0s-0.2-0.1-0.3-0.2c-0.1-0.1-0.2-0.2-0.2-0.4
			c-0.1-0.2-0.1-0.5-0.1-0.8c0-0.6,0.1-1,0.2-1.2c0.2-0.2,0.4-0.3,0.8-0.3H115z M123.7,69.1c0-0.3,0-0.5-0.1-0.8
			c-0.1-0.3-0.2-0.5-0.3-0.7c-0.1-0.2-0.3-0.4-0.5-0.5c-0.2-0.1-0.5-0.2-0.8-0.2c-0.5,0-0.9,0.2-1.4,0.7c-0.5,0.5-0.9,1.4-1.2,2.6
			c0.4,0.3,0.9,0.5,1.2,0.6c0.4,0.2,0.8,0.2,1.3,0.2c0.6,0,1-0.2,1.3-0.6S123.7,69.7,123.7,69.1z"/>
		<path class="st1" d="M137.1,70.7c0,0.5-0.1,0.9-0.2,1.3c-0.1,0.4-0.4,0.8-0.7,1s-0.7,0.5-1.2,0.7c-0.5,0.2-1,0.3-1.7,0.3H127v-3
			h5.1c0.4,0,0.7,0,0.9-0.1c0.2-0.1,0.3-0.2,0.3-0.4c0-0.1,0-0.2,0-0.3c0-0.1-0.1-0.2-0.2-0.4c-0.1-0.2-0.3-0.4-0.5-0.7
			c-0.2-0.3-0.5-0.7-0.8-1.2l-2.1-3.1c0.5-0.3,1-0.7,1.5-1c0.5-0.3,1-0.7,1.6-1l2.3,3.7c0.6,1,1.1,1.8,1.4,2.5
			C136.9,69.5,137.1,70.1,137.1,70.7z"/>
		<path class="st1" d="M144.1,72.4c0,0.6-0.1,1-0.2,1.2c-0.2,0.2-0.4,0.3-0.8,0.3H142c-0.6,0-1.1-0.1-1.6-0.2s-0.9-0.3-1.3-0.7
			s-0.6-0.7-0.8-1.2c-0.2-0.5-0.3-1.1-0.3-1.9V55.3h3.4v14.3c0,0.6,0.1,1,0.3,1.2c0.2,0.2,0.5,0.2,0.9,0.2h0.5c0.1,0,0.3,0,0.4,0
			s0.2,0.1,0.3,0.2c0.1,0.1,0.2,0.2,0.2,0.4C144.1,71.8,144.1,72,144.1,72.4z"/>
		<path class="st1" d="M145.4,70.9c-0.1-0.3-0.2-0.6-0.3-1.1s-0.1-0.8-0.1-1.2c0-0.7,0.1-1.4,0.4-2c0.2-0.7,0.6-1.3,1-1.8
			c0.4-0.5,1-0.9,1.6-1.2c0.7-0.3,1.4-0.5,2.3-0.5c1,0,1.8,0.2,2.5,0.5c0.6,0.4,1.2,0.8,1.5,1.4c0.4,0.5,0.6,1.2,0.8,1.8
			s0.2,1.3,0.2,2v2.1h2c0.1,0,0.3,0,0.4,0s0.2,0.1,0.3,0.2c0.1,0.1,0.2,0.2,0.2,0.4s0.1,0.5,0.1,0.8c0,0.6-0.1,1-0.2,1.2
			c-0.2,0.2-0.4,0.3-0.8,0.3h-14.2c-0.1,0-0.3,0-0.4,0s-0.2-0.1-0.3-0.2c-0.1-0.1-0.2-0.2-0.2-0.4c-0.1-0.2-0.1-0.5-0.1-0.8
			c0-0.6,0.1-1,0.2-1.2c0.2-0.2,0.4-0.3,0.8-0.3H145.4z M146.1,59c0-0.5,0.2-0.9,0.6-1.3c0.4-0.4,0.8-0.5,1.3-0.5s0.9,0.2,1.3,0.5
			c0.4,0.4,0.5,0.8,0.5,1.3s-0.2,0.9-0.5,1.3c-0.4,0.4-0.8,0.5-1.3,0.5s-0.9-0.2-1.3-0.5C146.3,59.9,146.1,59.5,146.1,59z
			 M148.3,68.5c0,0.9,0.2,1.5,0.6,1.9c0.4,0.3,0.9,0.5,1.5,0.5h1.5v-2c0-0.3,0-0.7-0.1-1c0-0.3-0.1-0.6-0.3-0.9
			c-0.1-0.2-0.3-0.4-0.5-0.6s-0.5-0.2-0.9-0.2c-0.4,0-0.7,0.1-0.9,0.2c-0.2,0.1-0.4,0.3-0.6,0.5c-0.1,0.2-0.3,0.4-0.3,0.7
			C148.3,68,148.3,68.3,148.3,68.5z M150.4,59c0-0.5,0.2-0.9,0.5-1.3c0.4-0.4,0.8-0.5,1.3-0.5c0.5,0,0.9,0.2,1.3,0.5
			c0.4,0.4,0.5,0.8,0.5,1.3s-0.2,0.9-0.5,1.3c-0.4,0.4-0.8,0.5-1.3,0.5c-0.5,0-0.9-0.2-1.3-0.5C150.6,59.9,150.4,59.5,150.4,59z"/>
		<path class="st1" d="M160.3,70.9V55.3h3.4V74h-6.4c-0.1,0-0.3,0-0.4,0s-0.2-0.1-0.3-0.2c-0.1-0.1-0.2-0.2-0.2-0.4
			c-0.1-0.2-0.1-0.5-0.1-0.8c0-0.6,0.1-1,0.2-1.2c0.2-0.2,0.4-0.3,0.8-0.3H160.3z"/>
		<path class="st1" d="M168.5,55.3V74h-3.4V55.3H168.5z"/>
	</g>
</g>
</svg>
